<svg width="46" height="34" viewBox="0 0 46 34" fill="none" xmlns="http://www.w3.org/2000/svg">
<path d="M13.4684 23.9139L13.4683 23.9139L12.943 27.4593L17.3962 25.3025L17.4063 25.2976L17.4063 25.2977C17.8131 25.1044 18.265 25.0611 18.6998 25.1719L18.7016 25.1724C23.0724 26.2921 28.0678 25.6441 31.7807 23.2413C35.2847 20.9726 37.1871 17.3907 36.2661 13.7891C35.1755 9.53216 30.8814 6.59304 25.9976 5.75662L25.9973 5.75656C21.3099 4.95264 16.2906 6.03661 12.8127 8.98547L13.4684 23.9139ZM13.4684 23.9139L13.4693 23.9074M13.4684 23.9139L13.4693 23.9074M11.1216 29.9377L11.1216 29.9376L11.1216 29.9377ZM11.1216 29.9377L11.1216 29.9377L11.1216 29.9377ZM11.1216 29.9377L11.1197 29.9385L11.1216 29.9377ZM11.1216 29.9377L11.1209 29.9387L11.1216 29.9377ZM13.4693 23.9074C13.5629 23.2563 13.3171 22.6419 12.8353 22.2296L12.8353 22.2296M13.4693 23.9074L12.8353 22.2296M12.8353 22.2296L12.829 22.2243M12.8353 22.2296L12.829 22.2243M12.829 22.2243C10.5545 20.2998 9.49869 17.9077 9.5 15.5953M12.829 22.2243L9.5 15.5953M9.5 15.5953C9.50132 13.2818 10.5608 10.8959 12.8125 8.98569L9.5 15.5953Z" stroke="#777777" stroke-width="2"/>
</svg>
