<svg width="46" height="34" viewBox="0 0 46 34" fill="none" xmlns="http://www.w3.org/2000/svg">
<path d="M19.0299 25.2351L19.4178 23.7861C19.0637 23.6913 18.687 23.7295 18.359 23.8934L19.0299 25.2351ZM13 28.25L11.5151 28.0379C11.4362 28.5902 11.6703 29.1406 12.1229 29.4669C12.5755 29.7931 13.1718 29.8411 13.6708 29.5916L13 28.25ZM13.8165 22.5342L15.3015 22.7464C15.3736 22.2413 15.1841 21.7342 14.7984 21.4003L13.8165 22.5342ZM23 27.25C30.4023 27.25 37 22.3963 37 15.75H34C34 20.1494 29.4048 24.25 23 24.25V27.25ZM18.6419 26.684C20.0165 27.0521 21.482 27.25 23 27.25V24.25C21.7424 24.25 20.5379 24.086 19.4178 23.7861L18.6419 26.684ZM13.6708 29.5916L19.7007 26.5767L18.359 23.8934L12.3292 26.9084L13.6708 29.5916ZM12.3316 22.3221L11.5151 28.0379L14.4849 28.4621L15.3015 22.7464L12.3316 22.3221ZM9 15.75C9 18.8761 10.506 21.6518 12.8346 23.6682L14.7984 21.4003C13.0097 19.8514 12 17.8606 12 15.75H9ZM23 4.25C15.5977 4.25 9 9.10368 9 15.75H12C12 11.3506 16.5952 7.25 23 7.25V4.25ZM37 15.75C37 9.10368 30.4023 4.25 23 4.25V7.25C29.4048 7.25 34 11.3506 34 15.75H37Z" fill="#777777"/>
</svg>
