<svg width="202" height="135" viewBox="0 0 202 135" fill="none" xmlns="http://www.w3.org/2000/svg">
<path d="M1.744 111V99.8H3.328V109.608H9.568V99.8H11.152V111H1.744ZM11.392 113.544V110.584L11.776 111H9.568V109.608H12.88V113.544H11.392ZM16.4656 104.632H22.2256V105.992H16.4656V104.632ZM16.6096 109.608H23.1376V111H15.0096V99.8H22.9136V101.192H16.6096V109.608ZM33.6823 99.8H35.2823V111H33.6823V99.8ZM27.2503 111H25.6503V99.8H27.2503V111ZM33.8263 106.008H27.0903V104.616H33.8263V106.008ZM41.0633 111V100.776L41.4633 101.192H37.2393V99.8H46.4713V101.192H42.2473L42.6313 100.776V111H41.0633ZM48.4159 111V99.8H52.7839C53.7652 99.8 54.6025 99.9547 55.2959 100.264C55.9892 100.573 56.5225 101.021 56.8959 101.608C57.2692 102.195 57.4559 102.893 57.4559 103.704C57.4559 104.515 57.2692 105.213 56.8959 105.8C56.5225 106.376 55.9892 106.824 55.2959 107.144C54.6025 107.453 53.7652 107.608 52.7839 107.608H49.2959L50.0159 106.856V111H48.4159ZM50.0159 107.016L49.2959 106.216H52.7359C53.7599 106.216 54.5332 105.997 55.0559 105.56C55.5892 105.123 55.8559 104.504 55.8559 103.704C55.8559 102.904 55.5892 102.285 55.0559 101.848C54.5332 101.411 53.7599 101.192 52.7359 101.192H49.2959L50.0159 100.392V107.016ZM64.1346 111V99.8H65.4466L70.4706 108.264H69.7666L74.7266 99.8H76.0386L76.0546 111H74.5186L74.5026 102.216H74.8706L70.4546 109.64H69.7186L65.2706 102.216H65.6706V111H64.1346ZM80.9969 104.632H86.7569V105.992H80.9969V104.632ZM81.1409 109.608H87.6689V111H79.5409V99.8H87.4449V101.192H81.1409V109.608ZM92.4695 111V100.776L92.8695 101.192H88.6455V99.8H97.8775V101.192H93.6535L94.0375 100.776V111H92.4695ZM97.7076 111L102.78 99.8H104.364L109.452 111H107.772L103.244 100.696H103.884L99.3556 111H97.7076ZM99.8676 108.2L100.3 106.92H106.604L107.068 108.2H99.8676ZM110.857 111.128C110.697 111.128 110.537 111.117 110.377 111.096C110.217 111.075 110.041 111.043 109.849 111L109.961 109.576C110.131 109.619 110.302 109.64 110.473 109.64C110.942 109.64 111.315 109.453 111.593 109.08C111.87 108.707 112.073 108.141 112.201 107.384C112.339 106.627 112.43 105.672 112.473 104.52L112.649 99.8H120.537V111H118.969V100.776L119.353 101.192H113.673L114.025 100.76L113.897 104.472C113.865 105.581 113.79 106.552 113.673 107.384C113.555 108.216 113.379 108.909 113.145 109.464C112.91 110.019 112.606 110.435 112.233 110.712C111.87 110.989 111.411 111.128 110.857 111.128ZM123.357 111.128C123.197 111.128 123.037 111.117 122.877 111.096C122.717 111.075 122.541 111.043 122.349 111L122.461 109.576C122.631 109.619 122.802 109.64 122.973 109.64C123.442 109.64 123.815 109.453 124.093 109.08C124.37 108.707 124.573 108.141 124.701 107.384C124.839 106.627 124.93 105.672 124.973 104.52L125.149 99.8H133.037V111H131.469V100.776L131.853 101.192H126.173L126.525 100.76L126.397 104.472C126.365 105.581 126.29 106.552 126.173 107.384C126.055 108.216 125.879 108.909 125.645 109.464C125.41 110.019 125.106 110.435 124.733 110.712C124.37 110.989 123.911 111.128 123.357 111.128ZM134.973 111L140.045 99.8H141.629L146.717 111H145.037L140.509 100.696H141.149L136.621 111H134.973ZM137.133 108.2L137.565 106.92H143.869L144.333 108.2H137.133ZM152.947 111V99.8H154.531V108.44L161.155 99.8H162.627V111H161.059V102.376L154.419 111H152.947ZM1.744 131V119.8H3.056L8.08 128.264H7.376L12.336 119.8H13.648L13.664 131H12.128L12.112 122.216H12.48L8.064 129.64H7.328L2.88 122.216H3.28V131H1.744ZM18.6063 124.632H24.3663V125.992H18.6063V124.632ZM18.7503 129.608H25.2783V131H17.1503V119.8H25.0543V121.192H18.7503V129.608ZM30.0789 131V120.776L30.4789 121.192H26.2549V119.8H35.4869V121.192H31.2629L31.6469 120.776V131H30.0789ZM35.317 131L40.389 119.8H41.973L47.061 131H45.381L40.853 120.696H41.493L36.965 131H35.317ZM37.477 128.2L37.909 126.92H44.213L44.677 128.2H37.477ZM48.466 131.128C48.306 131.128 48.146 131.117 47.986 131.096C47.826 131.075 47.65 131.043 47.458 131L47.57 129.576C47.7407 129.619 47.9113 129.64 48.082 129.64C48.5513 129.64 48.9247 129.453 49.202 129.08C49.4793 128.707 49.682 128.141 49.81 127.384C49.9487 126.627 50.0393 125.672 50.082 124.52L50.258 119.8H58.146V131H56.578V120.776L56.962 121.192H51.282L51.634 120.76L51.506 124.472C51.474 125.581 51.3993 126.552 51.282 127.384C51.1647 128.216 50.9887 128.909 50.754 129.464C50.5193 130.019 50.2153 130.435 49.842 130.712C49.4793 130.989 49.0207 131.128 48.466 131.128ZM60.966 131.128C60.806 131.128 60.646 131.117 60.486 131.096C60.326 131.075 60.15 131.043 59.958 131L60.07 129.576C60.2407 129.619 60.4113 129.64 60.582 129.64C61.0513 129.64 61.4247 129.453 61.702 129.08C61.9793 128.707 62.182 128.141 62.31 127.384C62.4487 126.627 62.5393 125.672 62.582 124.52L62.758 119.8H70.646V131H69.078V120.776L69.462 121.192H63.782L64.134 120.76L64.006 124.472C63.974 125.581 63.8993 126.552 63.782 127.384C63.6647 128.216 63.4887 128.909 63.254 129.464C63.0193 130.019 62.7153 130.435 62.342 130.712C61.9793 130.989 61.5207 131.128 60.966 131.128ZM79.1746 131.128C78.3213 131.128 77.5266 130.984 76.7906 130.696C76.0653 130.408 75.436 130.008 74.9026 129.496C74.3693 128.973 73.9533 128.365 73.6546 127.672C73.356 126.979 73.2066 126.221 73.2066 125.4C73.2066 124.579 73.356 123.821 73.6546 123.128C73.9533 122.435 74.3693 121.832 74.9026 121.32C75.436 120.797 76.0653 120.392 76.7906 120.104C77.516 119.816 78.3106 119.672 79.1746 119.672C80.028 119.672 80.812 119.816 81.5266 120.104C82.252 120.381 82.8813 120.781 83.4146 121.304C83.9586 121.816 84.3746 122.419 84.6626 123.112C84.9613 123.805 85.1106 124.568 85.1106 125.4C85.1106 126.232 84.9613 126.995 84.6626 127.688C84.3746 128.381 83.9586 128.989 83.4146 129.512C82.8813 130.024 82.252 130.424 81.5266 130.712C80.812 130.989 80.028 131.128 79.1746 131.128ZM79.1746 129.704C79.7933 129.704 80.364 129.597 80.8866 129.384C81.42 129.171 81.8786 128.872 82.2626 128.488C82.6573 128.093 82.9613 127.635 83.1746 127.112C83.3986 126.589 83.5106 126.019 83.5106 125.4C83.5106 124.781 83.3986 124.211 83.1746 123.688C82.9613 123.165 82.6573 122.712 82.2626 122.328C81.8786 121.933 81.42 121.629 80.8866 121.416C80.364 121.203 79.7933 121.096 79.1746 121.096C78.5453 121.096 77.964 121.203 77.4306 121.416C76.908 121.629 76.4493 121.933 76.0546 122.328C75.66 122.712 75.3506 123.165 75.1266 123.688C74.9133 124.211 74.8066 124.781 74.8066 125.4C74.8066 126.019 74.9133 126.589 75.1266 127.112C75.3506 127.635 75.66 128.093 76.0546 128.488C76.4493 128.872 76.908 129.171 77.4306 129.384C77.964 129.597 78.5453 129.704 79.1746 129.704ZM92.7371 131.128C91.8838 131.128 91.0891 130.984 90.3531 130.696C89.6278 130.408 88.9985 130.008 88.4651 129.496C87.9318 128.973 87.5158 128.365 87.2171 127.672C86.9185 126.979 86.7691 126.221 86.7691 125.4C86.7691 124.579 86.9185 123.821 87.2171 123.128C87.5158 122.435 87.9318 121.832 88.4651 121.32C88.9985 120.797 89.6278 120.392 90.3531 120.104C91.0785 119.816 91.8731 119.672 92.7371 119.672C93.5905 119.672 94.3745 119.816 95.0891 120.104C95.8145 120.381 96.4438 120.781 96.9771 121.304C97.5211 121.816 97.9371 122.419 98.2251 123.112C98.5238 123.805 98.6731 124.568 98.6731 125.4C98.6731 126.232 98.5238 126.995 98.2251 127.688C97.9371 128.381 97.5211 128.989 96.9771 129.512C96.4438 130.024 95.8145 130.424 95.0891 130.712C94.3745 130.989 93.5905 131.128 92.7371 131.128ZM92.7371 129.704C93.3558 129.704 93.9265 129.597 94.4491 129.384C94.9825 129.171 95.4411 128.872 95.8251 128.488C96.2198 128.093 96.5238 127.635 96.7371 127.112C96.9611 126.589 97.0731 126.019 97.0731 125.4C97.0731 124.781 96.9611 124.211 96.7371 123.688C96.5238 123.165 96.2198 122.712 95.8251 122.328C95.4411 121.933 94.9825 121.629 94.4491 121.416C93.9265 121.203 93.3558 121.096 92.7371 121.096C92.1078 121.096 91.5265 121.203 90.9931 121.416C90.4705 121.629 90.0118 121.933 89.6171 122.328C89.2225 122.712 88.9131 123.165 88.6891 123.688C88.4758 124.211 88.3691 124.781 88.3691 125.4C88.3691 126.019 88.4758 126.589 88.6891 127.112C88.9131 127.635 89.2225 128.093 89.6171 128.488C90.0118 128.872 90.4705 129.171 90.9931 129.384C91.5265 129.597 92.1078 129.704 92.7371 129.704ZM101.26 131V119.8H109.708V121.16H102.844V124.36H106.332C107.665 124.36 108.678 124.637 109.372 125.192C110.065 125.747 110.412 126.552 110.412 127.608C110.412 128.696 110.033 129.533 109.276 130.12C108.529 130.707 107.457 131 106.06 131H101.26ZM102.844 129.736H105.996C106.924 129.736 107.622 129.56 108.092 129.208C108.572 128.856 108.812 128.333 108.812 127.64C108.812 126.296 107.873 125.624 105.996 125.624H102.844V129.736ZM112.963 131V119.8H117.331C118.312 119.8 119.149 119.955 119.843 120.264C120.536 120.573 121.069 121.021 121.443 121.608C121.816 122.195 122.003 122.893 122.003 123.704C122.003 124.515 121.816 125.213 121.443 125.8C121.069 126.376 120.536 126.824 119.843 127.144C119.149 127.453 118.312 127.608 117.331 127.608H113.843L114.563 126.856V131H112.963ZM114.563 127.016L113.843 126.216H117.283C118.307 126.216 119.08 125.997 119.603 125.56C120.136 125.123 120.403 124.504 120.403 123.704C120.403 122.904 120.136 122.285 119.603 121.848C119.08 121.411 118.307 121.192 117.283 121.192H113.843L114.563 120.392V127.016ZM122.114 131L127.186 119.8H128.77L133.858 131H132.178L127.65 120.696H128.29L123.762 131H122.114ZM124.274 128.2L124.706 126.92H131.01L131.474 128.2H124.274ZM135.791 131V119.8H144.239V121.16H137.375V124.36H140.863C142.196 124.36 143.21 124.637 143.903 125.192C144.596 125.747 144.943 126.552 144.943 127.608C144.943 128.696 144.564 129.533 143.807 130.12C143.06 130.707 141.988 131 140.591 131H135.791ZM137.375 129.736H140.527C141.455 129.736 142.154 129.56 142.623 129.208C143.103 128.856 143.343 128.333 143.343 127.64C143.343 126.296 142.404 125.624 140.527 125.624H137.375V129.736ZM152.534 131.128C151.681 131.128 150.886 130.984 150.15 130.696C149.425 130.408 148.795 130.008 148.262 129.496C147.729 128.973 147.313 128.365 147.014 127.672C146.715 126.979 146.566 126.221 146.566 125.4C146.566 124.579 146.715 123.821 147.014 123.128C147.313 122.435 147.729 121.832 148.262 121.32C148.795 120.797 149.425 120.392 150.15 120.104C150.875 119.816 151.67 119.672 152.534 119.672C153.387 119.672 154.171 119.816 154.886 120.104C155.611 120.381 156.241 120.781 156.774 121.304C157.318 121.816 157.734 122.419 158.022 123.112C158.321 123.805 158.47 124.568 158.47 125.4C158.47 126.232 158.321 126.995 158.022 127.688C157.734 128.381 157.318 128.989 156.774 129.512C156.241 130.024 155.611 130.424 154.886 130.712C154.171 130.989 153.387 131.128 152.534 131.128ZM152.534 129.704C153.153 129.704 153.723 129.597 154.246 129.384C154.779 129.171 155.238 128.872 155.622 128.488C156.017 128.093 156.321 127.635 156.534 127.112C156.758 126.589 156.87 126.019 156.87 125.4C156.87 124.781 156.758 124.211 156.534 123.688C156.321 123.165 156.017 122.712 155.622 122.328C155.238 121.933 154.779 121.629 154.246 121.416C153.723 121.203 153.153 121.096 152.534 121.096C151.905 121.096 151.323 121.203 150.79 121.416C150.267 121.629 149.809 121.933 149.414 122.328C149.019 122.712 148.71 123.165 148.486 123.688C148.273 124.211 148.166 124.781 148.166 125.4C148.166 126.019 148.273 126.589 148.486 127.112C148.71 127.635 149.019 128.093 149.414 128.488C149.809 128.872 150.267 129.171 150.79 129.384C151.323 129.597 151.905 129.704 152.534 129.704ZM163.188 131V120.776L163.588 121.192H159.364V119.8H168.596V121.192H164.372L164.756 120.776V131H163.188ZM178.077 131L174.013 125.48L175.309 124.68L179.901 131H178.077ZM170.541 131V119.8H172.109V131H170.541ZM171.629 126.072V124.664H175.261V126.072H171.629ZM175.453 125.576L173.981 125.352L177.997 119.8H179.709L175.453 125.576ZM181.541 131V119.8H183.125V128.44L189.749 119.8H191.221V131H189.653V122.376L183.013 131H181.541Z" fill="#003B81"/>
<path d="M0 0.569491H26.8156V6.69202H7.6414V13.5266H16.8487C20.8672 13.5266 23.9285 14.365 26.0326 16.0419C28.1368 17.7189 29.1888 20.1394 29.1888 23.3034C29.1888 26.6258 28.0181 29.2045 25.6766 31.0396C23.3352 32.8749 20.0287 33.7925 15.7573 33.7925H0V0.569491ZM15.3301 28.0971C17.2917 28.0971 18.7947 27.7095 19.839 26.9343C20.8831 26.1591 21.4051 25.0279 21.4051 23.5408C21.4051 20.6299 19.3801 19.1744 15.3301 19.1744H7.6414V28.0971H15.3301ZM48.98 18.3676H42.7152V6.83434H48.98C51.2898 6.83434 53.0459 7.33275 54.2482 8.32957C55.4506 9.32623 56.0517 10.758 56.0517 12.6247C56.0517 14.4598 55.4506 15.8758 54.2482 16.8726C53.0459 17.8693 51.2898 18.3676 48.98 18.3676ZM49.4072 0.569491H35.0265V33.7925H42.7152V24.6325H49.4072C52.3498 24.6325 54.9048 24.1499 57.0723 23.1847C59.2396 22.2198 60.9086 20.8276 62.0794 19.0083C63.2501 17.1889 63.8354 15.0611 63.8354 12.6247C63.8354 10.1567 63.2501 8.02091 62.0794 6.21734C60.9086 4.41391 59.2396 3.02175 57.0723 2.04084C54.9048 1.05994 52.3498 0.569491 49.4072 0.569491ZM85.2405 27.8123C83.2787 27.8123 81.5068 27.3614 79.9249 26.4596C78.3429 25.5578 77.101 24.3001 76.1992 22.6864C75.2974 21.0727 74.8465 19.2376 74.8465 17.1811C74.8465 15.1244 75.2974 13.2892 76.1992 11.6756C77.101 10.0619 78.3429 8.80418 79.9249 7.90239C81.5068 7.0006 83.2787 6.54971 85.2405 6.54971C87.2022 6.54971 88.9741 7.0006 90.5562 7.90239C92.1382 8.80418 93.3801 10.0619 94.2819 11.6756C95.1837 13.2892 95.6346 15.1244 95.6346 17.1811C95.6346 19.2376 95.1837 21.0727 94.2819 22.6864C93.3801 24.3001 92.1382 25.5578 90.5562 26.4596C88.9741 27.3614 87.2022 27.8123 85.2405 27.8123ZM85.2405 34.362C88.6893 34.362 91.7901 33.6184 94.5429 32.1313C97.2957 30.6442 99.4631 28.5955 101.045 25.9851C102.627 23.3746 103.418 20.44 103.418 17.1811C103.418 13.9221 102.627 10.9873 101.045 8.37685C99.4631 5.76652 97.2957 3.71779 94.5429 2.23068C91.7901 0.743559 88.6893 0 85.2405 0C81.7916 0 78.6829 0.743559 75.9143 2.23068C73.1458 3.71779 70.9784 5.76652 69.4121 8.37685C67.8459 10.9873 67.0628 13.9221 67.0628 17.1811C67.0628 20.44 67.8459 23.3746 69.4121 25.9851C70.9784 28.5955 73.1458 30.6442 75.9143 32.1313C78.6829 33.6184 81.7916 34.362 85.2405 34.362ZM130.851 33.7925H139.584L128.383 16.6114L139.251 0.569491H131.136L122.403 14.0011H116.897V0.569491H109.256V33.7925H116.897V20.4084H122.213L130.851 33.7925Z" fill="#003B81"/>
<path d="M0 38.1399H202V86.1679H0V38.1399Z" fill="#003B81"/>
<path d="M43.0363 79.9045C39.6507 79.9045 36.5895 79.1688 33.8526 77.6974C31.1156 76.2261 28.964 74.1852 27.3979 71.5749C25.8317 68.9646 25.0486 66.0141 25.0486 62.7234C25.0486 59.4327 25.8317 56.4822 27.3979 53.8718C28.964 51.2615 31.1156 49.2206 33.8526 47.7493C36.5895 46.2781 39.6666 45.5425 43.0838 45.5425C45.9632 45.5425 48.5656 46.0487 50.8912 47.0611C53.2167 48.0737 55.1706 49.5292 56.7527 51.4277L51.8167 55.9838C49.5701 53.3892 46.7857 52.092 43.4635 52.092C41.4068 52.092 39.5716 52.5429 37.958 53.4446C36.3443 54.3464 35.0866 55.6042 34.1848 57.2178C33.283 58.8315 32.8321 60.6667 32.8321 62.7234C32.8321 64.78 33.283 66.6152 34.1848 68.2289C35.0866 69.8426 36.3443 71.1003 37.958 72.0021C39.5716 72.9039 41.4068 73.3548 43.4635 73.3548C46.7857 73.3548 49.5701 72.0416 51.8167 69.4154L56.7527 73.9718C55.1706 75.9019 53.2089 77.3732 50.8675 78.3856C48.5261 79.3982 45.9157 79.9045 43.0363 79.9045ZM86.8432 46.112H58.034V52.3768H68.6179V79.3347H76.2118V52.3768H86.8432V46.112ZM99.5627 66.3779L104.831 53.6583L110.099 66.3779H99.5627ZM115.462 79.3347H123.531L108.675 46.112H101.081L86.2735 79.3347H94.152L97.0947 72.2155H112.52L115.462 79.3347ZM132.311 46.112L131.836 59.591C131.646 64.2105 131.188 67.6039 130.46 69.7714C129.732 71.9387 128.451 73.0224 126.615 73.0224C126.109 73.0224 125.65 72.9591 125.239 72.8326L124.765 79.3347C126.252 79.6829 127.517 79.8569 128.562 79.8569C131.093 79.8569 133.062 79.0738 134.47 77.5076C135.878 75.9414 136.883 73.6949 137.484 70.7681C138.085 67.8413 138.465 64.0206 138.623 59.3062L138.861 52.3768H150.251V79.3347H157.845V46.112H132.311ZM180.721 73.6394H173.792V62.7234H180.721C184.961 62.7234 187.081 64.4478 187.081 67.8967C187.081 69.7635 186.52 71.1874 185.396 72.1683C184.273 73.149 182.715 73.6394 180.721 73.6394ZM182.24 57.028H173.792V46.112H166.151V79.3347H181.149C185.483 79.3347 188.845 78.346 191.234 76.3684C193.623 74.391 194.817 71.5196 194.817 67.7542C194.817 64.2106 193.734 61.5369 191.566 59.7334C189.399 57.9298 186.29 57.028 182.24 57.028Z" fill="white"/>
</svg>
