<svg width="38" height="38" viewBox="0 0 38 38" fill="none" xmlns="http://www.w3.org/2000/svg">
<g clip-path="url(#clip0_150_225)">
<path fill-rule="evenodd" clip-rule="evenodd" d="M2.67119 2.67119C0 5.34238 0 9.64159 0 18.24V19.76C0 28.3584 0 32.6576 2.67119 35.3288C5.34238 38 9.64159 38 18.24 38H19.76C28.3584 38 32.6576 38 35.3288 35.3288C38 32.6576 38 28.3584 38 19.76V18.24C38 9.64159 38 5.34238 35.3288 2.67119C32.6576 0 28.3584 0 19.76 0H18.24C9.64159 0 5.34238 0 2.67119 2.67119ZM6.41258 11.5584C6.61838 21.4384 11.5583 27.3759 20.2192 27.3759H20.7101V21.7234C23.8926 22.04 26.2991 24.3676 27.2649 27.3759H31.7617C30.5267 22.8792 27.2807 20.3934 25.2541 19.4434C27.2807 18.2717 30.1308 15.4217 30.8116 11.5584H26.7265C25.8398 14.6934 23.2118 17.5434 20.7101 17.8125V11.5584H16.625V22.515C14.0917 21.8817 10.8934 18.8101 10.7509 11.5584H6.41258Z" fill="white"/>
</g>
<defs>
<clipPath id="clip0_150_225">
<rect width="38" height="38" fill="white"/>
</clipPath>
</defs>
</svg>
