<svg width="38" height="38" viewBox="0 0 38 38" fill="none" xmlns="http://www.w3.org/2000/svg">
<rect width="38" height="38" rx="8" fill="white"/>
<path d="M18.5038 8.57019C12.6496 8.84894 8.02978 13.7243 8.04754 19.5852C8.05294 21.3702 8.48389 23.0551 9.2441 24.5438L8.07691 30.2095C8.01377 30.5159 8.29018 30.7843 8.59463 30.7122L14.1463 29.3969C15.5727 30.1074 17.1747 30.5178 18.8702 30.5436C24.8538 30.635 29.843 25.8839 30.0295 19.9026C30.2294 13.491 24.9377 8.26378 18.5038 8.57019ZM25.1281 25.638C23.5023 27.2639 21.3405 28.1593 19.0413 28.1593C17.6949 28.1593 16.406 27.8572 15.21 27.2615L14.4369 26.8764L11.0331 27.6828L11.7496 24.2048L11.3687 23.4589C10.7479 22.243 10.4331 20.9283 10.4331 19.5511C10.4331 17.2518 11.3285 15.0901 12.9543 13.4642C14.5657 11.8529 16.7626 10.9429 19.0414 10.9429C21.3407 10.943 23.5023 11.8383 25.1282 13.4642C26.754 15.09 27.6494 17.2517 27.6495 19.551C27.6494 21.8298 26.7395 24.0268 25.1281 25.638Z" fill="#003B81"/>
<path d="M24.377 21.9349L22.2475 21.3234C21.9675 21.243 21.6661 21.3225 21.4621 21.5303L20.9413 22.0609C20.7217 22.2846 20.3886 22.3565 20.0979 22.2389C19.0906 21.8312 16.9715 19.9471 16.4304 19.0047C16.2743 18.7329 16.3001 18.393 16.4918 18.145L16.9464 17.5568C17.1245 17.3263 17.1621 17.0168 17.0443 16.7504L16.1484 14.7241C15.9338 14.2388 15.3136 14.0975 14.9084 14.4402C14.3141 14.9429 13.6089 15.7067 13.5232 16.553C13.372 18.045 14.0119 19.9258 16.4316 22.1841C19.227 24.7932 21.4655 25.1379 22.923 24.7848C23.7497 24.5846 24.4103 23.7818 24.8273 23.1246C25.1115 22.6765 24.8871 22.0813 24.377 21.9349Z" fill="#003B81"/>
</svg>
