<svg width="50" height="210" viewBox="0 0 50 210" fill="none" xmlns="http://www.w3.org/2000/svg">
<path d="M0 30C0 13.4315 13.4315 0 30 0H50V105H0V30Z" fill="#43D854"/>
<path d="M0 105H50V210H30C13.4315 210 0 196.569 0 180V105Z" fill="#0088CC"/>
<path fill-rule="evenodd" clip-rule="evenodd" d="M26.3951 60.2377L29.6174 57.0153C29.9601 56.6727 30.4991 56.625 30.8966 56.9022L35.5342 60.1367C36.0448 60.4928 36.1094 61.2239 35.6693 61.664L34.7897 62.5436C34.0795 63.2538 33.0615 63.5611 32.1015 63.2655C29.691 62.5234 24.9139 60.6637 20.9829 56.7327C17.0519 52.8018 15.1923 48.0247 14.4502 45.6142C14.1546 44.6542 14.4619 43.6362 15.1721 42.9259L16.0516 42.0464C16.4918 41.6062 17.2229 41.6709 17.579 42.1815L20.8134 46.8191C21.0907 47.2165 21.043 47.7556 20.7003 48.0982L17.478 51.3206" fill="white"/>
<path d="M26.3951 60.2377L29.6174 57.0153C29.9601 56.6727 30.4991 56.625 30.8966 56.9022L35.5342 60.1367C36.0448 60.4928 36.1094 61.2239 35.6693 61.664L34.7897 62.5436C34.0795 63.2538 33.0615 63.5611 32.1015 63.2655C29.691 62.5234 24.9139 60.6637 20.9829 56.7327C17.0519 52.8018 15.1923 48.0247 14.4502 45.6142C14.1546 44.6542 14.4619 43.6362 15.1721 42.9259L16.0516 42.0464C16.4918 41.6062 17.2229 41.6709 17.579 42.1815L20.8134 46.8191C21.0907 47.2165 21.043 47.7556 20.7003 48.0982L17.478 51.3206" stroke="white" stroke-linecap="round"/>
<g clip-path="url(#clip0_535_41)">
<path fill-rule="evenodd" clip-rule="evenodd" d="M34.8975 148.353C36.2121 147.799 37.6214 148.911 37.3892 150.318L34.6476 166.941C34.3833 168.544 32.623 169.463 31.1525 168.665C29.9221 167.996 28.0965 166.968 26.4513 165.892C25.6297 165.356 23.1141 163.634 23.4233 162.409C23.6877 161.361 27.9167 157.424 30.3334 155.083C31.2827 154.164 30.8503 153.632 29.7292 154.479C26.9481 156.58 22.4831 159.773 21.0066 160.672C19.7039 161.465 19.0237 161.6 18.2123 161.465C16.7308 161.218 15.3572 160.836 14.2357 160.371C12.72 159.742 12.7939 157.66 14.2347 157.053L34.8975 148.353Z" fill="white"/>
</g>
<defs>
<clipPath id="clip0_535_41">
<rect width="29" height="29" fill="white" transform="translate(11 143)"/>
</clipPath>
</defs>
</svg>
