<svg width="22" height="25" viewBox="0 0 22 25" fill="none" xmlns="http://www.w3.org/2000/svg">
<path d="M16.5704 0.00456063C16.589 0.00870664 16.6055 0.0120236 16.6191 0.02612C18.1021 1.55047 19.5849 3.07495 21.0676 4.59958C21.1398 4.67379 21.2822 4.7762 21.2764 4.88814C21.2742 4.93209 21.2731 4.95503 21.2731 4.95696C21.2731 11.6298 21.2731 18.3041 21.2731 24.9797C21.2731 24.9851 21.271 24.9902 21.2671 24.994C21.2632 24.9979 21.258 25 21.2525 25H0.0268207C0.00894006 25 0 24.9912 0 24.9735V0.010365C0 0.003455 0.00357653 1.41221e-10 0.0107288 1.41221e-10H16.5304C16.5438 -5.36677e-07 16.5572 0.00152936 16.5704 0.00456063ZM19.656 5.6481C19.656 5.52538 19.6503 5.45905 19.5508 5.35705C18.3468 4.12016 17.1424 2.88355 15.9378 1.64721C15.9286 1.63764 15.9175 1.63003 15.9052 1.62483C15.8929 1.61963 15.8798 1.61695 15.8664 1.61694H1.62081C1.61818 1.61694 1.61567 1.61799 1.61381 1.61986C1.61195 1.62172 1.61091 1.62425 1.61091 1.62689V23.3619C1.61091 23.3674 1.61304 23.3727 1.61683 23.3766C1.62062 23.3805 1.62576 23.3826 1.63113 23.3826L19.6527 23.3822C19.6557 23.3822 19.6585 23.381 19.6606 23.3789C19.6627 23.3769 19.6639 23.374 19.6639 23.371C19.663 17.4641 19.6604 11.5564 19.656 5.6481Z" fill="#003B81"/>
<path d="M7.55342 10.2111L7.55466 5.27732C7.55464 5.26768 7.55173 5.25826 7.54628 5.25027C7.54084 5.24229 7.53312 5.23611 7.52412 5.23254L6.92705 4.99912C6.92183 4.99718 6.91747 4.9934 6.91475 4.98847C6.91203 4.98353 6.91112 4.97776 6.91219 4.97217L7.07642 4.104C7.07752 4.09847 7.08096 4.09571 7.08674 4.09571C8.4938 4.0946 9.90073 4.09474 11.3075 4.09612C12.8908 4.09778 14.2694 4.56918 14.4493 6.34284C14.5153 6.99708 14.4901 7.70232 14.2463 8.3122C13.7957 9.43949 12.5504 9.72598 11.4618 9.73511C10.7898 9.74063 10.1175 9.74188 9.44491 9.73884C9.42758 9.73884 9.41892 9.74754 9.41892 9.76496L9.41809 10.2094C9.41809 10.2155 9.42048 10.2213 9.42474 10.2255C9.429 10.2298 9.43477 10.2322 9.44079 10.2322L12.3143 10.233C12.3303 10.233 12.3383 10.2409 12.3383 10.2567L12.3391 11.6186C12.3391 11.6241 12.3369 11.6294 12.3331 11.6333C12.3292 11.6372 12.3239 11.6394 12.3185 11.6394L9.43996 11.6398C9.42593 11.6398 9.41892 11.6467 9.41892 11.6605V12.658C9.41892 12.6871 9.40448 12.7016 9.37559 12.7016L7.58189 12.7036C7.5781 12.7036 7.57434 12.7029 7.57084 12.7014C7.56733 12.6999 7.56415 12.6978 7.56147 12.695C7.55878 12.6923 7.55666 12.689 7.5552 12.6855C7.55375 12.6819 7.55301 12.6781 7.55301 12.6742L7.55631 11.6568C7.55631 11.6523 7.55448 11.6479 7.55123 11.6448C7.54798 11.6416 7.54357 11.6398 7.53898 11.6398H6.85112C6.84554 11.6398 6.84019 11.6376 6.83624 11.6336C6.8323 11.6296 6.83008 11.6242 6.83008 11.6186L6.83049 10.2625C6.83049 10.2548 6.83358 10.2474 6.83907 10.242C6.84457 10.2365 6.85202 10.2335 6.85979 10.2335L7.5299 10.2347C7.54558 10.2347 7.55342 10.2268 7.55342 10.2111ZM11.9591 5.6969C11.692 5.60817 11.4093 5.56491 11.1111 5.56712C10.5502 5.57155 9.99068 5.57348 9.43253 5.57293C9.4287 5.57293 9.42503 5.57446 9.42232 5.57718C9.41961 5.5799 9.41809 5.58359 9.41809 5.58744L9.41892 8.22928C9.41892 8.24392 9.42607 8.25125 9.44037 8.25125C10.0043 8.25512 10.5682 8.2547 11.1322 8.25001C11.8856 8.24379 12.5202 8.08873 12.6292 7.22387C12.7039 6.63223 12.6143 5.91415 11.9591 5.6969Z" fill="#003B81"/>
<path d="M16.7089 14.7264H4.56608C4.55331 14.7264 4.54297 14.7368 4.54297 14.7496V16.3209C4.54297 16.3338 4.55331 16.3442 4.56608 16.3442H16.7089C16.7217 16.3442 16.7321 16.3338 16.7321 16.3209V14.7496C16.7321 14.7368 16.7217 14.7264 16.7089 14.7264Z" fill="#003B81"/>
<path d="M16.7055 17.132H4.56758C4.55345 17.132 4.54199 17.1435 4.54199 17.1577V18.7232C4.54199 18.7374 4.55345 18.7489 4.56758 18.7489H16.7055C16.7196 18.7489 16.7311 18.7374 16.7311 18.7232V17.1577C16.7311 17.1435 16.7196 17.132 16.7055 17.132Z" fill="#003B81"/>
<path d="M16.7125 19.5474H4.56139C4.55068 19.5474 4.54199 19.5561 4.54199 19.5669V21.1449C4.54199 21.1556 4.55068 21.1644 4.56139 21.1644H16.7125C16.7232 21.1644 16.7319 21.1556 16.7319 21.1449V19.5669C16.7319 19.5561 16.7232 19.5474 16.7125 19.5474Z" fill="#003B81"/>
</svg>
