<svg width="119" height="81" viewBox="0 0 119 81" fill="none" xmlns="http://www.w3.org/2000/svg">
<mask id="path-1-outside-1_632_73" maskUnits="userSpaceOnUse" x="2.76953" y="6.36127" width="109" height="66" fill="black">
<rect fill="white" x="2.76953" y="6.36127" width="109" height="66"/>
<path d="M25.9641 52.0458C24.1149 52.7077 22.3013 53.3462 20.5234 53.9614C19.6466 54.2651 18.7368 54.4273 17.794 54.448C16.0239 54.4889 14.0839 53.7638 12.5297 52.7986C8.96132 50.5826 6.53188 46.931 5.06498 43.1325C4.09474 40.6176 3.6695 37.9601 3.78927 35.1599C3.94585 31.51 5.35176 27.7915 8.63663 25.9706C9.22339 25.6462 10.0013 25.3621 10.9705 25.1182C18.8038 23.1542 34.5254 19.1107 58.1354 12.9878C66.7225 10.7614 73.6196 8.99386 78.8269 7.68523C80.0212 7.38474 81.3958 7.29329 82.9506 7.41087C85.624 7.61174 88.2743 8.99658 89.9209 11.0951C90.5175 11.855 91.0587 12.7396 91.5444 13.7488C92.6333 16.0111 92.9651 18.5032 92.5399 21.225C92.4421 21.8521 92.2635 22.4655 92.0042 23.0654C91.9989 23.0778 91.9973 23.0915 91.9996 23.1047C92.0019 23.118 92.008 23.1303 92.0172 23.14C92.0263 23.1498 92.0381 23.1566 92.051 23.1596C92.064 23.1626 92.0775 23.1616 92.0899 23.1569C93.0206 22.8172 93.9013 22.6517 94.732 22.6604C97.4845 22.6866 100.211 24.22 101.996 26.2385C104.211 28.7436 104.906 32.1387 104.043 35.3477C104.04 35.3563 104.04 35.3653 104.043 35.3739C104.045 35.3825 104.05 35.3904 104.056 35.3967C104.062 35.403 104.07 35.4075 104.079 35.4098C104.087 35.4121 104.097 35.4121 104.105 35.4098C106.367 34.7712 108.786 35.9519 109.912 37.8185C110.166 38.2377 110.385 38.7401 110.57 39.3258C111.199 41.3296 110.866 43.2958 109.193 44.6333C108.935 44.8402 108.586 45.0443 108.147 45.2457C107.774 45.4166 107.406 45.5854 107.041 45.752C87.8601 54.4997 69.2635 62.9868 51.2508 71.2131C50.3861 71.6083 49.7405 71.8304 49.3142 71.8794C47.3265 72.1063 45.4706 70.8211 44.2575 69.273C42.8291 67.4494 42.1198 65.3471 42.1297 62.9661C42.1297 62.9051 42.1011 62.885 42.044 62.9057C40.8661 63.3237 39.6453 63.7587 38.3817 64.2105C37.3812 64.5681 36.5654 64.7135 35.4841 64.5518C33.1997 64.2121 31.5351 62.971 29.9577 61.2595C27.7327 58.8475 26.302 55.3789 26.0878 52.1274C26.0834 52.0447 26.0422 52.0175 25.9641 52.0458ZM26.1389 45.3192C25.8867 47.7982 25.0626 50.1253 23.4177 52.0474C23.3419 52.1356 23.3594 52.1606 23.4704 52.1225L25.9576 51.2684C26.018 51.2467 26.0477 51.2037 26.0466 51.1394C25.9938 48.6441 26.8064 45.8173 28.8749 44.243C29.2968 43.9218 29.8506 43.6491 30.5363 43.4248C50.5806 36.8479 70.7496 30.2199 91.0433 23.5406C91.0827 23.5269 91.116 23.4998 91.1373 23.4639C91.5526 22.753 91.8279 21.9843 91.963 21.158C92.4487 18.1913 91.9048 15.3993 90.3313 12.782C88.9864 10.5447 87.1041 9.09837 84.6845 8.44297C82.8369 7.94162 80.4981 7.99551 78.6505 8.474C57.1294 14.0569 35.6259 19.6567 14.14 25.2733C13.8378 25.3528 13.8422 25.4116 14.1532 25.4497C14.3147 25.4693 14.4773 25.5058 14.641 25.5591C16.1881 26.0643 17.5655 26.7986 18.7731 27.7621C23.8413 31.8056 26.7866 38.9519 26.1389 45.3192ZM102.375 28.2047C100.736 25.1998 96.3934 22.6539 92.9157 23.797C73.134 30.2999 53.3622 36.7995 33.6003 43.2958C33.4728 43.3372 33.4733 43.3753 33.6019 43.4101C37.5378 44.4765 40.1584 48.2146 41.5034 51.8498C42.7148 55.1208 42.8813 59.535 40.7254 62.4566C40.6628 62.5404 40.6815 62.5649 40.7815 62.5301L42.2434 62.0173C42.306 61.9955 42.3423 61.952 42.3522 61.8866C42.6181 60.0892 43.5883 58.8981 45.2629 58.3135C45.4695 58.2405 45.6739 58.1649 45.876 58.0865C64.8314 50.7323 83.861 43.3214 102.965 35.854C103.012 35.8344 103.043 35.8006 103.059 35.7527C103.87 33.1463 103.698 30.6265 102.375 28.2047ZM20.2617 53.2341C22.6385 52.3206 24.3656 50.0335 25.0629 46.8758C25.7603 43.718 25.3708 39.9484 23.9802 36.3961C22.5896 32.8439 20.3118 29.8 17.6478 27.934C14.9839 26.0681 12.152 25.533 9.77519 26.4464C7.39838 27.3599 5.67133 29.647 4.97398 32.8048C4.27662 35.9625 4.66608 39.7321 6.05668 43.2844C7.44728 46.8366 9.72511 49.8806 12.3891 51.7465C15.053 53.6124 17.8849 54.1475 20.2617 53.2341ZM47.572 58.2955C47.561 58.3 47.5515 58.3076 47.5448 58.3174C47.5381 58.3272 47.5345 58.3387 47.5343 58.3505C47.5341 58.3623 47.5374 58.3739 47.5438 58.3839C47.5503 58.3939 47.5595 58.4018 47.5704 58.4066C51.9052 60.2748 54.0478 65.3455 52.3057 69.7368C52.276 69.8108 52.2974 69.8309 52.3699 69.7972C69.1508 62.2361 87.1316 54.0604 106.312 45.2702C107.344 44.7966 108.346 44.4733 109.19 43.6126C110.106 42.6785 110.363 41.1777 110.106 39.9921C109.726 38.2317 108.776 36.8942 107.008 36.1969C106.395 35.9563 105.822 35.8632 105.29 35.9176C104.759 35.9721 104.272 36.0858 103.83 36.259C85.1933 43.5588 66.4406 50.9043 47.572 58.2955ZM38.0026 63.5128C38.823 63.1943 39.5374 62.6311 40.105 61.8556C40.6726 61.0801 41.0823 60.1073 41.3107 58.9928C41.5391 57.8784 41.5817 56.644 41.4361 55.3603C41.2906 54.0766 40.9596 52.7686 40.4623 51.5111C39.4577 48.9714 37.8362 46.7913 35.9543 45.4504C34.0724 44.1095 32.0844 43.7176 30.4275 44.3609C29.6071 44.6795 28.8927 45.2426 28.3251 46.0182C27.7575 46.7937 27.3478 47.7665 27.1194 48.8809C26.891 49.9954 26.8484 51.2297 26.9939 52.5134C27.1395 53.7971 27.4704 55.1051 27.9678 56.3626C28.9723 58.9023 30.5939 61.0825 32.4758 62.4234C34.3577 63.7643 36.3457 64.1562 38.0026 63.5128ZM49.9621 70.935C50.9818 70.5267 51.7085 69.519 51.9823 68.1334C52.256 66.7478 52.0545 65.0979 51.4219 63.5466C50.7893 61.9953 49.7776 60.6697 48.6092 59.8615C47.4409 59.0532 46.2116 58.8284 45.1919 59.2366C44.1721 59.6449 43.4455 60.6526 43.1717 62.0382C42.8979 63.4238 43.0995 65.0737 43.7321 66.625C44.3647 68.1763 45.3764 69.5019 46.5448 70.3102C47.7131 71.1184 48.9424 71.3432 49.9621 70.935Z"/>
</mask>
<path d="M25.9641 52.0458C24.1149 52.7077 22.3013 53.3462 20.5234 53.9614C19.6466 54.2651 18.7368 54.4273 17.794 54.448C16.0239 54.4889 14.0839 53.7638 12.5297 52.7986C8.96132 50.5826 6.53188 46.931 5.06498 43.1325C4.09474 40.6176 3.6695 37.9601 3.78927 35.1599C3.94585 31.51 5.35176 27.7915 8.63663 25.9706C9.22339 25.6462 10.0013 25.3621 10.9705 25.1182C18.8038 23.1542 34.5254 19.1107 58.1354 12.9878C66.7225 10.7614 73.6196 8.99386 78.8269 7.68523C80.0212 7.38474 81.3958 7.29329 82.9506 7.41087C85.624 7.61174 88.2743 8.99658 89.9209 11.0951C90.5175 11.855 91.0587 12.7396 91.5444 13.7488C92.6333 16.0111 92.9651 18.5032 92.5399 21.225C92.4421 21.8521 92.2635 22.4655 92.0042 23.0654C91.9989 23.0778 91.9973 23.0915 91.9996 23.1047C92.0019 23.118 92.008 23.1303 92.0172 23.14C92.0263 23.1498 92.0381 23.1566 92.051 23.1596C92.064 23.1626 92.0775 23.1616 92.0899 23.1569C93.0206 22.8172 93.9013 22.6517 94.732 22.6604C97.4845 22.6866 100.211 24.22 101.996 26.2385C104.211 28.7436 104.906 32.1387 104.043 35.3477C104.04 35.3563 104.04 35.3653 104.043 35.3739C104.045 35.3825 104.05 35.3904 104.056 35.3967C104.062 35.403 104.07 35.4075 104.079 35.4098C104.087 35.4121 104.097 35.4121 104.105 35.4098C106.367 34.7712 108.786 35.9519 109.912 37.8185C110.166 38.2377 110.385 38.7401 110.57 39.3258C111.199 41.3296 110.866 43.2958 109.193 44.6333C108.935 44.8402 108.586 45.0443 108.147 45.2457C107.774 45.4166 107.406 45.5854 107.041 45.752C87.8601 54.4997 69.2635 62.9868 51.2508 71.2131C50.3861 71.6083 49.7405 71.8304 49.3142 71.8794C47.3265 72.1063 45.4706 70.8211 44.2575 69.273C42.8291 67.4494 42.1198 65.3471 42.1297 62.9661C42.1297 62.9051 42.1011 62.885 42.044 62.9057C40.8661 63.3237 39.6453 63.7587 38.3817 64.2105C37.3812 64.5681 36.5654 64.7135 35.4841 64.5518C33.1997 64.2121 31.5351 62.971 29.9577 61.2595C27.7327 58.8475 26.302 55.3789 26.0878 52.1274C26.0834 52.0447 26.0422 52.0175 25.9641 52.0458ZM26.1389 45.3192C25.8867 47.7982 25.0626 50.1253 23.4177 52.0474C23.3419 52.1356 23.3594 52.1606 23.4704 52.1225L25.9576 51.2684C26.018 51.2467 26.0477 51.2037 26.0466 51.1394C25.9938 48.6441 26.8064 45.8173 28.8749 44.243C29.2968 43.9218 29.8506 43.6491 30.5363 43.4248C50.5806 36.8479 70.7496 30.2199 91.0433 23.5406C91.0827 23.5269 91.116 23.4998 91.1373 23.4639C91.5526 22.753 91.8279 21.9843 91.963 21.158C92.4487 18.1913 91.9048 15.3993 90.3313 12.782C88.9864 10.5447 87.1041 9.09837 84.6845 8.44297C82.8369 7.94162 80.4981 7.99551 78.6505 8.474C57.1294 14.0569 35.6259 19.6567 14.14 25.2733C13.8378 25.3528 13.8422 25.4116 14.1532 25.4497C14.3147 25.4693 14.4773 25.5058 14.641 25.5591C16.1881 26.0643 17.5655 26.7986 18.7731 27.7621C23.8413 31.8056 26.7866 38.9519 26.1389 45.3192ZM102.375 28.2047C100.736 25.1998 96.3934 22.6539 92.9157 23.797C73.134 30.2999 53.3622 36.7995 33.6003 43.2958C33.4728 43.3372 33.4733 43.3753 33.6019 43.4101C37.5378 44.4765 40.1584 48.2146 41.5034 51.8498C42.7148 55.1208 42.8813 59.535 40.7254 62.4566C40.6628 62.5404 40.6815 62.5649 40.7815 62.5301L42.2434 62.0173C42.306 61.9955 42.3423 61.952 42.3522 61.8866C42.6181 60.0892 43.5883 58.8981 45.2629 58.3135C45.4695 58.2405 45.6739 58.1649 45.876 58.0865C64.8314 50.7323 83.861 43.3214 102.965 35.854C103.012 35.8344 103.043 35.8006 103.059 35.7527C103.87 33.1463 103.698 30.6265 102.375 28.2047ZM20.2617 53.2341C22.6385 52.3206 24.3656 50.0335 25.0629 46.8758C25.7603 43.718 25.3708 39.9484 23.9802 36.3961C22.5896 32.8439 20.3118 29.8 17.6478 27.934C14.9839 26.0681 12.152 25.533 9.77519 26.4464C7.39838 27.3599 5.67133 29.647 4.97398 32.8048C4.27662 35.9625 4.66608 39.7321 6.05668 43.2844C7.44728 46.8366 9.72511 49.8806 12.3891 51.7465C15.053 53.6124 17.8849 54.1475 20.2617 53.2341ZM47.572 58.2955C47.561 58.3 47.5515 58.3076 47.5448 58.3174C47.5381 58.3272 47.5345 58.3387 47.5343 58.3505C47.5341 58.3623 47.5374 58.3739 47.5438 58.3839C47.5503 58.3939 47.5595 58.4018 47.5704 58.4066C51.9052 60.2748 54.0478 65.3455 52.3057 69.7368C52.276 69.8108 52.2974 69.8309 52.3699 69.7972C69.1508 62.2361 87.1316 54.0604 106.312 45.2702C107.344 44.7966 108.346 44.4733 109.19 43.6126C110.106 42.6785 110.363 41.1777 110.106 39.9921C109.726 38.2317 108.776 36.8942 107.008 36.1969C106.395 35.9563 105.822 35.8632 105.29 35.9176C104.759 35.9721 104.272 36.0858 103.83 36.259C85.1933 43.5588 66.4406 50.9043 47.572 58.2955ZM38.0026 63.5128C38.823 63.1943 39.5374 62.6311 40.105 61.8556C40.6726 61.0801 41.0823 60.1073 41.3107 58.9928C41.5391 57.8784 41.5817 56.644 41.4361 55.3603C41.2906 54.0766 40.9596 52.7686 40.4623 51.5111C39.4577 48.9714 37.8362 46.7913 35.9543 45.4504C34.0724 44.1095 32.0844 43.7176 30.4275 44.3609C29.6071 44.6795 28.8927 45.2426 28.3251 46.0182C27.7575 46.7937 27.3478 47.7665 27.1194 48.8809C26.891 49.9954 26.8484 51.2297 26.9939 52.5134C27.1395 53.7971 27.4704 55.1051 27.9678 56.3626C28.9723 58.9023 30.5939 61.0825 32.4758 62.4234C34.3577 63.7643 36.3457 64.1562 38.0026 63.5128ZM49.9621 70.935C50.9818 70.5267 51.7085 69.519 51.9823 68.1334C52.256 66.7478 52.0545 65.0979 51.4219 63.5466C50.7893 61.9953 49.7776 60.6697 48.6092 59.8615C47.4409 59.0532 46.2116 58.8284 45.1919 59.2366C44.1721 59.6449 43.4455 60.6526 43.1717 62.0382C42.8979 63.4238 43.0995 65.0737 43.7321 66.625C44.3647 68.1763 45.3764 69.5019 46.5448 70.3102C47.7131 71.1184 48.9424 71.3432 49.9621 70.935Z" fill="#003B81"/>
<path d="M25.9641 52.0458C24.1149 52.7077 22.3013 53.3462 20.5234 53.9614C19.6466 54.2651 18.7368 54.4273 17.794 54.448C16.0239 54.4889 14.0839 53.7638 12.5297 52.7986C8.96132 50.5826 6.53188 46.931 5.06498 43.1325C4.09474 40.6176 3.6695 37.9601 3.78927 35.1599C3.94585 31.51 5.35176 27.7915 8.63663 25.9706C9.22339 25.6462 10.0013 25.3621 10.9705 25.1182C18.8038 23.1542 34.5254 19.1107 58.1354 12.9878C66.7225 10.7614 73.6196 8.99386 78.8269 7.68523C80.0212 7.38474 81.3958 7.29329 82.9506 7.41087C85.624 7.61174 88.2743 8.99658 89.9209 11.0951C90.5175 11.855 91.0587 12.7396 91.5444 13.7488C92.6333 16.0111 92.9651 18.5032 92.5399 21.225C92.4421 21.8521 92.2635 22.4655 92.0042 23.0654C91.9989 23.0778 91.9973 23.0915 91.9996 23.1047C92.0019 23.118 92.008 23.1303 92.0172 23.14C92.0263 23.1498 92.0381 23.1566 92.051 23.1596C92.064 23.1626 92.0775 23.1616 92.0899 23.1569C93.0206 22.8172 93.9013 22.6517 94.732 22.6604C97.4845 22.6866 100.211 24.22 101.996 26.2385C104.211 28.7436 104.906 32.1387 104.043 35.3477C104.04 35.3563 104.04 35.3653 104.043 35.3739C104.045 35.3825 104.05 35.3904 104.056 35.3967C104.062 35.403 104.07 35.4075 104.079 35.4098C104.087 35.4121 104.097 35.4121 104.105 35.4098C106.367 34.7712 108.786 35.9519 109.912 37.8185C110.166 38.2377 110.385 38.7401 110.57 39.3258C111.199 41.3296 110.866 43.2958 109.193 44.6333C108.935 44.8402 108.586 45.0443 108.147 45.2457C107.774 45.4166 107.406 45.5854 107.041 45.752C87.8601 54.4997 69.2635 62.9868 51.2508 71.2131C50.3861 71.6083 49.7405 71.8304 49.3142 71.8794C47.3265 72.1063 45.4706 70.8211 44.2575 69.273C42.8291 67.4494 42.1198 65.3471 42.1297 62.9661C42.1297 62.9051 42.1011 62.885 42.044 62.9057C40.8661 63.3237 39.6453 63.7587 38.3817 64.2105C37.3812 64.5681 36.5654 64.7135 35.4841 64.5518C33.1997 64.2121 31.5351 62.971 29.9577 61.2595C27.7327 58.8475 26.302 55.3789 26.0878 52.1274C26.0834 52.0447 26.0422 52.0175 25.9641 52.0458ZM26.1389 45.3192C25.8867 47.7982 25.0626 50.1253 23.4177 52.0474C23.3419 52.1356 23.3594 52.1606 23.4704 52.1225L25.9576 51.2684C26.018 51.2467 26.0477 51.2037 26.0466 51.1394C25.9938 48.6441 26.8064 45.8173 28.8749 44.243C29.2968 43.9218 29.8506 43.6491 30.5363 43.4248C50.5806 36.8479 70.7496 30.2199 91.0433 23.5406C91.0827 23.5269 91.116 23.4998 91.1373 23.4639C91.5526 22.753 91.8279 21.9843 91.963 21.158C92.4487 18.1913 91.9048 15.3993 90.3313 12.782C88.9864 10.5447 87.1041 9.09837 84.6845 8.44297C82.8369 7.94162 80.4981 7.99551 78.6505 8.474C57.1294 14.0569 35.6259 19.6567 14.14 25.2733C13.8378 25.3528 13.8422 25.4116 14.1532 25.4497C14.3147 25.4693 14.4773 25.5058 14.641 25.5591C16.1881 26.0643 17.5655 26.7986 18.7731 27.7621C23.8413 31.8056 26.7866 38.9519 26.1389 45.3192ZM102.375 28.2047C100.736 25.1998 96.3934 22.6539 92.9157 23.797C73.134 30.2999 53.3622 36.7995 33.6003 43.2958C33.4728 43.3372 33.4733 43.3753 33.6019 43.4101C37.5378 44.4765 40.1584 48.2146 41.5034 51.8498C42.7148 55.1208 42.8813 59.535 40.7254 62.4566C40.6628 62.5404 40.6815 62.5649 40.7815 62.5301L42.2434 62.0173C42.306 61.9955 42.3423 61.952 42.3522 61.8866C42.6181 60.0892 43.5883 58.8981 45.2629 58.3135C45.4695 58.2405 45.6739 58.1649 45.876 58.0865C64.8314 50.7323 83.861 43.3214 102.965 35.854C103.012 35.8344 103.043 35.8006 103.059 35.7527C103.87 33.1463 103.698 30.6265 102.375 28.2047ZM20.2617 53.2341C22.6385 52.3206 24.3656 50.0335 25.0629 46.8758C25.7603 43.718 25.3708 39.9484 23.9802 36.3961C22.5896 32.8439 20.3118 29.8 17.6478 27.934C14.9839 26.0681 12.152 25.533 9.77519 26.4464C7.39838 27.3599 5.67133 29.647 4.97398 32.8048C4.27662 35.9625 4.66608 39.7321 6.05668 43.2844C7.44728 46.8366 9.72511 49.8806 12.3891 51.7465C15.053 53.6124 17.8849 54.1475 20.2617 53.2341ZM47.572 58.2955C47.561 58.3 47.5515 58.3076 47.5448 58.3174C47.5381 58.3272 47.5345 58.3387 47.5343 58.3505C47.5341 58.3623 47.5374 58.3739 47.5438 58.3839C47.5503 58.3939 47.5595 58.4018 47.5704 58.4066C51.9052 60.2748 54.0478 65.3455 52.3057 69.7368C52.276 69.8108 52.2974 69.8309 52.3699 69.7972C69.1508 62.2361 87.1316 54.0604 106.312 45.2702C107.344 44.7966 108.346 44.4733 109.19 43.6126C110.106 42.6785 110.363 41.1777 110.106 39.9921C109.726 38.2317 108.776 36.8942 107.008 36.1969C106.395 35.9563 105.822 35.8632 105.29 35.9176C104.759 35.9721 104.272 36.0858 103.83 36.259C85.1933 43.5588 66.4406 50.9043 47.572 58.2955ZM38.0026 63.5128C38.823 63.1943 39.5374 62.6311 40.105 61.8556C40.6726 61.0801 41.0823 60.1073 41.3107 58.9928C41.5391 57.8784 41.5817 56.644 41.4361 55.3603C41.2906 54.0766 40.9596 52.7686 40.4623 51.5111C39.4577 48.9714 37.8362 46.7913 35.9543 45.4504C34.0724 44.1095 32.0844 43.7176 30.4275 44.3609C29.6071 44.6795 28.8927 45.2426 28.3251 46.0182C27.7575 46.7937 27.3478 47.7665 27.1194 48.8809C26.891 49.9954 26.8484 51.2297 26.9939 52.5134C27.1395 53.7971 27.4704 55.1051 27.9678 56.3626C28.9723 58.9023 30.5939 61.0825 32.4758 62.4234C34.3577 63.7643 36.3457 64.1562 38.0026 63.5128ZM49.9621 70.935C50.9818 70.5267 51.7085 69.519 51.9823 68.1334C52.256 66.7478 52.0545 65.0979 51.4219 63.5466C50.7893 61.9953 49.7776 60.6697 48.6092 59.8615C47.4409 59.0532 46.2116 58.8284 45.1919 59.2366C44.1721 59.6449 43.4455 60.6526 43.1717 62.0382C42.8979 63.4238 43.0995 65.0737 43.7321 66.625C44.3647 68.1763 45.3764 69.5019 46.5448 70.3102C47.7131 71.1184 48.9424 71.3432 49.9621 70.935Z" stroke="#003B81" stroke-width="0.4" mask="url(#path-1-outside-1_632_73)"/>
</svg>
