<svg width="128" height="94" viewBox="0 0 128 94" fill="none" xmlns="http://www.w3.org/2000/svg">
<path d="M7.09678 49.2809C5.01254 37.981 9.20118 27.4321 16.5738 19.0154C26.1371 8.09824 41.0031 3.82516 55.0718 5.6351C61.2228 6.42737 66.8499 8.32364 71.953 11.3239C76.4238 13.9539 80.1144 17.5623 82.9097 21.939C82.9485 21.9992 83.0034 22.0474 83.0681 22.0779C83.1327 22.1084 83.2045 22.1201 83.2753 22.1116C90.5433 21.2311 97.2489 22.1011 103.392 24.7215C105.398 25.5771 107.154 26.5228 108.66 27.5587C111.798 29.714 114.573 32.5771 116.594 35.8545C116.662 35.962 116.756 35.9984 116.876 35.9639C118.302 35.5745 119.296 36.0262 119.856 37.3192C120.038 37.7355 120.017 38.1594 119.793 38.591C119.741 38.6889 119.77 38.7455 119.879 38.7608C120.593 38.8663 121.121 39.1857 121.462 39.719C122.191 40.8556 121.235 42.1994 120.32 42.936C120.275 42.9722 120.242 43.0214 120.226 43.077C120.21 43.1325 120.212 43.1918 120.23 43.2468C121.088 45.7646 121.67 48.0983 122.067 50.9786C122.215 52.0606 122.275 53.1176 122.248 54.1496C122.211 55.6028 122.332 57.1048 122.162 58.5234C121.463 64.4319 119.497 69.6181 116.263 74.082C110.886 81.504 103.685 86.3018 94.6609 88.4752C92.782 88.928 90.8733 89.2263 88.935 89.3701C79.6998 90.0531 71.6047 87.2619 64.6495 80.9966C64.1198 80.5209 63.5815 80.0221 63.0345 79.5003C62.9577 79.4294 62.8704 79.4121 62.7725 79.4486C58.3718 81.0695 53.7802 81.9865 48.9975 82.1994C40.1309 82.5946 32.0866 80.3559 24.8647 75.4834C23.3197 74.4417 21.8333 73.2619 20.4054 71.944C15.4309 67.3602 11.4725 62.08 9.00542 55.8502C8.97875 55.783 8.93569 55.7231 8.87999 55.676C8.8243 55.6289 8.75766 55.5958 8.68587 55.5797C8.0084 55.4282 7.41249 55.0982 6.89815 54.5899C6.25618 53.9597 6.1583 52.9209 6.84057 52.2591C6.99219 52.1133 6.97108 52.0001 6.77724 51.9196C6.22451 51.6894 5.82436 51.3604 5.57678 50.9326C5.00391 49.9456 5.58254 49.0392 6.60163 48.714C6.80123 48.6507 6.91158 48.7236 6.93269 48.9327C6.94613 49.0632 6.98259 49.185 7.04209 49.2982C7.09966 49.4075 7.11789 49.4018 7.09678 49.2809ZM56.3413 6.85804C56.3433 6.83885 56.3346 6.8283 56.3154 6.82638C48.7135 5.58331 41.3141 6.15881 34.1171 8.55288C29.4765 10.0991 25.188 12.5027 21.2518 15.7639C19.0294 17.6055 17.1006 19.8355 15.3359 22.0886C13.0405 25.0198 11.2173 28.1918 9.86618 31.6045C7.29446 38.0999 6.87608 44.7115 8.61103 51.439C8.63981 51.5426 8.70795 51.6011 8.81542 51.6146L9.22421 51.6635C9.24193 51.6654 9.25986 51.6632 9.27663 51.6572C9.2934 51.6511 9.30859 51.6414 9.32106 51.6287C9.33352 51.6159 9.34294 51.6005 9.3486 51.5836C9.35427 51.5667 9.35603 51.5488 9.35375 51.5311C9.00254 48.8474 8.93825 46.1617 9.16087 43.4741C9.21845 42.7691 9.41133 42.0814 9.45739 41.388C9.49194 40.8777 9.56678 40.3827 9.68193 39.9032C9.84507 39.2394 9.9986 38.5786 10.1425 37.9206C10.3038 37.1859 10.4755 36.5336 10.6578 35.9639C12.982 28.6646 17.0017 22.4569 22.7171 17.3407C29.1022 11.6232 37.3701 8.18456 45.8913 7.16305C48.4419 6.85804 50.7833 6.72567 52.9156 6.76596C53.783 6.78322 54.5354 6.78994 55.1725 6.7861C55.5612 6.78322 55.9325 6.90408 56.3212 6.94436C56.3308 6.94436 56.3356 6.93956 56.3356 6.92997L56.3413 6.85804ZM10.1368 38.381C9.95254 39.1541 9.79997 39.9415 9.67906 40.7434C9.57254 41.4254 9.44875 42.1246 9.38254 42.8037C9.08123 45.7924 9.13784 48.7351 9.55239 51.6318C9.56966 51.7546 9.63971 51.8208 9.76254 51.8304L11.4006 51.9455C11.4231 51.9472 11.4456 51.944 11.4668 51.9362C11.488 51.9285 11.5073 51.9163 11.5233 51.9005C11.5394 51.8847 11.5519 51.8657 11.5601 51.8446C11.5682 51.8236 11.5717 51.8011 11.5704 51.7786C11.4054 48.7917 11.6107 45.8385 12.1865 42.9188C13.7641 34.9174 17.2474 27.8647 22.6365 21.7606C27.7348 15.9797 34.9404 12.0577 42.2957 10.1499C50.5751 8.0004 58.9207 7.70977 66.9871 10.0233C67.1732 10.0751 67.179 10.0597 67.0044 9.97724C65.469 9.2406 63.8933 8.62769 62.2774 8.13852C60.9436 7.73567 59.4619 7.45464 57.8325 7.29541C53.8233 6.90408 49.9744 6.91175 46.2857 7.31843C42.7563 7.70402 39.0139 8.62194 35.7839 9.80747C29.8037 12.0078 24.6727 15.3725 20.391 19.9017C15.3934 25.1905 11.8122 31.3225 10.1368 38.381ZM81.2313 21.3031C81.2505 21.2877 81.2534 21.2704 81.24 21.2513C79.3726 18.5579 77.0792 16.1667 74.3597 14.0777C73.1659 13.1607 71.787 12.3828 70.2228 11.744C66.3019 10.1461 62.2419 9.23005 58.0427 8.99601C49.0801 8.49917 40.6116 10.3379 32.6374 14.5122C25.688 18.1493 20.4227 24.0971 16.876 31.0203C14.0817 36.4761 12.4849 41.9452 12.0857 47.4278C12.0013 48.6133 11.9936 50.0741 12.0627 51.8102C12.0684 51.9311 12.1318 51.9915 12.2527 51.9915L13.4819 51.9858C13.5587 51.9858 13.5961 51.9474 13.5942 51.8707C13.3063 42.5562 16.5881 33.9209 22.3745 26.6466C23.8216 24.8261 25.5508 22.9691 27.5621 21.0757C30.5349 18.2807 33.859 16.1044 37.5342 14.5467C44.8953 11.4275 52.406 9.89955 60.1557 10.5959C63.0096 10.851 65.967 11.5311 69.0281 12.636C73.7263 14.3309 77.938 17.4558 81.191 21.3002C81.2025 21.3136 81.216 21.3155 81.2313 21.3059V21.3031ZM81.4328 22.3706C77.4831 17.335 72.0077 13.7496 65.8125 12.144C63.9759 11.6663 62.3436 11.3469 60.9157 11.1858C52.3571 10.2132 43.5595 12.0836 35.8444 15.8819C33.9597 16.8103 32.3457 17.7848 31.0022 18.8054C22.9186 24.946 16.7839 33.823 14.7054 43.8367C14.2256 46.1502 14.0183 48.8071 14.0836 51.8074C14.0855 51.9263 14.146 51.981 14.265 51.9714L17.2272 51.7153C17.3462 51.7038 17.4067 51.6385 17.4086 51.5196C17.4393 49.0181 17.5142 47.2427 17.6331 46.1934C17.9709 43.1797 18.6062 40.3895 19.5389 37.8227C21.2489 33.1152 24.0413 28.4824 27.6168 24.8568C33.5356 18.8485 40.8477 14.8316 49.2422 13.4274C53.428 12.7272 57.5379 12.7838 61.5721 13.5971C66.1973 14.5314 70.4282 16.4036 74.2647 19.214C75.3145 19.9813 76.7299 21.2349 78.5109 22.9749C78.5347 22.9979 78.564 23.0147 78.5962 23.0237C78.6283 23.0328 78.6623 23.0338 78.6951 23.0267L81.4098 22.4281C81.4482 22.4205 81.4559 22.4013 81.4328 22.3706ZM20.391 46.6681C21.0388 41.3074 23.1345 35.7049 26.3415 31.2016C30.0004 26.0624 35.0095 22.0656 40.6634 19.3348C45.5324 16.9868 50.7325 15.854 56.2636 15.9365C58.8401 15.9739 61.4915 16.4372 63.901 17.1105C68.2845 18.3383 72.1363 20.5645 75.4565 23.7892C75.5563 23.887 75.6734 23.9149 75.8077 23.8727L77.2528 23.4151C77.3891 23.371 77.4073 23.2981 77.3075 23.1964C75.8355 21.6733 74.2541 20.3496 72.5633 19.2255C66.0342 14.8882 58.8142 13.1904 50.9033 14.1323C48.6732 14.3971 46.6504 14.7932 44.8348 15.3207C40.8909 16.466 37.0813 18.3738 33.406 21.0441C32.3438 21.8124 31.4139 22.7476 30.3775 23.5878C29.6348 24.1882 28.9228 24.8529 28.2415 25.5819C23.6776 30.4717 20.6895 36.0886 19.2769 42.4325C18.6647 45.1853 18.3931 48.2038 18.4622 51.4879C18.4642 51.5321 18.4872 51.5513 18.5313 51.5455L20.0485 51.3498C20.0945 51.3441 20.1195 51.3172 20.1233 51.2693C20.2097 49.7327 20.2039 48.2105 20.391 46.6681ZM25.4088 37.8141C28.3125 31.5028 32.7545 26.4461 38.7347 22.644C44.6285 18.8955 50.9801 17.054 57.7894 17.1192C59.7584 17.1384 62.0097 17.4117 64.543 17.9393C64.5545 17.9412 64.5612 17.9364 64.5631 17.9249L64.5804 17.8529C64.5843 17.8376 64.5785 17.827 64.5631 17.8213C61.9646 17.0117 59.3382 16.5609 56.6839 16.4689C50.7901 16.2655 45.2043 17.5259 39.9265 20.2499C35.4778 22.5442 31.7325 25.4898 28.6906 29.0867C23.336 35.4191 20.6559 42.8027 20.6501 51.2376C20.65 51.2441 20.6513 51.2505 20.654 51.2564C20.6567 51.2623 20.6607 51.2675 20.6656 51.2716C20.6706 51.2758 20.6765 51.2788 20.6827 51.2803C20.689 51.2819 20.6956 51.2821 20.7019 51.2808L22.5616 50.8002C22.6096 50.7868 22.6346 50.7551 22.6365 50.7053C22.7228 45.944 23.6469 41.6469 25.4088 37.8141ZM71.4463 22.8051C72.214 23.2636 73.0364 23.8391 73.9135 24.5316C73.9633 24.5719 74.02 24.5815 74.0833 24.5604L74.9469 24.2467C74.9539 24.2442 74.9601 24.24 74.9651 24.2346C74.97 24.2291 74.9736 24.2226 74.9753 24.2157C74.977 24.2088 74.9769 24.2016 74.975 24.195C74.973 24.1883 74.9693 24.1823 74.9642 24.1777C73.9336 23.1245 72.7283 22.1155 71.3484 21.1505C70.3447 20.4465 69.221 19.8969 67.9774 19.5017C65.6705 18.767 63.6093 18.2721 61.7938 18.017C55.6984 17.1633 49.8516 17.9498 44.2533 20.3765C37.7223 23.206 32.528 27.4168 28.6704 33.0087C25.0691 38.2285 23.1777 44.2597 23.0827 50.642C23.0827 50.6803 23.1009 50.6938 23.1374 50.6823L24.4386 50.2852C24.4615 50.2784 24.4819 50.2647 24.4973 50.2457C24.5126 50.2268 24.5223 50.2035 24.525 50.1787C24.8877 44.8985 26.3645 40.1103 29.3153 35.7596C30.7662 33.6187 32.7497 31.4031 34.5662 29.4665C37.9516 25.8504 42.0721 23.1677 46.9277 21.4181C53 19.2313 59.1107 18.8198 65.2598 20.1837C67.5398 20.6901 69.506 21.6512 71.4463 22.8051ZM35.0556 29.4176H35.0584C35.0892 29.4464 35.1179 29.4454 35.1448 29.4147C35.3578 29.1845 35.6073 28.9601 35.8933 28.7414C43.6718 22.8109 53.8771 19.6341 63.403 21.5793C66.3586 22.1836 69.2767 23.4324 72.1574 25.3258C72.1919 25.3488 72.2284 25.3517 72.2668 25.3344L73.6572 24.7014C73.6649 24.6978 73.6715 24.6923 73.6764 24.6854C73.6813 24.6785 73.6843 24.6705 73.6852 24.6621C73.6861 24.6537 73.6847 24.6452 73.6814 24.6375C73.678 24.6297 73.6726 24.623 73.6659 24.6179C71.169 22.6881 68.6933 21.3932 66.2386 20.7333C63.8569 20.0945 61.6086 19.7521 59.4936 19.706C51.5386 19.5372 44.4663 21.7865 38.2769 26.4538C37.2118 27.2575 36.138 28.2157 35.0556 29.3284C35.0268 29.3591 35.0268 29.3888 35.0556 29.4176ZM34.6612 31.1786C29.7413 35.5323 26.8021 41.1721 25.7916 47.6494C25.7609 47.845 25.8434 47.9553 26.0392 47.9803C27.3347 48.1443 28.1638 49.2809 26.9057 50.2535C26.8923 50.2637 26.8818 50.2773 26.8754 50.2929C26.869 50.3085 26.8668 50.3256 26.8692 50.3423C26.8715 50.359 26.8783 50.3747 26.8888 50.388C26.8992 50.4012 26.913 50.4114 26.9288 50.4175C27.4383 50.6132 27.6744 51.2376 27.3922 51.7153C26.995 52.3829 26.3156 52.7627 25.6535 53.1252C25.569 53.1713 25.5297 53.2423 25.5354 53.3382C25.6314 55.1855 26.0478 57.3158 26.7848 59.7291C26.9115 60.1396 27.1418 60.5089 27.4757 60.8369C28.2933 61.6369 29.1771 62.2738 30.1271 62.7476C32.5817 63.9772 35.2648 64.5412 38.1762 64.4395C43.3273 64.2592 48.0811 62.7783 52.4377 59.9967C52.5452 59.9276 52.5903 59.8298 52.573 59.7032C51.9771 55.2402 52.4636 50.6736 53.88 46.4178C56.1312 39.6595 60.0722 33.988 65.7031 29.4032C65.7876 29.3341 65.8116 29.2488 65.7751 29.1471C64.756 26.214 62.9069 23.9446 60.2277 22.3389C59.8535 22.1145 59.4437 22.0004 58.9985 21.9965C57.181 21.9773 55.4998 22.0723 53.9548 22.2814C46.6888 23.2636 40.2575 26.2293 34.6612 31.1786ZM66.7769 28.5658L67.796 27.8666C67.8142 27.855 67.8275 27.8369 67.8333 27.8157C67.8391 27.7945 67.8371 27.7717 67.8277 27.7515C66.8182 25.7162 65.4892 24.0894 63.8406 22.8713C63.451 22.5835 62.9616 22.4435 62.3724 22.4512C62.2227 22.4531 62.2054 22.502 62.3206 22.5979C64.2292 24.1748 65.5707 25.9646 66.6819 28.5399C66.703 28.586 66.7347 28.5946 66.7769 28.5658ZM91.5892 22.8684C91.2476 22.7706 90.9098 22.7217 90.5759 22.7217C87.8314 22.7312 85.1513 22.9154 82.5354 23.2741C79.0636 23.7518 75.5687 24.8481 72.0509 26.5631C63.8406 30.5715 57.4727 38.2342 54.7062 46.9617C52.8426 52.8337 52.833 58.673 54.6774 64.4798C54.7081 64.5796 54.7733 64.6438 54.8731 64.6726L55.0171 64.7129C55.036 64.7181 55.056 64.7185 55.0751 64.714C55.0942 64.7096 55.1118 64.7004 55.1263 64.6874C55.1407 64.6745 55.1515 64.6581 55.1576 64.6399C55.1636 64.6217 55.1648 64.6022 55.161 64.5834C54.3204 59.8854 54.4125 55.3265 55.4374 50.9067C56.7233 45.3589 59.2835 40.2744 63.118 35.6531C64.5017 33.9842 65.8327 32.6154 67.1109 31.5469C72.6324 26.9228 79.3025 24.0654 86.4074 23.2597C87.6913 23.114 88.982 22.9912 90.2794 22.8914C90.7649 22.8531 91.2524 22.8579 91.7418 22.9058C91.7533 22.9058 91.7619 22.901 91.7677 22.8914C91.7735 22.878 91.7696 22.8742 91.7562 22.8799C91.7466 22.8818 91.737 22.8838 91.7274 22.8857C91.6813 22.8876 91.6353 22.8818 91.5892 22.8684ZM69.4225 24.8424C68.0388 24.1019 66.6052 23.5043 65.1216 23.0497C64.9316 22.9921 64.9096 23.0305 65.0554 23.1648C66.3336 24.3503 67.345 25.7066 68.0897 27.2336C68.1875 27.4331 68.3344 27.4782 68.5301 27.3688L70.4675 26.2696C70.694 26.1411 70.7218 25.978 70.551 25.7804C70.1941 25.3642 69.8179 25.0515 69.4225 24.8424ZM86.1195 23.5245C79.1164 24.4453 72.9961 27.0283 67.7586 31.2736C65.4585 33.1353 63.308 35.6215 61.5606 38.0069C57.7011 43.2746 55.4882 49.0968 54.9221 55.4733C54.6803 58.1877 54.8492 61.2206 55.4288 64.5719C55.4518 64.7043 55.5295 64.7762 55.6619 64.7877L56.8768 64.8884C56.9028 64.8908 56.9291 64.8872 56.9536 64.8782C56.9781 64.8691 57.0002 64.8546 57.0184 64.8359C57.0366 64.8171 57.0504 64.7945 57.0588 64.7698C57.0672 64.745 57.0699 64.7187 57.0668 64.6928C55.8951 54.5726 59.5685 44.1935 65.8788 36.4099C67.3959 34.5366 69.3362 32.7267 71.2304 31.4203C78.9379 26.1065 87.5464 23.747 97.056 24.3417C98.481 24.4309 99.9521 24.7417 101.363 25.0956C101.395 25.1033 101.416 25.0917 101.426 25.0611V25.0582C101.436 25.0256 101.424 25.0035 101.391 24.992C100.275 24.5834 99.0817 24.2093 97.8131 23.8698C96.5925 23.5398 95.3662 23.3336 94.134 23.2511C91.5144 23.0746 88.8428 23.1657 86.1195 23.5245ZM62.1133 46.6681C64.2628 42.2311 67.4592 38.0625 71.7025 34.1626C72.3839 33.5372 73.1007 32.9828 73.853 32.4994C81.9654 27.2882 91.785 24.5834 101.219 26.6955C106.103 27.7908 110.256 30.1264 113.678 33.7022C113.697 33.7233 113.718 33.7252 113.741 33.7079V33.705C113.763 33.6878 113.765 33.6676 113.747 33.6446C112.102 31.5076 110.15 29.7005 107.889 28.2234C106.97 27.6249 105.782 27.0657 104.325 26.5458C96.4688 23.7518 87.6021 24.4827 79.6739 27.5501C73.4557 29.9557 68.415 33.5123 64.6351 38.8644C60.3879 44.8764 57.9583 51.5206 57.346 58.7968C57.2213 60.2873 57.2673 62.2805 57.4842 64.7762C57.4976 64.9316 57.5821 65.0093 57.7375 65.0093H58.486C58.6357 65.0093 58.7029 64.9345 58.6875 64.7848C58.1041 58.627 59.246 52.5881 62.1133 46.6681ZM71.9587 34.7553C63.3138 42.3807 58.1463 53.4331 59.3065 64.9402C59.3076 64.9523 59.311 64.9641 59.3167 64.9749C59.3224 64.9856 59.3301 64.9952 59.3395 65.0029C59.3488 65.0107 59.3596 65.0165 59.3713 65.0201C59.3829 65.0236 59.3951 65.0249 59.4072 65.0237L62.0154 64.8223C62.0864 64.8165 62.1191 64.7772 62.1133 64.7043C61.4186 57.501 62.7889 50.8645 66.2242 44.7949C69.934 38.2419 75.3788 33.4777 82.5584 30.5024C88.3765 28.0911 95.4295 27.5645 101.547 29.5816C107.7 31.6112 112.53 35.4315 116.036 41.0427C116.037 41.0448 116.039 41.0466 116.042 41.0481C116.044 41.0495 116.046 41.0505 116.048 41.0511C116.051 41.0516 116.053 41.0516 116.056 41.0512C116.058 41.0507 116.06 41.0498 116.062 41.0484C116.735 40.5995 117.296 40.1612 117.743 39.7334C117.764 39.7123 117.767 39.6902 117.752 39.6672C116.354 37.4113 114.885 35.5112 113.344 33.9669C110.757 31.381 107.864 29.4828 104.665 28.2723C102.795 27.5664 101.009 27.0926 99.3044 26.8509C91.5691 25.7517 83.4336 27.7112 76.6857 31.4951C74.7972 32.554 73.2216 33.6408 71.9587 34.7553ZM104.221 31.4376C102.25 30.536 100.261 29.9116 98.2536 29.5643C92.9854 28.6531 87.7441 29.2142 82.5297 31.2477C77.0312 33.3943 71.9213 37.7422 68.6107 42.3951C64.9009 47.6129 62.9194 53.5166 62.666 60.106C62.6065 61.6465 62.6823 63.1687 62.8935 64.6726C62.8992 64.7052 62.9184 64.7196 62.951 64.7158L64.8107 64.4453C64.851 64.4395 64.8702 64.4165 64.8683 64.3762C64.4653 56.6415 66.5658 49.7135 71.17 43.5921C76.3518 36.7005 84.6369 31.6966 93.3741 31.311C94.8499 31.2477 96.0993 31.2649 97.1222 31.3628C101.747 31.8117 105.874 33.5583 109.501 36.6027C111.343 38.1508 112.722 40.047 113.986 42.0699C114.015 42.114 114.053 42.1255 114.101 42.1044L115.313 41.5433C115.342 41.5299 115.349 41.5088 115.333 41.48C112.629 36.9374 108.925 33.5899 104.221 31.4376ZM65.4757 64.2899L67.8133 63.6943C67.8709 63.6789 67.8987 63.6415 67.8968 63.5821C67.6492 58.0477 68.9485 53.036 71.7947 48.5471C75.5054 42.6886 81.5825 38.5047 88.2153 36.3811C91.3263 35.3836 94.5285 35.0047 97.8218 35.2445C103.421 35.6502 108.424 38.3695 111.841 42.913C111.857 42.9339 111.88 42.9488 111.905 42.9556C111.931 42.9624 111.958 42.9605 111.983 42.9504L113.428 42.3663C113.435 42.363 113.442 42.3582 113.448 42.3523C113.453 42.3464 113.458 42.3395 113.461 42.3322C113.463 42.3248 113.464 42.3171 113.464 42.3096C113.463 42.302 113.46 42.2949 113.456 42.2886C110.179 36.666 105.238 33.2648 98.6336 32.085C97.5051 31.8836 96.3373 31.7771 95.1301 31.7656C87.3401 31.7052 80.2007 34.974 74.6591 40.3521C70.4637 44.4266 67.6415 49.3097 66.1925 55.0014C65.4613 57.8693 65.1802 60.9338 65.3491 64.195C65.3499 64.21 65.3541 64.2247 65.3612 64.2379C65.3683 64.2512 65.3783 64.2628 65.3903 64.2718C65.4024 64.2809 65.4163 64.2872 65.431 64.2903C65.4458 64.2934 65.461 64.2933 65.4757 64.2899ZM85.4171 59.7492C82.9452 64.781 79.1883 69.2498 74.1466 73.1555C74.0488 73.2303 74.0593 73.2869 74.1783 73.3252C77.1396 74.2748 80.1192 74.3794 83.1169 73.6389C94.4363 70.8391 103.582 59.5248 103.084 47.8422C103.08 47.7443 103.034 47.6743 102.946 47.6321C102.439 47.3875 101.849 47.3156 101.423 46.9444C100.905 46.4897 100.866 46.0082 101.305 45.4999C101.374 45.4193 101.365 45.3512 101.276 45.2956C99.9204 44.4381 100.775 43.1029 101.743 42.4987C101.839 42.4392 101.868 42.3557 101.832 42.2483C100.964 39.7219 99.2785 37.7383 96.7739 36.2977C96.5014 36.1423 96.2029 36.0694 95.8786 36.079C93.4662 36.1461 91.1564 36.501 88.9494 37.1437C88.84 37.1763 88.7939 37.2482 88.8112 37.3595C90.026 45.2093 88.8947 52.6725 85.4171 59.7492ZM104.869 44.5733C104.119 41.1242 102.427 38.45 99.7937 36.5509C99.5673 36.3878 99.2497 36.3121 98.8409 36.3236C98.7085 36.3293 98.6902 36.3773 98.7862 36.4674C99.3504 36.9998 99.9607 37.5062 100.467 38.0932C102.143 40.0346 103.205 42.2004 103.654 44.5906C103.67 44.6712 103.718 44.7086 103.798 44.7028L104.823 44.6366C104.83 44.6365 104.837 44.6347 104.844 44.6313C104.85 44.6278 104.856 44.6229 104.861 44.6168C104.865 44.6108 104.868 44.6037 104.869 44.5962C104.871 44.5887 104.871 44.5809 104.869 44.5733ZM104.714 38.1479C103.549 37.5379 102.368 37.0755 101.173 36.7609C100.988 36.713 100.963 36.7581 101.095 36.8962C101.665 37.4947 102.287 38.0501 102.782 38.7061C104.037 40.3693 104.892 42.2598 105.327 44.2885C105.356 44.4247 105.439 44.4832 105.577 44.464L108.439 44.0496C108.663 44.017 108.736 43.8933 108.658 43.6784C107.871 41.5644 106.682 39.8063 105.091 38.404C104.977 38.3042 104.852 38.2189 104.714 38.1479ZM117.449 37.0631L118.394 38.8011C118.449 38.9047 118.515 38.9104 118.589 38.8183C119.47 37.7278 118.725 36.9134 117.565 36.876C117.417 36.8722 117.378 36.9346 117.449 37.0631ZM85.4891 57.1883C88.1279 50.923 88.9071 44.3892 87.8266 37.5868C87.8209 37.5503 87.8007 37.5388 87.7662 37.5523L85.941 38.2227C85.9203 38.2309 85.9028 38.2455 85.8914 38.2642C85.8799 38.283 85.8751 38.3048 85.8777 38.3263C86.0734 40.0259 86.1838 41.4561 86.2087 42.6166C86.2951 46.4974 85.7309 50.3139 84.516 54.0662C82.1497 61.375 77.8238 67.317 71.5385 71.8923C71.5333 71.8962 71.5291 71.9013 71.5263 71.9072C71.5236 71.9131 71.5223 71.9196 71.5225 71.9261C71.5228 71.9326 71.5247 71.9389 71.528 71.9446C71.5312 71.9502 71.5358 71.955 71.5413 71.9584L72.8598 72.8246C72.8867 72.8437 72.9136 72.8428 72.9404 72.8217C78.4216 68.7443 82.8607 63.4324 85.4891 57.1883ZM80.1691 58.5925C79.2594 60.4283 78.3928 61.8891 77.5695 62.9749C77.0724 63.631 76.5495 64.3149 76.0006 65.0266C74.4316 67.0638 72.5431 68.8191 70.4388 70.3039C70.2852 70.4113 70.2478 70.5494 70.3265 70.7182L70.4992 71.0981C70.5894 71.2957 70.7218 71.3302 70.8965 71.2017C78.2412 65.8265 82.8089 58.673 84.5995 49.7413C85.3134 46.1809 85.4171 42.5073 84.9104 38.7205C84.9066 38.6879 84.8912 38.6793 84.8644 38.6946L83.235 39.578C83.1947 39.601 83.1774 39.6356 83.1832 39.6816C84.0928 46.39 83.0882 52.6936 80.1691 58.5925ZM110.114 43.4252C109.176 41.5376 108.557 40.5218 107.034 39.5435C106.792 39.3881 106.758 39.4255 106.93 39.6557C107.828 40.8451 108.571 42.1687 109.158 43.6266C109.176 43.6717 109.21 43.709 109.252 43.7321C109.295 43.7553 109.344 43.7627 109.392 43.7533L110.016 43.6266C110.135 43.6017 110.168 43.5346 110.114 43.4252ZM119.755 41.9059C119.763 41.9242 119.775 41.9402 119.79 41.9526C119.806 41.965 119.824 41.9732 119.844 41.9767C119.863 41.9801 119.883 41.9786 119.902 41.9723C119.921 41.9659 119.938 41.955 119.951 41.9404C120.258 41.6086 120.497 41.2575 120.668 40.8873C120.81 40.5823 120.745 40.331 120.472 40.1334C119.994 39.7842 119.511 39.6902 119.021 39.8514C119.004 39.8574 118.987 39.867 118.974 39.8796C118.96 39.8921 118.949 39.9074 118.941 39.9244C118.934 39.9414 118.93 39.9598 118.93 39.9785C118.93 39.9971 118.933 40.0155 118.941 40.0326L119.755 41.9059ZM79.3313 56.2617C77.2586 60.9693 73.853 64.9949 69.6269 68.2062C69.6001 68.2254 69.5914 68.2513 69.601 68.2839L70.053 69.8262C70.0549 69.8325 70.0583 69.8382 70.0629 69.8428C70.0675 69.8475 70.0731 69.851 70.0794 69.853C70.0856 69.8549 70.0922 69.8554 70.0987 69.8542C70.1051 69.8531 70.1112 69.8504 70.1163 69.8464C71.8686 68.609 73.45 67.1904 74.8606 65.5905C79.6278 60.177 82.3243 53.8446 82.95 46.5933C83.1131 44.6923 83.0354 42.4574 82.7168 39.8888C82.7144 39.8733 82.7082 39.8586 82.6987 39.8461C82.6893 39.8336 82.6769 39.8236 82.6626 39.817C82.6483 39.8105 82.6327 39.8076 82.617 39.8085C82.6014 39.8095 82.5862 39.8143 82.5728 39.8226L81.5825 40.4556C81.5096 40.5017 81.4789 40.5679 81.4904 40.6542C82.2581 46.0562 81.5384 51.2587 79.3313 56.2617ZM118.25 40.8268C118.245 40.8136 118.236 40.8018 118.226 40.7922C118.215 40.7826 118.203 40.7756 118.189 40.7717C118.175 40.7678 118.161 40.7671 118.147 40.7697C118.133 40.7723 118.12 40.778 118.109 40.7866L116.603 41.9001C116.586 41.9133 116.574 41.932 116.569 41.953C116.564 41.974 116.567 41.9961 116.577 42.0152L117.363 43.6295C117.369 43.6408 117.377 43.6508 117.386 43.6589C117.396 43.6669 117.407 43.6729 117.42 43.6764C117.432 43.6799 117.445 43.6809 117.457 43.6792C117.47 43.6776 117.482 43.6734 117.493 43.6669L118.972 42.7519C118.99 42.7401 119.003 42.7225 119.01 42.702C119.016 42.6815 119.015 42.6595 119.007 42.6397L118.25 40.8268ZM70.5366 64.3388C70.6921 65.1819 69.863 65.7488 69.2325 66.1258C69.1385 66.1833 69.1011 66.2648 69.1203 66.3703L69.2354 66.9861C69.2388 67.0041 69.2467 67.0209 69.2583 67.035C69.2699 67.0491 69.2848 67.06 69.3016 67.0667C69.3184 67.0733 69.3364 67.0755 69.3541 67.073C69.3718 67.0705 69.3884 67.0633 69.4024 67.0523C72.4443 64.71 74.8711 62.0723 76.6828 59.1392C79.9743 53.812 81.2764 47.9007 80.5894 41.4052C80.5644 41.1789 80.4589 41.1319 80.2727 41.2642L79.1989 42.0268C79.0473 42.1361 78.9715 42.2848 78.9715 42.4728C79.0032 49.9629 75.7501 56.6962 70.5424 62.0656C70.4675 62.1443 70.4531 62.2325 70.4992 62.3303C70.7334 62.8195 70.623 63.2569 70.1681 63.6425C70.1532 63.6551 70.1411 63.6708 70.1327 63.6885C70.1242 63.7062 70.1196 63.7255 70.119 63.7453C70.1185 63.7651 70.1221 63.7848 70.1295 63.8033C70.137 63.8217 70.1482 63.8385 70.1624 63.8525L70.3869 64.0626C70.4656 64.1393 70.5155 64.2314 70.5366 64.3388ZM115.259 44.5446C115.275 44.5759 115.302 44.6 115.335 44.6123C115.368 44.6245 115.404 44.624 115.437 44.6107L116.615 44.1388C116.633 44.1317 116.649 44.1209 116.663 44.1071C116.676 44.0933 116.687 44.0769 116.694 44.0588C116.701 44.0407 116.704 44.0213 116.703 44.0019C116.703 43.9825 116.698 43.9635 116.689 43.946L115.984 42.4785C115.976 42.4615 115.964 42.4463 115.95 42.4338C115.936 42.4213 115.919 42.4118 115.901 42.4059C115.883 42.4 115.864 42.3978 115.845 42.3994C115.826 42.401 115.808 42.4064 115.791 42.4152L114.64 43.0137C114.607 43.0309 114.583 43.0601 114.571 43.095C114.56 43.1299 114.563 43.1679 114.579 43.2008L115.259 44.5446ZM75.0909 46.2337C74.2042 50.3111 72.3013 54.2216 69.6672 57.3839C69.3736 57.7388 69.198 58.1177 69.1404 58.5205C69.0022 59.4893 68.9034 60.4446 68.8439 61.3865C68.8416 61.4267 68.8536 61.4665 68.8779 61.4986C68.9021 61.5308 68.937 61.5532 68.9763 61.5621L69.7162 61.7203C69.8141 61.7414 69.8975 61.7165 69.9666 61.6455C72.1027 59.3915 73.8607 56.9974 75.2406 54.4633C77.1367 50.9777 78.1529 47.165 78.2892 43.0252C78.295 42.8699 78.2364 42.8411 78.1136 42.9389C77.3248 43.572 76.5082 44.3192 75.6638 45.1805C75.3701 45.4797 75.1792 45.8308 75.0909 46.2337ZM114.104 43.3562C114.094 43.3355 114.077 43.3194 114.056 43.3109C114.034 43.3023 114.011 43.3021 113.989 43.3101L112.653 43.8166C112.641 43.8211 112.629 43.8283 112.62 43.8378C112.61 43.8473 112.603 43.8587 112.598 43.8713C112.593 43.8839 112.591 43.8974 112.593 43.9108C112.594 43.9242 112.598 43.9372 112.604 43.9489L113.413 45.3186C113.424 45.3369 113.441 45.3509 113.461 45.3582C113.481 45.3656 113.503 45.3658 113.523 45.3589L114.772 44.9158C114.784 44.9114 114.795 44.9045 114.805 44.8956C114.814 44.8867 114.821 44.8759 114.826 44.864C114.831 44.852 114.833 44.8392 114.833 44.8263C114.833 44.8134 114.83 44.8008 114.824 44.7891L114.104 43.3562ZM102.606 44.6453L102.284 43.5231C102.282 43.5172 102.279 43.5117 102.276 43.5069C102.272 43.5021 102.267 43.4981 102.262 43.4952C102.256 43.4922 102.251 43.4904 102.244 43.4897C102.238 43.4891 102.232 43.4896 102.226 43.4914L102.198 43.5C101.988 43.5599 101.806 43.6809 101.69 43.8363C101.575 43.9917 101.536 44.1688 101.581 44.3288V44.3345C101.627 44.4944 101.754 44.6239 101.935 44.6946C102.115 44.7653 102.334 44.7714 102.543 44.7115L102.575 44.7028C102.581 44.7012 102.586 44.6984 102.591 44.6946C102.596 44.6908 102.6 44.686 102.603 44.6807C102.606 44.6753 102.607 44.6694 102.608 44.6634C102.609 44.6573 102.608 44.6511 102.606 44.6453ZM116.281 69.1414C114.124 73.4317 111.148 77.2703 107.261 80.0499C101.105 84.4506 94.1245 86.5349 86.321 86.3027C81.6267 86.1646 77.3056 84.9992 73.3578 82.8066C71.7534 81.9146 70.3917 80.9458 69.2728 79.9003C65.968 76.8041 63.8262 72.5771 62.7869 68.2378C62.7773 68.1956 62.7514 68.1774 62.7092 68.1832L59.9859 68.5918C59.9765 68.5931 59.9674 68.5964 59.9593 68.6014C59.9512 68.6064 59.9443 68.6131 59.9388 68.6209C59.9334 68.6288 59.9297 68.6376 59.9279 68.647C59.9261 68.6563 59.9262 68.6659 59.9283 68.6752C60.8265 72.4908 62.4328 76.0263 64.7474 79.2817C65.565 80.4307 66.4833 81.3937 67.5024 82.1707C69.6077 83.7763 71.6699 85.0117 73.6889 85.8769C78.4639 87.9256 83.4576 88.7572 88.6701 88.3717C96.0801 87.823 102.726 85.263 108.609 80.6916C111.223 78.6572 113.762 75.9812 115.567 73.331C121.255 64.9844 122.741 55.7687 120.023 45.684C119.843 45.0184 119.639 44.3671 119.413 43.7302C119.392 43.6708 119.354 43.6573 119.3 43.6899L117.841 44.5964C117.817 44.6117 117.798 44.6351 117.79 44.6624C117.781 44.6897 117.781 44.7192 117.792 44.746C120.826 52.6994 120.089 61.562 116.281 69.1414ZM112.184 45.8625L112.259 45.8222C112.292 45.8032 112.316 45.7727 112.327 45.7369C112.339 45.7012 112.336 45.6627 112.319 45.6294C112.124 45.2169 111.899 44.8409 111.646 44.5014C111.431 44.2117 111.388 44.2357 111.516 44.5733L111.983 45.7905C111.989 45.8095 112 45.8268 112.015 45.8411C112.029 45.8553 112.046 45.8663 112.066 45.8731C112.085 45.88 112.105 45.8826 112.126 45.8807C112.146 45.8789 112.166 45.8727 112.184 45.8625ZM110.013 46.0725C110.02 46.0944 110.035 46.113 110.054 46.1247C110.074 46.1364 110.098 46.1404 110.12 46.1358L111.165 45.9027C111.178 45.9 111.191 45.8943 111.202 45.8861C111.213 45.8779 111.222 45.8673 111.228 45.8552C111.235 45.843 111.238 45.8297 111.239 45.816C111.239 45.8023 111.237 45.7887 111.231 45.7761L110.67 44.4928C110.66 44.4729 110.644 44.4571 110.624 44.4481C110.604 44.4391 110.581 44.4376 110.56 44.4438L109.711 44.7086C109.689 44.7159 109.67 44.7316 109.658 44.7525C109.647 44.7735 109.644 44.7979 109.651 44.8208L110.013 46.0725ZM105.721 45.5143C105.697 45.5185 105.675 45.532 105.661 45.5518C105.646 45.5717 105.64 45.5964 105.643 45.6207L105.802 46.7084C105.805 46.7332 105.819 46.7555 105.838 46.7706C105.858 46.7857 105.884 46.7923 105.908 46.789L109.455 46.3603C109.469 46.3587 109.482 46.3542 109.494 46.347C109.506 46.3398 109.516 46.3301 109.523 46.3186C109.531 46.3071 109.536 46.294 109.538 46.2803C109.54 46.2667 109.539 46.2527 109.536 46.2394L109.179 45.0136C109.172 44.9915 109.157 44.9726 109.138 44.9604C109.118 44.9483 109.095 44.9436 109.072 44.9474L105.721 45.5143ZM76.513 83.4109C79.9886 84.7882 83.6294 85.4913 87.4351 85.5201C90.0587 85.5412 92.8799 85.1891 95.8988 84.464C98.6585 83.8022 101.448 82.6618 104.267 81.0427C116.344 74.1108 122.176 58.0659 117.153 45.0309C117.128 44.9656 117.083 44.9474 117.018 44.9762L115.831 45.5258C115.749 45.5661 115.723 45.6294 115.754 45.7157C116.642 48.1539 117.198 50.4473 117.421 52.5958C118.219 60.2499 116.312 67.1914 111.7 73.4202C109.977 75.7491 107.987 77.6962 105.73 79.2615C100.001 83.2344 93.636 85.0549 86.6348 84.723C82.332 84.5197 78.3679 83.3236 74.7425 81.1348C69.6951 78.0865 66.5821 73.5938 65.4038 67.6566C65.4017 67.6469 65.3978 67.6378 65.3922 67.6297C65.3866 67.6215 65.3794 67.6146 65.3711 67.6092C65.3628 67.6039 65.3535 67.6002 65.3438 67.5985C65.3341 67.5967 65.3242 67.5969 65.3145 67.599L63.6419 68.0048C63.5844 68.0182 63.5623 68.0537 63.5757 68.1112C64.7963 73.0691 67.4707 77.9436 71.6507 80.8039C73.2206 81.8781 74.8414 82.7471 76.513 83.4109ZM105.162 45.7551C105.159 45.7346 105.149 45.7158 105.133 45.7027C105.117 45.6897 105.097 45.6836 105.076 45.6857L103.977 45.7973C103.956 45.7994 103.937 45.8096 103.924 45.8255C103.911 45.8415 103.905 45.862 103.907 45.8825L104.001 46.8043C104.003 46.8248 104.013 46.8436 104.029 46.8566C104.045 46.8697 104.065 46.8758 104.086 46.8737L105.186 46.762C105.206 46.76 105.225 46.7498 105.238 46.7339C105.251 46.7179 105.257 46.6974 105.255 46.6769L105.162 45.7551ZM102.848 46.5617C102.865 46.5674 102.884 46.5689 102.901 46.5658C102.919 46.5628 102.936 46.5554 102.95 46.5443C102.965 46.5331 102.976 46.5187 102.983 46.5021C102.99 46.4856 102.994 46.4675 102.992 46.4495L102.952 45.8912C102.951 45.8729 102.945 45.8552 102.935 45.8397C102.925 45.8242 102.912 45.8114 102.896 45.8025C102.88 45.7937 102.862 45.789 102.843 45.7889C102.825 45.7888 102.807 45.7933 102.791 45.802L102.16 46.1301C102.141 46.14 102.125 46.1554 102.115 46.1744C102.104 46.1933 102.099 46.215 102.101 46.2365C102.103 46.2581 102.111 46.2787 102.125 46.2956C102.138 46.3125 102.157 46.325 102.177 46.3315L102.848 46.5617ZM68.1357 66.684L65.8442 67.4954C65.7866 67.5165 65.7636 67.5578 65.7751 67.6192C66.8019 72.9099 69.4552 77.0152 73.735 79.9348C75.9516 81.4465 78.3122 82.5457 80.8168 83.2325C84.588 84.2655 88.6442 84.5906 92.4701 84.0151C96.8516 83.3591 100.857 81.8474 104.486 79.4802C106.2 78.3618 107.648 77.1868 108.83 75.9553C112.469 72.1685 114.926 67.765 116.2 62.7447C117.245 58.6356 117.32 54.141 116.439 49.9859C116.205 48.8848 115.81 47.5467 115.256 45.9718C115.219 45.8682 115.149 45.8318 115.046 45.8625L113.983 46.1819C113.962 46.1886 113.943 46.1996 113.927 46.2142C113.91 46.2287 113.897 46.2465 113.888 46.2664C113.879 46.2862 113.874 46.3077 113.875 46.3293C113.875 46.351 113.879 46.3723 113.888 46.3919C118.356 56.0401 115.613 67.3257 108.249 74.6748C103.533 79.3785 97.8112 82.093 91.0825 82.8181C88.9599 83.0464 87.0043 83.0205 85.2156 82.7404C81.5307 82.163 78.342 80.9266 75.6494 79.0313C71.4387 76.0713 68.9667 71.9747 68.2336 66.7415C68.2259 66.6821 68.1933 66.6629 68.1357 66.684ZM74.4172 46.5847C71.9357 49.6406 70.2315 53.1281 69.4484 56.9725C69.4446 56.9897 69.4484 56.9916 69.46 56.9782C71.8897 53.8648 73.5718 50.4146 74.5065 46.6279C74.541 46.4821 74.5113 46.4677 74.4172 46.5847ZM81.6891 80.9679C85.157 81.9692 88.5041 82.2647 91.7303 81.8541C101.97 80.5478 111.202 73.167 114.067 63.0929C115.636 57.5652 115.362 51.862 112.912 46.694C112.899 46.6657 112.876 46.6431 112.847 46.6299C112.818 46.6168 112.785 46.6141 112.754 46.6221L112.446 46.7027C112.365 46.7238 112.338 46.7746 112.363 46.8552C117.53 62.762 105.459 77.1552 90.5874 80.7348C87.8449 81.3947 84.8836 81.4302 81.7034 80.8413C81.69 80.8393 81.6823 80.8451 81.6804 80.8585L81.666 80.9305C81.6622 80.9516 81.6699 80.964 81.6891 80.9679ZM77.9956 78.873C77.9879 78.8961 77.9956 78.9124 78.0186 78.922C81.5019 80.3607 85.0774 80.8355 88.745 80.3463C90.6123 80.0969 92.4586 79.6174 94.2838 78.9076C107.14 73.9094 116.188 61.1132 111.68 47.0278C111.665 46.9799 111.632 46.9607 111.582 46.9703L110.405 47.2149C110.359 47.2245 110.34 47.2532 110.347 47.3012C112.311 57.8357 108.05 67.4523 99.3504 73.659C93.3021 77.9753 85.4142 80.3837 78.056 78.8328C78.0253 78.827 78.0052 78.8395 77.9956 78.8702V78.873ZM105.888 48.0868C106.283 56.2444 102.983 63.2886 97.1021 68.8162C93.448 72.25 89.4004 74.4954 84.9594 75.5524C80.9175 76.5164 76.5418 76.4186 72.785 74.6259C72.4088 74.4455 72.356 74.5136 72.6266 74.8302C73.1256 75.4172 73.6582 76.0119 74.2244 76.6142C74.6159 77.0286 75.112 77.3518 75.7127 77.5839C80.7448 79.5205 86.2663 78.9738 91.3215 77.2099C96.1674 75.516 100.232 72.9042 103.516 69.3745C107.917 64.6439 110.179 59.0097 110.304 52.472C110.336 50.8491 110.1 49.0709 109.818 47.4681C109.813 47.4416 109.803 47.4163 109.788 47.3939C109.773 47.3715 109.754 47.3523 109.731 47.3378C109.709 47.3232 109.684 47.3134 109.658 47.3091C109.631 47.3048 109.604 47.306 109.579 47.3127C108.429 47.6062 107.254 47.8019 106.052 47.8997C105.937 47.9093 105.882 47.9717 105.888 48.0868ZM73.1045 74.0705C72.9068 73.8864 72.6842 73.7559 72.4366 73.6792C72.3234 73.6446 72.3119 73.6657 72.4021 73.7425C72.5902 73.9036 72.8243 74.013 73.1045 74.0705C74.0027 74.5367 74.9575 74.8801 75.9689 75.1007C78.4792 75.6474 80.9962 75.6838 83.52 75.21C88.1702 74.3372 92.3079 72.2913 95.9333 69.0723C102.246 63.467 105.759 56.4689 105.39 47.8105C105.39 47.7683 105.368 47.7472 105.324 47.7472L104.181 47.7415C104.123 47.7415 104.095 47.7702 104.095 47.8278C104.091 48.4858 104.071 49.1744 104.034 49.8938C103.81 54.5534 102.417 58.7795 99.8571 62.5721C97.5828 65.9387 94.8633 68.703 91.6986 70.865C88.6452 72.9521 85.2962 74.3065 81.6516 74.928C78.6846 75.4344 75.8355 75.1486 73.1045 74.0705ZM25.6851 49.7874L26.4019 49.3787C26.567 49.2847 26.5708 49.185 26.4135 49.0795C26.2446 48.9644 26.0584 48.8838 25.855 48.8378C25.7053 48.8052 25.6247 48.8656 25.6131 49.0191L25.5585 49.7068C25.5508 49.8123 25.593 49.8391 25.6851 49.7874ZM7.03057 49.5946C6.88471 49.654 6.74941 49.7231 6.62466 49.8017C6.32911 49.9936 6.2888 50.2286 6.50375 50.5067C6.70911 50.7753 6.9634 50.9748 7.26663 51.1052C7.39906 51.1609 7.45279 51.1177 7.42784 50.9758L7.1889 49.6809C7.17163 49.5869 7.11885 49.5581 7.03057 49.5946ZM25.5556 51.8649C25.556 51.8831 25.5614 51.9008 25.5713 51.916C25.5812 51.9313 25.5952 51.9435 25.6116 51.9512C25.628 51.959 25.6463 51.962 25.6644 51.96C25.6825 51.958 25.6996 51.951 25.7139 51.9397L26.4106 51.37C26.4252 51.3583 26.4362 51.3426 26.4422 51.3249C26.4482 51.3071 26.449 51.288 26.4445 51.2698C26.4399 51.2516 26.4302 51.2351 26.4166 51.2222C26.4029 51.2094 26.3858 51.2007 26.3674 51.1973L25.6707 51.0563C25.6563 51.0533 25.6414 51.0535 25.6271 51.0571C25.6127 51.0606 25.5994 51.0673 25.5881 51.0768C25.5767 51.0862 25.5676 51.098 25.5615 51.1114C25.5554 51.1248 25.5524 51.1394 25.5527 51.1542L25.5556 51.8649ZM23.1921 51.6318C23.17 51.6372 23.1506 51.6504 23.1374 51.6688C23.1242 51.6873 23.1181 51.7099 23.1201 51.7325L23.2209 52.9411C23.2222 52.9564 23.2272 52.9711 23.2354 52.984C23.2437 52.9969 23.2549 53.0077 23.2682 53.0153C23.2815 53.0229 23.2964 53.0272 23.3118 53.0278C23.3271 53.0284 23.3423 53.0253 23.3562 53.0188L24.4357 52.5123C24.4521 52.5047 24.466 52.4925 24.4757 52.4772C24.4854 52.4619 24.4905 52.4441 24.4904 52.426L24.5019 51.4218C24.502 51.407 24.4987 51.3925 24.4922 51.3792C24.4857 51.366 24.4762 51.3545 24.4645 51.3455C24.4528 51.3366 24.4391 51.3305 24.4246 51.3278C24.4101 51.325 24.3952 51.3257 24.381 51.3297L23.1921 51.6318ZM20.6962 52.2131C20.6731 52.2173 20.6523 52.2299 20.6379 52.2485C20.6236 52.2671 20.6166 52.2904 20.6184 52.3138L20.7365 53.6835C20.7375 53.6978 20.7418 53.7117 20.749 53.7241C20.7562 53.7366 20.7662 53.7472 20.7781 53.7552C20.79 53.7633 20.8036 53.7685 20.8178 53.7705C20.8321 53.7725 20.8466 53.7713 20.8603 53.7669L22.6768 53.2432C22.6983 53.2372 22.717 53.2239 22.7297 53.2054C22.7423 53.187 22.748 53.1647 22.7459 53.1425L22.6394 51.9858C22.6383 51.9727 22.6346 51.96 22.6284 51.9485C22.6223 51.937 22.6138 51.9268 22.6035 51.9187C22.5933 51.9106 22.5814 51.9047 22.5688 51.9014C22.5561 51.8981 22.5429 51.8974 22.53 51.8994L20.6962 52.2131ZM20.178 53.9827C20.2041 53.9766 20.2272 53.9614 20.243 53.9397C20.2589 53.9181 20.2664 53.8915 20.2644 53.8648L20.1463 52.403C20.1449 52.3877 20.1404 52.3728 20.133 52.3593C20.1257 52.3458 20.1156 52.334 20.1034 52.3245C20.0913 52.3151 20.0773 52.3082 20.0624 52.3044C20.0475 52.3006 20.032 52.2999 20.0168 52.3023L18.5947 52.544C18.5664 52.5483 18.5409 52.5632 18.5232 52.5856C18.5056 52.6081 18.4971 52.6364 18.4997 52.6648L18.6407 54.1842C18.642 54.2001 18.6467 54.2155 18.6544 54.2295C18.6621 54.2434 18.6728 54.2556 18.6856 54.2651C18.6984 54.2747 18.7131 54.2813 18.7287 54.2847C18.7443 54.2882 18.7604 54.2882 18.776 54.2849L20.178 53.9827ZM8.97663 52.5929C8.96501 52.5891 8.95257 52.5886 8.94068 52.5915C8.92879 52.5943 8.91792 52.6004 8.90927 52.609C8.90063 52.6177 8.89455 52.6285 8.8917 52.6404C8.88885 52.6523 8.88935 52.6647 8.89315 52.6764L9.59269 54.7424C9.59682 54.7553 9.60484 54.7667 9.61565 54.7749C9.62647 54.7832 9.63956 54.7879 9.65315 54.7884L9.78845 54.7942C9.7985 54.7944 9.80847 54.7924 9.81761 54.7882C9.82675 54.784 9.83482 54.7778 9.8412 54.77C9.84758 54.7623 9.85211 54.7532 9.85444 54.7434C9.85678 54.7336 9.85685 54.7234 9.85466 54.7136L9.4689 52.7799C9.46677 52.7679 9.46133 52.7567 9.4532 52.7475C9.44507 52.7384 9.43456 52.7317 9.42284 52.7282L8.97663 52.5929ZM8.34906 54.1669L7.923 52.803C7.91668 52.7818 7.90497 52.7627 7.88897 52.7474C7.87298 52.7322 7.85323 52.7213 7.8316 52.7158C7.80997 52.7104 7.78718 52.7105 7.76539 52.7161C7.7436 52.7218 7.72353 52.7329 7.70709 52.7483C7.51517 52.9382 7.41249 53.1703 7.39906 53.4446C7.38946 53.6537 7.47103 53.8178 7.64375 53.9367L8.16481 54.3021C8.35865 54.4383 8.42007 54.3933 8.34906 54.1669ZM17.613 54.564C17.638 54.5604 17.6606 54.5473 17.6761 54.5275C17.6917 54.5077 17.699 54.4826 17.6965 54.4575L17.5209 52.8231C17.518 52.7982 17.5056 52.7753 17.4863 52.7592C17.467 52.7432 17.4423 52.7351 17.4172 52.7368L14.2592 52.944C14.2461 52.9447 14.2332 52.948 14.2214 52.9538C14.2096 52.9596 14.1991 52.9677 14.1905 52.9776C14.1819 52.9876 14.1754 52.9992 14.1714 53.0117C14.1674 53.0242 14.1659 53.0373 14.1671 53.0504L14.3197 54.8834C14.3211 54.8963 14.3251 54.9087 14.3314 54.9201C14.3376 54.9314 14.3461 54.9414 14.3563 54.9494C14.3665 54.9575 14.3781 54.9634 14.3906 54.9669C14.4031 54.9704 14.4162 54.9713 14.4291 54.9697L17.613 54.564ZM11.6338 53.0504C11.6313 53.0284 11.6214 53.0078 11.6057 52.9922C11.59 52.9765 11.5694 52.9666 11.5474 52.9641L9.88921 52.7713C9.87377 52.7696 9.85814 52.7716 9.84362 52.7771C9.82909 52.7826 9.81609 52.7915 9.80568 52.803C9.79527 52.8145 9.78776 52.8284 9.78376 52.8434C9.77976 52.8584 9.7794 52.8741 9.78269 52.8893L10.1742 54.9179C10.1788 54.9398 10.1907 54.9594 10.208 54.9735C10.2253 54.9876 10.2469 54.9954 10.2692 54.9956L11.7374 55.0158C11.751 55.0158 11.7645 55.013 11.777 55.0076C11.7894 55.0021 11.8006 54.9941 11.8098 54.9841C11.8191 54.9741 11.8261 54.9623 11.8305 54.9494C11.8348 54.9365 11.8365 54.9228 11.8353 54.9093L11.6338 53.0504ZM12.4312 54.9323C12.4339 54.9534 12.4441 54.9729 12.46 54.9871C12.4758 55.0014 12.4962 55.0095 12.5175 55.01H13.7353C13.7478 55.0101 13.7601 55.0075 13.7715 55.0025C13.783 54.9975 13.7932 54.9901 13.8016 54.9809C13.81 54.9717 13.8164 54.9608 13.8204 54.949C13.8243 54.9371 13.8257 54.9246 13.8245 54.9122L13.6633 53.0763C13.6612 53.0547 13.6513 53.0345 13.6354 53.0197C13.6195 53.0049 13.5987 52.9964 13.5769 52.9958H12.293C12.2802 52.9957 12.2676 52.9983 12.256 53.0035C12.2443 53.0086 12.2339 53.0163 12.2254 53.0258C12.217 53.0354 12.2107 53.0466 12.2069 53.0588C12.2032 53.071 12.2021 53.0838 12.2038 53.0965L12.4312 54.9323ZM24.4703 53.5885L23.4138 54.0345C23.3523 54.0614 23.3274 54.1074 23.3389 54.1726C24.1507 59.0385 25.9471 63.0325 29.3297 66.4826C29.345 66.4998 29.3613 66.5008 29.3786 66.4854L29.3815 66.4826C29.4007 66.4653 29.4016 66.4461 29.3844 66.425C26.3962 62.7533 24.7793 58.4879 24.5336 53.6288C24.5317 53.5847 24.5106 53.5713 24.4703 53.5885ZM31.981 69.3946C27.4383 66.356 24.3235 61.3549 23.2238 56.0056C23.1067 55.434 23.0002 54.8796 22.9042 54.3424C22.8965 54.3041 22.8745 54.2906 22.838 54.3021L21.0503 54.846C21.0303 54.8525 21.0132 54.866 21.0022 54.8839C20.9911 54.9018 20.9867 54.923 20.9898 54.9438C22.0377 62.8627 27.1504 69.4867 34.2841 73.0087C35.8348 73.7741 37.42 74.3995 39.0398 74.8848C45.686 76.8761 52.3734 76.9701 59.1021 75.1668C59.1103 75.1643 59.1178 75.1599 59.124 75.1539C59.1302 75.1479 59.1349 75.1405 59.1377 75.1324C59.1405 75.1243 59.1413 75.1156 59.1401 75.1071C59.139 75.0986 59.1358 75.0905 59.1309 75.0834L58.2989 73.941C58.2605 73.8873 58.2087 73.8681 58.1435 73.8835C55.614 74.4973 53.5412 74.8628 51.9253 74.9798C50.7929 75.0623 49.3507 75.0584 47.5985 74.9683C46.0497 74.8877 44.6266 74.7036 43.3292 74.4158C41.0415 73.9055 38.9525 73.1919 37.0621 72.275C35.1851 71.3657 33.4914 70.4055 31.981 69.3946ZM34.4107 73.5727C32.4455 72.5963 30.8074 71.6007 29.4966 70.5859C24.4933 66.7108 21.4667 61.517 20.4169 55.0042C20.4112 54.9736 20.3929 54.962 20.3622 54.9697L19.0006 55.3323C18.9809 55.3376 18.9639 55.3502 18.9527 55.3677C18.9416 55.3852 18.9371 55.4064 18.9401 55.4272C19.8469 61.0125 22.3515 66.6236 26.4681 70.3326C29.0264 72.6404 32.029 74.4283 35.4759 75.6963C43.2774 78.5652 51.8159 78.5565 59.8621 76.3696C59.9983 76.3332 60.0262 76.2564 59.9456 76.1394L59.7009 75.7797C59.5972 75.6263 59.4552 75.5754 59.2748 75.6272C56.3039 76.4655 52.9357 76.8885 49.1703 76.8962C43.7985 76.9058 38.8786 75.798 34.4107 73.5727ZM60.6394 77.0228C49.6741 80.4183 36.731 79.2068 27.3894 72.2951C22.0895 68.376 18.9862 62.1548 17.9124 55.6431C17.8932 55.5299 17.826 55.481 17.7109 55.4963L14.6334 55.8963C14.5471 55.9078 14.5106 55.9557 14.5241 56.0401C15.3397 61.0585 17.2647 65.7335 20.2989 70.065C20.9975 71.0626 21.8496 71.9728 22.8553 72.7958C29.3757 78.1364 37.4939 80.9535 45.8827 81.1808C48.1646 81.2441 50.0349 81.199 51.4935 81.0456C54.8808 80.6888 58.3977 79.861 62.0442 78.5623C62.0527 78.5591 62.0603 78.5539 62.0662 78.547C62.0722 78.5402 62.0764 78.532 62.0784 78.5231C62.0804 78.5143 62.0802 78.5051 62.0777 78.4963C62.0753 78.4876 62.0707 78.4796 62.0644 78.4731L60.7574 77.0545C60.7427 77.0381 60.7237 77.0264 60.7027 77.0208C60.6817 77.0152 60.6597 77.0159 60.6394 77.0228ZM10.4362 56.0142C10.6636 56.8286 10.8075 57.6256 11.1962 58.3767C12.3266 60.5636 13.6508 62.6402 15.1689 64.6064C15.1843 64.6275 15.2025 64.6304 15.2236 64.6151H15.2265C15.2495 64.5997 15.2543 64.5805 15.2409 64.5575C13.719 61.893 12.6615 59.0385 12.0684 55.9941C12.0612 55.9598 12.0423 55.9291 12.0151 55.9071C11.9878 55.8851 11.9538 55.8731 11.9188 55.8732L10.5398 55.8761C10.4458 55.8761 10.4112 55.9222 10.4362 56.0142ZM19.0697 69.1212C16.5047 65.1014 14.8119 60.8484 14.0318 56.0401C14.0222 55.9864 13.9905 55.9605 13.9368 55.9625L12.7047 56.0373C12.6973 56.0376 12.6901 56.0394 12.6835 56.0427C12.677 56.046 12.6712 56.0507 12.6665 56.0564C12.6619 56.0621 12.6585 56.0688 12.6567 56.0759C12.6548 56.083 12.6545 56.0904 12.6557 56.0977C13.3716 59.848 14.7352 63.2204 16.7465 66.215C16.9595 66.5353 17.1457 66.8557 17.305 67.176C17.7051 67.9789 18.4075 68.5774 19.0034 69.2133C19.0265 69.2382 19.0486 69.2344 19.0697 69.2018C19.0869 69.1749 19.0869 69.1481 19.0697 69.1212ZM52.8321 62.0368C52.93 62.0061 52.9693 61.94 52.9501 61.8383L52.8033 61.0556C52.8001 61.0386 52.7928 61.0227 52.7818 61.0092C52.7709 60.9958 52.7567 60.9852 52.7406 60.9784C52.7244 60.9716 52.7068 60.9688 52.6891 60.9702C52.6714 60.9716 52.6543 60.9772 52.6392 60.9866C48.1349 63.7681 43.3158 65.2424 38.1819 65.4093C34.5643 65.5263 31.2508 64.6045 28.2415 62.644C28.0975 62.55 28.0563 62.5836 28.1177 62.7447C28.1791 62.9135 28.2837 63.0468 28.4315 63.1447C35.2053 67.6681 44.6391 66.5401 51.6777 63.1591C51.7698 63.1149 51.8341 63.0449 51.8706 62.949C52.0471 62.4809 52.3676 62.1769 52.8321 62.0368ZM68.9332 63.2051C69.175 63.1476 69.3678 63.0468 69.5118 62.903C69.6308 62.784 69.6106 62.6987 69.4513 62.6469L69.0915 62.526C68.9245 62.4723 68.8401 62.5327 68.8381 62.7073L68.8324 63.1245C68.8324 63.1955 68.866 63.2224 68.9332 63.2051ZM53.4338 64.0914L53.2063 63.2569C53.1737 63.1341 53.0979 63.0948 52.9789 63.1389L52.8724 63.1792C52.7438 63.2291 52.6949 63.3221 52.7256 63.4583C52.8043 63.7864 53.0019 64.029 53.3186 64.1863C53.428 64.242 53.4664 64.2103 53.4338 64.0914ZM35.8012 67.6595C39.438 68.398 42.9175 68.446 46.2397 67.8033C47.9362 67.4734 49.9495 66.8893 52.2794 66.0509C52.3964 66.0087 52.4857 65.9339 52.5471 65.8265L52.9357 65.1445C52.9875 65.0525 52.9655 64.9882 52.8695 64.9517C52.3993 64.7676 52.0759 64.4165 51.8994 63.8986C51.889 63.8685 51.8725 63.8408 51.8508 63.8175C51.829 63.7942 51.8027 63.7757 51.7734 63.7632C51.7441 63.7508 51.7125 63.7446 51.6806 63.7451C51.6487 63.7456 51.6173 63.7528 51.5885 63.7662C48.1541 65.392 44.1122 66.4768 40.2403 66.566C38.7241 66.6005 37.3346 66.5478 36.0718 66.4078C33.7486 66.1488 31.4312 65.297 29.2951 64.1921C28.99 64.0348 28.9401 64.0942 29.1454 64.3705C29.7097 65.134 30.3353 65.9167 31.0224 66.7185C31.4734 67.2403 32.0127 67.6422 32.6403 67.9242C39.178 70.8506 46.9047 70.2463 53.5057 67.9443C53.6497 67.8925 53.6554 67.8283 53.523 67.7515C53.0278 67.46 52.6939 67.0072 52.5212 66.3934C52.4866 66.2725 52.4118 66.2351 52.2966 66.2811C49.0877 67.5664 45.7052 68.281 42.1489 68.4249C41.552 68.4498 40.9504 68.4316 40.3439 68.3702C39.7413 68.3088 39.1655 68.2589 38.6166 68.2206C37.6436 68.1534 36.7051 67.9664 35.8012 67.6595ZM69.008 64.5374C68.9947 64.5384 68.9818 64.5422 68.97 64.5484C68.9581 64.5546 68.9476 64.5632 68.9391 64.5736C68.9305 64.5841 68.924 64.5962 68.9201 64.6092C68.9161 64.6222 68.9147 64.636 68.9159 64.6496L68.9303 64.8165C68.9456 64.9872 69.032 65.0371 69.1894 64.9661L69.2642 64.9316C69.291 64.9197 69.3146 64.9016 69.333 64.8788C69.3514 64.856 69.3641 64.8291 69.37 64.8004C69.3759 64.7717 69.3748 64.742 69.367 64.7138C69.3591 64.6855 69.3446 64.6596 69.3247 64.6381C69.2537 64.5594 69.1481 64.5259 69.008 64.5374ZM67.9342 65.651C67.9571 65.6423 67.9766 65.6263 67.9896 65.6055C68.0026 65.5847 68.0084 65.5603 68.0062 65.5359L67.9515 64.8654C67.9503 64.8492 67.9455 64.8335 67.9376 64.8192C67.9297 64.805 67.9188 64.7927 67.9057 64.7831C67.8925 64.7736 67.8775 64.767 67.8615 64.7638C67.8456 64.7606 67.8291 64.7609 67.8133 64.7647L65.5304 65.2826C65.5027 65.2889 65.4783 65.3054 65.4623 65.3289C65.4462 65.3524 65.4397 65.3811 65.4441 65.4093L65.5995 66.4078C65.6023 66.424 65.6086 66.4395 65.618 66.453C65.6275 66.4665 65.6398 66.4778 65.6541 66.4861C65.6684 66.4943 65.6843 66.4993 65.7007 66.5007C65.7172 66.5021 65.7337 66.4998 65.7492 66.4941L67.9342 65.651ZM64.9973 65.4902C64.995 65.4783 64.9904 65.467 64.9838 65.4569C64.9772 65.4468 64.9686 65.4381 64.9586 65.4313C64.9486 65.4245 64.9373 65.4197 64.9255 65.4173C64.9136 65.4148 64.9014 65.4147 64.8895 65.417L63.1872 65.7416C63.1753 65.7439 63.164 65.7484 63.1539 65.7551C63.1438 65.7617 63.1351 65.7703 63.1283 65.7803C63.1215 65.7903 63.1167 65.8015 63.1143 65.8134C63.1118 65.8252 63.1117 65.8374 63.114 65.8493L63.3287 66.9742C63.331 66.9861 63.3355 66.9974 63.3422 67.0075C63.3488 67.0177 63.3574 67.0264 63.3674 67.0331C63.3774 67.0399 63.3887 67.0447 63.4005 67.0472C63.4123 67.0496 63.4246 67.0497 63.4364 67.0474L65.1388 66.7229C65.1506 66.7206 65.162 66.716 65.1721 66.7094C65.1822 66.7027 65.1909 66.6942 65.1977 66.6842C65.2045 66.6742 65.2093 66.6629 65.2117 66.6511C65.2142 66.6392 65.2143 66.627 65.212 66.6152L64.9973 65.4902ZM54.5104 67.1127L54.0469 65.8438C53.9683 65.6327 53.8627 65.6184 53.7303 65.8006L53.6122 65.9646C53.5523 66.0463 53.5193 66.1446 53.5177 66.2461C53.5162 66.3477 53.5462 66.4474 53.6036 66.5315C53.8109 66.8384 54.0748 67.0677 54.3953 67.2192C54.4105 67.227 54.4278 67.23 54.4447 67.2277C54.4617 67.2253 54.4775 67.2179 54.4901 67.2062C54.5027 67.1946 54.5114 67.1794 54.515 67.1627C54.5186 67.146 54.517 67.1285 54.5104 67.1127ZM55.8145 67.2365C55.6571 66.8106 55.5324 66.3608 55.4403 65.8869C55.4338 65.8573 55.4168 65.8312 55.3926 65.814C55.3685 65.7969 55.3392 65.79 55.3107 65.7948L55.21 65.8121C55.1409 65.8217 55.1188 65.8591 55.1438 65.9243L55.6303 67.2365C55.6495 67.2863 55.684 67.3027 55.7339 67.2854L55.803 67.2595C55.8053 67.2589 55.8075 67.2577 55.8094 67.2562C55.8113 67.2546 55.8128 67.2527 55.8139 67.2506C55.815 67.2484 55.8156 67.246 55.8157 67.2436C55.8158 67.2412 55.8154 67.2387 55.8145 67.2365ZM57.2481 66.0222C57.2445 66.0019 57.2344 65.9834 57.2194 65.9694C57.2043 65.9554 57.1851 65.9466 57.1647 65.9445L55.8375 65.8121C55.8227 65.8109 55.8078 65.8131 55.794 65.8187C55.7802 65.8243 55.7679 65.833 55.7581 65.8442C55.7482 65.8554 55.7412 65.8688 55.7375 65.8832C55.7338 65.8976 55.7336 65.9127 55.7368 65.9272L56.1369 67.5933C56.1421 67.6138 56.1539 67.632 56.1706 67.6451C56.1873 67.6581 56.2079 67.6652 56.2291 67.6652L57.4238 67.6739C57.4376 67.6737 57.4512 67.6705 57.4637 67.6645C57.4761 67.6585 57.4871 67.6498 57.4959 67.6391C57.5047 67.6284 57.511 67.616 57.5145 67.6026C57.5179 67.5892 57.5184 67.5752 57.5159 67.5616L57.2481 66.0222ZM62.4156 67.2768C62.4291 67.275 62.4422 67.2705 62.454 67.2636C62.4658 67.2566 62.476 67.2474 62.4841 67.2363C62.4922 67.2253 62.498 67.2127 62.501 67.1994C62.5041 67.1861 62.5044 67.1722 62.5019 67.1588L62.2745 65.9128C62.2703 65.8882 62.257 65.866 62.2374 65.8506C62.2177 65.8351 62.1929 65.8276 62.168 65.8294L59.5051 66.0337C59.491 66.0347 59.4773 66.0386 59.4649 66.0452C59.4524 66.0519 59.4415 66.0611 59.4328 66.0722C59.4241 66.0833 59.4179 66.0961 59.4144 66.1098C59.411 66.1235 59.4105 66.1378 59.413 66.1517L59.6577 67.5242C59.662 67.5499 59.676 67.573 59.697 67.5886C59.7179 67.6042 59.7441 67.611 59.77 67.6077L62.4156 67.2768ZM58.0139 67.5098C58.0187 67.5352 58.0323 67.5581 58.0523 67.5744C58.0723 67.5908 58.0975 67.5995 58.1233 67.599L59.0157 67.5962C59.0317 67.5964 59.0475 67.5931 59.062 67.5865C59.0765 67.58 59.0895 67.5703 59.0999 67.5583C59.1103 67.5462 59.118 67.532 59.1223 67.5167C59.1267 67.5014 59.1276 67.4853 59.1251 67.4695L58.8919 66.0394C58.8879 66.014 58.875 65.9908 58.8555 65.974C58.836 65.9571 58.8112 65.9477 58.7854 65.9473L57.8527 65.9416C57.8365 65.9413 57.8204 65.9447 57.8056 65.9514C57.7908 65.9581 57.7777 65.968 57.7672 65.9804C57.7568 65.9928 57.7492 66.0073 57.745 66.023C57.7409 66.0387 57.7403 66.0551 57.7433 66.0711L58.0139 67.5098ZM34.8195 69.5039C37.4047 70.7911 39.9965 71.5939 42.5951 71.9124C46.7291 72.415 51.1211 71.9258 55.7713 70.4449C55.9556 70.3873 56.0045 70.2713 55.9181 70.0967L55.256 68.7472C55.1811 68.5945 55.0549 68.473 54.8992 68.4036C54.7436 68.3342 54.5684 68.3214 54.4039 68.3673C53.6343 68.5841 52.8225 68.821 51.9685 69.0781C48.0437 70.2578 44.094 70.7173 40.1194 70.4564C38.4439 70.347 36.683 69.9758 34.8368 69.3428C34.8253 69.339 34.8176 69.3428 34.8138 69.3543L34.7878 69.4205C34.7725 69.4588 34.783 69.4867 34.8195 69.5039ZM60.2507 74.6431C59.2259 72.8035 58.4486 70.8995 57.9189 68.9313C57.8613 68.7145 57.7203 68.6062 57.4957 68.6062H56.6724C56.4287 68.6062 56.3634 68.7136 56.4766 68.9284C57.5514 70.9504 58.7758 72.8754 60.15 74.7036C60.1711 74.7323 60.1979 74.7371 60.2306 74.7179V74.7151C60.2594 74.6978 60.2661 74.6738 60.2507 74.6431ZM63.5584 78.3234C61.598 75.469 60.2075 72.1225 59.4303 68.7846C59.4034 68.6656 59.3286 68.6062 59.2057 68.6062H58.4745C58.3709 68.6062 58.3325 68.656 58.3594 68.7558C59.0215 71.2381 60.0252 73.5305 61.3706 75.633C61.8331 76.3543 62.3235 77.0909 62.8416 77.8429C63.0048 78.0789 63.1938 78.2851 63.4088 78.4616C63.7907 78.7781 63.8406 78.732 63.5584 78.3234ZM39.0628 71.7973C38.6061 71.6573 38.1464 71.5163 37.6839 71.3743C37.659 71.3685 37.6426 71.3772 37.635 71.4002V71.4031C37.6254 71.4299 37.634 71.4491 37.6609 71.4606C41.6048 73.1603 45.6639 74.0206 49.8382 74.0417C52.193 74.0552 54.7561 73.6859 57.5274 72.9339C57.5362 72.9317 57.5443 72.9274 57.5511 72.9214C57.5579 72.9154 57.5632 72.9079 57.5666 72.8995C57.57 72.8911 57.5713 72.882 57.5705 72.873C57.5697 72.864 57.5668 72.8553 57.5619 72.8476L56.4162 70.9513C56.4036 70.9303 56.3839 70.9145 56.3608 70.9066C56.3376 70.8987 56.3123 70.8992 56.2895 70.9081C53.9385 71.8328 51.2622 72.4188 48.2606 72.6663C44.9058 72.9425 41.8399 72.6529 39.0628 71.7973Z" fill="#003B81"/>
<path d="M79.3425 77.4343C78.7783 77.3556 78.3666 77.2703 78.1075 77.1782C78.0979 77.1744 78.0883 77.1744 78.0787 77.1782C78.0653 77.1859 78.0663 77.1916 78.0816 77.1955C78.0912 77.1993 78.1008 77.2003 78.1104 77.1983C78.5681 77.1552 78.9539 77.3911 79.4375 77.4084C81.6273 77.4966 83.4381 77.4305 84.8698 77.2098C89.8175 76.4483 94.1596 74.4858 97.8963 71.3225C103.021 66.9813 106.272 61.4844 107.65 54.8316C107.882 53.717 107.986 52.5785 107.963 51.416C107.942 50.2094 107.945 49.0574 107.972 47.9601C107.972 47.9486 107.978 47.9429 107.989 47.9429C108.018 47.9429 108.033 47.9573 108.033 47.986C108.023 49.2176 108.031 50.4329 108.056 51.6318C108.077 52.7751 107.965 53.9396 107.722 55.1251C106.344 61.7932 102.955 67.3506 97.5566 71.7973C94.5051 74.3093 90.7915 76.0445 86.9713 77.0487C84.5781 77.6779 82.0352 77.8064 79.3425 77.4343Z" fill="#003B81"/>
<path d="M32.3353 66.6024C32.8358 66.8066 33.2503 66.9506 33.2611 66.9241C33.272 66.8976 32.875 66.7107 32.3745 66.5065C31.874 66.3023 31.4595 66.1583 31.4487 66.1848C31.4379 66.2113 31.8348 66.3983 32.3353 66.6024Z" fill="#003B81"/>
<path d="M35.8011 67.6594C35.114 67.5654 34.4624 67.3909 33.8464 67.1357C33.7466 67.0954 33.7485 67.0897 33.8521 67.1184L35.8011 67.6594Z" fill="#003B81"/>
<path d="M73.1042 74.0705C72.824 74.0129 72.5899 73.9036 72.4018 73.7425C72.3116 73.6657 72.3231 73.6446 72.4363 73.6792C72.6839 73.7559 72.9065 73.8863 73.1042 74.0705Z" fill="white"/>
<path d="M74.9412 76.2631C74.9297 76.2631 74.922 76.2679 74.9182 76.2775C74.9105 76.2929 74.9057 76.2919 74.9038 76.2746C74.9038 76.265 74.9067 76.2564 74.9124 76.2487C74.9182 76.2391 74.9259 76.2363 74.9355 76.2401C75.7665 76.5566 76.5639 76.8118 77.3278 77.0055C77.6617 77.0899 77.6579 77.1072 77.3162 77.0573C76.5006 76.9365 75.7195 76.6746 74.9729 76.2718C74.9633 76.2679 74.9527 76.265 74.9412 76.2631Z" fill="#003B81"/>
</svg>
