<svg width="118" height="93" viewBox="0 0 118 93" fill="none" xmlns="http://www.w3.org/2000/svg">
<path d="M16.2184 14.4169C16.1178 14.3105 16.0788 14.1775 16.1014 14.0179C16.109 13.9585 16.1301 13.9014 16.1632 13.851C16.1963 13.8005 16.2404 13.7579 16.2924 13.7263C17.0729 13.2496 17.8862 12.7482 18.7325 12.2224C19.1238 11.9799 19.5674 12.164 19.9032 12.4096C20.0142 12.4894 20.1168 12.4781 20.2113 12.3758C20.3315 12.2438 20.467 12.118 20.6273 12.0321C23.4597 10.522 26.213 9.30549 28.8873 8.38266C33.8928 6.65566 39.0215 5.40031 44.2735 4.61661C50.4066 3.70196 57.1241 3.45949 64.4259 3.88919C71.7154 4.31685 78.8211 5.66632 85.7429 7.93761C88.0885 8.70698 90.5656 9.69223 93.1742 10.8933C95.7765 12.0904 98.5802 13.7355 101.585 15.8288C101.686 15.9004 101.797 15.9198 101.918 15.8871L102.824 15.6446C102.926 15.6167 103.034 15.6112 103.139 15.6287C103.244 15.6462 103.345 15.6862 103.434 15.7459C104.025 16.1449 104.614 16.5736 105.199 17.032C105.92 17.5967 105.658 18.5421 105.698 19.3401C105.704 19.4465 105.744 19.5396 105.818 19.6194C108.862 22.8636 111.207 26.5929 112.107 30.9298C112.205 31.4066 112.273 31.8782 112.31 32.3447C112.362 33.0384 112.553 33.683 112.55 34.395C112.521 40.7137 112.529 46.5045 112.572 51.7673C112.59 54.2494 112.463 56.3171 112.19 57.9704C110.979 65.2692 106.207 71.7792 100.411 76.3985C95.1552 80.5891 89.095 83.771 82.2307 85.944C74.3096 88.4486 66.4223 89.6272 58.2178 89.6426C54.9746 89.6467 50.9725 89.3581 46.2114 88.777C46.1475 88.7691 46.0828 88.7825 46.0271 88.8152C45.9714 88.848 45.9279 88.8982 45.9033 88.9581L45.8386 89.1238C45.777 89.2732 45.665 89.3356 45.5028 89.3111C44.4121 89.1371 43.4242 88.9847 42.5389 88.8537C42.1486 88.7944 41.9525 88.5632 41.9504 88.1601C41.9504 88.0578 41.9001 87.9964 41.7995 87.9759C35.3644 86.7257 29.2734 84.5997 23.5264 81.5979C12.9711 76.0885 3.73754 66.3036 3.72522 53.8821C3.72111 47.1705 3.71187 41.1209 3.69749 35.7332C3.69133 33.5929 3.81046 31.9079 4.05488 30.6781C5.34271 24.1742 10.5865 18.3917 16.1784 14.7453C16.3222 14.6512 16.3355 14.5417 16.2184 14.4169ZM75.9486 10.0831C82.1998 11.5747 88.7253 14.2113 93.8427 18.054C93.9392 18.1257 94.044 18.1441 94.157 18.1093L100.303 16.2953C100.32 16.2906 100.334 16.2813 100.346 16.2686C100.357 16.2558 100.364 16.2401 100.367 16.2234C100.369 16.2066 100.367 16.1894 100.36 16.1739C100.353 16.1584 100.342 16.1451 100.328 16.1357C96.2202 13.312 91.7138 11.0325 86.8089 9.29731C76.6665 5.70929 65.7384 4.27285 54.9612 4.69028C49.8777 4.88671 45.0694 5.41361 40.5363 6.27097C33.6884 7.56213 27.2194 9.73213 21.1295 12.781C21.1159 12.7877 21.1045 12.7982 21.0967 12.8111C21.0888 12.8241 21.0848 12.839 21.0851 12.8541C21.0855 12.8692 21.0901 12.8839 21.0985 12.8965C21.1069 12.9091 21.1187 12.9191 21.1325 12.9252L26.2685 15.2303C26.3392 15.2623 26.4171 15.2757 26.4947 15.2693C26.5723 15.2628 26.6472 15.2367 26.7121 15.1934C27.1886 14.8763 27.6919 14.5898 28.2218 14.334C34.8704 11.1143 42.2308 9.11929 49.6127 8.41642C52.3856 8.14939 55.1923 7.9284 58.036 7.9683C60.1105 7.9949 61.5134 8.02559 62.2446 8.06038C66.5641 8.25681 71.1321 8.93104 75.9486 10.0831ZM35.8902 11.4642C32.7929 12.43 29.8167 13.6854 26.9617 15.2303C26.9345 15.2444 26.9121 15.2659 26.8968 15.2923C26.8816 15.3187 26.8742 15.349 26.8755 15.3797C26.8768 15.4104 26.8867 15.4403 26.9041 15.466C26.9215 15.4916 26.9457 15.5121 26.974 15.5249L31.7525 17.6489C31.8552 17.6939 31.9548 17.6888 32.0514 17.6335C35.5616 15.6631 39.193 14.2246 42.9456 13.3181C47.0042 12.34 50.7712 11.765 54.2465 11.5932C56.3631 11.4857 58.4951 11.3906 60.6302 11.5072C70.1256 12.029 79.6858 14.2911 87.3851 19.8803C87.4898 19.956 87.6048 19.9754 87.7301 19.9386L93.3744 18.3027C93.51 18.2638 93.5223 18.2014 93.4114 18.1154C91.8093 16.8857 90.0634 15.7909 88.1738 14.8313C85.2038 13.3232 82.3447 12.1599 79.5965 11.3415C73.5085 9.52444 67.2881 8.46246 60.9968 8.26295C59.2653 8.2077 57.6643 8.19133 56.1936 8.21384C49.243 8.32843 42.4752 9.4119 35.8902 11.4642ZM66.0773 12.2254C57.7218 11.1143 49.3447 11.7435 40.9461 14.1131C37.9863 14.9479 35.121 16.1439 32.3502 17.7011C32.3259 17.7154 32.3059 17.7362 32.2924 17.7609C32.2788 17.7857 32.2724 17.8136 32.2736 17.8415C32.2749 17.8695 32.2839 17.8963 32.2996 17.9192C32.3153 17.9421 32.3371 17.9601 32.3626 17.9712L36.9069 19.9417C37.0137 19.9867 37.1164 19.9805 37.215 19.9232C38.4269 19.205 39.7794 18.5697 41.2726 18.0172C46.2412 16.1797 51.3709 15.2078 56.6619 15.1014C63.5365 14.9643 69.8237 16.0621 75.5234 18.3947C77.2857 19.115 79.2288 20.179 81.3526 21.5868C81.443 21.6482 81.5415 21.6635 81.6484 21.6329L86.9722 20.1534C87.1242 20.1105 87.1386 20.0399 87.0154 19.9417C86.6333 19.6347 86.2431 19.3493 85.8446 19.0853C79.9662 15.1842 73.1511 13.1646 66.0773 12.2254ZM40.678 24.9968V36.5712C40.6781 36.6161 40.6884 36.6604 40.7082 36.7008C40.7279 36.7412 40.7566 36.7766 40.792 36.8044C41.4349 37.2976 42.1322 37.7477 42.884 38.1549C43.2763 38.3677 43.4005 38.2624 43.2568 37.8388C43.1171 37.4234 43.1027 37.0623 43.2136 36.7553C43.2444 36.6714 43.2598 36.5845 43.2598 36.4944L43.2629 23.4223C43.2628 23.3529 43.2424 23.285 43.2041 23.2267C43.1659 23.1684 43.1114 23.1223 43.0473 23.0938L19.1977 12.6367C19.0765 12.5835 18.9584 12.5917 18.8434 12.6613L16.8069 13.9074C16.6118 14.0261 16.619 14.1315 16.8285 14.2235L40.4593 24.6623C40.6051 24.7277 40.678 24.8393 40.678 24.9968ZM23.0581 17.5814C23.0478 17.7103 22.9821 17.8167 22.8609 17.9006C17.953 21.286 13.5442 26.7432 13.4672 32.8266C13.3747 39.929 18.2056 45.5827 24.0563 49.3149C28.4169 52.0978 33.0825 54.1532 38.0531 55.4812C40.1255 56.0357 42.2698 56.5319 44.4861 56.9698C44.5113 56.9748 44.5374 56.971 44.5599 56.9593C44.5824 56.9475 44.5999 56.9285 44.6093 56.9053L46.6427 52.108C46.6941 51.9873 46.655 51.9157 46.5256 51.8932C44.2273 51.4901 41.7707 50.8445 39.156 49.9564C33.3577 47.9921 27.6364 44.8798 24.2011 40.1346C21.4221 36.298 20.5626 31.4915 22.5467 27.1668C23.89 24.2326 25.8741 22.0748 28.3512 20.0829C28.4662 19.9908 28.457 19.9161 28.3234 19.8588L23.0581 17.5814L17.4909 15.0983C17.3964 15.0553 17.305 15.0615 17.2167 15.1167C8.01081 21.0528 1.1742 30.9942 6.45493 42.0806C9.9672 49.4531 17.7281 54.631 25.2887 57.7985C30.5017 59.9818 36.11 61.5748 42.1137 62.5774C42.2308 62.5958 42.313 62.5508 42.3602 62.4424L44.446 57.5223C44.5158 57.3565 44.4624 57.2573 44.2858 57.2245C40.0115 56.4224 36.0073 55.2766 32.2732 53.7869C27.0695 51.709 22.0137 48.7962 18.2056 44.6527C16.9733 43.3104 16.0726 42.1225 15.5037 41.0892C12.3467 35.3373 12.5388 29.8013 16.0798 24.4812C17.8072 21.8866 20.0973 19.5969 22.9503 17.6121C22.9626 17.6018 22.978 17.5947 22.9965 17.5906C23.017 17.5885 23.0376 17.5855 23.0581 17.5814ZM80.9952 21.6574C77.5723 19.202 73.6472 17.6243 69.4478 16.636C59.709 14.3371 48.7501 14.9172 39.458 19.0454C38.7781 19.3483 38.127 19.6982 37.5046 20.0951C37.493 20.1032 37.4838 20.1141 37.4778 20.1269C37.4718 20.1396 37.4693 20.1537 37.4705 20.1678C37.4718 20.1818 37.4767 20.1952 37.4849 20.2067C37.493 20.2182 37.5041 20.2274 37.517 20.2332L41.8888 22.1025C42.0121 22.1557 42.1322 22.1465 42.2493 22.0748C43.7713 21.1397 45.3939 20.4174 47.1172 19.9079C54.8134 17.6325 62.4315 17.7635 69.9716 20.3008C71.929 20.9576 73.8053 21.9582 75.6005 23.3026C75.6847 23.3639 75.7771 23.3803 75.8778 23.3517L80.9644 21.8324C80.9824 21.8274 80.9986 21.8175 81.0112 21.8038C81.0238 21.79 81.0322 21.7729 81.0354 21.7546C81.0387 21.7363 81.0366 21.7174 81.0295 21.7002C81.0223 21.683 81.0105 21.6681 80.9952 21.6574ZM77.03 26.1816C77.4552 25.9851 77.9019 25.8204 78.3702 25.6874C87.3029 23.1788 95.7899 20.7561 103.831 18.4193C104.221 18.3047 104.611 18.1778 104.999 18.0387C105.042 18.0236 105.079 17.9974 105.108 17.9627C105.137 17.9281 105.157 17.8863 105.164 17.8417C105.171 17.7971 105.166 17.7514 105.15 17.7094C105.133 17.6674 105.105 17.6306 105.07 17.6029L103.169 16.1572C103.126 16.1239 103.076 16.1012 103.023 16.0911C102.97 16.0809 102.915 16.0836 102.864 16.0989L74.4852 24.2049C74.3795 24.2349 74.2866 24.2982 74.2205 24.3852C74.1543 24.4721 74.1185 24.578 74.1185 24.6868L74.1155 37.492C74.1155 37.6598 74.1853 37.6976 74.325 37.6055C75.1691 37.0449 75.9404 36.4034 76.6387 35.6811C76.7271 35.589 76.7712 35.4785 76.7712 35.3496L76.7435 26.6266C76.7433 26.5332 76.7702 26.4415 76.821 26.3627C76.8718 26.2838 76.9443 26.2209 77.03 26.1816ZM104.802 18.7201L105.113 18.9626C105.12 18.968 105.129 18.9714 105.138 18.9724C105.147 18.9734 105.157 18.972 105.165 18.9682C105.174 18.9645 105.181 18.9586 105.186 18.9511C105.192 18.9437 105.195 18.9349 105.196 18.9257L105.205 18.7753C105.218 18.626 105.148 18.5554 104.996 18.5635L104.848 18.5728C104.831 18.5739 104.815 18.5801 104.802 18.5904C104.789 18.6008 104.779 18.6148 104.774 18.6307C104.769 18.6466 104.769 18.6637 104.774 18.6796C104.779 18.6955 104.789 18.7097 104.802 18.7201ZM97.1547 20.9883C100.149 24.1129 102.281 27.6272 102.74 31.9979C103.446 38.7289 98.7445 44.7386 93.6209 48.4678C91.4889 50.0188 89.0868 51.4123 86.4146 52.6482C82.0294 54.676 77.3268 56.1513 72.3069 57.0741C65.4221 58.3407 58.72 58.708 52.2007 58.176C51.0526 58.0819 49.8428 57.9683 48.5714 57.8353C48.4502 57.8231 48.367 57.8722 48.3218 57.9827L46.2761 62.9488C46.2329 63.0552 46.2679 63.1145 46.3808 63.1268C50.8318 63.62 54.7302 63.8635 58.0761 63.8573C62.8988 63.8471 67.9505 63.4245 73.2312 62.5897C79.2165 61.6443 85.1822 59.9163 91.1284 57.4056C92.9913 56.6178 94.8214 55.6899 96.6186 54.6218C102.34 51.221 107.916 46.6324 110.313 40.2206C112.09 35.4693 111.746 30.7579 109.281 26.0864C107.868 23.4079 106.003 21.0435 103.686 18.9932C103.639 18.9503 103.586 18.938 103.526 18.9564L97.2071 20.7949C97.1876 20.8004 97.1699 20.8108 97.1556 20.8252C97.1414 20.8395 97.1311 20.8573 97.1258 20.8768C97.1206 20.8963 97.1204 20.9168 97.1255 20.9364C97.1306 20.9559 97.1406 20.9738 97.1547 20.9883ZM71.0037 24.2479C71.7596 24.5712 72.5452 24.8914 73.3606 25.2086C73.5311 25.2741 73.603 25.2168 73.5763 25.0367C73.4839 24.4167 73.7242 24.0054 74.2972 23.8029C74.4595 23.7456 74.4677 23.6709 74.3219 23.5788C72.3234 22.3245 70.4327 21.4272 68.6499 20.887C63.2295 19.246 57.6715 18.8879 51.9758 19.8128C51.2631 19.9294 50.5668 20.0869 49.8869 20.2854C48.4574 20.7059 46.8984 20.9944 45.5705 21.6052C44.8845 21.9224 44.1718 22.2324 43.4324 22.5352C43.2722 22.6007 43.2691 22.6733 43.4231 22.7532C43.571 22.8268 43.6511 22.9516 43.6634 23.1276C43.6943 23.5471 43.6994 23.9717 43.6789 24.4014C43.6686 24.6326 43.7713 24.7042 43.9869 24.6162C47.3185 23.2637 50.4857 22.4258 53.4886 22.1025C57.7464 21.64 61.954 21.8395 66.1112 22.701C67.7687 23.0447 69.3996 23.5604 71.0037 24.2479ZM35.9642 48.5323C39.3553 49.9319 42.9035 50.9908 46.6088 51.709C46.7505 51.7356 46.8491 51.6824 46.9046 51.5494L48.8487 46.9239C48.8573 46.9031 48.8611 46.8806 48.8599 46.858C48.8586 46.8355 48.8522 46.8136 48.8413 46.7938C48.8303 46.7741 48.8151 46.757 48.7966 46.744C48.7782 46.7309 48.757 46.7221 48.7347 46.7183C43.3276 45.7791 38.2225 43.8731 33.9831 40.5735C29.9194 37.4091 27.5347 32.5166 29.6236 27.5658C30.4185 25.6874 31.9374 23.7261 33.6319 22.4094C33.7798 22.2948 33.7675 22.2007 33.5949 22.127L28.9612 20.1473C28.8462 20.0982 28.7404 20.1135 28.6439 20.1933C25.1747 23.0232 22.0999 26.51 21.7426 31.1999C21.0956 39.6405 29.0074 45.6563 35.9642 48.5323ZM94.9642 47.0498C99.296 43.5661 102.842 38.3299 102.546 32.6026C102.309 27.974 100.119 24.3154 96.936 20.9852C96.8436 20.8911 96.7337 20.8625 96.6063 20.8993L90.6847 22.6334C90.66 22.6409 90.6375 22.6546 90.6196 22.6732C90.6017 22.6918 90.5888 22.7147 90.5823 22.7397C90.5758 22.7646 90.5759 22.7908 90.5825 22.8158C90.5891 22.8407 90.602 22.8635 90.62 22.8821C92.7151 24.9835 93.9855 27.5535 94.4312 30.5922C95.6481 38.9008 88.1861 45.0363 81.4296 48.2038C74.593 51.4113 66.7828 52.8784 59.2468 52.9828C57.0019 53.0135 54.1561 52.8661 50.7096 52.5408C50.5966 52.5305 50.5185 52.5776 50.4754 52.682L48.5128 57.4271C48.508 57.4385 48.5058 57.451 48.5066 57.4634C48.5074 57.4758 48.5111 57.4878 48.5174 57.4985C48.5237 57.5093 48.5324 57.5184 48.5428 57.5252C48.5533 57.5319 48.5652 57.5362 48.5775 57.5376C57.5513 58.5669 66.3535 58.1095 74.9843 56.1656C79.5841 55.1282 84.0484 53.5199 88.0721 51.5279C90.3561 50.3984 92.6535 48.9057 94.9642 47.0498ZM44.828 24.5886C44.5364 24.7052 44.2447 24.8014 43.9531 24.8771C43.7805 24.9221 43.6943 25.0326 43.6943 25.2086L43.6881 27.5106C43.6881 27.6886 43.7713 27.7469 43.9376 27.6855C46.9077 26.5959 49.5634 25.7918 52.9001 25.2976C54.1232 25.1196 55.3248 25.1042 56.5572 25.0183C58.415 24.8863 60.2974 25.0889 62.1707 25.2301C66.0372 25.5278 69.8206 26.7831 73.4685 28.3485C73.5321 28.3771 73.564 28.3557 73.564 28.284V25.7427C73.564 25.6792 73.5352 25.6342 73.4777 25.6076C70.9349 24.3533 68.7269 23.5072 66.8537 23.0693C64.8079 22.5905 62.5825 22.2815 60.1773 22.1424C58.7292 22.0595 57.3644 22.1669 55.9071 22.2099C52.1329 22.3142 48.3465 23.1798 44.828 24.5886ZM29.2108 32.8634C29.7068 35.8929 31.8111 38.6337 34.1742 40.4845C38.2626 43.6858 43.6203 45.5796 48.861 46.5096C48.9657 46.528 49.0387 46.4881 49.0797 46.3899L50.8605 42.1665C50.8692 42.1463 50.8732 42.1244 50.8723 42.1024C50.8714 42.0805 50.8655 42.059 50.8552 42.0396C50.8449 42.0201 50.8303 42.0033 50.8125 41.9902C50.7948 41.9771 50.7744 41.9681 50.7527 41.9639C45.5736 41.0033 38.4844 38.2593 36.5804 32.8481C35.5575 29.9445 36.5865 26.7709 38.8572 24.6807C38.9578 24.5886 38.9455 24.5149 38.8202 24.4597L34.2204 22.4493C34.1841 22.4335 34.1441 22.4277 34.1046 22.4325C34.065 22.4374 34.0273 22.4527 33.9955 22.4769C30.8005 24.9078 28.5422 28.769 29.2108 32.8634ZM58.985 47.5992C56.9289 47.6729 54.8883 47.5757 52.8631 47.3076C52.7399 47.2912 52.6536 47.3403 52.6043 47.4549L50.6818 52.0742C50.6223 52.2154 50.6685 52.2942 50.8205 52.3106C53.4803 52.593 55.942 52.7413 58.2055 52.7556C64.5317 52.7966 70.6843 51.8297 76.6634 49.8551C79.5923 48.8873 82.3703 47.5951 84.9973 45.9786C89.6187 43.1364 94.425 38.1334 94.2925 32.4061C94.2083 28.7127 92.8825 25.5472 90.315 22.9097C90.2226 22.8156 90.1137 22.7869 89.9885 22.8237L84.6615 24.3799C84.5218 24.4208 84.4931 24.5006 84.5752 24.6193C84.9943 25.227 85.518 25.7795 85.8569 26.424C89.7451 33.861 84.3226 39.9382 78.0437 43.1426C72.1498 46.1505 65.8462 47.3475 58.985 47.5992ZM84.9789 37.1697C87.7979 33.2103 87.6315 28.3608 84.2949 24.6776C84.2086 24.5835 84.1039 24.5538 83.9806 24.5886L78.5335 26.1048C78.5204 26.1082 78.5084 26.1148 78.4984 26.1239C78.4884 26.133 78.4806 26.1444 78.4758 26.1572C78.4711 26.1701 78.4693 26.184 78.4708 26.1978C78.4722 26.2116 78.4768 26.225 78.4842 26.2368C81.559 30.9298 78.9987 35.5951 74.7501 38.3084C72.3881 39.8185 69.6399 40.9367 66.5055 41.6632C62.6359 42.5635 58.7323 42.8592 54.7949 42.5502C54.6819 42.54 54.6039 42.588 54.5607 42.6944L52.86 46.8564C52.8479 46.8866 52.843 46.9192 52.8458 46.9516C52.8485 46.984 52.8589 47.0153 52.8759 47.0431C52.893 47.0708 52.9163 47.0942 52.944 47.1113C52.9718 47.1285 53.0032 47.1389 53.0357 47.1419C60.282 47.7435 67.7502 47.0498 74.5067 44.4992C78.4688 43.0044 82.5203 40.6257 84.9789 37.1697ZM39.9879 27.0164C40.0824 26.9489 40.1306 26.8568 40.1327 26.7402L40.1419 25.1411C40.1424 25.1089 40.1334 25.0773 40.1161 25.0501C40.0988 25.0229 40.074 25.0013 40.0446 24.9879C40.0151 24.9746 39.9825 24.9701 39.9505 24.9749C39.9186 24.9797 39.8887 24.9938 39.8646 25.0152C38.5214 26.1877 37.6556 27.6385 37.2674 29.3675C37.2659 29.3751 37.267 29.3831 37.2703 29.3901C37.2736 29.3971 37.2791 29.4029 37.2859 29.4067C37.2928 29.4104 37.3006 29.4119 37.3084 29.411C37.3161 29.41 37.3233 29.4066 37.329 29.4013C38.5101 28.2247 39.3963 27.4298 39.9879 27.0164ZM73.5208 28.6247C70.8486 27.4072 68.5143 26.5796 66.5179 26.1417C62.3257 25.227 58.0555 24.9937 53.7073 25.4419C50.3758 25.7856 47.0648 26.6338 43.7744 27.9863C43.7168 28.0109 43.6881 28.0549 43.6881 28.1183L43.6973 30.7149C43.6974 30.7223 43.6992 30.7295 43.7027 30.736C43.7061 30.7424 43.711 30.748 43.717 30.7522C43.7231 30.7564 43.73 30.7591 43.7373 30.7601C43.7446 30.7611 43.752 30.7603 43.759 30.7579C51.6564 27.8073 59.6843 27.35 67.8427 29.3859C69.796 29.8739 71.5891 30.6474 73.49 31.3257C73.4985 31.3287 73.5076 31.3298 73.5165 31.3288C73.5254 31.3277 73.5338 31.3247 73.5411 31.3198C73.5484 31.315 73.5543 31.3085 73.5582 31.301C73.5622 31.2935 73.5642 31.2851 73.564 31.2766V28.6892C73.564 28.6585 73.5496 28.637 73.5208 28.6247ZM78.5951 28.7874C78.3548 27.9403 77.9779 27.177 77.4644 26.4977C77.4427 26.4685 77.4123 26.4469 77.3775 26.436C77.3427 26.4251 77.3053 26.4255 77.2707 26.4371C77.2362 26.4487 77.2062 26.4709 77.1851 26.5005C77.164 26.5302 77.1528 26.5657 77.1533 26.6021V27.2313C77.1533 27.5014 77.2508 27.7295 77.4459 27.9157L78.4442 28.8764C78.6044 29.0299 78.6547 29.0002 78.5951 28.7874ZM40.0834 29.6468C40.0984 29.6346 40.1103 29.6191 40.1184 29.6015C40.1264 29.584 40.1302 29.5648 40.1296 29.5455L40.0926 27.4093C40.0921 27.3853 40.0848 27.362 40.0714 27.3421C40.0581 27.3222 40.0393 27.3064 40.0173 27.2968C39.9953 27.2871 39.971 27.2839 39.9472 27.2875C39.9235 27.2911 39.9012 27.3014 39.8831 27.3172L37.1319 29.8064C37.118 29.8192 37.1072 29.835 37.1003 29.8525C37.0933 29.8701 37.0904 29.8889 37.0918 29.9077L37.1996 31.7923C37.2007 31.816 37.2084 31.8389 37.222 31.8584C37.2356 31.8778 37.2544 31.8931 37.2763 31.9024C37.2982 31.9117 37.3223 31.9147 37.3458 31.9109C37.3693 31.9072 37.3912 31.8969 37.4091 31.8813L40.0834 29.6468ZM78.4904 31.9058C78.5117 31.9257 78.538 31.9395 78.5665 31.9456C78.5951 31.9517 78.6247 31.9499 78.6523 31.9404C78.6799 31.9309 78.7044 31.9141 78.7231 31.8918C78.7418 31.8695 78.754 31.8425 78.7584 31.8137C78.8817 30.9697 79.1374 29.9507 78.4442 29.2386C78.0683 28.8519 77.6935 28.4887 77.3196 28.149C77.2067 28.0467 77.1512 28.0712 77.1533 28.2227L77.1625 30.5001C77.1635 30.5487 77.1743 30.5968 77.1945 30.6416C77.2145 30.6864 77.2435 30.727 77.2796 30.761L78.4904 31.9058ZM43.8668 33.993C47.0463 32.5627 50.3953 31.6756 53.9137 31.3319C56.5366 31.074 59.2427 31.0802 62.032 31.3503C66.2324 31.7575 70.0537 32.8164 73.4962 34.527C73.5036 34.5306 73.5118 34.5323 73.5201 34.5319C73.5283 34.5315 73.5363 34.5291 73.5434 34.5248C73.5505 34.5205 73.5563 34.5146 73.5604 34.5074C73.5646 34.5003 73.5668 34.4923 73.567 34.484L73.5701 31.7309C73.5701 31.6593 73.5383 31.6091 73.4746 31.5805C64.1733 27.4799 53.4762 27.3479 43.9222 30.9329C43.8588 30.9561 43.8042 30.998 43.7656 31.0529C43.727 31.1078 43.7064 31.1731 43.7066 31.2398L43.7127 36.2796C43.7127 36.429 43.7815 36.474 43.9192 36.4146C48.9678 34.1863 54.418 33.3075 60.2697 33.7781C64.9065 34.1495 69.6111 35.1777 73.4993 37.4766C73.5052 37.4797 73.5119 37.4813 73.5187 37.4811C73.5254 37.481 73.532 37.4791 73.5378 37.4758C73.5437 37.4724 73.5486 37.4676 73.5521 37.4619C73.5556 37.4561 73.5575 37.4496 73.5578 37.4429L73.5732 34.8493C73.5732 34.8227 73.5609 34.8033 73.5362 34.791C71.7493 33.8845 70.0496 33.2093 68.4373 32.7652C63.5448 31.4209 58.4468 31.0434 53.1435 31.6327C50.0348 31.9764 46.8892 32.9494 43.9654 34.1188C43.9325 34.1331 43.9089 34.1239 43.8945 34.0912L43.8606 34.0083C43.8586 34.0022 43.8606 33.997 43.8668 33.993ZM40.0618 32.2803C40.0821 32.2627 40.0984 32.241 40.1096 32.2167C40.1207 32.1923 40.1265 32.1659 40.1265 32.1391L40.1358 30.3098C40.1357 30.2739 40.1254 30.2388 40.1058 30.2086C40.0863 30.1784 40.0585 30.1544 40.0257 30.1396C39.9929 30.1247 39.9565 30.1195 39.9209 30.1247C39.8852 30.1298 39.8518 30.1451 39.8246 30.1686L37.4954 32.1759C37.4654 32.2019 37.4445 32.2368 37.4357 32.2754C37.4268 32.314 37.4305 32.3544 37.4461 32.3908L38.0161 33.7044C38.0278 33.7315 38.0457 33.7554 38.0684 33.7743C38.0911 33.7932 38.1179 33.8064 38.1468 33.813C38.1756 33.8196 38.2056 33.8193 38.2342 33.8122C38.2629 33.805 38.2895 33.7913 38.3119 33.772L40.0618 32.2803ZM77.3042 31.1047C77.2894 31.09 77.2705 31.08 77.2499 31.0761C77.2293 31.0722 77.208 31.0745 77.1888 31.0828C77.1695 31.091 77.1532 31.1049 77.142 31.1225C77.1307 31.14 77.125 31.1606 77.1255 31.1815L77.1687 33.4865C77.1686 33.5017 77.1719 33.5167 77.1783 33.5305C77.1847 33.5443 77.194 33.5565 77.2056 33.5663L77.751 33.9991C77.7633 34.0089 77.7777 34.0159 77.7932 34.0194C77.8086 34.0229 77.8246 34.0229 77.84 34.0193C77.8554 34.0158 77.8699 34.0088 77.8822 33.9989C77.8945 33.989 77.9044 33.9765 77.9112 33.9623L78.6013 32.4215C78.6103 32.4015 78.6128 32.3791 78.6084 32.3576C78.604 32.3362 78.5929 32.3166 78.5767 32.3018L77.3042 31.1047ZM39.8831 36.1537C39.9013 36.1761 39.926 36.1923 39.9538 36.2C39.9816 36.2077 40.0111 36.2066 40.0382 36.1968C40.0654 36.187 40.0888 36.169 40.1051 36.1453C40.1215 36.1217 40.1301 36.0935 40.1296 36.0647V32.8143C40.1299 32.7876 40.1223 32.7613 40.1079 32.7387C40.0934 32.7161 40.0727 32.6982 40.0482 32.6871C40.0237 32.6761 39.9965 32.6723 39.97 32.6764C39.9434 32.6805 39.9186 32.6921 39.8985 32.71L38.3581 34.0881C38.3314 34.1117 38.3149 34.1447 38.312 34.1802C38.3092 34.2156 38.3201 34.2508 38.3427 34.2784L39.8831 36.1537ZM77.4213 34.0635L77.2642 33.9807C77.1266 33.907 77.0742 33.9469 77.107 34.1004C77.1522 34.3009 77.1615 34.5004 77.1348 34.6989C77.1081 34.8892 77.1646 34.9178 77.3042 34.7848C77.4829 34.617 77.5949 34.4124 77.6401 34.171C77.6421 34.1526 77.638 34.1352 77.6277 34.1188C77.601 34.082 77.5692 34.0687 77.5322 34.0789C77.4932 34.0891 77.4562 34.084 77.4213 34.0635ZM55.0167 40.7915C55.1112 41.0002 55.103 41.2109 54.9921 41.4237C54.9243 41.5527 54.9623 41.6243 55.1061 41.6386C57.3695 41.8678 59.9955 41.7931 62.984 41.4145C66.4573 40.9746 69.7333 39.9556 72.8122 38.3575C72.8759 38.3248 72.8759 38.291 72.8122 38.2562C69.9962 36.7707 67.0036 35.7701 63.8344 35.2544C60.4412 34.702 56.9628 34.5935 53.3992 34.9291C50.3676 35.2156 47.2476 36.0821 44.0393 37.5288C43.917 37.5839 43.813 37.6726 43.7395 37.7846C43.666 37.8965 43.6261 38.027 43.6245 38.1608C43.6229 38.2945 43.6596 38.426 43.7303 38.5396C43.8011 38.6533 43.9029 38.7445 44.0239 38.8026C46.2709 39.8911 48.6402 40.6462 51.1316 41.0677C51.2528 41.0882 51.3329 41.0411 51.372 40.9265C51.4356 40.7362 51.5281 40.5643 51.6492 40.4109C51.6916 40.3557 51.7478 40.3125 51.8121 40.2856C51.8764 40.2587 51.9466 40.249 52.0159 40.2574L54.7271 40.5766C54.79 40.5842 54.8498 40.608 54.9006 40.6457C54.9514 40.6834 54.9914 40.7336 55.0167 40.7915ZM45.9772 68.8787C51.5188 69.5662 57.0573 69.7913 62.5927 69.5539C69.681 69.2491 76.7476 67.9743 83.7927 65.7296C87.8102 64.4487 91.6563 62.7657 95.3308 60.6806C102.435 56.6506 108.674 50.8128 111.121 43.0044C111.384 42.1655 111.521 41.3173 111.533 40.46C111.538 40.1531 111.485 40.1428 111.376 40.4293C109.18 46.2794 104.527 50.8097 99.4069 54.1522C95.8248 56.491 91.9633 58.4103 87.8226 59.9102C80.0689 62.7176 71.8694 64.3392 63.2243 64.775C57.4938 65.0636 51.755 64.8241 46.008 64.0568C45.9861 64.0537 45.9637 64.0554 45.9425 64.0617C45.9212 64.068 45.9016 64.0788 45.8849 64.0934C45.8682 64.108 45.8549 64.126 45.8458 64.1461C45.8368 64.1663 45.8322 64.1882 45.8324 64.2103L45.8293 68.716C45.8292 68.7562 45.8442 68.795 45.8715 68.825C45.8988 68.855 45.9364 68.8742 45.9772 68.8787ZM5.98971 45.8006C7.82595 50.0362 11.0702 53.8176 14.8043 56.6782C19.6229 60.3716 24.9118 63.2076 30.6711 65.1863C34.282 66.4284 37.9771 67.4218 41.7563 68.1666C41.7668 68.169 41.7777 68.1689 41.7882 68.1664C41.7987 68.1639 41.8084 68.1591 41.8167 68.1523C41.8251 68.1455 41.8317 68.1369 41.8362 68.1271C41.8407 68.1174 41.8429 68.1067 41.8426 68.096L41.8457 63.6578C41.8456 63.6015 41.8255 63.5471 41.7887 63.5044C41.752 63.4616 41.7012 63.4333 41.6454 63.4245C31.4968 61.7548 21.6347 58.4001 13.6089 52.1479C9.6776 49.0847 6.51039 45.3218 4.74501 40.549C4.66285 40.326 4.61459 40.3331 4.60021 40.5705C4.56529 41.1148 4.6341 41.7061 4.80663 42.3445C5.14964 43.6193 5.544 44.7713 5.98971 45.8006ZM45.9403 62.7585C48.8856 55.5211 51.8187 48.2969 54.7394 41.0861C54.7428 41.0775 54.7441 41.0682 54.7433 41.0589C54.7425 41.0497 54.7397 41.0408 54.7349 41.0328C54.7302 41.0248 54.7237 41.018 54.7159 41.0129C54.7082 41.0078 54.6993 41.0045 54.6901 41.0033L52.1576 40.6533C52.1165 40.6472 52.0878 40.6626 52.0713 40.6994L42.468 63.3724C42.4091 63.5142 42.3787 63.6654 42.3787 63.8174L42.3849 88.2798C42.3849 88.3412 42.4157 88.376 42.4773 88.3841L45.2963 88.8108C45.3539 88.819 45.3826 88.7944 45.3826 88.7371C45.3847 80.671 45.3847 72.6314 45.3826 64.6185C45.3826 63.9248 45.6815 63.3877 45.9403 62.7585ZM24.5739 68.1359C29.8608 70.62 35.5534 72.3869 41.6516 73.4366C41.7872 73.4591 41.8539 73.4029 41.8519 73.2678L41.8457 68.7007C41.8457 68.5615 41.7769 68.4787 41.6393 68.4521C35.956 67.3676 30.5582 65.6784 25.4458 63.3846C19.9002 60.8985 15.0846 57.7494 10.8268 53.3204C8.85499 51.2701 7.22825 48.9036 5.94658 46.2211C5.40228 45.0793 5.01203 43.9539 4.77582 42.8448C4.76966 42.8182 4.75425 42.7998 4.72961 42.7896C4.71934 42.7855 4.7101 42.7855 4.70188 42.7896C4.64232 42.806 4.6115 42.8438 4.60945 42.9032C4.57864 43.8853 4.56324 44.9054 4.56324 45.9633C4.56529 46.9229 4.72345 47.9164 5.0377 48.9436C7.82903 58.041 16.2277 64.2134 24.5739 68.1359ZM45.9649 74.164C57.0101 75.6312 68.2154 75.18 78.9926 72.5189C89.3106 69.9714 100.002 65.0697 106.746 56.8347C108.695 54.457 110.143 51.7428 111.09 48.6919C111.375 47.769 111.509 46.8349 111.49 45.8896C111.472 44.934 111.465 44.0183 111.469 43.1426C111.469 43.073 111.44 43.0198 111.382 42.983C111.329 42.9502 111.294 42.9645 111.278 43.0259C109.352 49.8674 103.924 55.5149 97.9342 59.3454C93.5552 62.1446 88.9296 64.3279 84.0576 65.8953C77.3268 68.0643 70.4769 69.3555 63.5078 69.7688C57.8881 70.1023 52.0549 69.8834 46.008 69.112C45.8786 69.0956 45.8139 69.1519 45.8139 69.2808L45.7924 73.9676C45.7924 74.0822 45.8499 74.1477 45.9649 74.164ZM24.5431 72.7798C29.9132 75.3948 35.9611 77.172 41.6947 78.28C41.7995 78.3005 41.8519 78.2575 41.8519 78.1511L41.8673 73.9431C41.8673 73.8305 41.8118 73.764 41.7009 73.7436C35.6314 72.6284 29.9029 70.84 24.5154 68.3784C18.9297 65.8309 13.6674 62.2551 9.65603 57.6573C7.31657 54.9727 5.68881 52.0067 4.77274 48.7594C4.68853 48.4647 4.63718 48.4709 4.61869 48.7778C4.54783 49.9963 4.53551 51.1381 4.8436 52.3259C7.38538 62.0863 15.861 68.5472 24.5431 72.7798ZM50.0163 74.8147C48.6402 74.6961 47.2959 74.559 45.9834 74.4035C45.9616 74.4008 45.9396 74.4028 45.9186 74.4091C45.8977 74.4155 45.8785 74.4262 45.8621 74.4404C45.8458 74.4547 45.8328 74.4721 45.8239 74.4917C45.8151 74.5113 45.8106 74.5324 45.8109 74.5538L45.7985 78.8816C45.7983 78.9162 45.8104 78.9496 45.8327 78.9751C45.8549 79.0007 45.8856 79.0166 45.9187 79.0197C49.8294 79.474 53.7566 79.7492 57.7002 79.8453C61.348 79.9333 65.8544 79.5855 71.2194 78.8018C78.5315 77.7337 85.3845 75.6711 91.7785 72.6141C95.1675 70.9955 98.307 69.0281 101.197 66.7118C106.046 62.823 110.332 57.3995 111.401 51.3683C111.502 50.7974 111.517 49.9349 111.447 48.7809C111.445 48.74 111.427 48.7123 111.392 48.698C111.381 48.6919 111.37 48.6919 111.358 48.698C111.3 48.7246 111.265 48.7686 111.253 48.83C111.134 49.4438 110.935 50.0843 110.655 50.7514C107.688 57.8384 101.622 63.0439 94.8409 66.7148C90.7001 68.9534 86.1897 70.7581 81.3094 72.1291C77.411 73.2259 73.7334 73.9952 70.2766 74.4372C67.2593 74.8239 64.6847 75.0685 62.5527 75.1708C58.9706 75.3427 54.7918 75.224 50.0163 74.8147ZM111.58 52.4947H111.493C111.467 52.4947 111.45 52.507 111.444 52.5316C108.542 63.0992 98.5997 70.0696 88.8824 74.1548C83.6674 76.3484 78.2983 77.8933 72.7752 78.7895C69.1212 79.3849 65.7671 79.7584 62.7129 79.9098C57.3931 80.1738 51.8269 79.9548 46.0142 79.253C45.9012 79.2386 45.8447 79.2877 45.8447 79.4003L45.8478 83.4733C45.8476 83.5046 45.8588 83.5349 45.8794 83.5582C45.8999 83.5814 45.9282 83.596 45.9587 83.5991C52.0405 84.391 57.9344 84.6161 63.6403 84.2743C72.7619 83.726 81.4594 81.5979 89.7327 77.8902C95.4325 75.3345 100.252 72.0135 104.192 67.9272C107.655 64.3361 110.101 60.2141 111.321 55.2418C111.549 54.324 111.398 53.4462 111.577 52.5346C111.583 52.508 111.584 52.4947 111.58 52.4947ZM4.83436 52.8446C4.84668 52.7873 4.83025 52.7352 4.78506 52.6881C4.71318 52.6144 4.66902 52.6288 4.65258 52.7311C4.52318 53.5598 4.56632 54.4069 4.75426 55.2234C5.75043 59.502 7.76023 63.3519 10.7837 66.7732C16.2955 73.0161 23.4432 77.2303 31.2226 79.9804C33.6843 80.849 36.1829 81.6961 38.7925 82.2179C39.803 82.4184 40.754 82.6364 41.6454 82.8717C41.7913 82.9105 41.8642 82.8543 41.8642 82.7029L41.8611 78.7711C41.8611 78.636 41.7943 78.5552 41.6608 78.5286C38.5758 77.9004 35.6284 77.1443 32.8185 76.2604C28.4354 74.8833 24.2176 73.0182 20.1651 70.665C13.5657 66.8315 6.91708 60.6867 4.8436 53.1086C4.81896 53.0206 4.81587 52.9326 4.83436 52.8446ZM97.6107 73.762C90.7495 78.3843 83.0163 81.2756 74.8826 82.9699C69.9017 84.0094 64.5235 84.571 58.7477 84.6549C54.8863 84.7102 50.6674 84.4401 46.0912 83.8446C45.9331 83.8242 45.854 83.8927 45.854 84.0503L45.8602 87.6138C45.8622 87.7263 45.9187 87.7907 46.0296 87.8071C51.7355 88.5929 57.3736 88.8363 62.944 88.5376C71.3077 88.0874 79.3654 86.2633 87.117 83.065C94.5852 79.9865 101.493 75.3365 106.324 68.8419C109.057 65.1648 110.739 61.0714 111.367 56.5616C111.371 56.537 111.361 56.5217 111.336 56.5155C111.293 56.5073 111.265 56.5237 111.253 56.5646C109.281 63.7008 103.843 69.5632 97.6107 73.762ZM30.9084 80.0663C23.511 77.3408 16.7792 73.4734 11.2889 67.7124C8.22442 64.4957 6.0883 60.7819 4.88057 56.5708C4.87646 56.5605 4.86825 56.5565 4.85593 56.5585L4.77274 56.5769C4.75015 56.581 4.73988 56.5943 4.74193 56.6168C6.28856 68.3907 15.6885 76.8712 25.8803 81.7698C30.9125 84.1864 36.1942 85.94 41.7255 87.0306C41.7455 87.0347 41.7662 87.0344 41.786 87.0295C41.8058 87.0246 41.8242 87.0153 41.8399 87.0023C41.8556 86.9893 41.8681 86.973 41.8766 86.9545C41.8851 86.936 41.8893 86.9159 41.8888 86.8955L41.8734 83.3044C41.8736 83.2543 41.8561 83.2056 41.824 83.1669C41.792 83.1283 41.7473 83.102 41.6978 83.0927C37.9185 82.3335 34.322 81.3247 30.9084 80.0663Z" fill="#003B81"/>
</svg>
