<svg width="161" height="98" viewBox="0 0 161 98" fill="none" xmlns="http://www.w3.org/2000/svg">
<path d="M30.5605 52.3749L24.2393 48.9106C24.1244 48.8483 24.0284 48.756 23.9615 48.6432C23.8946 48.5305 23.8592 48.4016 23.8591 48.2702L23.865 41.8183C23.8649 41.6934 23.9073 41.5723 23.9851 41.4752C24.063 41.3782 24.1716 41.311 24.2928 41.2851L35.2627 38.9408C35.4806 38.8932 35.4905 38.8177 35.2924 38.7144L27.8157 34.7468C27.7548 34.7143 27.7038 34.6659 27.6682 34.6066C27.6326 34.5473 27.6138 34.4794 27.6137 34.4102L27.6167 30.6987C27.6168 30.5988 27.6498 30.5018 27.7106 30.4231C27.7714 30.3443 27.8565 30.2883 27.9524 30.2638C57.8394 22.7098 87.6927 15.1647 117.512 7.62849C118.234 7.44679 119.17 7.51232 119.93 7.72679C126.786 9.6709 133.393 11.5306 139.749 13.3059C139.85 13.334 139.939 13.3946 140.002 13.4785C140.066 13.5625 140.1 13.6651 140.1 13.7706L140.103 16.6838C140.103 17.0949 139.907 17.358 139.515 17.4732L129.959 20.3119C129.753 20.3715 129.753 20.435 129.959 20.5025L137.599 23.0136C137.673 23.0381 137.738 23.0856 137.784 23.1493C137.83 23.2129 137.854 23.2895 137.854 23.3681L137.851 29.117C137.851 29.2376 137.814 29.3549 137.744 29.4523C137.674 29.5496 137.575 29.622 137.462 29.6591L129.739 32.1732C129.592 32.2208 129.592 32.2685 129.739 32.3161L136.601 34.5174C136.672 34.5402 136.733 34.5848 136.777 34.6448C136.821 34.7048 136.844 34.777 136.844 34.851L136.835 42.8102C136.835 42.9006 136.809 42.9892 136.76 43.0653C136.71 43.1414 136.639 43.2018 136.556 43.2391L135.888 43.531C135.708 43.6105 135.71 43.682 135.897 43.7455L141.523 45.6906C141.572 45.7079 141.615 45.7405 141.645 45.7837C141.676 45.827 141.692 45.8787 141.692 45.9319V50.2659C141.692 50.3712 141.644 50.4447 141.547 50.4864L45.2911 90.0319C45.1939 90.0714 45.0889 90.0869 44.9849 90.077C44.881 90.0672 44.7812 90.0323 44.694 89.9753L25.6711 77.554C25.618 77.5191 25.5743 77.4718 25.5438 77.4162C25.5132 77.3606 25.4967 77.2985 25.4958 77.2353L25.4542 71.7247C25.4532 71.6347 25.4816 71.5468 25.5352 71.4742C25.5888 71.4017 25.6647 71.3484 25.7513 71.3225L30.0763 70.0476C30.0905 70.0433 30.1031 70.0349 30.1127 70.0235C30.1223 70.0121 30.1284 69.9982 30.1302 69.9834C30.1321 69.9686 30.1297 69.9536 30.1233 69.9402C30.1169 69.9267 30.1067 69.9155 30.0941 69.9076L21.4144 64.5847C21.3319 64.5338 21.2637 64.4625 21.2164 64.3775C21.1691 64.2925 21.1442 64.1967 21.144 64.0991V54.9634C21.1443 54.8949 21.1676 54.8285 21.2102 54.775C21.2528 54.7215 21.3122 54.6839 21.3787 54.6685L30.5337 52.5566C30.7021 52.5169 30.711 52.4563 30.5605 52.3749ZM29.901 31.1604C35.2459 33.8393 40.5858 36.5251 45.9208 39.2179C46.7248 39.623 47.5179 39.7143 48.3002 39.4919C78.2268 30.931 108.192 22.3523 138.196 13.7557C138.321 13.72 138.321 13.6852 138.196 13.6515C131.875 11.8781 125.579 10.1197 119.309 8.37615C118.773 8.22721 118.233 8.22125 117.691 8.35828C88.1799 15.7793 58.6731 23.2022 29.1703 30.6272C29.0356 30.663 29.0297 30.7126 29.1525 30.7761C29.402 30.9072 29.6515 31.0353 29.901 31.1604ZM60.4346 36.7574C56.0541 38.0085 51.9459 39.1682 48.1101 40.2366C47.9714 40.2743 47.8328 40.3091 47.6942 40.3408C47.5714 40.3666 47.51 40.4431 47.51 40.5702V43.5876C47.51 43.7207 47.5734 43.7683 47.7001 43.7306L139.244 16.5527C139.264 16.5469 139.282 16.5347 139.294 16.5181C139.306 16.5014 139.313 16.4812 139.313 16.4604L139.319 14.2889C139.319 14.2432 139.296 14.2264 139.25 14.2383C113.722 21.5361 87.4501 29.0425 60.4346 36.7574ZM46.8743 44.8953L36.644 39.4651C36.5509 39.4174 36.4539 39.4045 36.3529 39.4264L25.7067 41.6455C25.5245 41.6832 25.5156 41.7458 25.68 41.8332C31.5635 44.9509 37.4678 48.0845 43.3929 51.234C44.1504 51.6391 44.9435 51.6749 45.7545 51.4247C75.9286 42.0794 106.022 32.76 136.033 23.4664C136.208 23.4108 136.208 23.3542 136.033 23.2966L128.58 20.8183C128.493 20.7885 128.405 20.7875 128.316 20.8153L47.3912 44.9459C47.2196 44.9957 47.0348 44.9775 46.8743 44.8953ZM45.196 58.8476L136.939 28.7893C137.032 28.7596 137.079 28.694 137.079 28.5927L137.1 23.9936C137.1 23.8725 137.042 23.8298 136.927 23.8655C104.426 33.9932 74.077 43.3871 45.8792 52.0472C45.6555 52.1167 45.4238 52.1862 45.1841 52.2557C45.0732 52.2875 45.0178 52.362 45.0178 52.4791L45.0148 58.7166C45.0148 58.8437 45.0752 58.8874 45.196 58.8476ZM45.6267 39.8076C40.0363 37.0047 34.3241 34.1451 28.6415 31.3093C28.6348 31.3058 28.6273 31.304 28.6197 31.3042C28.6121 31.3044 28.6046 31.3065 28.5981 31.3104C28.5915 31.3143 28.5861 31.3198 28.5822 31.3264C28.5784 31.333 28.5763 31.3404 28.5762 31.3481L28.5732 33.9634C28.5732 34.011 28.594 34.0468 28.6356 34.0706L46.6813 43.6502C46.6929 43.6562 46.7059 43.6591 46.719 43.6584C46.7322 43.6578 46.745 43.6537 46.7563 43.6466C46.7676 43.6394 46.777 43.6294 46.7836 43.6176C46.7902 43.6057 46.7938 43.5923 46.7941 43.5787L46.7971 40.3736C46.7971 40.2783 46.7506 40.2167 46.6575 40.1889C46.2198 40.0598 45.8763 39.9327 45.6267 39.8076ZM44.4623 59.9647L31.7992 53.0928C31.71 53.0451 31.616 53.0322 31.517 53.054L22.7867 55.1004C22.557 55.154 22.5461 55.2374 22.754 55.3506C29.5228 59.0105 36.1935 62.6227 42.7662 66.1872C43.2058 66.4255 43.7613 66.4851 44.2366 66.3213C74.5275 55.8838 104.795 45.4563 135.038 35.0387C135.258 34.9632 135.258 34.8888 135.038 34.8153L128.551 32.62C128.501 32.6041 128.452 32.6041 128.402 32.62L44.8693 60.0034C44.8027 60.025 44.7323 60.0328 44.6623 60.0261C44.5923 60.0195 44.5243 59.9986 44.4623 59.9647ZM43.892 67.1881C43.8724 67.195 43.8556 67.2079 43.8438 67.2251C43.8321 67.2422 43.8261 67.2626 43.8266 67.2834V76.711C43.8265 76.7271 43.8303 76.743 43.8377 76.7572C43.8451 76.7714 43.8559 76.7837 43.869 76.7928C43.8822 76.8019 43.8974 76.8076 43.9134 76.8095C43.9293 76.8113 43.9454 76.8092 43.9603 76.8034L136.007 42.4021C136.025 42.3949 136.041 42.3822 136.052 42.3657C136.063 42.3492 136.069 42.3297 136.069 42.3098L136.096 35.5093C136.096 35.4936 136.092 35.4782 136.085 35.4643C136.077 35.4503 136.067 35.4384 136.054 35.4293C136.041 35.4203 136.027 35.4144 136.011 35.4123C135.996 35.4102 135.98 35.4118 135.965 35.417L43.892 67.1881ZM43.2652 51.9221C37.2411 48.7557 31.2169 45.5655 24.9997 42.3306C24.875 42.2651 24.8126 42.3028 24.8126 42.4438V47.9128C24.8126 48.0398 24.868 48.1332 24.9789 48.1927L44.1237 58.654C44.2504 58.7235 44.3148 58.6848 44.3168 58.5379V52.4166C44.3168 52.2835 44.2514 52.2031 44.1207 52.1753C43.8266 52.1157 43.5325 52.0621 43.2652 51.9221ZM140.035 45.9944L134.673 44.0523C134.594 44.0245 134.514 44.0255 134.435 44.0553L43.7524 77.9919C43.6487 78.0308 43.5374 78.0454 43.4267 78.0346C43.3161 78.0238 43.209 77.9878 43.1137 77.9293L31.113 70.5213C31.0338 70.4716 30.9496 70.4607 30.8605 70.4885L26.7464 71.7366C26.7322 71.741 26.7195 71.7493 26.71 71.7607C26.7004 71.7721 26.6943 71.786 26.6924 71.8008C26.6905 71.8156 26.6929 71.8306 26.6993 71.844C26.7058 71.8575 26.7159 71.8688 26.7285 71.8766C32.418 75.316 38.0817 78.7406 43.7197 82.1502C44.4356 82.5821 45.2138 82.7817 46.0218 82.4719C77.5426 70.3187 108.88 58.2271 140.035 46.197C140.213 46.1275 140.213 46.06 140.035 45.9944ZM45.4604 88.76L140.964 49.5451C141.006 49.5292 141.026 49.4984 141.024 49.4527L141.018 46.5872C141.018 46.5574 141.004 46.5485 140.976 46.5604C109.459 58.7374 77.9505 70.9115 46.4496 83.0825C46.1228 83.2106 45.7693 83.2494 45.4277 83.3149C45.3188 83.3367 45.2643 83.4032 45.2643 83.5145L45.2614 88.6259C45.2614 88.7709 45.3277 88.8156 45.4604 88.76ZM35.9638 63.3425C31.3813 60.8424 26.7939 58.3423 22.2015 55.8421C22.1885 55.8349 22.1738 55.8312 22.159 55.8314C22.1441 55.8315 22.1295 55.8356 22.1166 55.8431C22.1038 55.8506 22.0931 55.8613 22.0856 55.8742C22.0781 55.887 22.074 55.9017 22.0738 55.9166V63.6642C22.0739 63.7107 22.0857 63.7562 22.1081 63.7963C22.1305 63.8365 22.1627 63.87 22.2015 63.8936L42.9177 76.6306C42.9308 76.6386 42.9457 76.6429 42.9611 76.6431C42.9764 76.6433 42.9915 76.6394 43.0048 76.6318C43.0181 76.6242 43.0291 76.6132 43.0368 76.5999C43.0445 76.5866 43.0485 76.5715 43.0484 76.5562L43.0513 67.2298C43.0513 67.1166 42.9979 67.0431 42.8909 67.0093C42.7147 66.9498 42.5493 66.8793 42.3949 66.7979C40.466 65.7811 38.3223 64.6293 35.9638 63.3425ZM44.4415 83.2464C43.8989 83.0101 43.5424 82.8403 43.3721 82.737C37.752 79.3174 32.1338 75.8899 26.5176 72.4545C26.505 72.4472 26.4908 72.4433 26.4762 72.4433C26.4617 72.4432 26.4474 72.447 26.4348 72.4543C26.4222 72.4615 26.4117 72.4719 26.4043 72.4845C26.3969 72.4971 26.393 72.5114 26.3929 72.5259V76.7498C26.3929 76.865 26.4404 76.9543 26.5355 77.0179L44.4088 88.6825C44.4193 88.6898 44.4316 88.6939 44.4443 88.6945C44.457 88.6951 44.4696 88.6921 44.4807 88.686C44.4918 88.6798 44.501 88.6706 44.5072 88.6595C44.5134 88.6483 44.5164 88.6357 44.5158 88.623L44.5009 83.3357C44.5009 83.294 44.4811 83.2642 44.4415 83.2464Z" fill="#003B81"/>
</svg>
