<svg width="144" height="96" viewBox="0 0 144 96" fill="none" xmlns="http://www.w3.org/2000/svg">
<path d="M55.2452 72.8893C53.2799 73.6942 51.2124 74.5472 49.0426 75.4483C48.4701 75.6859 47.8937 75.6466 47.3134 75.3305C43.8983 73.4734 40.8196 71.7615 38.0773 70.1948C36.8891 69.5156 36.296 68.4839 36.298 67.0999C36.3019 65.5175 36.3039 63.8832 36.3039 62.1968C36.3038 62.1813 36.3 62.166 36.2929 62.1522C36.2857 62.1385 36.2753 62.1266 36.2626 62.1177C36.2499 62.1088 36.2352 62.103 36.2198 62.1009C36.2044 62.0987 36.1887 62.1003 36.174 62.1055C33.597 63.0145 31.1832 63.8596 28.9327 64.641C28.3327 64.8491 27.7524 64.799 27.1917 64.4908C22.6652 61.9936 18.298 59.575 14.0901 57.2348C12.5675 56.3867 11.8062 55.0518 11.8062 53.2299C11.8042 47.9097 11.8042 42.3156 11.8062 36.4476C11.8062 35.5789 12.3668 34.8398 13.1724 34.6248C42.2242 26.8564 71.1521 19.1205 99.956 11.4169C101.281 11.0636 102.517 11.1431 103.83 11.6643C106.878 12.8795 110.096 14.1664 113.486 15.5249C114.884 16.0874 115.309 17.2505 115.306 18.6994C115.294 21.7463 115.291 24.5988 115.297 27.2569C115.297 27.2714 115.301 27.2855 115.308 27.2983C115.314 27.3111 115.324 27.3221 115.336 27.3304C115.348 27.3388 115.361 27.3442 115.376 27.3463C115.39 27.3483 115.405 27.347 115.418 27.3423C117.106 26.7534 118.766 26.185 120.399 25.6373C121.55 25.2515 122.686 25.4105 123.802 25.8611C126.068 26.772 128.231 27.6319 130.29 28.4407C131.114 28.7617 131.612 29.6098 131.609 30.4491C131.604 33.6 131.604 36.7548 131.609 39.9136C131.611 40.8481 131.194 41.4871 130.358 41.8307C127.793 42.8908 125.23 43.9519 122.668 45.014C122.464 45.0984 122.464 45.1828 122.668 45.2672C123.432 45.5735 124.145 45.8847 124.808 46.2007C125.51 46.5364 125.637 47.308 125.637 48.0088C125.631 50.1134 125.629 52.2091 125.631 54.2959C125.631 56.2336 124.327 56.5811 122.474 57.4498C103.417 66.398 84.1917 75.4042 64.797 84.4682C64.2501 84.7234 63.7367 84.7166 63.2567 84.4476C61.0809 83.2186 58.8767 81.9818 56.6439 80.7372C55.8491 80.2955 55.4468 79.5534 55.437 78.5109C55.4173 76.7283 55.4183 74.8977 55.4399 73.0189C55.4419 72.8775 55.377 72.8344 55.2452 72.8893ZM111.42 15.784C108.884 14.7848 106.263 13.761 103.556 12.7126C102.387 12.2591 101.223 12.1875 100.062 12.4977C71.9173 20.0108 43.7812 27.522 15.654 35.0312C15.4337 35.0901 15.4288 35.1627 15.6393 35.2491C19.5934 36.8667 23.515 38.4825 27.4042 40.0962C28.1812 40.4201 28.8275 40.9021 29.3429 41.5421C29.4058 41.6206 29.4855 41.6452 29.5819 41.6157L113.612 17.1357C113.732 17.1004 113.751 17.0356 113.668 16.9413C113.19 16.3966 112.105 16.055 111.42 15.784ZM37.4458 53.7453L114.17 27.7988C114.257 27.7693 114.3 27.7153 114.3 27.6368L114.294 17.8159C114.294 17.7776 114.285 17.7398 114.268 17.7054C114.251 17.6711 114.226 17.6412 114.195 17.6181C114.164 17.5949 114.128 17.5792 114.09 17.5722C114.052 17.5651 114.013 17.5669 113.975 17.5774L29.8062 42.1281C29.7117 42.1556 29.6793 42.2164 29.7088 42.3107C29.939 43.0213 30.056 43.6034 30.0599 44.0569C30.1111 50.2547 30.1189 56.5654 30.0835 62.9889C30.0835 63.0969 30.1347 63.1332 30.237 63.0979L36.1888 61.0189C36.3088 60.9777 36.3688 60.8942 36.3688 60.7686V55.2442C36.3686 54.9136 36.4724 54.5913 36.6656 54.3224C36.8588 54.0536 37.1317 53.8517 37.4458 53.7453ZM123.141 26.665C122.316 26.3313 121.521 26.295 120.753 26.5561C93.6648 35.7399 66.5665 44.9266 39.4583 54.1163C39.3226 54.1615 39.3216 54.2115 39.4553 54.2665C42.2212 55.3973 44.9744 56.534 47.7147 57.6766C48.2419 57.8964 48.6865 58.2361 49.0485 58.6955C49.1114 58.7759 49.1911 58.7985 49.2875 58.7632L129.762 29.5303C129.941 29.4655 129.942 29.3978 129.765 29.3271C127.646 28.4751 125.438 27.5877 123.141 26.665ZM117.088 44.0952C118.655 43.4562 119.576 43.8272 120.984 44.5458C121.08 44.5948 121.177 44.5988 121.276 44.5575C124.128 43.3816 126.979 42.2047 129.827 41.0267C130.376 40.799 130.652 40.373 130.656 39.7487C130.674 36.7882 130.681 33.652 130.677 30.3401C130.675 29.9357 130.483 29.8032 130.102 29.9426L49.5708 59.2049C49.4586 59.2461 49.4252 59.3217 49.4704 59.4317C49.6504 59.8793 49.733 60.3917 49.733 60.8746C49.7311 65.1701 49.7301 69.5205 49.7301 73.9259C49.7302 73.9415 49.7342 73.9569 49.7418 73.9706C49.7493 73.9843 49.7602 73.9959 49.7734 74.0044C49.7865 74.0129 49.8016 74.0179 49.8173 74.0191C49.8329 74.0203 49.8486 74.0176 49.8629 74.0113L55.3337 71.6967C55.4399 71.6515 55.4901 71.571 55.4842 71.4552C55.4547 70.6984 55.2717 69.2613 56.1422 68.908C76.7783 60.5134 97.0937 52.2425 117.088 44.0952ZM27.236 41.1975C22.919 39.3423 18.6108 37.4842 14.279 35.7291C13.3111 35.3364 12.8271 35.6613 12.8271 36.7038C12.8232 42.1968 12.8173 47.6545 12.8094 53.0768C12.8065 54.4461 13.2609 55.5416 14.4708 56.2277C18.7986 58.6817 23.1668 61.1259 27.5753 63.5602C28.257 63.9342 29.0655 63.7664 29.0655 62.9242C29.0773 56.2905 29.0763 50.0937 29.0626 44.3337C29.0606 42.7652 28.4517 41.7197 27.236 41.1975ZM120.597 45.4675C119.691 45.0788 118.806 44.4986 117.794 44.9109C97.6849 53.0876 77.8485 61.1494 58.2845 69.0964C58.0917 69.175 58.0917 69.2525 58.2845 69.3291C60.177 70.0947 62.0586 70.8751 63.9294 71.6702C64.2068 71.788 64.496 72 64.6553 72.2621C64.7321 72.3917 64.8403 72.426 64.9799 72.3652L123.875 47.0694C124.013 47.0086 124.013 46.9487 123.875 46.8898C122.787 46.4147 121.695 45.9406 120.597 45.4675ZM124.457 47.3816L65.2278 72.8098C65.1255 72.853 65.0921 72.9276 65.1275 73.0336C65.2101 73.2663 65.278 73.5313 65.2809 73.7786C65.2947 76.8805 65.2957 79.9411 65.2839 82.9605C65.284 82.9769 65.2882 82.993 65.296 83.0074C65.3038 83.0217 65.315 83.0339 65.3285 83.0427C65.3421 83.0515 65.3575 83.0567 65.3734 83.0578C65.3894 83.0588 65.4052 83.0558 65.4196 83.0488C84.714 74.0221 104.072 64.9767 123.495 55.9126C124.176 55.5975 124.669 55.0321 124.669 54.2577C124.675 51.9843 124.675 49.7394 124.669 47.5229C124.669 47.4977 124.663 47.4729 124.651 47.4507C124.639 47.4285 124.622 47.4095 124.601 47.3955C124.58 47.3815 124.556 47.373 124.53 47.3705C124.505 47.3681 124.48 47.3719 124.457 47.3816ZM47.2042 58.6159C44.1914 57.3821 41.0901 56.0275 37.9858 54.7583C37.9167 54.7299 37.8416 54.7188 37.7671 54.7261C37.6927 54.7334 37.6212 54.7588 37.5588 54.8C37.4965 54.8413 37.4453 54.8972 37.4096 54.9628C37.374 55.0284 37.355 55.1018 37.3544 55.1764C37.3229 59.2383 37.3239 63.2815 37.3573 67.306C37.3632 68.2209 37.7085 68.8648 38.393 69.2378C41.5878 70.9831 44.7973 72.7362 48.0216 74.4972C48.0925 74.536 48.1722 74.5557 48.2531 74.5545C48.3339 74.5532 48.413 74.531 48.4827 74.49C48.5523 74.449 48.6101 74.3907 48.6503 74.3207C48.6905 74.2507 48.7118 74.1715 48.7121 74.0908C48.7081 69.8287 48.718 65.5215 48.7416 61.1691C48.7475 59.9234 48.3845 59.0989 47.2042 58.6159ZM56.8032 69.8091C56.5986 69.7247 56.4963 69.7924 56.4963 70.0123V78.7082C56.4963 78.9459 56.5601 79.1792 56.681 79.3843C56.8018 79.5893 56.9754 79.7585 57.1839 79.8743L63.9353 83.6466C63.9694 83.6656 64.0078 83.6753 64.0468 83.6749C64.0858 83.6745 64.124 83.664 64.1576 83.6444C64.1913 83.6248 64.2192 83.5967 64.2387 83.563C64.2582 83.5294 64.2686 83.4912 64.2688 83.4523C64.2727 80.3681 64.2658 77.2132 64.2481 73.9877C64.2442 73.2751 63.9245 72.7843 63.2891 72.5153C61.2196 71.6397 59.0576 70.7377 56.8032 69.8091Z" fill="#003B81"/>
</svg>
