<svg width="132" height="82" viewBox="0 0 132 82" fill="none" xmlns="http://www.w3.org/2000/svg">
<path d="M53.9221 65.4421L44.2957 69.4091C44.0559 69.5079 43.7972 69.5524 43.5381 69.5396C43.2789 69.5268 43.0257 69.4568 42.7964 69.3348C40.3007 68.0104 37.9008 66.7304 35.5967 65.4947C35.166 65.2637 34.861 64.8996 34.6817 64.4024C33.5358 61.2483 32.426 58.1808 31.3523 55.1999C31.1236 54.5717 31.748 53.3556 32.051 52.7584C32.1293 52.6037 32.087 52.5563 31.9242 52.6161L20.0937 56.8925C19.9516 56.944 19.8004 56.9652 19.6497 56.9545C19.499 56.9439 19.3522 56.9016 19.2188 56.8306C15.7771 55.0194 12.252 53.1555 8.64337 51.2391C8.39606 51.1071 8.16318 50.7461 7.94472 50.1561C6.47119 46.1809 5.03166 42.2511 3.62613 38.3667C3.3273 37.5456 3.3644 36.7329 3.73742 35.9283C5.12027 32.9227 6.5732 29.7912 8.0962 26.5339C8.1554 26.4098 8.24083 26.3 8.34653 26.2124C8.45224 26.1248 8.57569 26.0613 8.70828 26.0264C39.2466 18.1029 69.8755 10.1566 100.595 2.18764C101.09 2.05974 101.577 2.07006 102.057 2.21859C104.741 3.05818 107.459 3.91738 110.212 4.79617C111.082 5.0726 111.67 5.62133 111.977 6.44236C112.987 9.14681 114.004 11.9245 115.029 14.7754C115.253 15.4005 115.24 16.0142 114.988 16.6165C114.525 17.7202 114.004 18.8569 113.427 20.0265C113.42 20.0413 113.418 20.0578 113.42 20.0739C113.423 20.0901 113.43 20.1052 113.441 20.1173C113.452 20.1295 113.466 20.1382 113.481 20.1424C113.497 20.1466 113.514 20.1461 113.529 20.141L118.16 18.6248C118.381 18.5543 118.618 18.5543 118.837 18.6248C120.931 19.3035 123.118 20.0172 125.397 20.7661C125.966 20.9517 126.345 21.3096 126.535 21.8398C127.311 24.0141 128.074 26.1285 128.822 28.1832C129.029 28.7495 128.899 29.3064 128.646 29.8665C127.817 31.6984 126.963 33.5911 126.083 35.5446C125.942 35.8548 125.688 36.1002 125.372 36.2316L120.185 38.3852C119.938 38.4884 119.941 38.5812 120.194 38.6637C121.255 39.0103 122.55 39.2888 122.979 40.4615C123.486 41.8478 123.977 43.2444 124.451 44.6513C124.566 44.9913 124.547 45.3631 124.398 45.691L122.704 49.4104C122.597 49.6499 122.407 49.8431 122.17 49.955L61.7432 78.7942C61.5559 78.8846 61.3501 78.9303 61.142 78.9276C60.9339 78.9249 60.7291 78.874 60.5438 78.7787C58.9961 77.9804 57.436 77.1594 55.8635 76.3157C55.4493 76.0959 55.0999 75.6844 54.9361 75.2419C54.2107 73.2801 53.5069 71.3843 52.8247 69.5545C52.664 69.1234 52.665 68.7129 52.8278 68.323C53.1926 67.44 53.5934 66.5179 54.0303 65.5566C54.0881 65.4267 54.052 65.3885 53.9221 65.4421ZM10.6589 26.537C10.6386 26.5424 10.6204 26.554 10.6069 26.5702C10.5934 26.5864 10.5852 26.6064 10.5835 26.6275C10.5818 26.6485 10.5867 26.6695 10.5974 26.6877C10.6081 26.7058 10.6242 26.7202 10.6435 26.7288L20.5512 31.0393C20.5725 31.0491 20.5965 31.0513 20.6192 31.0455L109.458 5.8204C109.48 5.81484 109.5 5.80208 109.514 5.78415C109.527 5.76621 109.535 5.74412 109.535 5.72138C109.535 5.69864 109.527 5.67655 109.514 5.65861C109.5 5.64067 109.48 5.62792 109.458 5.62236L101.353 3.16545C101.335 3.15927 101.315 3.1582 101.297 3.16236L10.6589 26.537ZM20.8603 31.6365L25.9116 44.707C25.9301 44.7544 25.9703 44.7689 26.0321 44.7503L114.07 15.7501C114.099 15.7407 114.126 15.7255 114.149 15.7056C114.172 15.6856 114.19 15.6614 114.204 15.6342C114.217 15.607 114.225 15.5775 114.226 15.5475C114.228 15.5174 114.223 15.4874 114.212 15.4593L110.917 6.42689C110.81 6.12777 110.604 6.02153 110.299 6.10817L20.916 31.522C20.8562 31.5405 20.8377 31.5787 20.8603 31.6365ZM35.0063 46.576C35.0688 46.4992 35.1515 46.4423 35.2443 46.4119L111.829 20.7289C111.947 20.6897 112.031 20.6144 112.083 20.503L113.894 16.5516C113.962 16.3989 113.917 16.3484 113.758 16.3999L26.1589 45.3289C26.0785 45.3557 26.0208 45.4073 25.9858 45.4836L21.4693 55.1473C21.4178 55.2566 21.4487 55.2917 21.5621 55.2525L32.4776 51.4557C32.6136 51.4083 32.7104 51.3196 32.7681 51.1896C33.3699 49.8673 33.9975 48.5171 34.6508 47.1391C34.7476 46.9328 34.8661 46.7451 35.0063 46.576ZM124.361 21.6758C124.379 21.6686 124.395 21.6561 124.406 21.6398C124.416 21.6236 124.422 21.6045 124.422 21.585C124.421 21.5655 124.415 21.5466 124.404 21.5307C124.392 21.5149 124.377 21.5029 124.358 21.4963L118.615 19.6242C118.594 19.6174 118.573 19.6174 118.553 19.6242L37.3093 46.8049C37.2907 46.8108 37.2743 46.8223 37.2624 46.8377C37.2504 46.8532 37.2435 46.8719 37.2425 46.8914C37.2415 46.911 37.2464 46.9303 37.2567 46.9469C37.267 46.9636 37.2821 46.9766 37.3 46.9844L44.2555 50.1035C44.278 50.1136 44.3034 50.1147 44.3266 50.1066L124.361 21.6758ZM44.6574 50.546C44.6405 50.5522 44.625 50.5617 44.6117 50.5739C44.5985 50.5862 44.5879 50.6009 44.5804 50.6173C44.5729 50.6338 44.5688 50.6515 44.5682 50.6695C44.5676 50.6875 44.5706 50.7055 44.577 50.7224L48.2774 60.2189C48.2839 60.2356 48.2936 60.2508 48.3059 60.2637C48.3183 60.2766 48.3331 60.2869 48.3495 60.2941C48.3658 60.3013 48.3834 60.3052 48.4013 60.3056C48.4192 60.3059 48.4369 60.3028 48.4536 60.2962L127.817 28.8918C127.851 28.8793 127.878 28.8541 127.893 28.8216C127.908 28.7892 127.91 28.7522 127.898 28.7185L125.487 21.9883C125.474 21.9548 125.449 21.9277 125.416 21.9126C125.384 21.8975 125.347 21.8958 125.313 21.9079L44.6574 50.546ZM8.8103 27.4251C7.46454 30.3296 6.08477 33.3043 4.671 36.3492C4.41957 36.8896 4.38763 37.4198 4.57517 37.9396C6.02604 41.921 7.49236 45.9375 8.97414 49.989C9.06959 50.2498 9.25913 50.466 9.50585 50.5955L19.5867 55.8187C19.8278 55.9425 20.0061 55.8806 20.1215 55.6331L24.7059 45.7064C24.7657 45.5763 24.7986 45.4355 24.8029 45.2925C24.8071 45.1495 24.7826 45.0072 24.7307 44.8741L19.8896 32.3482C19.8339 32.2051 19.7499 32.0744 19.6427 31.9639C19.5354 31.8534 19.4071 31.7652 19.2652 31.7046L9.02978 27.3415C8.98901 27.3243 8.94327 27.3234 8.90229 27.339C8.8613 27.3546 8.8283 27.3855 8.8103 27.4251ZM55.5358 62.8646C76.1014 54.4727 96.562 46.1283 116.917 37.8313C117.4 37.6333 117.894 37.6323 118.401 37.8282C118.498 37.8674 118.595 37.8674 118.692 37.8282L124.964 35.263C125.063 35.2235 125.143 35.1457 125.187 35.0464L127.592 29.6716C127.649 29.5395 127.612 29.5003 127.48 29.554L48.6112 60.7078C48.5001 60.7514 48.4095 60.8366 48.3577 60.9461L45.2293 67.5649C45.1428 67.7505 45.1932 67.8031 45.3808 67.7227L54.627 63.8578C54.7527 63.8063 54.8341 63.7155 54.8712 63.5855C54.9732 63.2297 55.202 63.0007 55.5358 62.8646ZM57.3381 63.3442C57.32 63.3517 57.3045 63.3643 57.2934 63.3804C57.2823 63.3965 57.276 63.4155 57.2754 63.435C57.2747 63.4546 57.2797 63.4739 57.2897 63.4907C57.2998 63.5075 57.3144 63.5211 57.3319 63.5298L61.6134 65.5907C61.6265 65.5966 61.6407 65.5996 61.6551 65.5996C61.6695 65.5996 61.6837 65.5966 61.6969 65.5907L121.029 40.248C121.047 40.24 121.063 40.2267 121.074 40.2097C121.085 40.1927 121.091 40.1728 121.09 40.1526C121.09 40.1324 121.084 40.1127 121.072 40.0961C121.061 40.0795 121.045 40.0667 121.026 40.0593L117.647 38.7101C117.623 38.7008 117.597 38.7008 117.573 38.7101L57.3381 63.3442ZM62.0833 65.931C62.0482 65.9461 62.0203 65.9741 62.0053 66.0093C61.9903 66.0444 61.9895 66.084 62.0029 66.1198L64.3894 72.2497C64.3965 72.2689 64.4075 72.2864 64.4216 72.3011C64.4358 72.3158 64.4528 72.3275 64.4717 72.3354C64.4905 72.3432 64.5108 72.347 64.5312 72.3467C64.5516 72.3463 64.5718 72.3417 64.5903 72.3332L123.428 45.035C123.462 45.0194 123.488 44.9916 123.503 44.9572C123.517 44.9228 123.518 44.8843 123.505 44.8493L121.925 40.5079C121.919 40.4889 121.908 40.4714 121.894 40.4566C121.88 40.4418 121.864 40.43 121.845 40.4219C121.827 40.4138 121.807 40.4095 121.786 40.4094C121.766 40.4093 121.746 40.4134 121.727 40.4213L62.0833 65.931ZM64.7202 72.8036C64.6984 72.8137 64.6809 72.8313 64.6707 72.8531L62.7603 76.8664C62.7512 76.8855 62.7482 76.9069 62.7518 76.9277C62.7553 76.9485 62.7653 76.9677 62.7802 76.9827C62.7951 76.9976 62.8143 77.0075 62.8351 77.0111C62.8559 77.0147 62.8773 77.0117 62.8963 77.0026L121.697 49.0205C121.718 49.0103 121.736 48.9928 121.746 48.971L123.081 45.8983C123.09 45.8794 123.092 45.8584 123.088 45.8382C123.084 45.8181 123.074 45.7996 123.059 45.7852C123.044 45.7708 123.026 45.7612 123.005 45.7576C122.985 45.7541 122.964 45.7567 122.945 45.7652L64.7202 72.8036ZM43.594 50.9606C43.5872 50.9423 43.5769 50.9255 43.5637 50.9111C43.5504 50.8968 43.5345 50.8852 43.5167 50.8771L35.9028 47.4795C35.8671 47.4638 35.8266 47.4627 35.7902 47.4766C35.7537 47.4905 35.7242 47.5182 35.708 47.5538L32.3106 54.7945C32.3026 54.8124 32.2981 54.8318 32.2976 54.8514C32.2971 54.8711 32.3005 54.8907 32.3075 54.909L35.8007 64.4612C35.8128 64.4955 35.837 64.5241 35.8688 64.5417L43.4271 68.4993C43.4447 68.5083 43.4639 68.5136 43.4836 68.5151C43.5033 68.5165 43.5231 68.5139 43.5418 68.5076C43.5606 68.5013 43.5778 68.4912 43.5926 68.4781C43.6074 68.465 43.6194 68.4491 43.628 68.4313L47.2634 60.7852C47.272 60.7674 47.2769 60.7482 47.278 60.7285C47.279 60.7089 47.2762 60.6892 47.2696 60.6707L43.594 50.9606ZM61.0044 66.3395C60.9933 66.3122 60.9723 66.2901 60.9457 66.2776L56.0304 63.9476C56.0163 63.9409 56.0009 63.9371 55.9852 63.9364C55.9696 63.9357 55.9539 63.9382 55.9392 63.9437C55.9245 63.9492 55.9111 63.9575 55.8997 63.9683C55.8883 63.9791 55.8791 63.992 55.8728 64.0064L53.715 68.8521C53.7022 68.8804 53.7011 68.9127 53.7119 68.9418L56.0057 75.1089C56.0154 75.1367 56.0353 75.1599 56.0614 75.1738L61.0106 77.7669C61.0247 77.7742 61.0402 77.7785 61.056 77.7797C61.0719 77.7808 61.0878 77.7787 61.1029 77.7735C61.1179 77.7683 61.1317 77.7601 61.1435 77.7494C61.1553 77.7387 61.1647 77.7257 61.1713 77.7112L63.4806 72.85C63.4873 72.8355 63.4911 72.8199 63.4916 72.8039C63.4922 72.7879 63.4895 72.772 63.4836 72.7572L61.0044 66.3395Z" fill="#003B81"/>
</svg>
