<svg width="34" height="34" viewBox="0 0 34 34" fill="none" xmlns="http://www.w3.org/2000/svg">
<path d="M1 18.4964L19.087 1H22.1014M1 18.4964V33H13.7536M1 18.4964H4.24638M22.1014 1V5.14388M22.1014 1L4.24638 18.4964M22.1014 5.14388L10.2754 17.1151M22.1014 5.14388L26.5072 3.99281M10.2754 17.1151H13.7536M10.2754 17.1151V23.5612M19.7826 23.5612V26.554H17.2319M19.7826 23.5612H13.7536M19.7826 23.5612L33 10.4388M13.7536 23.5612V17.1151M13.7536 23.5612L26.5072 10.4388M13.7536 17.1151L26.5072 3.99281M13.7536 33L33 13.8921V10.4388M13.7536 33V29.5468M33 10.4388H26.5072M26.5072 3.99281V10.4388M4.24638 18.4964V29.5468M4.24638 29.5468L10.2754 23.5612M4.24638 29.5468H13.7536M10.2754 23.5612V26.554H17.2319M13.7536 29.5468L17.2319 26.554" stroke="#3A3A3A"/>
</svg>
