<svg width="32" height="31" viewBox="0 0 32 31" fill="none" xmlns="http://www.w3.org/2000/svg">
<path d="M18.5529 7.78288L16.8145 4.77895C16.8118 4.77441 16.808 4.77064 16.8034 4.76801C16.7988 4.76537 16.7936 4.76396 16.7884 4.76392C16.7831 4.76388 16.778 4.7652 16.7734 4.76776C16.7689 4.77032 16.7651 4.77403 16.7624 4.77853L12.5923 11.7282C12.5893 11.7334 12.5839 11.737 12.5771 11.7383C12.5703 11.7396 12.5626 11.7386 12.5555 11.7354C12.461 11.6923 12.3668 11.6447 12.2732 11.5929C10.1407 10.4155 8.0078 9.2374 5.87448 8.05861C5.86775 8.0548 5.86281 8.04847 5.86074 8.04101C5.85868 8.03356 5.85966 8.02559 5.86348 8.01886C6.99193 5.98241 8.12251 3.94469 9.2552 1.9057C9.49251 1.47884 9.83368 1.07976 10.2787 0.708444C10.6483 0.39972 11.0856 0.193763 11.5904 0.0905733C11.8186 0.0436303 12.1115 0.0347491 12.3756 0.0131807C12.4856 0.00444061 12.5909 7.04821e-05 12.6914 7.04821e-05C15.831 -0.000211458 18.9705 0.00035246 22.1101 0.00176216C22.5618 0.00176216 23.0358 0.0567404 23.38 0.367156C23.4801 0.457659 23.6202 0.654171 23.8003 0.956692C24.3347 1.85495 24.8997 2.75208 25.4951 3.64809C25.5016 3.65783 25.5116 3.66471 25.523 3.6673C25.5344 3.6699 25.5464 3.66802 25.5564 3.66205L28.6151 1.83677L28.6203 1.8354L28.6254 1.83689L28.6291 1.84081L28.6303 1.84607C28.63 1.8503 28.6286 1.85467 28.6261 1.85918C27.2707 4.41144 25.8392 6.93748 24.4195 9.50412C24.4121 9.51758 24.4011 9.5288 24.3878 9.53661C24.3745 9.54442 24.3593 9.54853 24.3438 9.54853L15.6695 9.54895C15.6667 9.54895 15.664 9.54803 15.6618 9.54633C15.6596 9.54463 15.658 9.54224 15.6573 9.53954C15.6565 9.53684 15.6567 9.53398 15.6578 9.5314C15.6589 9.52882 15.6608 9.52666 15.6632 9.52526L18.5372 7.84166C18.5618 7.82728 18.567 7.80769 18.5529 7.78288ZM19.5298 8.13093C19.1404 8.32632 18.7679 8.54496 18.387 8.76403C18.3444 8.78856 18.3476 8.80082 18.3967 8.80082L23.8993 8.79997C23.9095 8.79996 23.9194 8.7973 23.9281 8.79224C23.9368 8.78719 23.944 8.77993 23.9488 8.77122L26.676 3.87181C26.6893 3.84813 26.6841 3.84291 26.6604 3.85616C26.3353 4.03858 26.0144 4.22719 25.6978 4.42201C25.5717 4.49941 25.4269 4.56411 25.2944 4.6377C25.2733 4.64954 25.2559 4.64531 25.2424 4.62501C24.5476 3.58804 23.8798 2.52935 23.239 1.44896C23.0032 1.051 22.9453 0.7427 22.3853 0.741854C19.8315 0.737061 17.2777 0.734101 14.7239 0.732973C14.6689 0.732973 14.6252 0.730999 14.5927 0.727052C14.5507 0.721977 14.547 0.731422 14.5817 0.755387C15.1316 1.13685 15.609 1.52931 16.0209 2.05837C16.1445 2.2171 16.2977 2.45351 16.4805 2.76759C17.4355 4.40538 18.3897 6.04359 19.3432 7.68222C19.421 7.81629 19.4799 7.95542 19.5429 8.09499C19.55 8.11106 19.5456 8.12304 19.5298 8.13093ZM9.46006 3.04164C8.67446 4.50519 7.87418 5.96084 7.05923 7.4086C6.99856 7.5163 6.93874 7.61752 6.87977 7.71225C6.86678 7.73283 6.87088 7.7489 6.89204 7.76046L12.2804 10.7517C12.2887 10.7564 12.2985 10.7576 12.3078 10.7552C12.317 10.7527 12.3249 10.7468 12.3299 10.7386L16.3256 4.04097C16.3295 4.03456 16.3315 4.02726 16.3316 4.01983C16.3317 4.01239 16.3298 4.00509 16.326 3.99868C16.0454 3.51318 15.7546 2.93591 15.4575 2.5388C14.79 1.64604 13.7093 0.897062 12.5868 0.760039C11.5913 0.638664 10.6812 1.14785 10.1039 1.94038C9.85371 2.28378 9.6607 2.66778 9.46006 3.04164Z" fill="#3A3A3A"/>
<path d="M25.4329 19.3902C25.4356 19.3902 25.4382 19.3894 25.4406 19.3881C25.4429 19.3867 25.4449 19.3847 25.4463 19.3824C25.4476 19.3801 25.4484 19.3774 25.4484 19.3747C25.4484 19.372 25.4477 19.3693 25.4464 19.3669L21.3719 12.4253L21.3705 12.4218L21.3706 12.4181L21.3721 12.4147L21.3749 12.4122L27.92 8.33151C27.9319 8.32418 27.9416 8.32629 27.9492 8.33785C28.046 8.48672 28.1394 8.63488 28.2295 8.78233C29.2972 10.5306 30.3436 12.2915 31.3685 14.0649C31.5544 14.3866 31.6817 14.6377 31.7503 14.8181C32.1236 15.7976 32.0804 16.9191 31.6068 17.8643C31.4976 18.0821 31.3024 18.3266 31.1954 18.519C29.8434 20.9507 28.4932 23.3834 27.1446 25.8171C27.1446 25.8171 27.0762 25.953 26.9418 26.2206C26.4525 27.1946 25.4621 27.6069 24.4064 27.6043C23.539 27.6024 22.6715 27.6024 21.8041 27.6043C21.7891 27.6043 21.7817 27.6118 21.7817 27.6268L21.7821 30.9568C21.7821 31.0103 21.7684 31.0141 21.741 30.9682L17.4905 23.8151C17.4829 23.8018 17.4826 23.7886 17.4896 23.7753L21.7372 15.921C21.7671 15.8658 21.7821 15.8696 21.7821 15.9325L21.7817 19.3792C21.7817 19.3821 21.7828 19.3849 21.7849 19.387C21.787 19.389 21.7898 19.3902 21.7927 19.3902H25.4329ZM29.978 18.6454C31.0866 17.8639 31.5357 16.448 31.0988 15.1814C31.0348 14.9959 30.9095 14.7442 30.723 14.4265C29.7283 12.7317 28.7265 11.0414 27.7177 9.35537C27.7104 9.34325 27.7006 9.341 27.6885 9.34861L22.3971 12.671C22.3827 12.68 22.3799 12.692 22.3886 12.7069L26.304 19.3542C26.3101 19.3647 26.3189 19.3733 26.3295 19.3793C26.34 19.3853 26.3519 19.3885 26.3641 19.3885C27.2584 19.3965 28.0868 19.4287 28.9833 19.1407C29.3408 19.0259 29.6724 18.8608 29.978 18.6454ZM21.0955 26.8554C22.2421 26.8526 23.3915 26.8503 24.544 26.8486C25.1984 26.8473 25.7939 26.6384 26.1698 26.0793C26.2769 25.9203 26.3323 25.7177 26.4254 25.5503C27.515 23.5919 28.6019 21.6378 29.6864 19.6879C29.6999 19.6637 29.694 19.657 29.6686 19.668C28.7988 20.0402 27.9793 20.1391 27.0413 20.1396C25.0592 20.1407 23.0776 20.141 21.0964 20.1404C21.091 20.1404 21.0858 20.1383 21.082 20.1346C21.0782 20.1309 21.0761 20.1258 21.0761 20.1205L21.0765 18.7884C21.0765 18.7292 21.0624 18.7256 21.0342 18.7778L18.3519 23.7681C18.3484 23.7747 18.3466 23.782 18.3468 23.7894C18.3469 23.7968 18.349 23.8041 18.3527 23.8104L21.0401 28.3466C21.0646 28.3877 21.0769 28.3845 21.0769 28.3368L21.0756 26.8753C21.0756 26.862 21.0823 26.8554 21.0955 26.8554Z" fill="#3A3A3A"/>
<path d="M8.38241 19.5948C8.3812 19.5968 8.38055 19.5991 8.38053 19.6014C8.3805 19.6037 8.3811 19.606 8.38227 19.6081C8.38343 19.6101 8.38512 19.6118 8.38716 19.6129C8.38919 19.6141 8.3915 19.6147 8.39384 19.6146L16.4082 19.6142C16.415 19.6142 16.4216 19.617 16.4264 19.6219C16.4313 19.6268 16.434 19.6335 16.434 19.6404V27.2778C16.434 27.2842 16.4315 27.2903 16.427 27.2948C16.4226 27.2993 16.4166 27.3019 16.4103 27.3019C14.2019 27.3016 11.9925 27.3013 9.78219 27.301C8.63341 27.301 7.64294 27.013 6.94877 26.0386C6.50433 25.4148 6.15004 24.9319 5.78222 24.3373C4.56445 22.3661 3.40255 20.3547 2.25081 18.3442C2.11875 18.1133 1.93886 17.8921 1.77971 17.6705C1.34542 17.0636 1.17696 16.2479 1.4432 15.5416C1.48891 15.4201 1.58994 15.2279 1.74627 14.9652C2.23416 14.1453 2.71557 13.3216 3.19049 12.4941C3.19274 12.4903 3.19419 12.486 3.19477 12.4816C3.19535 12.4772 3.19504 12.4727 3.19386 12.4684C3.19267 12.4641 3.19064 12.4601 3.18788 12.4566C3.18512 12.4531 3.18169 12.4502 3.17779 12.448C2.57025 12.11 1.96877 11.7733 1.37336 11.4381C0.925532 11.1861 0.478128 10.9035 0.0345335 10.6346C-0.0154133 10.6041 -0.0111804 10.5889 0.0472318 10.5889L8.6169 10.5881C8.62759 10.588 8.6381 10.5908 8.64738 10.5962C8.65667 10.6015 8.6644 10.6092 8.66981 10.6185C9.91933 12.7412 11.1703 14.8603 12.4226 16.9757C12.6328 17.3306 12.8502 17.6894 13.0749 18.052C13.0814 18.0624 13.079 18.0703 13.0677 18.0757C13.0513 18.0833 13.0324 18.0809 13.0109 18.0685C12.0738 17.5328 11.1285 17.0121 10.175 16.5063C10.1617 16.4992 10.1513 16.5022 10.1437 16.5151L8.38241 19.5948ZM9.90705 15.4997L11.0474 16.1506C11.0716 16.1647 11.0767 16.1596 11.0626 16.1354L8.25627 11.3671C8.2511 11.3583 8.2437 11.351 8.23479 11.346C8.22588 11.341 8.21578 11.3383 8.20548 11.3383L2.75197 11.3387C2.74548 11.3387 2.7445 11.341 2.74901 11.3455C2.77695 11.3751 2.80333 11.3968 2.82816 11.4106C3.27825 11.6618 3.72156 11.9184 4.1581 12.1803C4.16687 12.1854 4.17331 12.1938 4.17607 12.2036C4.17883 12.2133 4.1777 12.2238 4.17292 12.2328C4.13115 12.3134 4.08586 12.3959 4.03704 12.4802C3.48622 13.43 2.9289 14.3759 2.3651 15.3179C2.22824 15.5465 2.14231 15.7167 2.10732 15.8283C1.81907 16.7486 2.61356 17.7175 3.31324 18.2216C4.50138 19.078 6.0256 19.4903 7.47279 19.5736C7.48802 19.5745 7.50072 19.5692 7.51088 19.558C7.52584 19.5408 7.54093 19.5189 7.55617 19.4924C8.27546 18.2488 8.99489 17.0054 9.71446 15.7624C9.76525 15.6744 9.82 15.589 9.87869 15.5061C9.88631 15.4954 9.89577 15.4932 9.90705 15.4997ZM4.04043 19.4975C3.92078 19.4445 3.80071 19.3909 3.68022 19.3368C3.66357 19.3292 3.65976 19.3333 3.66879 19.3491C4.68466 21.0957 5.69841 22.8579 6.78877 24.5593C6.88485 24.7094 7.04612 24.8947 7.17353 25.0884C7.26467 25.2268 7.38827 25.4016 7.54432 25.6128C7.91384 26.1122 8.34008 26.3626 8.94918 26.484C9.18621 26.5313 9.40547 26.555 9.60695 26.555C11.6138 26.5559 13.6268 26.556 15.6458 26.5554C15.6563 26.5554 15.6663 26.5512 15.6737 26.5438C15.6811 26.5363 15.6852 26.5262 15.6852 26.5157V20.3936C15.6852 20.3856 15.682 20.3778 15.6763 20.3721C15.6706 20.3664 15.6628 20.3632 15.6547 20.3632C13.3278 20.3643 10.9963 20.3642 8.66008 20.3628C7.06009 20.3615 5.51555 20.15 4.04043 19.4975Z" fill="#3A3A3A"/>
</svg>
