<svg width="112" height="64" viewBox="0 0 112 64" fill="none" xmlns="http://www.w3.org/2000/svg">
<path d="M99.7515 6.02917C100.338 5.71426 101.438 5.45411 101.99 5.95843C102.063 6.02537 102.13 6.02005 102.191 5.94246C102.974 4.94294 104.133 4.01645 105.45 4.66226C105.523 4.69877 105.591 4.6904 105.655 4.63716C106.885 3.61254 108.521 3.09453 109.685 4.57554C111.234 6.54719 111.522 9.35404 110.796 11.725C110.584 12.421 109.601 12.6698 108.994 12.9071C108.901 12.9451 108.85 13.0136 108.841 13.1125C108.786 13.6853 108.389 14.4954 107.672 14.0732C107.535 13.9933 107.455 13.845 107.33 13.7583C107.3 13.7373 107.265 13.7244 107.228 13.7208C107.191 13.7172 107.154 13.7231 107.12 13.7377L105.666 14.3585C105.583 14.3934 105.538 14.4566 105.532 14.5479C105.461 15.4356 104.708 16.1201 103.93 15.2553C103.875 15.1944 103.81 15.1807 103.736 15.2142L102.081 15.9581C102.007 15.9916 101.968 16.0494 101.965 16.1316C101.954 16.6321 101.717 17.0177 101.253 17.2885C101.197 17.3208 101.132 17.3314 101.07 17.3182C100.797 17.2589 100.557 17.1174 100.352 16.8937C100.291 16.8268 100.219 16.8124 100.135 16.8504L98.3412 17.6537C98.2545 17.6932 98.2012 17.7586 98.1814 17.8499C98.0628 18.377 97.9304 18.8106 97.3964 19.0525C97.3265 19.0845 97.2534 19.0898 97.1774 19.0685C96.8701 18.9833 96.6031 18.8471 96.3764 18.66C96.3125 18.6068 96.2418 18.5969 96.1642 18.6303L94.2108 19.4952C94.1286 19.5317 94.083 19.5941 94.0739 19.6823C94.0297 20.0703 93.8601 20.405 93.565 20.6864C93.1154 21.1109 92.554 20.8393 92.1775 20.4993C92.1437 20.4681 92.1013 20.4475 92.0555 20.4402C92.0097 20.4329 91.9624 20.4392 91.9197 20.4582L89.8134 21.3687C89.7327 21.4037 89.6917 21.4653 89.6901 21.5536C89.6765 22.1332 89.0261 23.135 88.2867 22.8543C88.0387 22.7615 87.8174 22.633 87.6227 22.4687C87.5588 22.4154 87.488 22.4055 87.4104 22.439L85.0805 23.4773C85.0075 23.5108 84.9611 23.5655 84.9413 23.6416C84.7017 24.5225 84.2704 25.2413 83.2275 24.9537C82.9834 24.8853 82.8442 24.7552 82.6365 24.6343C82.565 24.5932 82.492 24.5886 82.4174 24.6206L79.8913 25.7091C79.8061 25.7456 79.7574 25.8087 79.7452 25.8985C79.6996 26.2438 79.5809 26.5413 79.3892 26.7908C78.8446 27.4936 78.1349 27.5537 77.2601 26.971C77.1917 26.9254 77.1194 26.9193 77.0433 26.9528L74.2935 28.1531C74.2007 28.1942 74.146 28.2642 74.1292 28.363C73.8988 29.73 72.6459 30.3507 71.4205 29.5337C71.3536 29.4896 71.2828 29.4835 71.2083 29.5155L68.1801 30.8322C68.0873 30.8717 68.034 30.9417 68.0203 31.0421C67.783 32.6418 66.2906 33.1598 64.999 32.2812C64.9427 32.2432 64.8834 32.2379 64.821 32.2653L61.5167 33.6983C61.4375 33.7333 61.3911 33.7934 61.3775 33.8786C61.2268 34.7899 60.7948 35.3657 60.0813 35.6061C59.3404 35.8556 58.6413 35.775 57.9841 35.3642C57.9065 35.317 57.8259 35.311 57.7422 35.346L54.107 36.884C54.0721 36.8987 54.0414 36.9219 54.0179 36.9514C53.9944 36.9809 53.9787 37.0158 53.9724 37.0529C53.6438 39.0884 51.857 39.5631 50.1363 38.664C50.074 38.632 50.0101 38.6297 49.9447 38.6571C48.8356 39.1432 47.6901 39.5517 46.6563 40.1861C44.8056 41.3202 43.0393 42.646 41.232 43.7117C40.2371 44.2982 38.7218 44.5561 37.5991 44.2959C35.095 43.7102 33.2869 42.4475 32.1748 40.5078C30.8208 38.1482 30.3416 35.5909 30.7371 32.8358C30.7379 32.8299 30.7371 32.824 30.7349 32.8186C30.7327 32.8131 30.7291 32.8084 30.7245 32.8047C30.72 32.801 30.7145 32.7986 30.7087 32.7976C30.7029 32.7967 30.697 32.7972 30.6915 32.7992L28.4711 33.5546C28.4584 33.5595 28.4472 33.5672 28.4384 33.5772C28.4297 33.5871 28.4236 33.599 28.4209 33.6116C28.1258 34.8606 27.4351 35.6213 26.3488 35.8936C25.4315 36.1233 24.4738 35.9476 23.4758 35.3665C23.3952 35.3193 23.3115 35.3132 23.2248 35.3482C21.9195 35.8708 20.5959 36.2245 19.2747 36.827C18.6266 37.1221 18.0401 37.418 17.5152 37.7147C14.8286 39.2314 12.8432 40.2979 11.5592 40.914C10.5445 41.4008 9.36853 41.5575 8.03128 41.3841C3.43991 40.7885 0.31586 37.0825 0.0374566 32.5186C-0.124565 29.8509 0.194914 27.2837 1.87218 25.3075C2.9219 24.0676 4.34814 23.3579 6.15092 23.1784C6.42171 23.1525 6.6735 23.0825 6.90626 22.9684C7.77646 22.547 8.59722 22.0906 9.36853 21.5992C10.0988 21.1337 10.8351 20.7747 11.5775 20.5221C13.7865 19.7691 16.4085 19.3834 18.5285 20.0748C18.6228 20.1053 18.7103 20.0916 18.7909 20.0338C20.1738 19.0358 21.384 18.3086 22.4215 17.8522C24.0417 17.1402 26.9513 16.6587 28.7837 17.3958C28.8552 17.4247 28.9229 17.4178 28.9868 17.3752C30.2351 16.5514 31.4537 15.6272 32.8092 15.1686C34.653 14.5448 36.4124 14.4916 38.0874 15.0088C38.1559 15.0301 38.219 15.0179 38.2768 14.9723C39.3661 14.1128 40.2842 13.5217 41.0312 13.1992C42.0277 12.7702 43.266 12.5496 44.7463 12.5374C45.3122 12.5329 45.853 12.704 46.3916 12.8888C46.4753 12.9178 46.5529 12.9048 46.6244 12.8501C46.9362 12.6082 47.2481 12.3686 47.56 12.1312C49.3194 10.7848 51.9003 10.0364 54.0135 10.956C54.0555 10.9742 54.102 10.9799 54.147 10.9722C54.192 10.9645 54.2336 10.9438 54.2668 10.9126C55.0031 10.2067 55.7052 9.6971 56.373 9.3837C57.6989 8.763 59.4492 8.55762 60.9165 9.13497C61.0017 9.16844 61.0793 9.15627 61.1493 9.09845C61.5113 8.80484 61.8673 8.52567 62.2172 8.26096C63.5514 7.25536 65.0347 6.91383 66.6671 7.23635C66.9136 7.28655 67.1007 7.42347 67.3266 7.51703C67.3951 7.54594 67.4582 7.53605 67.516 7.48737C69.2663 5.963 70.9002 5.11866 73.189 5.97441C73.2727 6.00483 73.3465 5.98962 73.4104 5.92877C74.8481 4.55044 76.5892 3.78141 78.5426 4.61205C78.6293 4.64857 78.7046 4.63259 78.7685 4.56413C80.0305 3.22917 81.8059 2.44188 83.5493 3.34098C83.6269 3.38054 83.6938 3.36685 83.7501 3.29991C84.8409 1.9832 86.5958 1.27122 88.1544 2.13609C88.2487 2.18782 88.3293 2.17108 88.3963 2.08589C89.3296 0.874148 90.8197 0.344726 92.262 0.899251C92.3335 0.926635 92.4004 0.919029 92.4628 0.876431C93.3284 0.284634 94.2085 -0.00746185 95.103 0.000144796C97.8711 0.0229647 99.3247 3.74718 99.5872 5.94246C99.5993 6.05199 99.6541 6.0809 99.7515 6.02917ZM56.1768 13.2083C55.9836 13.2479 55.8124 13.2022 55.6633 13.0714C54.657 12.1883 53.3722 11.8734 52.0304 12.1175C50.2307 12.4446 48.758 12.8721 47.6125 13.4C47.6014 13.4049 47.5918 13.4127 47.5847 13.4226C47.5776 13.4324 47.5733 13.4439 47.5721 13.456C47.571 13.4681 47.573 13.4802 47.5781 13.4913C47.5832 13.5023 47.5911 13.5117 47.6011 13.5187C48.1396 13.9218 48.6059 14.3721 48.9999 14.8696C49.1277 15.0309 49.0935 15.1419 48.8972 15.2028L48.7923 15.2347C48.6969 15.2639 48.5955 15.2677 48.4978 15.2457C48.4002 15.2237 48.3098 15.1767 48.2354 15.1092C47.0534 14.039 45.513 13.8587 43.9133 14.1713C42.2216 14.4999 40.7224 14.9647 39.4155 15.5656C39.4028 15.5711 39.3919 15.5799 39.3838 15.5911C39.3758 15.6023 39.3709 15.6156 39.3698 15.6296C39.3686 15.6435 39.3712 15.6576 39.3772 15.6705C39.3833 15.6833 39.3926 15.6944 39.4041 15.7025C39.9914 16.1103 40.5025 16.5887 40.9376 17.1379C41.0289 17.252 41.0084 17.341 40.876 17.4049C40.6318 17.519 40.3306 17.5601 40.0933 17.3935C38.7971 16.4853 37.6242 16.054 35.9789 16.3643C34.0392 16.7279 32.1299 17.2581 30.2511 17.9549C30.2393 17.9597 30.2292 17.9676 30.2215 17.9777C30.2139 17.9879 30.2092 17.9998 30.2078 18.0124C30.2064 18.025 30.2084 18.0378 30.2136 18.0493C30.2188 18.0609 30.227 18.0708 30.2374 18.0781C30.8991 18.533 31.4689 19.0358 31.9466 19.5865C31.9628 19.6054 31.9748 19.6275 31.9817 19.6513C31.9887 19.6751 31.9906 19.7001 31.9871 19.7246C31.9836 19.749 31.975 19.7724 31.9617 19.793C31.9484 19.8137 31.9308 19.8312 31.9101 19.8444C31.5997 20.0406 31.2095 20.0612 30.9037 19.8444C28.7404 18.3086 26.2598 18.6258 23.8432 19.3697C22.6033 19.7516 21.3612 20.1494 20.1167 20.5632C20.1012 20.5681 20.0874 20.5773 20.077 20.5898C20.0667 20.6023 20.0601 20.6176 20.0582 20.6337C20.0562 20.6499 20.059 20.6662 20.0662 20.6809C20.0733 20.6955 20.0845 20.7077 20.0985 20.7161C20.7526 21.1345 21.3513 21.6411 21.8944 22.2359C21.9193 22.2631 21.9375 22.2957 21.9477 22.3312C21.9579 22.3666 21.9598 22.4038 21.9531 22.4399C21.9465 22.476 21.9315 22.51 21.9094 22.5392C21.8874 22.5683 21.8588 22.5918 21.8259 22.6079C21.5452 22.7493 21.2166 22.7836 20.9291 22.6193C19.4481 21.7818 18.0036 21.3254 16.2853 21.5239C14.0124 21.7871 11.6711 22.4162 9.26128 23.4111C9.24548 23.4175 9.23199 23.4285 9.22256 23.4427C9.21314 23.4569 9.20823 23.4736 9.20848 23.4906C9.20872 23.5077 9.21412 23.5242 9.22395 23.5381C9.23378 23.552 9.24759 23.5627 9.26356 23.5686C10.4654 24.0113 11.509 24.7605 12.3945 25.8163C12.4568 25.8909 12.5337 25.9107 12.6249 25.8757L12.8554 25.7867C12.9022 25.7683 12.9525 25.761 13.0024 25.7653C13.0523 25.7697 13.1004 25.7856 13.1429 25.8118C14.1562 26.4234 15.2196 26.1906 16.2784 25.8871C42.9838 18.2531 69.8885 10.6183 96.9925 2.98271C97.2253 2.91729 97.4261 2.74995 97.595 2.48067C97.6376 2.41221 97.6383 2.34375 97.5973 2.27529C96.5818 0.591181 94.4846 0.529567 92.8005 1.17309C92.7879 1.17782 92.7766 1.18568 92.7678 1.19593C92.7591 1.20618 92.753 1.21849 92.7503 1.23171C92.7476 1.24493 92.7482 1.25863 92.7522 1.27152C92.7562 1.28441 92.7634 1.29609 92.7731 1.30545C93.1717 1.68882 93.5315 2.13077 93.8525 2.63128C93.8617 2.64547 93.8675 2.66161 93.8695 2.67842C93.8714 2.69524 93.8694 2.71227 93.8637 2.72819C93.8579 2.74411 93.8486 2.75848 93.8363 2.77017C93.8241 2.78187 93.8093 2.79057 93.7932 2.79559L93.727 2.81613C93.622 2.84807 93.533 2.82297 93.46 2.74082C92.9169 2.13229 92.3084 1.83335 91.6344 1.844C90.8905 1.85617 89.9716 2.10795 88.8778 2.59934C88.7971 2.63433 88.785 2.68605 88.8412 2.75451L89.7107 3.82248C89.7209 3.83484 89.7282 3.84938 89.7319 3.86497C89.7356 3.88057 89.7357 3.89681 89.7322 3.91246C89.7287 3.9281 89.7216 3.94273 89.7115 3.95522C89.7015 3.96771 89.6887 3.97773 89.6742 3.98451L89.6012 4.01874C89.5465 4.04376 89.4853 4.05039 89.4268 4.03762C89.3683 4.02485 89.3158 3.99339 89.2771 3.948C88.7127 3.29534 88.073 2.97358 87.3579 2.98271C86.471 2.9964 85.47 3.27024 84.3548 3.80423C84.2788 3.84074 84.2674 3.89171 84.3206 3.95712L85.1923 5.04107C85.2608 5.12474 85.2441 5.18484 85.1421 5.22135L85.044 5.25558C84.9086 5.30274 84.7915 5.27383 84.6926 5.16886C84.0194 4.45232 83.118 4.09404 82.139 4.28573C81.1441 4.48046 80.2229 4.74593 79.3755 5.08215C79.3679 5.08554 79.3611 5.09066 79.3557 5.0971C79.3503 5.10354 79.3464 5.11114 79.3445 5.1193C79.3425 5.12746 79.3424 5.13597 79.3442 5.14417C79.346 5.15237 79.3497 5.16003 79.355 5.16658L80.35 6.37832C80.3622 6.39288 80.371 6.41008 80.3755 6.42858C80.38 6.44708 80.3801 6.46637 80.3759 6.48494C80.3717 6.50352 80.3633 6.52086 80.3513 6.53562C80.3392 6.55038 80.3239 6.56215 80.3066 6.57001L80.2176 6.61108C80.0852 6.67041 79.9673 6.64988 79.8639 6.54947C79.1336 5.84205 78.3616 5.51116 77.5477 5.5568C76.5451 5.61309 75.3919 5.91812 74.0882 6.47188C73.9938 6.51143 73.9801 6.56925 74.0471 6.64531L75.0329 7.76805C75.1059 7.85173 75.0976 7.92627 75.0078 7.99169C74.9576 8.0282 74.9028 8.0533 74.8435 8.06699C74.7005 8.10046 74.5773 8.06547 74.4738 7.96202C73.7139 7.19984 72.6528 6.83244 71.5917 7.02869C70.3259 7.26145 69.2093 7.58625 68.2417 8.0031C68.232 8.00733 68.2236 8.01389 68.217 8.02219C68.2105 8.0305 68.2062 8.04028 68.2044 8.05068C68.2026 8.06108 68.2034 8.07176 68.2067 8.08177C68.21 8.09179 68.2158 8.10082 68.2234 8.10807C68.6479 8.49144 69.0199 8.91209 69.3393 9.37001C69.388 9.43999 69.3796 9.50313 69.3142 9.55942C69.229 9.63092 69.1324 9.66363 69.0244 9.65754C68.956 9.6545 68.8966 9.63016 68.8464 9.58452C67.9519 8.76528 66.925 8.32942 65.679 8.5736C64.2946 8.84591 63.0867 9.19658 62.0552 9.6256C61.973 9.66059 61.9624 9.71003 62.0233 9.77392L63.1346 10.9537C63.1672 10.9884 63.1891 11.0317 63.1976 11.0786C63.2061 11.1254 63.2009 11.1737 63.1826 11.2176C63.1642 11.2615 63.1336 11.2992 63.0943 11.3261C63.055 11.353 63.0087 11.3679 62.9612 11.369C62.7984 11.3736 62.6531 11.3226 62.5253 11.2161C61.5851 10.4289 60.5126 10.066 59.2575 10.276C57.6875 10.5376 56.3053 10.9347 55.1111 11.4672C55.1011 11.4715 55.0925 11.4783 55.0859 11.4869C55.0793 11.4955 55.0749 11.5056 55.0733 11.5164C55.0718 11.5271 55.0729 11.538 55.0767 11.5482C55.0805 11.5584 55.0869 11.5674 55.0951 11.5744C55.5485 11.9684 55.9714 12.4035 56.3639 12.8797C56.4993 13.0455 56.4628 13.1498 56.2544 13.1924L56.1768 13.2083ZM97.8643 2.80472C97.7775 3.23145 97.4512 3.51898 97.0268 3.63764C96.3939 3.81564 95.7846 3.98907 95.1989 4.15794C95.1015 4.18532 95.0772 4.24313 95.1259 4.33137C95.5929 5.18636 95.9991 6.06949 96.3444 6.98077C96.3606 7.02309 96.3918 7.05786 96.432 7.07815C96.4722 7.09845 96.5183 7.10278 96.5612 7.0903C97.0907 6.93969 97.6117 6.99978 98.1244 7.27058C98.2081 7.3147 98.2834 7.30405 98.3503 7.23863L99.0714 6.51524C99.1384 6.44982 99.1688 6.36995 99.1627 6.27563C99.0821 5.0327 98.6972 3.8666 98.008 2.77733C97.938 2.66627 97.8901 2.6754 97.8643 2.80472ZM95.7671 7.15648C95.5138 6.19804 95.1532 5.3035 94.7105 4.42721C94.6679 4.34354 94.6018 4.31464 94.512 4.3405L91.0251 5.33317C90.946 5.35599 90.9277 5.40239 90.9704 5.47237C91.5059 6.37452 91.9539 7.31926 92.3144 8.3066C92.3525 8.40701 92.4247 8.44961 92.5312 8.43439C93.0835 8.35072 93.5574 8.43972 93.9529 8.70139C93.9899 8.72548 94.0347 8.73441 94.0784 8.72635C94.1221 8.7183 94.1613 8.69387 94.188 8.65803C94.6185 8.07536 95.1213 7.62961 95.6964 7.32078C95.7633 7.28427 95.7869 7.2295 95.7671 7.15648ZM81.2445 15.5382C81.0482 15.7041 80.8649 15.698 80.6945 15.52C79.9871 14.7715 78.8826 14.468 77.8763 14.7806C77.1118 15.0179 76.2926 15.1435 75.5897 15.536C75.3022 15.6972 75.0116 15.844 74.718 15.9764C74.6069 16.0281 74.597 16.0935 74.6883 16.1726C75.0915 16.518 75.4452 16.9029 75.7495 17.3273C75.8194 17.4232 75.7997 17.4954 75.6901 17.5441L75.6103 17.5806C75.452 17.6506 75.3105 17.6255 75.1858 17.5053C74.7811 17.1098 74.308 16.8382 73.7664 16.6906C73.3663 16.5826 72.9388 16.5804 72.4839 16.6838C70.9748 17.0291 69.6824 17.4802 68.6068 18.037C68.4988 18.0948 68.4912 18.1633 68.584 18.2424C69.0237 18.6227 69.407 19.0373 69.7341 19.4861C69.7858 19.5561 69.7752 19.6146 69.7022 19.6618C69.4755 19.8139 69.2625 19.8018 69.0632 19.6253C68.5946 19.213 68.0416 18.9445 67.4042 18.8197C66.8322 18.7087 66.1719 18.7612 65.4234 18.9772C64.1729 19.3393 62.9787 19.8162 61.8407 20.408C61.754 20.4521 61.7494 20.5031 61.827 20.5609C62.2697 20.8926 62.7018 21.2911 63.1232 21.7567C63.251 21.8966 63.2259 21.9986 63.0479 22.0625L62.9429 22.099C62.7664 22.1629 62.6044 22.137 62.4568 22.0214C61.4733 21.2524 60.3414 20.9123 59.1023 21.2204C57.3558 21.654 55.8048 22.2161 54.4493 22.9068C54.3885 22.9387 54.3839 22.9768 54.4356 23.0209L55.9075 24.3011C56.0018 24.3817 56.0064 24.4669 55.9212 24.5567C55.6999 24.794 55.3507 24.7758 55.0928 24.6023C54.034 23.8888 52.9592 23.6013 51.8684 23.7397C50.3638 23.9329 48.4918 24.5795 46.2524 25.6794C46.1337 25.7372 46.1307 25.8004 46.2433 25.8688C46.8183 26.2248 47.3607 26.6645 47.8703 27.1878C47.8881 27.2063 47.9015 27.2285 47.9095 27.2528C47.9175 27.2772 47.92 27.303 47.9167 27.3284C47.9134 27.3538 47.9045 27.3781 47.8905 27.3996C47.8766 27.4211 47.858 27.4392 47.8361 27.4525C47.5668 27.6191 47.2724 27.6351 47.0032 27.4708C45.5336 26.5831 43.8449 26.4074 42.1699 26.8683C40.5132 27.3232 38.9721 27.9447 37.5466 28.7327C37.5354 28.7393 37.5264 28.749 37.5205 28.7605C37.5146 28.7721 37.5121 28.785 37.5133 28.798C37.5145 28.8109 37.5193 28.8232 37.5272 28.8334C37.5352 28.8437 37.5458 28.8515 37.558 28.856C38.7112 29.2682 39.6711 29.9171 40.4379 30.8025C40.4942 30.8664 40.5565 30.874 40.625 30.8253C41.0198 30.5424 41.6268 31.1357 42.1562 31.0467C42.643 30.966 43.1101 30.8428 43.5574 30.677C61.3189 24.0775 79.1298 17.5183 96.9902 10.9994C101.279 9.43391 105.37 7.92931 109.265 6.48557C109.509 6.39581 109.699 6.23988 109.838 6.01776C109.876 5.95691 109.88 5.89454 109.849 5.83064C109.076 4.21499 107.501 4.32681 106.07 4.81287C106.047 4.82084 106.026 4.83412 106.008 4.85166C105.991 4.8692 105.978 4.89052 105.97 4.91396C105.962 4.93739 105.96 4.9623 105.964 4.98673C105.967 5.01116 105.976 5.03445 105.99 5.05476L106.755 6.16837C106.825 6.27182 106.81 6.36082 106.709 6.43537L106.643 6.48557C106.633 6.49297 106.622 6.49827 106.61 6.50113C106.598 6.504 106.585 6.50437 106.573 6.50223C106.561 6.50008 106.55 6.49546 106.54 6.48866C106.53 6.48186 106.522 6.47304 106.515 6.46275C106.114 5.86031 105.618 5.5606 105.03 5.56365C104.446 5.56669 103.664 5.8352 102.684 6.36919C102.586 6.42244 102.574 6.4909 102.647 6.57457C102.909 6.87427 103.123 7.20136 103.289 7.55583C103.297 7.57245 103.299 7.59127 103.296 7.60967C103.293 7.62806 103.284 7.64513 103.27 7.65852L103.225 7.70187C103.143 7.78403 103.066 7.7787 102.994 7.6859C102.485 7.01956 101.881 6.7442 101.185 6.85982C100.422 6.98761 99.6465 7.28123 98.8569 7.74067C98.79 7.7787 98.7786 7.83043 98.8227 7.89584L99.5118 8.90905C99.5621 8.98359 99.5484 9.04445 99.4708 9.09161L99.3841 9.14409C99.2882 9.2019 99.2084 9.18517 99.1445 9.09389C98.6721 8.40929 97.9076 8.06699 97.0724 8.2815C96.1992 8.50666 95.4172 8.80332 94.7265 9.17148C94.7116 9.17936 94.6988 9.19064 94.6891 9.20441C94.6794 9.21817 94.673 9.23403 94.6706 9.25069C94.6682 9.26736 94.6697 9.28437 94.675 9.30034C94.6804 9.31631 94.6894 9.3308 94.7014 9.34263C95.0133 9.64842 95.2689 9.99071 95.4682 10.3695C95.5077 10.4471 95.4887 10.5034 95.4111 10.5384L95.3563 10.5635C95.2225 10.6243 95.1114 10.5954 95.0232 10.4768C94.5516 9.84695 93.9986 9.55257 93.3642 9.59365C92.5031 9.64841 91.4914 9.9968 90.3291 10.6388C90.2683 10.6723 90.2591 10.7164 90.3017 10.7712L91.1187 11.8232C91.2115 11.9449 91.1864 12.0339 91.0434 12.0901L90.9589 12.1244C90.9217 12.139 90.8809 12.1416 90.8424 12.1317C90.8038 12.1219 90.7695 12.1002 90.7444 12.0696C90.1557 11.3637 89.4878 11.0556 88.7408 11.1454C87.8524 11.2534 86.8004 11.6201 85.5848 12.2453C85.4996 12.2894 85.4905 12.3457 85.5575 12.4142C85.8906 12.7504 86.1804 13.1269 86.4269 13.5438C86.4786 13.6305 86.4573 13.6929 86.363 13.7309C86.3432 13.74 86.3227 13.7484 86.3014 13.756C86.1721 13.8062 86.0603 13.7803 85.9659 13.6784C85.3528 13.0136 84.6576 12.7185 83.8802 12.793C83.0343 12.8736 81.8873 13.2737 80.4389 13.9933C80.3614 14.0314 80.3484 14.0854 80.4002 14.1554L81.2673 15.3511C81.3175 15.4211 81.3099 15.4835 81.2445 15.5382ZM86.5752 6.74116L88.0357 9.80359C88.0542 9.842 88.0843 9.87354 88.1217 9.89364C88.159 9.91374 88.2016 9.92137 88.2434 9.91541C88.7074 9.84695 89.147 9.93367 89.5624 10.1756C89.6536 10.2288 89.7327 10.2143 89.7997 10.1322C90.3611 9.44151 90.9772 8.93415 91.6481 8.61011C91.7211 8.57512 91.7462 8.51883 91.7234 8.44124C91.4663 7.51475 91.086 6.58598 90.5824 5.65493C90.5276 5.55452 90.4447 5.51953 90.3337 5.54995L86.6346 6.6088C86.5615 6.62858 86.5418 6.6727 86.5752 6.74116ZM109.496 6.96935C108.948 7.19755 108.393 7.40978 107.837 7.62657C107.812 7.63634 107.79 7.65085 107.771 7.66925C107.753 7.68766 107.738 7.70959 107.728 7.73379C107.717 7.75798 107.712 7.78395 107.712 7.8102C107.712 7.83645 107.717 7.86246 107.727 7.88672C108.282 9.18745 108.696 10.5247 108.968 11.8985C108.99 12.008 109.053 12.0445 109.158 12.008C109.772 11.7912 110.575 11.6223 110.739 10.8875C111.077 9.37534 110.894 7.84868 110.189 6.30758C110.124 6.16457 110.073 6.1699 110.036 6.32355C109.96 6.63542 109.78 6.85069 109.496 6.96935ZM87.3192 9.95877C87.043 8.86569 86.5912 7.91638 86.0663 6.92828C86.0253 6.84917 85.9621 6.82179 85.8769 6.84613L81.7671 8.04646C81.7548 8.0501 81.7435 8.05642 81.734 8.06492C81.7245 8.07342 81.7171 8.08389 81.7122 8.09554C81.7074 8.10719 81.7053 8.1197 81.7061 8.13215C81.7069 8.1446 81.7106 8.15665 81.7169 8.1674C82.2828 9.15931 82.8092 10.2448 83.296 11.4238C83.3264 11.4984 83.382 11.5333 83.4626 11.5288C83.9053 11.5075 84.3313 11.6163 84.7405 11.8551C84.815 11.8992 84.8797 11.8871 84.9345 11.8186C85.3042 11.3576 85.7339 10.9408 86.2238 10.5681C86.5205 10.3444 86.8696 10.2372 87.2188 10.1368C87.31 10.1109 87.3435 10.0516 87.3192 9.95877ZM105.79 13.3977L108.074 12.4073C108.148 12.3739 108.187 12.3168 108.19 12.2362C108.221 11.2686 108.135 10.4144 107.935 9.67352C107.786 9.11975 107.589 8.51655 107.346 7.8639C107.342 7.85456 107.337 7.84602 107.33 7.83877C107.323 7.83153 107.315 7.82572 107.306 7.82168C107.297 7.81765 107.287 7.81547 107.277 7.81527C107.267 7.81508 107.257 7.81687 107.248 7.82054L104.313 8.95469C104.245 8.98055 104.226 9.02771 104.256 9.09617C104.875 10.4669 105.338 11.8756 105.644 13.3224C105.647 13.3377 105.654 13.352 105.663 13.3644C105.673 13.3768 105.685 13.387 105.699 13.3941C105.713 13.4013 105.728 13.4053 105.744 13.406C105.76 13.4066 105.775 13.4038 105.79 13.3977ZM81.1897 8.25184C81.1794 8.23482 81.1637 8.22175 81.1451 8.21472C81.1265 8.20769 81.106 8.2071 81.087 8.21304L76.5755 9.53888C76.5657 9.54207 76.5567 9.54736 76.5492 9.55437C76.5417 9.56138 76.5358 9.56993 76.5321 9.57937C76.5284 9.5888 76.5268 9.59889 76.5276 9.60887C76.5285 9.61885 76.5316 9.62847 76.5367 9.63701C77.2213 10.7887 77.8101 11.9783 78.303 13.206C78.3166 13.2402 78.3396 13.2699 78.3695 13.2916C78.3994 13.3134 78.4348 13.3265 78.4719 13.3293C78.8263 13.3536 79.1641 13.435 79.4851 13.5734C79.5687 13.61 79.6433 13.5955 79.7087 13.5301C80.5599 12.6835 81.2901 11.9601 82.4905 11.6611C82.5711 11.6414 82.6 11.5912 82.5772 11.5105C82.2379 10.3224 81.7754 9.23614 81.1897 8.25184ZM103.907 9.19202C103.881 9.13268 103.838 9.11443 103.777 9.13725L100.653 10.3216C100.636 10.3278 100.621 10.3374 100.608 10.3498C100.595 10.3622 100.585 10.3772 100.579 10.3938C100.572 10.4103 100.569 10.4281 100.569 10.4459C100.57 10.4638 100.574 10.4813 100.582 10.4973C101.244 11.865 101.731 13.289 102.045 14.7692C102.068 14.8787 102.131 14.9115 102.234 14.8673L104.697 13.8267C104.734 13.8111 104.766 13.7849 104.789 13.7513C104.812 13.7178 104.825 13.6782 104.827 13.6373C104.862 12.1221 104.555 10.6403 103.907 9.19202ZM77.4792 13.3384C77.2054 12.17 76.733 10.851 76.0324 9.84467C75.9807 9.77012 75.9107 9.74502 75.8225 9.76936L71.0166 11.1317C71.0023 11.1359 70.9891 11.1433 70.9781 11.1534C70.9671 11.1634 70.9585 11.1758 70.953 11.1897C70.9475 11.2035 70.9452 11.2185 70.9464 11.2333C70.9475 11.2482 70.952 11.2626 70.9595 11.2755C71.7233 12.5564 72.3706 13.8389 72.9015 15.1229C72.9165 15.1593 72.9392 15.1919 72.968 15.2183C72.9968 15.2448 73.031 15.2644 73.0681 15.2758L73.828 15.5109C73.9132 15.5367 73.9847 15.5169 74.0425 15.4515C74.9485 14.4452 76.0233 13.5871 77.4039 13.4411C77.4159 13.4401 77.4276 13.4365 77.4381 13.4306C77.4486 13.4247 77.4578 13.4166 77.4649 13.4069C77.4721 13.3972 77.477 13.386 77.4795 13.3742C77.482 13.3624 77.4819 13.3502 77.4792 13.3384ZM100.103 10.5019L96.7096 11.7479C96.6213 11.7798 96.5955 11.8384 96.632 11.9236C97.0587 12.9003 97.5288 13.8929 97.8118 14.9175C97.9365 15.3755 98.0704 15.8501 98.2134 16.3415C98.218 16.3573 98.2259 16.372 98.2365 16.3845C98.247 16.3971 98.2601 16.4073 98.2747 16.4144C98.2894 16.4215 98.3054 16.4254 98.3215 16.4258C98.3377 16.4262 98.3537 16.4232 98.3686 16.4168L101.052 15.3169C101.136 15.2819 101.181 15.2188 101.187 15.1275C101.289 13.524 100.943 11.9882 100.149 10.5201C100.144 10.5123 100.137 10.5063 100.128 10.503C100.12 10.4997 100.111 10.4993 100.103 10.5019ZM66.9775 17.1973C67.0916 17.4848 67.303 17.6354 67.6119 17.6491C67.694 17.6521 67.764 17.6255 67.8218 17.5692C68.9788 16.4328 70.1928 15.4629 71.8244 15.31C71.8424 15.3083 71.8597 15.3027 71.8753 15.2936C71.8909 15.2845 71.9043 15.2722 71.9147 15.2575C71.9251 15.2428 71.9322 15.226 71.9355 15.2083C71.9388 15.1906 71.9383 15.1724 71.934 15.1549C71.6206 13.8998 71.1064 12.6842 70.3913 11.5082C70.3695 11.4734 70.3371 11.4465 70.2993 11.4317C70.2614 11.4168 70.22 11.4149 70.1814 11.4261L64.983 12.9482C64.878 12.9786 64.8545 13.0402 64.9123 13.133C65.7368 14.4551 66.4252 15.8098 66.9775 17.1973ZM94.2108 18.142L97.1682 16.9097C97.2397 16.8793 97.2778 16.826 97.2823 16.75C97.3843 15.1556 97.0123 13.616 96.1665 12.1312C96.1223 12.0536 96.0592 12.0308 95.977 12.0628L92.3989 13.4023C92.3837 13.4079 92.3699 13.4167 92.3583 13.4281C92.3468 13.4394 92.3378 13.4531 92.332 13.4683C92.3262 13.4834 92.3236 13.4995 92.3245 13.5157C92.3254 13.5319 92.3298 13.5477 92.3373 13.562C93.0949 15.0088 93.6791 16.5157 94.0898 18.0827C94.0935 18.095 94.0996 18.1065 94.1078 18.1164C94.1161 18.1262 94.1262 18.1342 94.1377 18.1398C94.1491 18.1454 94.1615 18.1485 94.1741 18.1489C94.1867 18.1493 94.1992 18.1469 94.2108 18.142ZM60.7476 19.9402C60.7534 19.9548 60.7625 19.9679 60.7743 19.9782C60.7861 19.9885 60.8002 19.9958 60.8153 19.9994C60.8304 20.003 60.8461 20.0029 60.861 19.9989C60.8758 19.9949 60.8894 19.9873 60.9005 19.9767C61.3037 19.604 61.7197 19.2313 62.1488 18.8585C63.1825 17.964 64.4216 17.5122 65.7931 17.4186C65.9072 17.411 65.9513 17.3517 65.9255 17.2406C65.6166 15.8714 65.0484 14.5532 64.2208 13.2859C64.2062 13.2636 64.1847 13.2466 64.1596 13.2376C64.1345 13.2285 64.1071 13.2279 64.0816 13.2357L58.2945 14.8947C58.2819 14.8982 58.2704 14.9047 58.2608 14.9136C58.2512 14.9225 58.2439 14.9335 58.2394 14.9458C58.235 14.958 58.2335 14.9712 58.2351 14.9841C58.2368 14.9971 58.2415 15.0095 58.2488 15.0202C59.2986 16.607 60.1315 18.247 60.7476 19.9402ZM88.5377 16.9029C89.0352 17.875 89.3228 18.9019 89.6514 19.9379C89.6561 19.9536 89.6641 19.9681 89.6749 19.9805C89.6856 19.9928 89.6989 20.0028 89.7137 20.0097C89.7286 20.0166 89.7448 20.0202 89.7611 20.0205C89.7775 20.0207 89.7938 20.0174 89.8088 20.0109L92.9603 18.6851C93.047 18.6486 93.0934 18.5839 93.0994 18.4911C93.212 16.8283 92.8195 15.2363 91.9219 13.7149C91.8793 13.6434 91.8185 13.6221 91.7394 13.651L87.8212 15.1161C87.733 15.1495 87.7086 15.2096 87.7482 15.2964C88.0114 15.8547 88.2746 16.3902 88.5377 16.9029ZM59.4081 19.5089C59.0977 17.9777 58.477 16.5629 57.5871 15.2804C57.5247 15.1906 57.4418 15.161 57.3383 15.1914L51.0834 16.9964C50.9936 17.0223 50.9754 17.0733 51.0286 17.1493C52.0768 18.6722 52.944 20.3183 53.6301 22.0876C53.6382 22.1093 53.6517 22.1287 53.6692 22.1439C53.6868 22.1591 53.7078 22.1697 53.7305 22.1747C53.7532 22.1797 53.7768 22.1789 53.7991 22.1725C53.8214 22.166 53.8418 22.1541 53.8583 22.1378C55.4739 20.5282 57.282 19.7044 59.2826 19.6664C59.3876 19.6648 59.4294 19.6124 59.4081 19.5089ZM85.0235 22.0602L88.4373 20.6294C88.5347 20.5883 88.5857 20.5153 88.5902 20.4103C88.6526 18.536 88.2076 16.8755 87.2553 15.4287C87.2127 15.3633 87.1549 15.3443 87.0818 15.3717L82.8031 17.0101C82.7923 17.0141 82.7825 17.0205 82.7744 17.0288C82.7663 17.037 82.7602 17.047 82.7565 17.0579C82.7528 17.0689 82.7516 17.0805 82.7529 17.092C82.7543 17.1034 82.7581 17.1145 82.7643 17.1242C83.674 18.6364 84.3617 20.2498 84.8272 21.9643C84.8328 21.9842 84.8425 22.0027 84.8557 22.0186C84.8689 22.0344 84.8853 22.0473 84.9038 22.0564C84.9224 22.0654 84.9426 22.0704 84.9632 22.0711C84.9839 22.0718 85.0044 22.068 85.0235 22.0602ZM46.0356 24.4928C47.6513 22.9319 49.9698 22.1446 52.1605 22.2564C52.2487 22.261 52.2852 22.2199 52.27 22.1332C51.9764 20.3837 51.2781 18.781 50.1751 17.325C50.1432 17.2824 50.1014 17.268 50.0496 17.2817L43.1398 19.2784C43.047 19.3058 43.0279 19.3591 43.0827 19.4382C44.1659 20.993 45.0833 22.6641 45.8348 24.4517C45.843 24.4704 45.8555 24.4868 45.8712 24.4996C45.887 24.5124 45.9056 24.5212 45.9254 24.5253C45.9451 24.5293 45.9655 24.5285 45.9847 24.5228C46.0039 24.5172 46.0214 24.5068 46.0356 24.4928ZM83.7273 22.4595C83.8665 20.659 83.1705 18.9293 82.2349 17.3684C82.1877 17.2908 82.1215 17.268 82.0363 17.2999L77.3537 19.0046C77.3442 19.0081 77.3356 19.0137 77.3285 19.021C77.3214 19.0283 77.316 19.0371 77.3128 19.0467C77.3095 19.0563 77.3084 19.0665 77.3095 19.0766C77.3107 19.0867 77.3141 19.0964 77.3195 19.105C78.3281 20.6781 79.0979 22.3652 79.6288 24.1665C79.6331 24.1811 79.6404 24.1947 79.6503 24.2063C79.6602 24.2179 79.6725 24.2273 79.6863 24.2338C79.7002 24.2403 79.7152 24.2437 79.7305 24.2439C79.7458 24.2441 79.7609 24.241 79.7749 24.2349L83.6018 22.633C83.6794 22.5995 83.7212 22.5417 83.7273 22.4595ZM78.4239 24.7119C78.643 22.868 77.7713 20.9557 76.8653 19.3811C76.8136 19.2914 76.7391 19.2647 76.6417 19.3012L71.6145 21.2044C71.508 21.244 71.4867 21.3109 71.5506 21.4052C72.6322 22.9912 73.4606 24.7073 74.038 26.5603C74.0427 26.5754 74.0506 26.5893 74.0611 26.6012C74.0716 26.6131 74.0844 26.6227 74.0988 26.6293C74.1132 26.636 74.1288 26.6396 74.1447 26.6399C74.1605 26.6402 74.1762 26.6371 74.1908 26.631L78.2847 24.8967C78.3669 24.8617 78.4133 24.8001 78.4239 24.7119ZM37.4507 27.1627C39.2718 25.5699 41.9942 24.9195 44.2762 25.1683C44.3629 25.1774 44.4032 25.1378 44.3971 25.0496C44.2374 23.0764 43.5208 21.2759 42.2475 19.6481C42.1912 19.5751 42.1189 19.5515 42.0307 19.5774L34.3153 21.7384C34.298 21.7434 34.2822 21.7525 34.2691 21.7649C34.2561 21.7773 34.2463 21.7927 34.2404 21.8097C34.2346 21.8267 34.233 21.8449 34.2357 21.8627C34.2384 21.8805 34.2453 21.8973 34.256 21.9118C35.47 23.5747 36.468 25.3105 37.2499 27.1194C37.2582 27.1376 37.2705 27.1536 37.2861 27.1661C37.3016 27.1787 37.3199 27.1874 37.3394 27.1916C37.3589 27.1959 37.3792 27.1954 37.3985 27.1904C37.4179 27.1854 37.4357 27.1759 37.4507 27.1627ZM72.6824 27.092C72.7714 25.0017 72.0024 23.3997 70.9322 21.6106C70.8759 21.5163 70.7968 21.4889 70.6948 21.5285L65.1701 23.6348C65.0697 23.6728 65.0515 23.7352 65.1154 23.8219C66.3203 25.4634 67.2369 27.2525 67.8652 29.1891C67.8702 29.2038 67.8782 29.2172 67.8886 29.2286C67.8991 29.2399 67.9118 29.249 67.926 29.2552C67.9401 29.2615 67.9554 29.2647 67.9709 29.2647C67.9863 29.2647 68.0016 29.2615 68.0158 29.2553L72.5524 27.2814C72.5895 27.2649 72.6213 27.2385 72.6442 27.2051C72.6672 27.1717 72.6804 27.1325 72.6824 27.092ZM35.7027 28.1006C35.6046 25.789 34.774 23.9862 33.3454 22.1674C33.2998 22.1081 33.2405 22.0891 33.1674 22.1104L24.5666 24.6069C24.5507 24.6111 24.5361 24.6193 24.5242 24.6307C24.5123 24.642 24.5034 24.6562 24.4984 24.6719C24.4934 24.6876 24.4925 24.7043 24.4956 24.7204C24.4987 24.7366 24.5059 24.7517 24.5164 24.7643C26.2142 26.8333 27.4784 29.1336 28.3091 31.6651C28.3131 31.6775 28.3196 31.689 28.3283 31.6988C28.3369 31.7087 28.3475 31.7167 28.3594 31.7225C28.3713 31.7282 28.3843 31.7315 28.3976 31.7323C28.4109 31.733 28.4242 31.7311 28.4369 31.7267C29.3558 31.4042 30.3439 31.071 31.4012 30.7272C31.8827 30.5697 32.0493 30.1795 32.3824 29.8532C33.175 29.0743 34.1457 28.643 35.2943 28.5593C35.5788 28.5395 35.7149 28.3866 35.7027 28.1006ZM66.1674 30.0768C66.2602 30.0357 66.3157 29.9658 66.3339 29.8669C66.642 28.1896 65.8456 26.2682 64.9419 24.7894C64.7852 24.5323 64.6042 24.2988 64.3988 24.0889C64.344 24.0326 64.2794 24.0181 64.2048 24.0455L58.1302 26.2705C58.0191 26.3115 58.0001 26.3785 58.0731 26.4713C59.4317 28.2254 60.4677 30.108 61.1812 32.1192C61.2025 32.1816 61.2436 32.1998 61.3044 32.174L66.1674 30.0768ZM9.51686 25.417C7.89208 24.7803 5.90675 24.6206 4.21807 25.3599C2.21448 26.2377 1.08109 27.8519 0.8179 30.2023C0.655118 31.6446 0.951777 33.0396 1.70788 34.3875C2.537 35.8693 3.67419 37.0932 5.11946 38.0592C5.97292 38.6297 6.78075 39.0998 7.8259 39.2573C9.5161 39.5129 11.0428 39.1706 12.4059 38.2304C14.5487 36.7539 14.9685 34.116 14.4346 31.6765C13.8344 28.9427 12.1434 26.4462 9.51686 25.417ZM25.8286 32.4935C26.6501 29.965 24.9888 26.8638 23.38 24.9492C23.3222 24.8807 23.2507 24.8587 23.1655 24.883C20.9428 25.5372 18.746 26.1708 16.5751 26.7839C15.587 27.0646 14.592 27.343 13.5354 27.1148C13.5251 27.1128 13.5143 27.1139 13.5045 27.1179C13.4947 27.1219 13.4863 27.1287 13.4803 27.1374C13.4742 27.1461 13.4709 27.1563 13.4705 27.1669C13.4702 27.1775 13.4729 27.1879 13.4784 27.1969C15.1032 29.698 16.0639 32.3588 15.8562 35.3711C15.8228 35.87 15.6699 36.4588 15.3976 37.1373C15.3367 37.2894 15.3709 37.3161 15.5002 37.2172C17.1342 35.9667 18.695 34.9626 20.6986 34.3236C22.3417 33.8003 24.0098 33.2336 25.703 32.6235C25.7669 32.6007 25.8088 32.5574 25.8286 32.4935ZM59.4149 32.8814C59.7641 30.7249 58.6071 28.4315 57.2607 26.7109C57.2014 26.6348 57.1269 26.6135 57.0371 26.647L50.2322 29.1891C50.2163 29.195 50.2022 29.2046 50.1908 29.2171C50.1795 29.2297 50.1713 29.2448 50.1671 29.2611C50.1628 29.2775 50.1626 29.2946 50.1664 29.3111C50.1702 29.3276 50.1779 29.3429 50.1888 29.3557C51.701 31.1357 52.8679 33.0913 53.6894 35.2227C53.6955 35.2387 53.7048 35.2533 53.7165 35.2657C53.7283 35.2781 53.7423 35.2879 53.7579 35.2948C53.7734 35.3016 53.7901 35.3052 53.807 35.3053C53.8238 35.3055 53.8405 35.3022 53.856 35.2957L59.3328 32.9864C59.3545 32.9773 59.3734 32.9628 59.3878 32.9444C59.4022 32.926 59.4115 32.9043 59.4149 32.8814ZM49.1848 29.5177C47.2291 30.2959 45.2209 31.017 43.1831 31.7176C42.6628 31.8956 42.09 31.9382 41.4648 31.8454C41.3446 31.8286 41.3202 31.8697 41.3917 31.9686C42.9024 34.0931 43.8609 36.2451 43.975 38.9173C43.9963 39.4376 43.9232 39.9708 43.7559 40.5169C43.7118 40.6584 43.7437 40.679 43.8517 40.5786C44.8649 39.627 45.9877 38.6411 47.2861 38.0912C48.6842 37.4994 50.1394 36.884 51.6516 36.2451C51.7322 36.2116 51.7801 36.1523 51.7954 36.0671C52.213 33.7896 50.8232 31.3319 49.381 29.5679C49.3278 29.504 49.2623 29.4873 49.1848 29.5177ZM38.6625 30.8048C37.1183 30.0106 35.5734 29.8912 34.0278 30.4465C33.2595 30.7219 32.6479 31.1767 32.193 31.8111C30.712 33.8741 31.1273 36.7106 32.4714 38.737C33.4801 40.2614 34.7937 41.394 36.4124 42.1349C37.8105 42.7754 39.1759 42.783 40.5086 42.1577C43.53 40.7383 43.2173 36.9776 41.9873 34.4263C41.1689 32.73 40.0606 31.5228 38.6625 30.8048Z" fill="#003B81"/>
<path d="M100.185 20.2825C100.664 19.372 101.57 18.5299 102.661 18.943C102.694 18.9556 102.729 18.9578 102.763 18.9492C102.797 18.9406 102.828 18.9217 102.85 18.8951C104.032 17.535 105.76 17.6217 106.846 19.0366C108.005 20.5427 108.788 22.4459 108.683 24.3102C108.647 25.004 107.91 25.3303 107.355 25.5676C107.316 25.5843 107.283 25.613 107.262 25.6495C107.24 25.686 107.23 25.7284 107.234 25.7707C107.268 26.145 107.156 26.4766 106.899 26.7657C106.838 26.8326 106.762 26.8577 106.673 26.841C106.455 26.7984 106.26 26.7056 106.089 26.5626C106.009 26.4972 105.927 26.4895 105.84 26.5397L104.724 27.1719C104.685 27.1935 104.653 27.2259 104.632 27.2652C104.611 27.3044 104.602 27.3488 104.605 27.3932C104.631 27.7918 104.507 28.1189 104.233 28.3745C104.169 28.4338 104.093 28.4566 104.005 28.4429C103.774 28.4049 103.565 28.3136 103.378 28.1691C103.312 28.1189 103.244 28.1151 103.172 28.1577L101.849 28.9609C101.815 28.9814 101.787 29.0112 101.77 29.0468C101.752 29.0825 101.746 29.1224 101.75 29.1618C101.795 29.5634 101.668 29.9026 101.369 30.1795C101.298 30.2449 101.214 30.2723 101.118 30.2617C100.872 30.2358 100.641 30.1476 100.427 29.997C100.357 29.9483 100.285 29.9452 100.21 29.9878L98.7862 30.8231C98.7494 30.8453 98.719 30.8766 98.6982 30.9139C98.6774 30.9511 98.6668 30.993 98.6675 31.0353C98.6751 31.4613 98.5237 31.8089 98.2134 32.0781C98.1571 32.1268 98.0924 32.1497 98.0194 32.1466C97.7227 32.1329 97.4519 32.0409 97.207 31.8705C97.1401 31.8248 97.0716 31.8233 97.0016 31.8659L95.402 32.8289C95.3213 32.8791 95.2825 32.9514 95.2856 33.0457C95.313 34.0087 94.6101 34.5267 93.7041 33.9882C93.6266 33.9425 93.549 33.9425 93.4714 33.9882L91.7348 34.9991C91.677 35.0326 91.6443 35.0835 91.6367 35.152C91.5431 36.1424 91.0182 36.9571 89.8841 36.2496C89.8187 36.2101 89.7525 36.2093 89.6856 36.2474L87.7002 37.3975C87.6272 37.4401 87.5914 37.5032 87.593 37.5869C87.6181 38.6754 86.6414 39.3326 85.6487 38.7804C85.5742 38.7393 85.5004 38.74 85.4274 38.7826L83.2846 40.0172C83.21 40.0598 83.172 40.1245 83.1705 40.2112C83.1659 40.469 83.1225 40.7338 82.997 40.962C82.5467 41.7835 81.8872 41.966 81.0185 41.5096C80.9455 41.4716 80.8725 41.4731 80.7995 41.5142L78.3965 42.9222C78.3372 42.9572 78.3052 43.0089 78.3007 43.0774C78.2117 44.4488 77.2989 45.2818 75.9023 44.588C75.8262 44.55 75.7517 44.553 75.6787 44.5972L72.9426 46.2014C72.9245 46.2118 72.9096 46.2268 72.8992 46.2448C72.8887 46.2628 72.8832 46.2833 72.8832 46.3041C72.8817 47.1606 72.5478 47.7494 71.8814 48.0704C71.2714 48.3655 70.6834 48.3526 70.1175 48.0316C70.0815 48.0107 70.0405 48 69.9988 48.0004C69.9571 48.0008 69.9161 48.0123 69.8801 48.0339L66.909 49.7659C66.8796 49.7833 66.8551 49.8079 66.8375 49.8374C66.82 49.8669 66.8101 49.9003 66.8086 49.9348C66.7736 51.0408 66.3027 51.7292 65.396 52C64.8392 52.1658 64.2619 52.1118 63.664 51.8379C63.594 51.806 63.5263 51.8098 63.4609 51.8493L60.1155 53.805C60.0318 53.8522 59.9877 53.9244 59.9831 54.0218C59.9116 55.3971 59.1875 56.1752 57.8107 56.3563C57.3063 56.4225 56.8659 56.2399 56.3913 56.1098C56.3137 56.087 56.2399 56.0969 56.1699 56.1395C54.9445 56.8789 53.6323 57.5749 52.5415 58.515C51.3777 59.5161 50.1477 60.5711 48.8516 61.6802C48.5153 61.9662 48.167 62.2393 47.8064 62.4994C45.3533 64.268 42.1174 63.6244 39.8856 61.7532C37.1016 59.4142 36.0564 54.3162 37.3526 51.0529C37.9459 49.5582 39.1166 48.472 40.682 48.0361C40.9924 47.9494 41.286 47.8034 41.5629 47.598C42.1653 47.1492 42.7168 46.6837 43.2173 46.2014C44.6443 44.8276 46.4212 43.9658 48.5481 43.6159C49.1277 43.5201 49.7096 43.568 50.2869 43.6205C50.3889 43.6311 50.4741 43.5984 50.5425 43.5223C51.3382 42.6461 52.0935 41.9348 52.8085 41.3887C53.4566 40.8935 54.3147 40.5626 55.086 40.2796C56.049 39.9252 57.0257 39.8377 58.016 40.0172C58.0545 40.0243 58.0943 40.0215 58.1317 40.0092C58.1692 39.9968 58.2031 39.9753 58.2306 39.9465C58.5485 39.6102 58.8665 39.2778 59.1844 38.9492C60.5171 37.5679 62.1518 36.8133 64.0884 36.6855C64.2421 36.6764 64.5083 36.7159 64.8871 36.8042C64.9213 36.8124 64.9572 36.8108 64.9907 36.7995C65.0242 36.7882 65.0539 36.7677 65.0765 36.7403C65.3991 36.3432 65.736 35.9591 66.0875 35.5879C67.2536 34.3533 69.3096 33.509 70.9618 33.9517C71.05 33.9745 71.1208 33.9486 71.174 33.8741C71.3627 33.6033 71.5711 33.3416 71.7993 33.0891C73.0422 31.7092 74.5788 31.1418 76.4089 31.3867C76.4956 31.3974 76.5656 31.3692 76.6189 31.3023C76.8121 31.0589 77.0152 30.8132 77.2282 30.5652C78.2414 29.3854 79.7703 28.662 81.2878 29.1024C81.3791 29.1298 81.4521 29.1047 81.5069 29.0271C82.4197 27.7652 83.3371 26.9779 85.0098 26.8706C85.238 26.8547 85.5141 26.9163 85.7194 27.0212C85.8199 27.0715 85.9005 27.0494 85.9613 26.9551C86.2702 26.4682 86.5995 26.0689 86.9494 25.757C87.5838 25.1934 88.9416 24.7164 89.8088 25.1591C89.8365 25.1735 89.8687 25.1768 89.8988 25.1683C89.9289 25.1598 89.9546 25.1402 89.9708 25.1135C90.7809 23.7899 91.8808 23.0049 93.5284 23.3815C93.6015 23.3982 93.657 23.3746 93.695 23.3107C94.4275 22.1378 95.4499 21.3277 96.9012 21.8137C96.9819 21.8411 97.0419 21.8168 97.0815 21.7407C97.6748 20.602 98.7177 19.8512 100.037 20.3396C100.104 20.3639 100.153 20.3449 100.185 20.2825ZM98.3936 22.9091C98.3747 22.9419 98.3485 22.9699 98.3169 22.9911C98.2854 23.0123 98.2493 23.0262 98.2111 23.0319C98.173 23.0376 98.1338 23.0348 98.0964 23.0238C98.0589 23.0129 98.024 22.994 97.9943 22.9684C97.4809 22.5326 96.7803 22.2747 96.1208 22.5166C95.4042 22.7783 94.7965 23.097 94.2975 23.4727C94.2092 23.5382 94.21 23.6028 94.2997 23.6667C94.5903 23.8706 94.8527 24.1383 95.087 24.47C95.0974 24.4847 95.1024 24.5027 95.1011 24.5209C95.0999 24.5391 95.0925 24.5566 95.0802 24.5704L95.0368 24.6183C94.9456 24.7187 94.8474 24.7263 94.7425 24.6411C94.1172 24.13 93.5528 23.939 93.0492 24.0684C92.2581 24.2707 91.4503 24.6373 90.6257 25.1683C90.539 25.2246 90.5367 25.2831 90.6189 25.344C90.9034 25.5554 91.1704 25.8118 91.4199 26.113C91.5127 26.2241 91.4929 26.3336 91.3605 26.4416C91.3222 26.4738 91.2737 26.4917 91.2234 26.4921C91.1731 26.4925 91.124 26.4755 91.0844 26.4439C90.4865 25.9601 89.6376 25.6749 88.88 25.9419C87.9596 26.2644 87.1974 26.6554 86.5935 27.1148C86.5174 27.1711 86.5159 27.2297 86.5889 27.2905C86.8703 27.5218 87.1571 27.7971 87.4492 28.1166C87.5481 28.2231 87.5298 28.3311 87.3944 28.4406C87.3572 28.4714 87.3108 28.489 87.2625 28.4906C87.2142 28.4923 87.1667 28.4779 87.1274 28.4498C86.4292 27.9614 85.6031 27.6648 84.7564 27.9843C83.7615 28.3631 82.908 28.7944 82.196 29.2781C82.1276 29.3253 82.1245 29.377 82.1869 29.4333L83.159 30.3005C83.2595 30.3902 83.2519 30.4701 83.1362 30.5401L83.0746 30.5789C82.9392 30.661 82.8046 30.6595 82.6707 30.5743C81.8811 30.0662 81.1692 29.9004 80.5348 30.0768C79.4987 30.3628 78.4232 30.8771 77.308 31.6195C77.2152 31.6818 77.216 31.7412 77.3103 31.7975C77.7043 32.0333 78.0694 32.333 78.4057 32.6966C78.465 32.7605 78.4642 32.8236 78.4034 32.886C78.2208 33.0708 77.9584 33.0229 77.753 32.9065C76.9741 32.4653 76.2796 32.3124 75.6695 32.4478C74.6092 32.6836 73.3685 33.261 71.9476 34.1799C71.8563 34.2392 71.8563 34.2985 71.9476 34.3579C72.3492 34.6195 72.7281 34.9185 73.084 35.2547C73.2179 35.381 73.2027 35.4867 73.0384 35.5719C73.0217 35.581 73.0049 35.5909 72.9882 35.6015C72.8406 35.6883 72.6938 35.6875 72.5478 35.5993C71.6182 35.044 70.7465 34.8956 69.9326 35.1543C68.5543 35.5924 67.2285 36.2192 65.9551 37.0346C65.8608 37.0955 65.8623 37.1533 65.9597 37.2081C66.4275 37.4773 66.8953 37.8037 67.249 38.2167C67.3114 38.2882 67.3114 38.359 67.249 38.4289C67.0893 38.6092 66.8017 38.6549 66.5941 38.5453C65.9384 38.1985 65.2804 38.0121 64.6201 37.9862C64.1181 37.9665 63.5727 38.0737 62.9839 38.308C61.5448 38.8846 60.2737 39.56 59.1707 40.3344C59.1628 40.3399 59.1565 40.3473 59.1523 40.3561C59.1482 40.3648 59.1464 40.3745 59.1471 40.3843C59.1477 40.3941 59.1509 40.4036 59.1562 40.4121C59.1616 40.4205 59.1689 40.4275 59.1776 40.4325C59.7344 40.7353 60.2326 41.0829 60.6723 41.4754C60.7575 41.5499 60.7582 41.6252 60.6746 41.7013C60.4646 41.893 60.2319 41.9333 59.9763 41.8223C58.4793 41.1673 57.2082 41.1354 55.6451 41.7858C54.2485 42.3669 52.8991 43.0659 51.5968 43.8829C51.4979 43.9453 51.5017 44.0008 51.6082 44.0495C52.1878 44.3172 52.7408 44.6831 53.2672 45.1471C53.3433 45.2156 53.3425 45.2818 53.2649 45.3457C53.1067 45.478 52.9394 45.5625 52.7629 45.599C52.6838 45.6157 52.6077 45.6081 52.5347 45.5761C51.3435 45.0543 50.2413 44.8938 49.2281 45.0946C47.4093 45.4575 45.0087 46.7445 43.3451 47.8901C43.3344 47.897 43.326 47.907 43.321 47.9188C43.3161 47.9305 43.3147 47.9435 43.3172 47.956C43.3196 47.9685 43.3258 47.98 43.3348 47.989C43.3439 47.998 43.3554 48.0041 43.3679 48.0065C44.4329 48.2392 45.3723 48.7512 46.1862 49.5423C46.2085 49.5632 46.2348 49.5792 46.2634 49.5894C46.2921 49.5996 46.3225 49.6038 46.3528 49.6016C46.4273 49.597 46.4905 49.5681 46.5422 49.5149C46.5696 49.4866 46.6037 49.4654 46.6414 49.4531C46.6792 49.4408 46.7195 49.4377 46.759 49.4441C46.9164 49.4692 47.0397 49.5582 47.2017 49.581C47.7463 49.6571 48.1213 49.6427 48.3267 49.5377C64.4285 41.3514 79.857 33.5447 94.6124 26.1176C98.6546 24.082 102.59 22.0792 106.419 20.1091C106.725 19.9524 106.785 19.7295 106.597 19.4405C106.263 18.9232 105.663 18.6676 104.799 18.6737C104.291 18.6768 103.774 18.8327 103.247 19.1415C103.232 19.1511 103.219 19.1643 103.209 19.1802C103.2 19.196 103.195 19.2138 103.194 19.232C103.193 19.2502 103.197 19.2681 103.205 19.2842C103.214 19.3003 103.226 19.314 103.241 19.3241C103.566 19.5492 103.842 19.8429 104.069 20.2049C104.08 20.2218 104.085 20.2416 104.084 20.2616C104.083 20.2815 104.076 20.3008 104.064 20.3168L104.026 20.3692C103.963 20.4529 103.894 20.459 103.818 20.3875C103.359 19.963 102.691 19.6458 102.068 19.8969C101.531 20.1144 101.039 20.3723 100.593 20.6705C100.517 20.7222 100.52 20.7678 100.603 20.8074L101.324 21.1497C101.403 21.1877 101.436 21.2508 101.424 21.3391C101.415 21.403 101.367 21.4509 101.28 21.4829C101.249 21.4946 101.215 21.4974 101.182 21.491C101.149 21.4845 101.118 21.4691 101.093 21.4463C100.609 21.0036 99.9386 20.7549 99.2928 20.9694C98.6355 21.187 98.0749 21.5041 97.6109 21.921C97.6021 21.9288 97.5951 21.9385 97.5905 21.9493C97.5859 21.9602 97.5837 21.9719 97.5841 21.9837C97.5846 21.9955 97.5876 22.007 97.593 22.0175C97.5984 22.0279 97.6061 22.0371 97.6155 22.0442C97.8635 22.2344 98.097 22.4489 98.3161 22.6877C98.3465 22.7197 98.367 22.7562 98.3777 22.7973C98.3959 22.8597 98.4013 22.8969 98.3936 22.9091ZM106.723 20.2802C106.376 20.707 105.698 20.9489 105.199 21.193C105.107 21.2387 105.091 21.3041 105.148 21.3893C105.819 22.3584 106.413 23.4796 106.931 24.7529C106.979 24.8716 107.056 24.8944 107.161 24.8214C107.697 24.4494 108.259 24.4175 108.252 23.5937C108.24 22.3782 107.819 21.1535 106.99 19.9197C106.914 19.8056 106.863 19.8162 106.837 19.9516L106.812 20.0886C106.798 20.1601 106.769 20.2239 106.723 20.2802ZM104.256 26.2796C104.306 26.3983 104.387 26.4256 104.498 26.3618L106.237 25.3645C106.304 25.325 106.333 25.2664 106.324 25.1888C106.152 23.9291 105.657 22.7303 104.84 21.5924C104.792 21.5239 104.729 21.5087 104.653 21.5467L102.415 22.6832C102.332 22.7243 102.318 22.7828 102.371 22.8589C103.115 23.9117 103.743 25.0519 104.256 26.2796ZM101.353 27.9067C101.36 27.925 101.371 27.9417 101.385 27.9555C101.399 27.9693 101.416 27.9799 101.435 27.9866C101.453 27.9933 101.473 27.9959 101.493 27.9943C101.513 27.9928 101.532 27.987 101.55 27.9774L103.476 26.9186C103.558 26.8729 103.593 26.8029 103.581 26.7086C103.392 25.3196 102.872 24.0874 102.02 23.0118C101.973 22.9525 101.916 22.9395 101.849 22.973L99.4707 24.1984C99.4008 24.2334 99.3894 24.2821 99.4365 24.3445C100.191 25.3592 100.83 26.5466 101.353 27.9067ZM98.2841 29.7277C98.2891 29.74 98.2967 29.751 98.3064 29.7601C98.3161 29.7691 98.3276 29.7759 98.3402 29.78C98.3528 29.7842 98.3662 29.7855 98.3793 29.7839C98.3925 29.7824 98.4052 29.778 98.4165 29.7711L100.596 28.5045C100.678 28.4574 100.711 28.3874 100.696 28.2946C100.47 26.9102 99.9302 25.6726 99.0782 24.5818C99.0235 24.5118 98.9565 24.4966 98.8774 24.5362L96.2531 25.8666C96.1603 25.9122 96.1451 25.9776 96.2075 26.0628C96.9758 27.1049 97.668 28.3265 98.2841 29.7277ZM97.4101 30.3461C97.4907 30.299 97.5257 30.229 97.5151 30.1362C97.3523 28.7198 96.7856 27.4107 95.815 26.2089C95.7633 26.1465 95.7017 26.1336 95.6301 26.1701L92.7777 27.6693C92.6849 27.718 92.6696 27.7842 92.732 27.8679C93.5824 29.0013 94.2975 30.2548 94.8771 31.6286C94.8845 31.6462 94.8957 31.662 94.9097 31.675C94.9237 31.688 94.9404 31.6978 94.9585 31.7038C94.9766 31.7099 94.9958 31.712 95.0149 31.71C95.0339 31.7081 95.0523 31.7021 95.0688 31.6925L97.4101 30.3461ZM88.9097 29.86C89.8727 31.1471 90.5961 32.3794 91.178 33.8033C91.213 33.8916 91.2715 33.9121 91.3537 33.8649L94.0396 32.3109C94.0602 32.2985 94.0769 32.2808 94.0878 32.2598C94.0987 32.2388 94.1034 32.2154 94.1012 32.1922C93.94 30.6542 93.3413 29.2698 92.3053 28.039C92.2475 27.9706 92.179 27.9569 92.0999 27.9979L88.953 29.6684C88.8648 29.7155 88.8503 29.7794 88.9097 29.86ZM88.2388 30.0015L84.7268 31.8659C84.6583 31.9024 84.6484 31.9511 84.6971 32.012C85.6921 33.2382 86.5098 34.5998 87.1503 36.0967C87.1599 36.1193 87.1743 36.1395 87.1923 36.156C87.2104 36.1726 87.2317 36.1851 87.2549 36.1927C87.278 36.2002 87.3025 36.2027 87.3265 36.1999C87.3506 36.1972 87.3738 36.1892 87.3944 36.1766L90.2218 34.5085C90.2964 34.4644 90.3291 34.3997 90.32 34.3145C90.1709 32.7262 89.5471 31.3015 88.4487 30.0403C88.3894 29.9719 88.3194 29.9589 88.2388 30.0015ZM80.2313 34.5838C81.2277 35.8221 82.0637 37.183 82.7392 38.6663C82.7491 38.6889 82.7638 38.7091 82.7822 38.7256C82.8007 38.7421 82.8224 38.7545 82.8461 38.762C82.8698 38.7696 82.8949 38.772 82.9197 38.7693C82.9445 38.7666 82.9685 38.7587 82.9902 38.7461L86.1188 36.9091C86.1918 36.8665 86.2245 36.8026 86.2169 36.7174C86.0389 34.9679 85.3703 33.4808 84.2111 32.2561C84.1532 32.1938 84.0863 32.1816 84.0102 32.2196L80.108 34.1936C80.0259 34.2346 80.0114 34.2932 80.0647 34.3693C80.1179 34.4408 80.1734 34.5123 80.2313 34.5838ZM78.0497 41.5598L81.5913 39.5129C81.6659 39.4703 81.7024 39.4064 81.7009 39.3212C81.678 37.6371 80.6626 35.9484 79.5832 34.6477C79.5238 34.5762 79.4531 34.5617 79.3709 34.6043L75.0146 36.8703C74.9401 36.9099 74.9309 36.9609 74.9872 37.0232C76.1754 38.3529 77.1369 39.8461 77.8717 41.5028C77.8789 41.5189 77.8894 41.5333 77.9025 41.545C77.9157 41.5568 77.9311 41.5657 77.9479 41.571C77.9647 41.5764 77.9825 41.5782 78 41.5763C78.0175 41.5743 78.0345 41.5687 78.0497 41.5598ZM74.184 37.1761L69.2914 39.684C69.2092 39.7251 69.1993 39.7791 69.2617 39.8461C70.6263 41.3081 71.692 42.8986 72.4588 44.6177C72.4641 44.6295 72.4718 44.64 72.4814 44.6485C72.491 44.6571 72.5023 44.6636 72.5146 44.6674C72.5269 44.6713 72.5399 44.6725 72.5527 44.6711C72.5655 44.6696 72.5778 44.6654 72.5889 44.6588L76.5481 42.322C76.6364 42.2703 76.6797 42.1935 76.6782 42.0915C76.6485 40.3504 75.5258 38.543 74.3574 37.2104C74.3087 37.1541 74.2509 37.1427 74.184 37.1761ZM68.4607 40.2249L62.8949 43.0888C62.8204 43.1268 62.8128 43.1762 62.8721 43.2371C64.3113 44.6976 65.4873 46.371 66.4001 48.2575C66.4068 48.2708 66.4162 48.2827 66.4276 48.2923C66.4391 48.3019 66.4524 48.3091 66.4667 48.3133C66.481 48.3176 66.496 48.3189 66.5109 48.3172C66.5257 48.3154 66.5401 48.3106 66.553 48.3031L70.9778 45.7496C71.0493 45.7085 71.0865 45.6461 71.0896 45.5625C71.1535 43.6022 69.903 41.6192 68.6182 40.2523C68.5985 40.2311 68.5725 40.2171 68.5441 40.2121C68.5156 40.2072 68.4864 40.2116 68.4607 40.2249ZM61.9068 43.552L55.6177 46.7719C55.6088 46.7767 55.6011 46.7834 55.5952 46.7916C55.5893 46.7998 55.5855 46.8092 55.5839 46.819C55.5824 46.8288 55.5832 46.8387 55.5862 46.848C55.5893 46.8573 55.5946 46.8656 55.6017 46.8723C57.2417 48.4454 58.5455 50.2238 59.513 52.2076C59.5229 52.228 59.5368 52.2461 59.554 52.2609C59.5711 52.2756 59.5912 52.2867 59.6128 52.2933C59.6345 52.3 59.6572 52.3021 59.6797 52.2995C59.7022 52.2969 59.7239 52.2897 59.7435 52.2784L64.7205 49.3985C64.7905 49.3589 64.8286 49.2988 64.8346 49.2182C65.0035 47.1553 63.6229 45.1289 62.1944 43.6022C62.1122 43.514 62.0164 43.4972 61.9068 43.552ZM50.1728 58.9304C50.1719 58.9368 50.1731 58.9434 50.1763 58.9491C50.1795 58.9547 50.1844 58.9592 50.1904 58.9618C50.1963 58.9644 50.203 58.965 50.2093 58.9634C50.2156 58.9619 50.2212 58.9583 50.2253 58.9532C51.237 57.6312 52.4016 56.5776 53.719 55.7926C55.0487 55 56.3403 54.2622 57.5939 53.5791C57.6821 53.5319 57.73 53.4582 57.7376 53.3577C57.927 51.0689 56.5693 48.9215 54.8235 47.3013C54.7551 47.239 54.679 47.2275 54.5953 47.2671C52.9812 48.0552 51.3488 48.8835 49.6982 49.7522C48.8767 50.1842 48.0795 50.4292 47.3067 50.487C47.2078 50.4946 47.191 50.5357 47.2564 50.6102C49.2692 52.8671 50.6749 55.9706 50.1728 58.9304ZM49.0136 55.6854C48.4089 52.5225 46.0652 49.4852 42.6628 49.3369C41.5081 49.2867 40.5192 49.527 39.6962 50.058C38.6723 50.7182 38.0037 51.5428 37.6903 52.5317C36.4147 56.5594 39.1189 60.0006 42.7313 61.4474C43.7034 61.8354 44.7166 61.8559 45.7709 61.509C48.4819 60.6145 49.527 58.3804 49.0136 55.6854Z" fill="#003B81"/>
</svg>
