<svg width="107" height="64" viewBox="0 0 107 64" fill="none" xmlns="http://www.w3.org/2000/svg">
<path d="M87.977 17.8363C89.9146 17.1299 91.9138 16.4061 93.9745 15.6649C94.5842 15.4459 95.18 15.4495 95.7618 15.6758C98.9481 16.9203 102.132 18.1823 105.312 19.4616C106.435 19.9141 106.997 20.7968 106.998 22.1095C107.001 25.9286 107 29.6781 106.996 33.358C106.995 34.0093 106.688 34.4742 106.077 34.7527C84.4089 44.632 63.239 54.2901 42.5674 63.727C41.6587 64.1419 40.6958 64.0839 39.6786 63.553C36.2783 61.7805 32.9594 60.0406 29.7217 58.3334C28.772 57.833 28.1616 57.0809 27.8904 56.0771C27.7966 55.7319 27.7526 55.2467 27.7585 54.6216C27.7805 52.4951 27.7841 50.3796 27.7695 48.2749C27.768 48.1792 27.7226 48.1487 27.6332 48.1835C25.0214 49.2018 22.1824 50.31 19.1163 51.5081C18.3747 51.7967 17.6001 51.878 16.7925 51.7518C16.3147 51.6763 15.5628 51.3688 14.5369 50.8293C10.7027 48.8145 6.59155 46.6518 2.20339 44.3412C1.35625 43.8959 0.719419 43.1757 0.292914 42.1807C0.0979827 41.7281 0.00051728 41.1523 0.00051728 40.4531C-0.00241402 31.1105 0.00711295 25.2469 0.0290977 22.8623C0.0356932 21.8941 0.464396 20.308 1.55264 19.9946C27.1825 12.6551 50.3369 6.02566 71.0157 0.106192C71.7303 -0.0961518 72.5217 0.00610831 73.2054 0.282427C77.5042 2.00852 81.6388 3.65483 85.6092 5.22136C87.0881 5.80446 87.829 6.91409 87.8319 8.55024C87.8407 11.6238 87.8436 14.688 87.8407 17.7428C87.8407 17.8399 87.8861 17.8711 87.977 17.8363ZM85.2795 6.0612C81.287 4.46855 77.0044 2.78888 72.8998 1.17666C72.2931 0.939502 71.7852 0.837241 71.1938 1.00695C48.9203 7.38332 26.6131 13.7691 4.27216 20.1644C4.13146 20.205 4.12779 20.2543 4.26117 20.3123C8.81055 22.3009 13.4178 24.3077 18.083 26.3326C19.1976 26.8178 20.1474 27.4553 20.7476 28.5061C20.7647 28.5361 20.7918 28.5593 20.8243 28.5716C20.8568 28.5839 20.8927 28.5846 20.9256 28.5736L86.0885 6.84664C86.1603 6.82198 86.1728 6.78064 86.1259 6.72262C85.8826 6.40932 85.6005 6.18884 85.2795 6.0612ZM21.2686 49.6826L27.7717 47.1435C27.8508 47.1116 27.8904 47.0536 27.8904 46.9695C27.8904 45.4189 27.8919 43.7886 27.8948 42.0784C27.8963 41.1994 28.0758 40.4749 28.4334 39.9049C28.805 39.3109 29.381 39.3392 29.9636 39.1259C48.9115 32.1665 67.8668 25.2113 86.8294 18.2606C86.8983 18.2345 86.9327 18.1852 86.9327 18.1126C86.9357 14.7794 86.9335 11.4962 86.9261 8.26305C86.9261 8.00341 86.8902 7.74304 86.8184 7.48196C86.8134 7.46258 86.8044 7.44443 86.792 7.42863C86.7796 7.41284 86.7641 7.39973 86.7463 7.39014C86.7286 7.38055 86.7091 7.37467 86.6889 7.37288C86.6688 7.37108 86.6485 7.3734 86.6293 7.37969L21.2994 29.1676C21.2334 29.1908 21.2122 29.2343 21.2356 29.2981C21.4687 29.932 21.5866 30.5847 21.5896 31.2563C21.6072 36.4926 21.6079 41.8608 21.5918 47.3611C21.5903 48.1661 21.4423 48.8986 21.1477 49.5586C21.0861 49.6964 21.1264 49.7378 21.2686 49.6826ZM42.2047 44.3738C42.898 44.6755 43.4761 45.1701 43.9393 45.8577C43.9789 45.9157 44.0316 45.9317 44.0976 45.9055L105.222 20.7148C105.483 20.6075 105.482 20.5016 105.22 20.3972C101.847 19.0525 98.5444 17.7493 95.3111 16.4874C94.974 16.3554 94.6406 16.3496 94.3108 16.4699C73.3681 24.1329 52.3961 31.8096 31.3948 39.5002C31.2292 39.5611 31.2277 39.6264 31.3904 39.696C34.9798 41.2408 38.5845 42.8 42.2047 44.3738ZM17.5004 27.0353C12.7693 25.0184 8.06014 22.9123 3.30703 20.9063C1.38996 20.0969 0.945864 21.9833 0.943665 23.3257C0.934871 29.0943 0.933405 34.802 0.939267 40.4488C0.940733 41.9442 1.6655 43.0706 3.11356 43.8277C7.56768 46.1543 11.7939 48.362 15.7922 50.4507C17.2461 51.2107 18.5586 51.0737 19.7297 50.0395C20.4398 49.4128 20.7146 48.4664 20.7102 47.5286C20.6897 42.3997 20.6926 37.2098 20.719 31.959C20.7234 31.1598 20.6552 30.5078 20.5145 30.0031C20.0836 28.4692 19.0613 27.6989 17.5004 27.0353ZM105.804 21.2479L44.4757 46.4973C44.3863 46.5336 44.3585 46.5974 44.3922 46.6888C44.5593 47.1414 44.6406 47.6505 44.6406 48.1292C44.6391 52.1108 44.6406 56.2577 44.645 60.57C44.645 60.9856 44.5549 61.4186 44.4603 61.8233C44.4582 61.8335 44.459 61.844 44.4625 61.8538C44.4661 61.8636 44.4723 61.8722 44.4805 61.8787C44.4887 61.8852 44.4985 61.8894 44.5089 61.8907C44.5193 61.8921 44.5299 61.8906 44.5395 61.8864L105.87 33.878C105.985 33.8253 106.083 33.7414 106.151 33.6361C106.219 33.5309 106.255 33.4087 106.255 33.2841L106.273 21.5568C106.273 21.5018 106.259 21.4476 106.233 21.399C106.206 21.3505 106.168 21.3091 106.122 21.2786C106.076 21.248 106.022 21.2292 105.967 21.2239C105.912 21.2185 105.856 21.2268 105.804 21.2479ZM40.6987 44.6806C37.5535 43.3128 34.2235 41.8674 30.7089 40.3444C30.2853 40.1601 29.9577 40.0811 29.7261 40.1072C28.9149 40.1986 28.7566 41.2952 28.7566 41.9588C28.7537 46.023 28.7529 50.5007 28.7544 55.3918C28.7544 56.2577 29.2315 57.0214 30.0405 57.4435C33.2899 59.1362 36.5678 60.8565 39.8743 62.6044C40.2832 62.8219 41.1274 63.1374 41.51 63.0678C42.9859 62.8082 43.7209 61.9212 43.7151 60.4069C43.696 56.2497 43.6982 52.221 43.7216 48.3206C43.7246 47.7781 43.6322 47.2683 43.4446 46.7911C42.9522 45.5313 41.8419 45.1788 40.6987 44.6806Z" fill="#003B81"/>
<path d="M14.9901 47.2457C11.7119 45.661 8.29413 44.0445 4.73691 42.3962C3.51255 41.8294 3.00332 41.0987 3.00111 39.797C2.99963 34.697 2.99963 29.8945 3.00111 25.3896C3.00111 24.3101 4.09705 23.708 5.12658 24.1419C8.55538 25.5868 12.0978 27.0469 15.7539 28.5223C17.7532 29.3278 18.9909 30.2578 18.9931 32.3504C19.0005 37.146 19.0019 41.7353 18.9975 46.1185C18.9975 46.7759 18.7222 47.3191 18.1717 47.7481C17.3392 48.3979 15.7872 47.6298 14.9901 47.2457ZM16.396 29.5665C12.4905 27.9514 8.56719 26.3674 4.65499 24.7606C4.5516 24.7182 4.43857 24.7006 4.32611 24.7094C4.21365 24.7182 4.1053 24.7531 4.01084 24.811C3.91637 24.8689 3.83876 24.9479 3.78501 25.0409C3.73126 25.134 3.70306 25.2381 3.70296 25.3439L3.70738 40.2164C3.70738 40.4115 3.80554 40.4759 4.00185 40.4094L18.2315 35.5807C18.2512 35.5734 18.2681 35.5609 18.2803 35.5446C18.2925 35.5284 18.2994 35.5092 18.3001 35.4893C18.3193 34.6908 18.3237 33.8251 18.3134 32.8923C18.2934 31.2605 17.968 30.2142 16.396 29.5665ZM4.65499 41.6073C8.56719 43.5401 12.5392 45.3337 16.2543 47.1232C16.61 47.2935 16.9414 47.3834 17.2484 47.3931C18.0433 47.4159 18.2957 46.4963 18.2979 45.8797C18.3156 42.5623 18.3185 39.3922 18.3067 36.3696C18.3067 36.2741 18.2588 36.2429 18.1628 36.2761L4.18783 40.999C4.10222 41.0281 4.08303 41.0786 4.13026 41.1506C4.24982 41.3402 4.42473 41.4924 4.65499 41.6073Z" fill="#003B81"/>
<path d="M39.1513 60.4986C36.4802 59.1534 33.7791 57.8316 31.0844 56.463C30.1797 56.0019 29.9958 55.0583 30.0001 54.136C30.02 50.5063 30.0207 46.9071 30.0022 43.3383C29.9979 42.7263 30.2909 42.2354 30.894 42.0399C31.0765 41.9804 31.2519 41.9875 31.4201 42.0611C34.1063 43.2356 36.8858 44.4356 39.7587 45.6611C41.2857 46.3114 41.9957 47.087 41.9957 48.8169C41.9914 52.4097 41.9929 55.9757 42 59.5147C42.0021 60.3924 41.2771 61.1956 40.3532 60.9576C39.9612 60.857 39.5605 60.704 39.1513 60.4986ZM40.0389 46.5069C37.1966 45.2467 34.2966 43.9992 31.3025 42.7178C31.2233 42.6839 31.1349 42.6774 31.0515 42.6993C30.9681 42.7213 30.8946 42.7705 30.8427 42.8389C30.75 42.9579 30.7044 43.1187 30.7058 43.3213C30.713 47.1423 30.7137 50.9547 30.708 54.7587C30.7081 54.7689 30.7108 54.779 30.7158 54.7879C30.7209 54.7968 30.7281 54.8044 30.7368 54.8099C30.7455 54.8154 30.7554 54.8186 30.7657 54.8193C30.776 54.82 30.7863 54.8182 30.7956 54.8139L41.2194 50.1748C41.2878 50.1451 41.3256 50.0933 41.3327 50.0197C41.4632 48.6639 41.5017 47.155 40.0389 46.5069ZM41.2771 50.8527L31.2768 55.3367C30.9361 55.4897 30.9325 55.6498 31.2661 55.817C33.9908 57.1856 36.9271 58.654 40.0752 60.2223C41.1317 60.7472 41.367 59.8292 41.3691 59.0344C41.3734 56.3624 41.3741 53.655 41.3712 50.9122C41.3712 50.9012 41.3683 50.8903 41.363 50.8807C41.3576 50.871 41.3499 50.8629 41.3405 50.8569C41.3312 50.851 41.3205 50.8475 41.3094 50.8468C41.2983 50.8461 41.2872 50.8481 41.2771 50.8527Z" fill="#003B81"/>
</svg>
