<svg width="125" height="48" viewBox="0 0 125 48" fill="none" xmlns="http://www.w3.org/2000/svg">
<path d="M54.2356 38.6694L124.5 13.6232V15.8322L54.2356 42.2776V38.6694ZM53.2356 42.2645L1.5 21.7987V19.1715L53.2356 38.6628V42.2645ZM53.7404 37.7843L2.68225 18.5483L75.6814 0.515917L123.306 12.9873L53.7404 37.7843Z" stroke="#003B81"/>
<path d="M53.5 47L124.5 20" stroke="#003B81" stroke-width="0.5" stroke-dasharray="2 2"/>
<path d="M0.994416 26.5383C0.867508 26.5927 0.80872 26.7396 0.863109 26.8665L1.74943 28.9346C1.80382 29.0615 1.95079 29.1203 2.07769 29.0659C2.2046 29.0115 2.26339 28.8646 2.209 28.7377L1.42116 26.8994L3.25945 26.1115C3.38636 26.0571 3.44515 25.9102 3.39076 25.7833C3.33637 25.6564 3.1894 25.5976 3.06249 25.652L0.994416 26.5383ZM51.1914 46.9979C51.3183 46.9435 51.3771 46.7965 51.3227 46.6696L50.4364 44.6015C50.382 44.4746 50.235 44.4158 50.1081 44.4702C49.9812 44.5246 49.9224 44.6716 49.9768 44.7985L50.7646 46.6368L48.9263 47.4246C48.7994 47.479 48.7406 47.626 48.795 47.7529C48.8494 47.8798 48.9964 47.9386 49.1233 47.8842L51.1914 46.9979ZM1.00005 27.0002L51 47.0002L51.1857 46.5359L1.18574 26.5359L1.00005 27.0002Z" fill="#003B81"/>
</svg>
