<svg width="106" height="68" viewBox="0 0 106 68" fill="none" xmlns="http://www.w3.org/2000/svg">
<path d="M19.8313 55.4724C19.8316 55.4579 19.8283 55.4436 19.8217 55.4306C19.8151 55.4177 19.8054 55.4065 19.7934 55.3981C19.7814 55.3897 19.7675 55.3843 19.7529 55.3824C19.7383 55.3805 19.7234 55.3821 19.7094 55.387L14.5617 57.2442C14.4916 57.2701 14.4165 57.2799 14.3419 57.2727C14.2673 57.2655 14.1952 57.2415 14.1307 57.2025L0.217664 48.7228C0.151111 48.6819 0.0961315 48.6248 0.0580115 48.5569C0.0198915 48.489 -8.61648e-05 48.4127 2.79347e-07 48.3352V21.79C1.07573e-05 21.6878 0.0337257 21.5883 0.0959106 21.5072C0.158096 21.426 0.245272 21.3676 0.343909 21.3411C26.481 14.2513 52.5005 7.19798 78.4024 0.181178C79.5299 -0.123964 80.6509 -0.0436633 81.7653 0.422079C85.7732 2.09963 89.7478 3.77207 93.6889 5.4394C93.8486 5.50656 93.9284 5.62701 93.9284 5.80075L93.924 8.35869C93.9242 8.38837 93.9145 8.4174 93.8965 8.44147C93.8784 8.46553 93.853 8.48335 93.8239 8.49228L84.3403 11.3437C84.2648 11.3656 84.2271 11.4159 84.2271 11.4948V15.7062C84.2272 15.7185 84.2302 15.7307 84.2358 15.7417C84.2415 15.7527 84.2496 15.7622 84.2595 15.7695C84.2695 15.7767 84.281 15.7815 84.2932 15.7834C84.3053 15.7854 84.3177 15.7844 84.3294 15.7806C86.9153 14.9411 89.5047 14.1067 92.0978 13.2775C93.028 12.9811 93.9959 13.0161 95.0015 13.3826C98.5944 14.6922 102.173 15.9996 105.737 17.3049C105.912 17.3691 106 17.4962 106 17.686V19.957C106 20.1366 105.916 20.257 105.748 20.3183L97.3283 23.3428C97.3059 23.3512 97.2865 23.3663 97.2729 23.3858C97.2593 23.4054 97.252 23.4286 97.2521 23.4523C97.2579 25.2364 97.2579 27.1658 97.2521 29.2405C97.2521 29.7515 97.4799 30.1325 97.9356 30.3836C100.382 31.7254 102.881 33.1 105.432 34.5074C105.604 34.6022 105.747 34.7418 105.847 34.9117C105.947 35.0817 106 35.2756 106 35.4732V37.6501C106 37.6929 105.987 37.7347 105.963 37.7702C105.939 37.8057 105.905 37.8333 105.865 37.8494L33.0609 67.9599C32.987 67.9906 32.9072 68.0039 32.8276 67.999C32.748 67.9941 32.6707 67.971 32.6017 67.9314L20.0991 60.8467C20.0159 60.7995 19.9468 60.7309 19.8989 60.6481C19.8511 60.5653 19.8262 60.4713 19.827 60.3759L19.8313 55.4724ZM82.9712 1.89815C81.1559 1.13602 80.0806 0.60166 78.4656 1.04185C52.877 7.99587 27.3059 14.9441 1.75219 21.8864C1.60999 21.9244 1.60563 21.9755 1.73913 22.0397L14.4376 28.1849C14.5204 28.2243 14.6141 28.2321 14.701 28.2068L91.9215 5.80294C92.0623 5.76206 92.0652 5.71388 91.9302 5.6584C88.986 4.42031 85.9996 3.1669 82.9712 1.89815ZM14.8621 29.0981C14.845 29.1029 14.83 29.1133 14.8194 29.1275C14.8088 29.1418 14.8031 29.1591 14.8033 29.177L14.8077 31.367C14.8079 31.3794 14.8109 31.3915 14.8165 31.4026C14.8221 31.4136 14.8302 31.4232 14.8401 31.4306C14.85 31.438 14.8614 31.443 14.8735 31.4453C14.8856 31.4475 14.8981 31.447 14.91 31.4436L93.2036 8.06304C93.2202 8.05782 93.2347 8.04732 93.2449 8.03311C93.2551 8.01889 93.2605 8.00173 93.2602 7.98419L93.2645 6.44462C93.2643 6.43222 93.2613 6.42004 93.2556 6.40901C93.25 6.39798 93.242 6.38839 93.2321 6.38099C93.2222 6.37358 93.2108 6.36856 93.1986 6.3663C93.1865 6.36404 93.1741 6.36461 93.1622 6.36796L14.8621 29.0981ZM14.0458 32.2342L4.97361 29.1945C4.91526 29.1746 4.85304 29.1691 4.79213 29.1782C4.73121 29.1874 4.67335 29.2111 4.62334 29.2473C4.57333 29.2835 4.53262 29.3311 4.50458 29.3863C4.47654 29.4415 4.46198 29.5026 4.46211 29.5646C4.4563 34.7067 4.45775 39.754 4.46646 44.7063C4.46791 44.956 4.55135 45.183 4.71677 45.3874C4.76466 45.4458 4.82343 45.4633 4.89308 45.44L19.6964 40.5935C19.7269 40.5833 19.7534 40.5639 19.7722 40.5379C19.7909 40.512 19.801 40.4808 19.8009 40.4489L19.7987 37.28C19.7988 37.1958 19.8253 37.1138 19.8746 37.0457C19.9239 36.9777 19.9933 36.927 20.0729 36.9011L83.2999 16.1464C83.3207 16.1395 83.3388 16.1261 83.3517 16.108C83.3646 16.0899 83.3716 16.0681 83.3717 16.0456V11.9065C83.3717 11.8072 83.3245 11.7715 83.2302 11.7992L14.8055 32.2452C14.5577 32.3207 14.2922 32.3169 14.0458 32.2342ZM21.4834 37.5012L32.8781 42.7069C32.9419 42.7361 33.0065 42.739 33.0718 42.7156L104.043 17.7341C104.153 17.6962 104.153 17.6575 104.043 17.6181C100.961 16.5143 97.7063 15.3492 94.2788 14.1228C93.6193 13.8863 92.8444 13.9257 92.1892 14.1403C68.6337 21.8857 45.0673 29.6361 21.4899 37.3917C21.3942 37.4238 21.392 37.4603 21.4834 37.5012ZM105.31 18.3298C105.31 18.318 105.307 18.3064 105.302 18.2959C105.296 18.2854 105.288 18.2764 105.279 18.2695C105.269 18.2627 105.258 18.2582 105.247 18.2565C105.235 18.2548 105.223 18.2559 105.212 18.2597L33.296 43.6048C33.2815 43.6098 33.2688 43.6192 33.2598 43.6318C33.2509 43.6443 33.246 43.6594 33.2459 43.6748L33.2307 45.5451C33.2303 45.5574 33.2329 45.5695 33.2382 45.5806C33.2436 45.5916 33.2516 45.6011 33.2615 45.6082C33.2714 45.6154 33.2829 45.62 33.295 45.6216C33.3071 45.6231 33.3194 45.6217 33.3308 45.6174L105.256 19.8344C105.27 19.829 105.282 19.8194 105.29 19.8069C105.299 19.7943 105.304 19.7795 105.303 19.7643L105.31 18.3298ZM13.8869 28.936L1.00561 22.6595C0.992041 22.6528 0.977026 22.6498 0.961961 22.6508C0.946896 22.6518 0.932272 22.6566 0.919451 22.6649C0.90663 22.6732 0.896031 22.6847 0.88864 22.6983C0.88125 22.7119 0.877309 22.7272 0.877185 22.7427V47.9541C0.877247 48.0029 0.889712 48.0508 0.913364 48.093C0.937016 48.1352 0.971048 48.1704 1.01214 48.195L13.728 55.9367C13.8615 56.017 13.9283 55.9791 13.9283 55.8228V54.2088C13.9284 54.1237 13.909 54.0396 13.8716 53.9629C13.8343 53.8863 13.78 53.819 13.7128 53.7664C10.667 51.3822 7.58268 48.9783 4.45993 46.5547C3.86788 46.097 3.5588 45.3677 3.55445 44.6253C3.53268 40.1329 3.52833 35.3586 3.54139 30.3026C3.54284 29.631 3.62337 29.1485 3.78299 28.855C4.09353 28.2783 4.63914 28.1177 5.41983 28.3732C8.15513 29.2711 10.9724 30.2092 13.8717 31.1874C13.908 31.1991 13.9261 31.1859 13.9261 31.148L13.9283 29.0039C13.9283 28.9718 13.9145 28.9492 13.8869 28.936ZM96.253 23.7983L33.2002 46.4277C33.0067 46.4974 32.7959 46.502 32.5995 46.4408L24.337 43.8719C24.2889 43.8569 24.2379 43.8535 24.1882 43.862C24.1385 43.8705 24.0914 43.8906 24.0508 43.9209C24.0101 43.9511 23.9771 43.9906 23.9542 44.0361C23.9313 44.0816 23.9193 44.1319 23.9191 44.1829C23.9234 48.3673 23.922 52.5188 23.9147 56.6375C23.9147 56.8521 23.9517 57.05 24.0257 57.231C24.0408 57.2688 24.0699 57.2991 24.107 57.3155C24.144 57.3319 24.1859 57.333 24.2238 57.3186L96.462 30.2501C96.536 30.2223 96.5607 30.1705 96.536 30.0946C96.4359 29.7996 96.3843 29.5033 96.3814 29.2054C96.3684 27.3556 96.3698 25.5853 96.3858 23.8946C96.3872 23.7983 96.343 23.7662 96.253 23.7983ZM99.2655 32.1138C98.3571 31.6393 97.5822 31.1596 96.9408 30.6749C96.8813 30.6311 96.8175 30.6216 96.7493 30.6464L24.448 57.6515C24.4346 57.6567 24.4229 57.6654 24.4139 57.6767C24.405 57.688 24.3993 57.7015 24.3973 57.7158C24.3953 57.7301 24.3971 57.7446 24.4026 57.758C24.4081 57.7713 24.417 57.783 24.4284 57.7917L32.8911 64.2456C32.9521 64.2924 33.0181 64.3011 33.0892 64.2719C34.076 63.8762 35.0903 63.4696 36.1322 63.0521C45.3843 59.3466 55.6631 55.1994 66.9686 50.6106C69.4253 49.6134 71.9102 48.6082 74.4235 47.595C82.2449 44.4399 90.416 41.1315 98.9368 37.6698C100.889 36.877 102.812 36.0828 104.707 35.2871C104.775 35.2593 104.777 35.2265 104.714 35.1885C101.903 33.5665 100.087 32.5415 99.2655 32.1138ZM105.169 35.7251C105.168 35.714 105.165 35.7032 105.16 35.6935C105.155 35.6838 105.147 35.6755 105.138 35.6693C105.129 35.6631 105.118 35.6591 105.107 35.6578C105.096 35.6565 105.085 35.6578 105.075 35.6616L33.2002 64.7669C33.1873 64.7721 33.1762 64.7812 33.1684 64.7929C33.1606 64.8047 33.1566 64.8185 33.1567 64.8326L33.1959 66.808C33.1961 66.8193 33.1991 66.8304 33.2045 66.8404C33.21 66.8503 33.2178 66.8588 33.2272 66.865C33.2366 66.8713 33.2474 66.8751 33.2586 66.8762C33.2699 66.8774 33.2812 66.8757 33.2917 66.8715L105.171 37.1858C105.184 37.1805 105.195 37.1715 105.203 37.1597C105.21 37.148 105.214 37.1342 105.214 37.1201L105.169 35.7251ZM20.7107 38.1954L20.6715 59.9466C20.6701 60.0883 20.7303 60.1934 20.8522 60.262L32.31 66.8189C32.3135 66.8207 32.3174 66.8216 32.3214 66.8216C32.3253 66.8215 32.3292 66.8204 32.3327 66.8185C32.3361 66.8165 32.339 66.8137 32.3412 66.8104C32.3433 66.807 32.3445 66.8032 32.3448 66.7992C32.3666 66.1962 32.3601 65.5881 32.3252 64.9749C32.3246 64.9605 32.3209 64.9464 32.3145 64.9335C32.3082 64.9207 32.2992 64.9094 32.2882 64.9005C29.4238 62.7104 26.6478 60.5905 23.9604 58.5406C23.3321 58.0618 23.0187 57.4413 23.0201 56.6791C23.0288 53.032 23.023 49.1083 23.0027 44.9078C22.9962 43.6639 23.4075 42.6324 24.9051 43.0967C27.3037 43.8442 29.7757 44.6165 32.3209 45.4137C32.3571 45.4254 32.3753 45.4122 32.3753 45.3743V43.4734C32.3753 43.4296 32.3557 43.3982 32.3165 43.3792L20.7978 38.1385C20.7884 38.134 20.778 38.132 20.7676 38.1327C20.7572 38.1334 20.7471 38.1368 20.7384 38.1425C20.7297 38.1482 20.7225 38.156 20.7177 38.1653C20.7128 38.1746 20.7104 38.185 20.7107 38.1954ZM5.18039 45.8189C5.16775 45.8232 5.1565 45.8309 5.14784 45.8411C5.13918 45.8513 5.13343 45.8637 5.1312 45.8769C5.12897 45.8902 5.13034 45.9038 5.13517 45.9163C5.14 45.9288 5.1481 45.9398 5.15863 45.9481L14.553 53.2693C14.5625 53.2764 14.5737 53.2812 14.5854 53.2831C14.5971 53.285 14.6092 53.284 14.6205 53.2802L19.7682 51.526C19.7828 51.521 19.7954 51.5116 19.8044 51.499C19.8133 51.4865 19.8182 51.4714 19.8183 51.456L19.8096 41.1038C19.8095 41.0919 19.8067 41.0803 19.8012 41.0698C19.7958 41.0593 19.788 41.0503 19.7785 41.0435C19.7689 41.0366 19.7578 41.0322 19.7462 41.0305C19.7346 41.0288 19.7227 41.0299 19.7116 41.0337L5.18039 45.8189ZM19.7747 54.3183C19.7889 54.3129 19.801 54.3033 19.8096 54.2908C19.8182 54.2783 19.8227 54.2634 19.8226 54.2482L19.8161 52.056C19.816 52.0442 19.8132 52.0326 19.8078 52.0221C19.8024 52.0116 19.7945 52.0026 19.785 51.9957C19.7754 51.9889 19.7644 51.9844 19.7527 51.9827C19.7411 51.981 19.7293 51.9821 19.7181 51.9859L14.849 53.7095C14.8345 53.7145 14.8218 53.7239 14.8129 53.7365C14.8039 53.749 14.799 53.7641 14.799 53.7796L14.8098 56.0572C14.8098 56.0693 14.8126 56.0812 14.8182 56.0919C14.8237 56.1026 14.8317 56.1118 14.8416 56.1187C14.8514 56.1256 14.8628 56.13 14.8747 56.1315C14.8866 56.133 14.8987 56.1315 14.91 56.1273L19.7747 54.3183Z" fill="#003B81"/>
</svg>
