<svg width="64" height="64" viewBox="0 0 64 64" fill="none" xmlns="http://www.w3.org/2000/svg">
<rect width="64" height="64" rx="15" fill="#003B81"/>
<path fill-rule="evenodd" clip-rule="evenodd" d="M45.4766 18.2005C47.3168 17.4353 49.2896 18.9721 48.9646 20.9178L45.1268 43.8993C44.7567 46.1152 42.2925 47.3866 40.2341 46.2824C38.5117 45.3584 35.9562 43.9362 33.653 42.4499C32.503 41.7077 28.9815 39.3278 29.4143 37.6337C29.7844 36.1851 35.7045 30.7426 39.0875 27.5059C40.4163 26.2344 39.8111 25.4999 38.2417 26.6706C34.3486 29.5745 28.0982 33.9897 26.0312 35.2322C24.2076 36.3285 23.2554 36.5156 22.1197 36.3285C20.0457 35.9872 18.1228 35.4586 16.553 34.8159C14.4312 33.9472 14.5346 31.0675 16.5515 30.2289L45.4766 18.2005Z" fill="white"/>
</svg>
