<svg width="64" height="64" viewBox="0 0 64 64" fill="none" xmlns="http://www.w3.org/2000/svg">
<rect width="64" height="64" rx="15" fill="#003B81"/>
<path d="M44.0473 19.9365C40.9832 16.8866 36.7505 15 32.0746 15C22.724 15 15.1424 22.5454 15.1424 31.8537C15.1424 34.9512 15.9819 37.8526 17.4456 40.3469L17.4023 40.2676L15 49L23.9747 46.6565C26.3109 47.9478 29.0982 48.7075 32.0644 48.7075H32.0712C41.4218 48.7041 49 41.1576 49 31.8503C49 27.1984 47.1069 22.9875 44.0462 19.9376L44.0473 19.9365ZM32.0712 45.8605H32.0655C29.424 45.8605 26.9511 45.1349 24.8404 43.873L24.9042 43.9082L24.3905 43.6054L19.0653 44.9966L20.4857 39.8277L20.1509 39.2982C18.8011 37.1871 17.9992 34.6145 17.9992 31.8549C17.9992 24.1202 24.2993 17.8492 32.0701 17.8492C39.8408 17.8492 46.1409 24.1202 46.1409 31.8549C46.1409 39.5896 39.843 45.8605 32.0712 45.8605ZM39.7895 35.3719C39.3669 35.161 37.287 34.144 36.8997 34.0023C36.5113 33.8617 36.2288 33.7925 35.9463 34.2143C35.6661 34.6349 34.8551 35.5828 34.6079 35.8639C34.3619 36.1463 34.1135 36.1803 33.6909 35.9705C32.381 35.4422 31.2556 34.7381 30.2772 33.8707L30.2886 33.881C29.3784 33.042 28.5982 32.0816 27.9683 31.0227L27.9364 30.9637C27.6903 30.5431 27.9102 30.3152 28.1209 30.1054C28.3111 29.9172 28.5446 29.6134 28.7554 29.3685C28.9217 29.1655 29.0641 28.9331 29.1723 28.6837L29.1791 28.6644C29.2281 28.5658 29.2566 28.4512 29.2566 28.3288C29.2566 28.1803 29.2144 28.042 29.1415 27.924L29.1438 27.9274C29.0367 27.7166 28.1915 25.644 27.8396 24.8005C27.4956 23.9796 27.1459 24.0918 26.8873 24.0782C26.6413 24.0669 26.3588 24.0646 26.0763 24.0646C25.6264 24.076 25.2265 24.2778 24.9509 24.5896L24.9497 24.5918C24.0362 25.4546 23.469 26.6712 23.469 28.0193C23.469 28.0488 23.469 28.0794 23.4701 28.1088V28.1043C23.6193 29.7676 24.2458 31.2608 25.2095 32.4773L25.1958 32.4603C27.0228 35.1576 29.4582 37.3152 32.3161 38.7687L32.4232 38.8175C33.0474 39.0986 33.847 39.3991 34.6648 39.6565L34.8346 39.7029C35.338 39.8617 35.9178 39.9535 36.5192 39.9535C36.8644 39.9535 37.2038 39.9229 37.5319 39.8651L37.4966 39.8696C38.7142 39.6168 39.7246 38.8855 40.3408 37.8866L40.3511 37.8673C40.539 37.4524 40.6484 36.9683 40.6484 36.4592C40.6484 36.2494 40.6301 36.0442 40.5948 35.8447L40.5982 35.8662C40.4935 35.6905 40.211 35.5862 39.7872 35.3741L39.7895 35.3719Z" fill="white"/>
</svg>
