<svg width="65" height="41" viewBox="0 0 65 41" fill="none" xmlns="http://www.w3.org/2000/svg">
<path d="M4.16667 21.4167V1H46.6667V5.16667M46.6667 21.4167V18.5M46.6667 18.5H60.4167M46.6667 18.5V10.1667M60.4167 18.5L63.75 21.4167V22.6667M60.4167 18.5L56.6667 10.1667M60.4167 33.9167H63.75V27.6667M46.6667 5.16667H55.4167L59.1667 10.1667H56.6667M46.6667 5.16667V10.1667M46.6667 10.1667H56.6667M2.08333 25.1667H16.6667M0 29.3333H4.16667M10.4167 29.3333H4.16667M4.16667 29.3333V33.9167H12.0833M24.5833 33.9167H46.6667M47.9167 33.9167H46.6667M25.8333 29.3333H42.5M46.6667 25.1667V33.9167M18.3333 15.1667L24.1667 21.4167L34.5833 10.1667M63.75 22.6667H59.5833V26L61.25 27.6667H63.75M63.75 22.6667V27.6667" stroke="#003B81" stroke-width="2"/>
<circle cx="17.9167" cy="34.3333" r="5.66667" stroke="#003B81" stroke-width="2"/>
<circle cx="54.5833" cy="34.3333" r="5.66667" stroke="#003B81" stroke-width="2"/>
</svg>
