<svg width="50" height="44" viewBox="0 0 50 44" fill="none" xmlns="http://www.w3.org/2000/svg">
<path d="M11.5247 2C11.5247 2 4.04192 6.93126 1.5247 17C-0.69756 25.8889 4.85805 34.7778 4.85805 34.7778M11.5247 2L2.63581 2.55556M11.5247 2V9.77778" stroke="#003B81" stroke-width="2"/>
<path d="M37.6358 42C37.6358 42 45.1186 37.0687 47.6358 27C49.8581 18.1111 44.3025 9.22222 44.3025 9.22222M37.6358 42L46.5247 41.4444M37.6358 42V34.2222" stroke="#003B81" stroke-width="2"/>
<path d="M17.0803 10.3333L13.1914 14.2222L15.9692 17L14.8581 19.2222H11.5247V24.7777H14.8581L15.9692 27L13.1914 29.7777L17.0803 33.6666L19.8581 30.8888L22.0803 31.4444V35.3333H27.6358V31.4444L29.8581 30.8888L32.6358 33.6666L36.5247 29.7777L33.7469 27L34.8581 24.7777H38.1914V19.2222H34.8581L33.7469 16.4444L36.5247 13.6666L33.1914 10.3333L30.4136 13.1111L27.6358 12V8.66663H22.0803V12L19.8581 13.1111L17.0803 10.3333Z" stroke="#003B81" stroke-width="2"/>
<circle cx="24.8581" cy="22" r="2.88889" stroke="#003B81" stroke-width="2"/>
</svg>
