<svg width="46" height="40" viewBox="0 0 46 40" fill="none" xmlns="http://www.w3.org/2000/svg">
<path d="M2.40002 2H6.80002C8.72818 3.37553 9.41306 4.44178 10 6.8L10.151 7.6M30 30H16.8C15.6478 29.9556 15.0187 29.7236 14 28L13.7736 26.8M13.7736 26.8L28.4 25.6M13.7736 26.8L10.151 7.6M10.151 7.6H42.4C42.4 7.6 43.5731 7.847 44 8.4C44.3936 8.90984 44.4 10 44.4 10L42.8 22M24.8 18.4L22.4 19.6M24.8 15.6L22.4 14.8M27.2 14L26 11.6M26.8 20.8L26 23.2M30 14.4L31.2 11.6M31.6 16.4L34.4 15.2M28 17.2L32.4 31.6L34.8 26.8L39.2 33.2L41.6 31.2L36.8 25.2L40.8 24L28 17.2Z" stroke="#003B81" stroke-width="2"/>
<circle cx="2" cy="2" r="2" fill="#003B81"/>
<circle cx="17.6" cy="36.8" r="2.2" stroke="#003B81" stroke-width="2"/>
<circle cx="35.2" cy="36.8" r="2.2" stroke="#003B81" stroke-width="2"/>
</svg>
