<svg width="42" height="42" viewBox="0 0 42 42" fill="none" xmlns="http://www.w3.org/2000/svg">
<path d="M1 22.8705L23.6087 1H27.3768M1 22.8705V41H16.942M1 22.8705H5.05797M27.3768 1V6.17986M27.3768 1L5.05797 22.8705M27.3768 6.17986L12.5942 21.1439M27.3768 6.17986L32.8841 4.74101M12.5942 21.1439H16.942M12.5942 21.1439V29.2014M24.4783 29.2014V32.9424H21.2899M24.4783 29.2014H16.942M24.4783 29.2014L41 12.7986M16.942 29.2014V21.1439M16.942 29.2014L32.8841 12.7986M16.942 21.1439L32.8841 4.74101M16.942 41L41 17.1151V12.7986M16.942 41V36.6835M41 12.7986H32.8841M32.8841 4.74101V12.7986M5.05797 22.8705V36.6835M5.05797 36.6835L12.5942 29.2014M5.05797 36.6835H16.942M12.5942 29.2014V32.9424H21.2899M16.942 36.6835L21.2899 32.9424" stroke="#003B81" stroke-width="2"/>
</svg>
