<svg width="123" height="80" viewBox="0 0 123 80" fill="none" xmlns="http://www.w3.org/2000/svg">
<path d="M18.0753 27.7067L13.702 25.9672C13.6513 25.9472 13.6079 25.913 13.5774 25.869C13.5468 25.825 13.5305 25.7733 13.5306 25.7205V23.1691C13.5306 23.057 13.5855 22.9879 13.6953 22.9617C32.7154 18.3767 51.7051 13.8041 70.6643 9.24386C72.6963 8.75495 74.5391 9.06051 76.7113 9.63673C88.6391 12.803 100.149 15.8376 111.242 18.7405C111.305 18.7573 111.362 18.7944 111.402 18.8461C111.442 18.8978 111.464 18.9612 111.464 19.0264V21.0257C111.464 21.2076 111.377 21.3298 111.204 21.3924L106.761 22.9879C106.625 23.0374 106.626 23.081 106.766 23.1189L113.772 25.0199C113.821 25.0333 113.864 25.0621 113.894 25.1019C113.925 25.1417 113.941 25.1903 113.941 25.2404V29.0512C113.941 29.1703 113.906 29.2868 113.839 29.3861C113.772 29.4855 113.677 29.5633 113.565 29.61L110.107 31.0527C109.967 31.1109 109.971 31.1611 110.118 31.2033L115.902 32.8687C115.93 32.8767 115.955 32.8936 115.973 32.9168C115.99 32.94 116 32.9683 116 32.9974V40.8462C116 40.9248 115.964 40.9808 115.891 41.0143L53.8743 69.9691C53.8293 69.9901 53.7797 70.0007 53.7296 70C53.6794 69.9992 53.6299 69.9871 53.585 69.9647L8.23146 47.4465C8.16184 47.4124 8.1033 47.3598 8.06241 47.2946C8.02152 47.2295 7.99991 47.1543 8 47.0776V39.3271C8.00016 39.3063 8.00719 39.2861 8.02003 39.2696C8.03287 39.2531 8.05083 39.2411 8.07122 39.2354L15.349 37.031C15.4692 36.9946 15.4721 36.9517 15.3579 36.9022L10.7308 34.8527C10.646 34.8149 10.574 34.7539 10.5234 34.6769C10.4729 34.5999 10.446 34.5101 10.4459 34.4183V30.04C10.446 30.0054 10.4576 29.9718 10.4789 29.9443C10.5002 29.9167 10.53 29.8967 10.5639 29.8872L18.0709 27.7919C18.0798 27.7889 18.0875 27.7834 18.0932 27.7761C18.0989 27.7688 18.1021 27.76 18.1026 27.7508C18.1031 27.7416 18.1007 27.7325 18.0959 27.7247C18.091 27.7168 18.0839 27.7106 18.0753 27.7067ZM14.9083 23.1581C28.3807 28.2204 41.8144 33.2754 55.2097 38.3231C55.2715 38.3457 55.3399 38.3464 55.4033 38.3253L109.824 18.9653C110.027 18.8925 110.024 18.8293 109.815 18.7754C97.9258 15.6688 86.3764 12.6393 75.1667 9.68693C73.683 9.29551 72.2141 9.27368 70.76 9.62145C52.2266 14.058 33.5953 18.5222 14.866 23.0141C14.7948 23.0301 14.7851 23.0636 14.8371 23.1145C14.8578 23.1334 14.8816 23.148 14.9083 23.1581ZM55.6948 38.812C55.6803 38.8168 55.6676 38.8259 55.6585 38.838C55.6494 38.8501 55.6442 38.8646 55.6437 38.8796L55.5791 41.0164C55.5785 41.0289 55.5811 41.0414 55.5867 41.0526C55.5924 41.0638 55.6008 41.0735 55.6112 41.0807C55.6216 41.0878 55.6338 41.0923 55.6464 41.0937C55.6591 41.0951 55.6719 41.0933 55.6837 41.0885L110.732 20.6809C110.746 20.6756 110.758 20.6664 110.767 20.6544C110.776 20.6423 110.781 20.628 110.781 20.6132L110.788 19.3494C110.788 19.3374 110.785 19.3255 110.779 19.3148C110.773 19.3042 110.765 19.295 110.755 19.2881C110.745 19.2812 110.733 19.2769 110.721 19.2754C110.709 19.2739 110.697 19.2754 110.685 19.2796L55.6948 38.812ZM55.0739 42.0161L19.1303 28.0079C19.071 27.9852 19.0054 27.9822 18.9433 27.9992L11.6723 30.0487C11.5521 30.0836 11.5498 30.1251 11.6656 30.1731L54.2549 47.835C54.3405 47.87 54.4371 47.8708 54.5242 47.8372L112.339 25.3735C112.475 25.3197 112.472 25.2746 112.33 25.2382C110.174 24.6765 108 24.077 105.809 23.4397C105.721 23.4135 105.632 23.3837 105.54 23.3502C105.467 23.324 105.395 23.3247 105.324 23.3524L55.5368 42.0205C55.3879 42.0753 55.2229 42.0737 55.0739 42.0161ZM54.8758 41.0863C54.8867 41.0906 54.8985 41.0922 54.9101 41.091C54.9218 41.0898 54.933 41.0857 54.9426 41.0792C54.9523 41.0728 54.9602 41.064 54.9657 41.0538C54.9711 41.0437 54.9739 41.0323 54.9737 41.0208L54.976 38.8775C54.9759 38.8632 54.9715 38.8492 54.9631 38.8375C54.9547 38.8258 54.9429 38.8169 54.9292 38.812L14.1805 23.4812C14.1699 23.4774 14.1586 23.4761 14.1474 23.4774C14.1362 23.4787 14.1255 23.4827 14.1162 23.4888C14.1068 23.495 14.0991 23.5033 14.0937 23.513C14.0882 23.5226 14.0852 23.5334 14.0848 23.5445L14.0781 25.3037C14.078 25.3177 14.0822 25.3315 14.0901 25.3431C14.098 25.3548 14.1094 25.3639 14.1227 25.3691L54.8758 41.0863ZM54.7957 48.4177C54.7835 48.4224 54.7731 48.4305 54.7655 48.441C54.758 48.4515 54.7538 48.4639 54.7534 48.4767L54.6622 52.9751C54.662 52.986 54.6646 52.9969 54.6698 53.0066C54.675 53.0163 54.6826 53.0246 54.6919 53.0307C54.7012 53.0368 54.7119 53.0405 54.723 53.0414C54.7342 53.0424 54.7454 53.0406 54.7556 53.0362L113.234 28.881C113.246 28.8758 113.256 28.8673 113.263 28.8564C113.27 28.8455 113.274 28.8328 113.274 28.8199V25.7773C113.274 25.7666 113.271 25.7561 113.266 25.7466C113.261 25.7372 113.254 25.7291 113.245 25.723C113.236 25.717 113.225 25.7132 113.214 25.712C113.203 25.7108 113.193 25.7123 113.182 25.7162L54.7957 48.4177ZM53.9722 53.0318C53.9827 53.0366 53.9942 53.0387 54.0058 53.0379C54.0173 53.0372 54.0284 53.0336 54.0382 53.0275C54.0479 53.0214 54.056 53.013 54.0616 53.0031C54.0671 52.9932 54.0701 52.982 54.0701 52.9707V48.4832C54.0703 48.4697 54.0664 48.4565 54.0589 48.4452C54.0513 48.434 54.0405 48.4251 54.0279 48.4199L10.9334 30.5245C10.9228 30.5202 10.9113 30.5185 10.8999 30.5196C10.8885 30.5207 10.8776 30.5245 10.8681 30.5308C10.8586 30.5371 10.8508 30.5456 10.8455 30.5555C10.8402 30.5655 10.8375 30.5766 10.8377 30.5878V34.0429C10.8377 34.0558 10.8415 34.0684 10.8486 34.0792C10.8557 34.09 10.8658 34.0986 10.8777 34.104L53.9722 53.0318ZM53.3023 53.691C40.9264 48.1951 28.5646 42.7276 16.217 37.2885C16.1653 37.2659 16.1077 37.2621 16.0545 37.2776L9.06607 39.362C8.91473 39.4086 8.91028 39.4653 9.05271 39.5323L53.3579 60.3895C53.4307 60.4244 53.5048 60.4251 53.5805 60.3917L114.791 33.2834C114.9 33.2354 114.897 33.1939 114.783 33.159L109.103 31.498C109.028 31.4768 108.948 31.4814 108.876 31.5111L54.6199 54.1166C54.5486 54.1472 54.4767 54.1501 54.404 54.1253C54.0568 54.0075 53.6896 53.8627 53.3023 53.691ZM53.7741 61.0159C53.7609 61.0218 53.7496 61.0313 53.7417 61.0433C53.7338 61.0553 53.7296 61.0693 53.7296 61.0836V68.6682C53.7294 68.6809 53.7326 68.6934 53.7387 68.7046C53.7449 68.7158 53.7539 68.7252 53.7648 68.732C53.7758 68.7388 53.7883 68.7427 53.8012 68.7434C53.8142 68.7441 53.8271 68.7415 53.8387 68.7359L115.45 40.2132C115.463 40.207 115.474 40.1974 115.481 40.1854C115.489 40.1734 115.493 40.1596 115.493 40.1456V33.7592C115.493 33.7468 115.489 33.7346 115.483 33.7237C115.477 33.7128 115.469 33.7035 115.458 33.6968C115.447 33.6901 115.435 33.6861 115.423 33.6851C115.41 33.6842 115.397 33.6864 115.386 33.6915L53.7741 61.0159ZM53.053 68.7337C53.0649 68.7397 53.0781 68.7426 53.0914 68.7421C53.1047 68.7416 53.1177 68.7378 53.1291 68.731C53.1405 68.7242 53.1499 68.7147 53.1565 68.7033C53.163 68.6919 53.1665 68.6791 53.1665 68.666L53.1688 61.0901C53.1689 61.0755 53.1648 61.0612 53.1569 61.0488C53.149 61.0364 53.1377 61.0265 53.1243 61.0203L8.48073 39.9753C8.46879 39.9698 8.45561 39.9673 8.44243 39.9681C8.42924 39.9689 8.41648 39.973 8.40535 39.98C8.39422 39.987 8.38509 39.9966 8.37881 40.008C8.37253 40.0194 8.36931 40.0322 8.36945 40.0452V46.5603C8.36909 46.5747 8.37286 46.5889 8.38034 46.6012C8.38782 46.6136 8.39871 46.6236 8.41174 46.6302L53.053 68.7337Z" fill="#003B81"/>
</svg>
