<svg width="29" height="29" viewBox="0 0 29 29" fill="none" xmlns="http://www.w3.org/2000/svg">
<g clip-path="url(#clip0_732_1781)">
<path fill-rule="evenodd" clip-rule="evenodd" d="M23.8976 5.35273C25.2121 4.79923 26.6214 5.91082 26.3893 7.31815L23.6477 23.9408C23.3833 25.5436 21.623 26.4632 20.1526 25.6645C18.9222 24.9962 17.0966 23.9675 15.4513 22.8925C14.6298 22.3556 12.1142 20.6342 12.4234 19.4089C12.6878 18.3611 16.9168 14.4245 19.3335 12.0833C20.2827 11.1637 19.8504 10.6325 18.7293 11.4792C15.9482 13.5796 11.4832 16.7731 10.0067 17.6719C8.70392 18.4648 8.02372 18.6001 7.21239 18.4648C5.73081 18.2179 4.35722 17.8356 3.23579 17.3708C1.72009 16.7424 1.79392 14.6595 3.23476 14.0529L23.8976 5.35273Z" fill="#0088CC"/>
</g>
<defs>
<clipPath id="clip0_732_1781">
<rect width="29" height="29" fill="white"/>
</clipPath>
</defs>
</svg>
