<svg width="25" height="22" viewBox="0 0 25 22" fill="none" xmlns="http://www.w3.org/2000/svg">
<path d="M1.78922 0.0018304L2.8322 0.00109821L3.8056 0C4.52065 0.0165959 5.00255 0.320691 5.2513 0.912285C5.36087 1.20271 5.43486 1.49241 5.47325 1.78137L5.73959 3.38812C5.74173 3.40057 5.74959 3.40679 5.76319 3.40679L6.80257 3.40496L7.77077 3.40789L8.82535 3.40679L9.79394 3.40569H10.8185L11.8459 3.40643L12.7965 3.40569L13.7727 3.40643L14.8241 3.40533L15.7631 3.40606L16.8493 3.40533L17.7571 3.40569H18.83L19.7878 3.40679L20.8188 3.40569L21.7554 3.40643L22.8048 3.40826C23.1405 3.39459 23.4712 3.40984 23.797 3.45402C24.1329 3.49795 24.4182 3.614 24.6528 3.80216C24.8872 3.99033 25.0029 4.24073 24.9999 4.55337C24.9951 4.83892 24.9192 5.06955 24.8084 5.34924L23.006 10.0611L22.8584 10.4499C22.4933 11.226 22.0158 11.7678 21.0168 11.7927C20.3453 11.8092 19.6271 11.7909 18.9472 11.7964C18.2022 11.8026 17.4571 11.7891 16.7129 11.7978C16.2711 11.803 15.8295 11.8049 15.388 11.8037C14.2415 11.8008 13.0951 11.7987 11.9487 11.7975C10.5634 11.796 9.17541 11.7964 7.78476 11.7986L7.54002 11.7964C7.52482 11.7964 7.51842 11.8032 7.52082 11.8169L7.85355 13.7132L7.87115 13.8768C7.87248 13.8895 7.88008 13.8959 7.89394 13.8959C12.0383 13.9043 16.1826 13.8959 20.3269 13.8955C20.6314 13.8955 20.8783 13.9006 21.0676 13.9109C21.2857 13.9399 21.4812 14.0094 21.6542 14.1192C21.8286 14.2627 21.9301 14.4323 21.9586 14.628C22.0007 14.9307 21.9671 15.2079 21.8578 15.4598L21.7342 15.6886C21.4807 15.961 21.1675 16.0093 20.7932 15.9987L15.9363 15.999H12.6481L11.8183 15.9987L10.7673 15.999L9.81514 15.9987L8.71977 15.999C8.26413 15.9988 7.80743 15.9982 7.34966 15.9972C6.41705 15.9954 5.92315 15.2826 5.64561 14.5739C5.52484 14.2471 5.44739 13.9923 5.41326 13.8095C5.31128 13.2629 5.17291 12.6867 5.07133 12.1789C4.88071 11.2271 4.68542 10.2765 4.48546 9.32713L4.25431 8.18091L4.06555 7.25947L3.3089 3.62937L3.11255 2.7061C3.11142 2.70098 3.10841 2.69638 3.10402 2.69311C3.09964 2.68983 3.09416 2.68808 3.08855 2.68817L2.77822 2.69146L1.74203 2.69183C1.19095 2.69146 0.710651 2.73795 0.312734 2.31476C0.195959 2.19066 0.0259945 1.97174 0.0011997 1.79638C0.00146631 1.39588 0.00106644 0.99563 0 0.595621C0 0.508981 0.0263943 0.438326 0.0791832 0.383658C0.291938 0.163762 0.541086 0.0400253 0.826626 0.0124469L1.78922 0.0018304ZM6.46464 6.35195L7.16009 9.65441C7.16276 9.66661 7.17089 9.67271 7.18449 9.67271L7.81956 9.67381L8.78135 9.67491L11.7923 9.6815L12.7913 9.68259L13.7835 9.68479L14.7949 9.68406H15.7903L16.7881 9.68369L17.8211 9.69028L18.8036 9.69065L20.4649 9.69211C20.4748 9.6921 20.4844 9.68933 20.4925 9.68416C20.5007 9.679 20.5069 9.67169 20.5105 9.66319L21.5159 7.2236L22.2165 5.51874C22.2235 5.50141 22.2168 5.49275 22.1965 5.49275C20.7262 5.49006 19.2498 5.48542 17.7675 5.47884C17.7603 5.48518 17.7505 5.48652 17.7383 5.48286L16.7477 5.47444L13.7955 5.46968L12.7501 5.46419L9.75755 5.4576L8.61059 5.45687L7.75797 5.45028L6.78217 5.44662L6.29628 5.44186C6.28268 5.44186 6.27708 5.44796 6.27948 5.46017L6.46464 6.35195Z" fill="#777777"/>
<path d="M10.1649 17.6227L10.3964 17.8645C11.1804 18.8242 11.2039 20.0637 10.4479 21.0424L10.1084 21.3988C9.72162 21.715 9.30636 21.9064 8.86265 21.9729C7.60517 22.1614 6.44146 21.3472 6.09109 20.1309C5.85416 19.3095 6.09193 18.4488 6.65913 17.796L6.96345 17.514C7.93293 16.7987 9.24106 16.8254 10.1649 17.6227Z" fill="#777777"/>
<path d="M20.4825 17.1873C21.2398 17.5207 21.7269 18.1031 21.9437 18.9346C22.011 19.2629 22.018 19.5983 21.9646 19.9408C21.7573 20.8426 21.2394 21.47 20.4108 21.8229C18.4602 22.5941 16.471 20.7162 17.1281 18.7008C17.594 17.2704 19.1231 16.6604 20.4825 17.1873Z" fill="#777777"/>
</svg>
