<svg width="423" height="80" viewBox="0 0 423 80" fill="none" xmlns="http://www.w3.org/2000/svg">
<path d="M181.962 52.2373V39.6373H183.744V50.6713H190.764V39.6373H192.546V52.2373H181.962ZM192.816 55.0993V51.7693L193.248 52.2373H190.764V50.6713H194.49V55.0993H192.816ZM198.524 45.0733H205.004V46.6033H198.524V45.0733ZM198.686 50.6713H206.03V52.2373H196.886V39.6373H205.778V41.2033H198.686V50.6713ZM217.893 39.6373H219.693V52.2373H217.893V39.6373ZM210.657 52.2373H208.857V39.6373H210.657V52.2373ZM218.055 46.6213H210.477V45.0553H218.055V46.6213ZM226.196 52.2373V40.7353L226.646 41.2033H221.894V39.6373H232.28V41.2033H227.528L227.96 40.7353V52.2373H226.196ZM234.468 52.2373V39.6373H239.382C240.486 39.6373 241.428 39.8113 242.208 40.1593C242.988 40.5073 243.588 41.0113 244.008 41.6713C244.428 42.3313 244.638 43.1173 244.638 44.0293C244.638 44.9413 244.428 45.7273 244.008 46.3873C243.588 47.0353 242.988 47.5393 242.208 47.8993C241.428 48.2473 240.486 48.4213 239.382 48.4213H235.458L236.268 47.5753V52.2373H234.468ZM236.268 47.7553L235.458 46.8553H239.328C240.48 46.8553 241.35 46.6093 241.938 46.1173C242.538 45.6253 242.838 44.9293 242.838 44.0293C242.838 43.1293 242.538 42.4333 241.938 41.9413C241.35 41.4493 240.48 41.2033 239.328 41.2033H235.458L236.268 40.3033V47.7553ZM252.151 52.2373V39.6373H253.627L259.279 49.1593H258.487L264.067 39.6373H265.543L265.561 52.2373H263.833L263.815 42.3553H264.229L259.261 50.7073H258.433L253.429 42.3553H253.879V52.2373H252.151ZM271.121 45.0733H277.601V46.6033H271.121V45.0733ZM271.283 50.6713H278.627V52.2373H269.483V39.6373H278.375V41.2033H271.283V50.6713ZM284.028 52.2373V40.7353L284.478 41.2033H279.726V39.6373H290.112V41.2033H285.36L285.792 40.7353V52.2373H284.028ZM289.921 52.2373L295.627 39.6373H297.409L303.133 52.2373H301.243L296.149 40.6453H296.869L291.775 52.2373H289.921ZM292.351 49.0873L292.837 47.6473H299.929L300.451 49.0873H292.351ZM304.714 52.3813C304.534 52.3813 304.354 52.3693 304.174 52.3453C303.994 52.3213 303.796 52.2853 303.58 52.2373L303.706 50.6353C303.898 50.6833 304.09 50.7073 304.282 50.7073C304.81 50.7073 305.23 50.4973 305.542 50.0773C305.854 49.6573 306.082 49.0213 306.226 48.1693C306.382 47.3173 306.484 46.2433 306.532 44.9473L306.73 39.6373H315.604V52.2373H313.84V40.7353L314.272 41.2033H307.882L308.278 40.7173L308.134 44.8933C308.098 46.1413 308.014 47.2333 307.882 48.1693C307.75 49.1053 307.552 49.8853 307.288 50.5093C307.024 51.1333 306.682 51.6013 306.262 51.9133C305.854 52.2253 305.338 52.3813 304.714 52.3813ZM318.776 52.3813C318.596 52.3813 318.416 52.3693 318.236 52.3453C318.056 52.3213 317.858 52.2853 317.642 52.2373L317.768 50.6353C317.96 50.6833 318.152 50.7073 318.344 50.7073C318.872 50.7073 319.292 50.4973 319.604 50.0773C319.916 49.6573 320.144 49.0213 320.288 48.1693C320.444 47.3173 320.546 46.2433 320.594 44.9473L320.792 39.6373H329.666V52.2373H327.902V40.7353L328.334 41.2033H321.944L322.34 40.7173L322.196 44.8933C322.16 46.1413 322.076 47.2333 321.944 48.1693C321.812 49.1053 321.614 49.8853 321.35 50.5093C321.086 51.1333 320.744 51.6013 320.324 51.9133C319.916 52.2253 319.4 52.3813 318.776 52.3813ZM331.845 52.2373L337.551 39.6373H339.333L345.057 52.2373H343.167L338.073 40.6453H338.793L333.699 52.2373H331.845ZM334.275 49.0873L334.761 47.6473H341.853L342.375 49.0873H334.275ZM352.066 52.2373V39.6373H353.848V49.3573L361.3 39.6373H362.956V52.2373H361.192V42.5353L353.722 52.2373H352.066ZM181.962 74.2373V61.6373H183.438L189.09 71.1593H188.298L193.878 61.6373H195.354L195.372 74.2373H193.644L193.626 64.3553H194.04L189.072 72.7073H188.244L183.24 64.3553H183.69V74.2373H181.962ZM200.932 67.0733H207.412V68.6033H200.932V67.0733ZM201.094 72.6713H208.438V74.2373H199.294V61.6373H208.186V63.2033H201.094V72.6713ZM213.839 74.2373V62.7353L214.289 63.2033H209.537V61.6373H219.923V63.2033H215.171L215.603 62.7353V74.2373H213.839ZM219.732 74.2373L225.438 61.6373H227.22L232.944 74.2373H231.054L225.96 62.6453H226.68L221.586 74.2373H219.732ZM222.162 71.0873L222.648 69.6473H229.74L230.262 71.0873H222.162ZM234.524 74.3813C234.344 74.3813 234.164 74.3693 233.984 74.3453C233.804 74.3213 233.606 74.2853 233.39 74.2373L233.516 72.6353C233.708 72.6833 233.9 72.7073 234.092 72.7073C234.62 72.7073 235.04 72.4973 235.352 72.0773C235.664 71.6573 235.892 71.0213 236.036 70.1693C236.192 69.3173 236.294 68.2433 236.342 66.9473L236.54 61.6373H245.414V74.2373H243.65V62.7353L244.082 63.2033H237.692L238.088 62.7173L237.944 66.8933C237.908 68.1413 237.824 69.2333 237.692 70.1693C237.56 71.1053 237.362 71.8853 237.098 72.5093C236.834 73.1333 236.492 73.6013 236.072 73.9133C235.664 74.2253 235.148 74.3813 234.524 74.3813ZM248.587 74.3813C248.407 74.3813 248.227 74.3693 248.047 74.3453C247.867 74.3213 247.669 74.2853 247.453 74.2373L247.579 72.6353C247.771 72.6833 247.963 72.7073 248.155 72.7073C248.683 72.7073 249.103 72.4973 249.415 72.0773C249.727 71.6573 249.955 71.0213 250.099 70.1693C250.255 69.3173 250.357 68.2433 250.405 66.9473L250.603 61.6373H259.477V74.2373H257.713V62.7353L258.145 63.2033H251.755L252.151 62.7173L252.007 66.8933C251.971 68.1413 251.887 69.2333 251.755 70.1693C251.623 71.1053 251.425 71.8853 251.161 72.5093C250.897 73.1333 250.555 73.6013 250.135 73.9133C249.727 74.2253 249.211 74.3813 248.587 74.3813ZM269.071 74.3813C268.111 74.3813 267.217 74.2193 266.389 73.8953C265.573 73.5713 264.865 73.1213 264.265 72.5453C263.665 71.9573 263.197 71.2733 262.861 70.4933C262.525 69.7133 262.357 68.8613 262.357 67.9373C262.357 67.0133 262.525 66.1613 262.861 65.3813C263.197 64.6013 263.665 63.9233 264.265 63.3473C264.865 62.7593 265.573 62.3033 266.389 61.9793C267.205 61.6553 268.099 61.4933 269.071 61.4933C270.031 61.4933 270.913 61.6553 271.717 61.9793C272.533 62.2913 273.241 62.7413 273.841 63.3293C274.453 63.9053 274.921 64.5833 275.245 65.3633C275.581 66.1433 275.749 67.0013 275.749 67.9373C275.749 68.8733 275.581 69.7313 275.245 70.5113C274.921 71.2913 274.453 71.9753 273.841 72.5633C273.241 73.1393 272.533 73.5893 271.717 73.9133C270.913 74.2253 270.031 74.3813 269.071 74.3813ZM269.071 72.7793C269.767 72.7793 270.409 72.6593 270.997 72.4193C271.597 72.1793 272.113 71.8433 272.545 71.4113C272.989 70.9673 273.331 70.4513 273.571 69.8633C273.823 69.2753 273.949 68.6333 273.949 67.9373C273.949 67.2413 273.823 66.5993 273.571 66.0113C273.331 65.4233 272.989 64.9133 272.545 64.4813C272.113 64.0373 271.597 63.6953 270.997 63.4553C270.409 63.2153 269.767 63.0953 269.071 63.0953C268.363 63.0953 267.709 63.2153 267.109 63.4553C266.521 63.6953 266.005 64.0373 265.561 64.4813C265.117 64.9133 264.769 65.4233 264.517 66.0113C264.277 66.5993 264.157 67.2413 264.157 67.9373C264.157 68.6333 264.277 69.2753 264.517 69.8633C264.769 70.4513 265.117 70.9673 265.561 71.4113C266.005 71.8433 266.521 72.1793 267.109 72.4193C267.709 72.6593 268.363 72.7793 269.071 72.7793ZM284.329 74.3813C283.369 74.3813 282.475 74.2193 281.647 73.8953C280.831 73.5713 280.123 73.1213 279.523 72.5453C278.923 71.9573 278.455 71.2733 278.119 70.4933C277.783 69.7133 277.615 68.8613 277.615 67.9373C277.615 67.0133 277.783 66.1613 278.119 65.3813C278.455 64.6013 278.923 63.9233 279.523 63.3473C280.123 62.7593 280.831 62.3033 281.647 61.9793C282.463 61.6553 283.357 61.4933 284.329 61.4933C285.289 61.4933 286.171 61.6553 286.975 61.9793C287.791 62.2913 288.499 62.7413 289.099 63.3293C289.711 63.9053 290.179 64.5833 290.503 65.3633C290.839 66.1433 291.007 67.0013 291.007 67.9373C291.007 68.8733 290.839 69.7313 290.503 70.5113C290.179 71.2913 289.711 71.9753 289.099 72.5633C288.499 73.1393 287.791 73.5893 286.975 73.9133C286.171 74.2253 285.289 74.3813 284.329 74.3813ZM284.329 72.7793C285.025 72.7793 285.667 72.6593 286.255 72.4193C286.855 72.1793 287.371 71.8433 287.803 71.4113C288.247 70.9673 288.589 70.4513 288.829 69.8633C289.081 69.2753 289.207 68.6333 289.207 67.9373C289.207 67.2413 289.081 66.5993 288.829 66.0113C288.589 65.4233 288.247 64.9133 287.803 64.4813C287.371 64.0373 286.855 63.6953 286.255 63.4553C285.667 63.2153 285.025 63.0953 284.329 63.0953C283.621 63.0953 282.967 63.2153 282.367 63.4553C281.779 63.6953 281.263 64.0373 280.819 64.4813C280.375 64.9133 280.027 65.4233 279.775 66.0113C279.535 66.5993 279.415 67.2413 279.415 67.9373C279.415 68.6333 279.535 69.2753 279.775 69.8633C280.027 70.4513 280.375 70.9673 280.819 71.4113C281.263 71.8433 281.779 72.1793 282.367 72.4193C282.967 72.6593 283.621 72.7793 284.329 72.7793ZM293.917 74.2373V61.6373H303.421V63.1673H295.699V66.7673H299.623C301.123 66.7673 302.263 67.0793 303.043 67.7033C303.823 68.3273 304.213 69.2333 304.213 70.4213C304.213 71.6453 303.787 72.5873 302.935 73.2473C302.095 73.9073 300.889 74.2373 299.317 74.2373H293.917ZM295.699 72.8153H299.245C300.289 72.8153 301.075 72.6173 301.603 72.2213C302.143 71.8253 302.413 71.2373 302.413 70.4573C302.413 68.9453 301.357 68.1893 299.245 68.1893H295.699V72.8153ZM307.083 74.2373V61.6373H311.997C313.101 61.6373 314.043 61.8113 314.823 62.1593C315.603 62.5073 316.203 63.0113 316.623 63.6713C317.043 64.3313 317.253 65.1173 317.253 66.0293C317.253 66.9413 317.043 67.7273 316.623 68.3873C316.203 69.0353 315.603 69.5393 314.823 69.8993C314.043 70.2473 313.101 70.4213 311.997 70.4213H308.073L308.883 69.5753V74.2373H307.083ZM308.883 69.7553L308.073 68.8553H311.943C313.095 68.8553 313.965 68.6093 314.553 68.1173C315.153 67.6253 315.453 66.9293 315.453 66.0293C315.453 65.1293 315.153 64.4333 314.553 63.9413C313.965 63.4493 313.095 63.2033 311.943 63.2033H308.073L308.883 62.3033V69.7553ZM317.378 74.2373L323.084 61.6373H324.866L330.59 74.2373H328.7L323.606 62.6453H324.326L319.232 74.2373H317.378ZM319.808 71.0873L320.294 69.6473H327.386L327.908 71.0873H319.808ZM332.765 74.2373V61.6373H342.269V63.1673H334.547V66.7673H338.471C339.971 66.7673 341.111 67.0793 341.891 67.7033C342.671 68.3273 343.061 69.2333 343.061 70.4213C343.061 71.6453 342.635 72.5873 341.783 73.2473C340.943 73.9073 339.737 74.2373 338.165 74.2373H332.765ZM334.547 72.8153H338.093C339.137 72.8153 339.923 72.6173 340.451 72.2213C340.991 71.8253 341.261 71.2373 341.261 70.4573C341.261 68.9453 340.205 68.1893 338.093 68.1893H334.547V72.8153ZM351.601 74.3813C350.641 74.3813 349.747 74.2193 348.919 73.8953C348.103 73.5713 347.395 73.1213 346.795 72.5453C346.195 71.9573 345.727 71.2733 345.391 70.4933C345.055 69.7133 344.887 68.8613 344.887 67.9373C344.887 67.0133 345.055 66.1613 345.391 65.3813C345.727 64.6013 346.195 63.9233 346.795 63.3473C347.395 62.7593 348.103 62.3033 348.919 61.9793C349.735 61.6553 350.629 61.4933 351.601 61.4933C352.561 61.4933 353.443 61.6553 354.247 61.9793C355.063 62.2913 355.771 62.7413 356.371 63.3293C356.983 63.9053 357.451 64.5833 357.775 65.3633C358.111 66.1433 358.279 67.0013 358.279 67.9373C358.279 68.8733 358.111 69.7313 357.775 70.5113C357.451 71.2913 356.983 71.9753 356.371 72.5633C355.771 73.1393 355.063 73.5893 354.247 73.9133C353.443 74.2253 352.561 74.3813 351.601 74.3813ZM351.601 72.7793C352.297 72.7793 352.939 72.6593 353.527 72.4193C354.127 72.1793 354.643 71.8433 355.075 71.4113C355.519 70.9673 355.861 70.4513 356.101 69.8633C356.353 69.2753 356.479 68.6333 356.479 67.9373C356.479 67.2413 356.353 66.5993 356.101 66.0113C355.861 65.4233 355.519 64.9133 355.075 64.4813C354.643 64.0373 354.127 63.6953 353.527 63.4553C352.939 63.2153 352.297 63.0953 351.601 63.0953C350.893 63.0953 350.239 63.2153 349.639 63.4553C349.051 63.6953 348.535 64.0373 348.091 64.4813C347.647 64.9133 347.299 65.4233 347.047 66.0113C346.807 66.5993 346.687 67.2413 346.687 67.9373C346.687 68.6333 346.807 69.2753 347.047 69.8633C347.299 70.4513 347.647 70.9673 348.091 71.4113C348.535 71.8433 349.051 72.1793 349.639 72.4193C350.239 72.6593 350.893 72.7793 351.601 72.7793ZM363.587 74.2373V62.7353L364.037 63.2033H359.285V61.6373H369.671V63.2033H364.919L365.351 62.7353V74.2373H363.587ZM380.336 74.2373L375.764 68.0273L377.222 67.1273L382.388 74.2373H380.336ZM371.858 74.2373V61.6373H373.622V74.2373H371.858ZM373.082 68.6933V67.1093H377.168V68.6933H373.082ZM377.384 68.1353L375.728 67.8833L380.246 61.6373H382.172L377.384 68.1353ZM384.233 74.2373V61.6373H386.015V71.3573L393.467 61.6373H395.123V74.2373H393.359V64.5353L385.889 74.2373H384.233Z" fill="white"/>
<path d="M0 0.490642H23.1029V5.76549H6.58342V11.6538H14.516C17.9781 11.6538 20.6155 12.3761 22.4283 13.8208C24.2411 15.2657 25.1475 17.351 25.1475 20.077C25.1475 22.9393 24.1389 25.161 22.1216 26.7421C20.1043 28.3232 17.2557 29.1138 13.5756 29.1138H0V0.490642ZM13.2076 24.207C14.8976 24.207 16.1925 23.873 17.0922 23.2051C17.9917 22.5372 18.4415 21.5627 18.4415 20.2814C18.4415 17.7736 16.6968 16.5197 13.2076 16.5197H6.58342V24.207H13.2076ZM42.1985 15.8245H36.8011V5.8881H42.1985C44.1885 5.8881 45.7015 6.3175 46.7373 7.1763C47.7732 8.03498 48.2911 9.26847 48.2911 10.8768C48.2911 12.4578 47.7732 13.6777 46.7373 14.5365C45.7015 15.3952 44.1885 15.8245 42.1985 15.8245ZM42.5666 0.490642H30.1769V29.1138H36.8011V21.222H42.5666C45.1017 21.222 47.303 20.8062 49.1704 19.9747C51.0376 19.1433 52.4756 17.9439 53.4843 16.3765C54.4929 14.809 54.9972 12.9758 54.9972 10.8768C54.9972 8.75047 54.4929 6.91038 53.4843 5.35652C52.4756 3.80279 51.0376 2.60337 49.1704 1.75828C47.303 0.913189 45.1017 0.490642 42.5666 0.490642ZM73.4386 23.9616C71.7485 23.9616 70.2219 23.5731 68.8589 22.7962C67.496 22.0192 66.426 20.9356 65.6491 19.5454C64.8721 18.1551 64.4837 16.5741 64.4837 14.8023C64.4837 13.0304 64.8721 11.4493 65.6491 10.059C66.426 8.66879 67.496 7.5852 68.8589 6.80827C70.2219 6.03134 71.7485 5.64287 73.4386 5.64287C75.1287 5.64287 76.6553 6.03134 78.0183 6.80827C79.3813 7.5852 80.4513 8.66879 81.2282 10.059C82.0051 11.4493 82.3936 13.0304 82.3936 14.8023C82.3936 16.5741 82.0051 18.1551 81.2282 19.5454C80.4513 20.9356 79.3813 22.0192 78.0183 22.7962C76.6553 23.5731 75.1287 23.9616 73.4386 23.9616ZM73.4386 29.6044C76.4099 29.6044 79.0814 28.9638 81.453 27.6826C83.8247 26.4014 85.692 24.6363 87.055 22.3874C88.4179 20.1383 89.0994 17.61 89.0994 14.8023C89.0994 11.9945 88.4179 9.4661 87.055 7.21704C85.692 4.96812 83.8247 3.20305 81.453 1.92183C79.0814 0.64061 76.4099 0 73.4386 0C70.4672 0 67.7889 0.64061 65.4037 1.92183C63.0184 3.20305 61.1511 4.96812 59.8017 7.21704C58.4524 9.4661 57.7777 11.9945 57.7777 14.8023C57.7777 17.61 58.4524 20.1383 59.8017 22.3874C61.1511 24.6363 63.0184 26.4014 65.4037 27.6826C67.7889 28.9638 70.4672 29.6044 73.4386 29.6044ZM112.734 29.1138H120.258L110.608 14.3115L119.971 0.490642H112.979L105.456 12.0625H100.712V0.490642H94.1288V29.1138H100.712V17.5828H105.292L112.734 29.1138Z" fill="white"/>
<path d="M0 32.8594H174.032V74.2377H0V32.8594Z" fill="white"/>
<path d="M37.0778 68.8412C34.161 68.8412 31.5236 68.2074 29.1656 66.9398C26.8076 65.6721 24.9539 63.9139 23.6046 61.6649C22.2553 59.416 21.5806 56.874 21.5806 54.0389C21.5806 51.2038 22.2553 48.6618 23.6046 46.4129C24.9539 44.164 26.8076 42.4057 29.1656 41.1381C31.5236 39.8706 34.1746 39.2368 37.1187 39.2368C39.5994 39.2368 41.8416 39.6729 43.8451 40.5452C45.8487 41.4176 47.532 42.6716 48.8951 44.3072L44.6425 48.2325C42.707 45.9972 40.3081 44.8795 37.4458 44.8795C35.6739 44.8795 34.0928 45.268 32.7026 46.0449C31.3123 46.8218 30.2287 47.9054 29.4518 49.2957C28.6749 50.6859 28.2864 52.267 28.2864 54.0389C28.2864 55.8109 28.6749 57.3919 29.4518 58.7822C30.2287 60.1724 31.3123 61.256 32.7026 62.033C34.0928 62.8099 35.6739 63.1984 37.4458 63.1984C40.3081 63.1984 42.707 62.067 44.6425 59.8044L48.8951 63.7299C47.532 65.3928 45.8419 66.6604 43.8248 67.5327C41.8075 68.405 39.5585 68.8412 37.0778 68.8412ZM74.8195 39.7275H49.999V45.1249H59.1175V68.3504H65.66V45.1249H74.8195V39.7275ZM85.7779 57.1875L90.3167 46.229L94.8555 57.1875H85.7779ZM99.4761 68.3504H106.427L93.6288 39.7275H87.0863L74.3286 68.3504H81.1163L83.6516 62.2169H96.9408L99.4761 68.3504ZM113.992 39.7275L113.583 51.3403C113.419 55.3202 113.024 58.2438 112.397 60.1111C111.77 61.9784 110.666 62.912 109.085 62.912C108.649 62.912 108.254 62.8575 107.899 62.7485L107.491 68.3504C108.772 68.6503 109.862 68.8003 110.762 68.8003C112.942 68.8003 114.639 68.1256 115.852 66.7762C117.065 65.4269 117.931 63.4914 118.449 60.9698C118.967 58.4482 119.294 55.1566 119.43 51.0949L119.635 45.1249H129.448V68.3504H135.991V39.7275H113.992ZM155.7 63.4436H149.73V54.0389H155.7C159.353 54.0389 161.179 55.5246 161.179 58.496C161.179 60.1044 160.695 61.3311 159.728 62.1761C158.76 63.0211 157.417 63.4436 155.7 63.4436ZM157.008 49.1321H149.73V39.7275H143.147V68.3504H156.068C159.802 68.3504 162.699 67.4985 164.757 65.7948C166.815 64.0911 167.844 61.6173 167.844 58.3732C167.844 55.3202 166.911 53.0168 165.043 51.4629C163.176 49.909 160.498 49.1321 157.008 49.1321Z" fill="#003B81"/>
</svg>
