<svg width="32" height="29" viewBox="0 0 32 29" fill="none" xmlns="http://www.w3.org/2000/svg">
<path d="M5.75717 4.00183L6.71671 4.0011L7.61224 4C8.27008 4.0166 8.71343 4.32069 8.94228 4.91229C9.04309 5.20271 9.11115 5.49241 9.14647 5.78137L9.39151 7.38812C9.39347 7.40057 9.40071 7.40679 9.41322 7.40679L10.3694 7.40496L11.2602 7.40789L12.2304 7.40679L13.1215 7.40569H14.0641L15.0093 7.40643L15.8839 7.40569L16.782 7.40643L17.7492 7.40533L18.6131 7.40606L19.6124 7.40533L20.4476 7.40569H21.4347L22.3159 7.40679L23.2644 7.40569L24.1261 7.40643L25.0915 7.40826C25.4003 7.39459 25.7046 7.40984 26.0043 7.45402C26.3134 7.49795 26.5758 7.614 26.7917 7.80216C27.0073 7.99033 27.1137 8.24073 27.111 8.55337C27.1066 8.83892 27.0367 9.06955 26.9348 9.34924L25.2766 14.0611L25.1408 14.4499C24.8049 15.226 24.3656 15.7678 23.4465 15.7927C22.8288 15.8092 22.168 15.7909 21.5425 15.7964C20.8571 15.8026 20.1716 15.7891 19.4869 15.7978C19.0805 15.803 18.6742 15.8049 18.268 15.8037C17.2133 15.8008 16.1586 15.7987 15.1039 15.7975C13.8294 15.796 12.5525 15.7964 11.2731 15.7986L11.0479 15.7964C11.0339 15.7964 11.028 15.8032 11.0302 15.8169L11.3363 17.7132L11.3525 17.8768C11.3538 17.8895 11.3608 17.8959 11.3735 17.8959C15.1863 17.9043 18.9991 17.8959 22.8119 17.8955C23.092 17.8955 23.3191 17.9006 23.4933 17.9109C23.6939 17.9399 23.8738 18.0094 24.033 18.1192C24.1934 18.2627 24.2867 18.4323 24.313 18.628C24.3517 18.9307 24.3208 19.2079 24.2203 19.4598L24.1066 19.6886C23.8733 19.961 23.5852 20.0093 23.2409 19.9987L18.7724 19.999H15.7474L14.9839 19.9987L14.017 19.999L13.141 19.9987L12.1333 19.999C11.7141 19.9988 11.2939 19.9982 10.8728 19.9972C10.0148 19.9954 9.56039 19.2826 9.30505 18.5739C9.19394 18.2471 9.12268 17.9923 9.09129 17.8095C8.99747 17.2629 8.87016 16.6867 8.77671 16.1789C8.60133 15.2271 8.42167 14.2765 8.2377 13.3271L8.02505 12.1809L7.85139 11.2595L7.15528 7.62937L6.97463 6.7061C6.97359 6.70098 6.97082 6.69638 6.96679 6.69311C6.96275 6.68983 6.95771 6.68808 6.95255 6.68817L6.66704 6.69146L5.71376 6.69183C5.20676 6.69146 4.76488 6.73795 4.3988 6.31476C4.29137 6.19066 4.135 5.97174 4.11219 5.79638C4.11243 5.39588 4.11207 4.99563 4.11108 4.59562C4.11108 4.50898 4.13537 4.43833 4.18393 4.38366C4.37967 4.16376 4.60888 4.04003 4.87158 4.01245L5.75717 4.00183ZM10.0586 10.3519L10.6984 13.6544C10.7008 13.6666 10.7083 13.6727 10.7208 13.6727L11.3051 13.6738L12.1899 13.6749L14.96 13.6815L15.8791 13.6826L16.7919 13.6848L17.7224 13.6841H18.6381L19.5561 13.6837L20.5065 13.6903L21.4104 13.6906L22.9388 13.6921C22.9479 13.6921 22.9567 13.6893 22.9642 13.6842C22.9717 13.679 22.9775 13.6717 22.9807 13.6632L23.9057 11.2236L24.5503 9.51874C24.5567 9.50141 24.5505 9.49275 24.5319 9.49275C23.1792 9.49006 21.8209 9.48542 20.4572 9.47884C20.4505 9.48518 20.4416 9.48652 20.4303 9.48286L19.5189 9.47444L16.8029 9.46968L15.8412 9.46419L13.088 9.4576L12.0328 9.45687L11.2484 9.45028L10.3507 9.44662L9.90366 9.44186C9.89115 9.44186 9.886 9.44796 9.88821 9.46017L10.0586 10.3519Z" fill="#3A3A3A"/>
<path d="M13.443 21.4982L13.6282 21.6916C14.2554 22.4593 14.2742 23.451 13.6694 24.2339L13.3978 24.519C13.0884 24.772 12.7562 24.9251 12.4012 24.9783C11.3952 25.1292 10.4643 24.4778 10.184 23.5047C9.99441 22.8476 10.1846 22.159 10.6384 21.6368L10.8818 21.4112C11.6574 20.839 12.7039 20.8603 13.443 21.4982Z" fill="#3A3A3A"/>
<path d="M22.8971 21.1498C23.5029 21.4165 23.8926 21.8825 24.066 22.5476C24.1199 22.8103 24.1255 23.0786 24.0828 23.3526C23.9169 24.0741 23.5026 24.576 22.8397 24.8584C21.2792 25.4753 19.6879 23.973 20.2135 22.3607C20.5863 21.2163 21.8096 20.7283 22.8971 21.1498Z" fill="#3A3A3A"/>
</svg>
