<svg width="39" height="39" viewBox="0 0 39 39" fill="none" xmlns="http://www.w3.org/2000/svg">
<path d="M19.5 0C8.7555 0 0 8.7555 0 19.5C0 30.2445 8.7555 39 19.5 39C30.2445 39 39 30.2445 39 19.5C39 8.7555 30.2445 0 19.5 0ZM26.052 23.985C26.6175 24.5505 26.6175 25.4865 26.052 26.052C25.7595 26.3445 25.389 26.481 25.0185 26.481C24.648 26.481 24.2775 26.3445 23.985 26.052L19.5 21.567L15.015 26.052C14.7225 26.3445 14.352 26.481 13.9815 26.481C13.611 26.481 13.2405 26.3445 12.948 26.052C12.3825 25.4865 12.3825 24.5505 12.948 23.985L17.433 19.5L12.948 15.015C12.3825 14.4495 12.3825 13.5135 12.948 12.948C13.5135 12.3825 14.4495 12.3825 15.015 12.948L19.5 17.433L23.985 12.948C24.5505 12.3825 25.4865 12.3825 26.052 12.948C26.6175 13.5135 26.6175 14.4495 26.052 15.015L21.567 19.5L26.052 23.985Z" fill="white"/>
</svg>
