<svg width="300" height="54" viewBox="0 0 300 54" fill="none" xmlns="http://www.w3.org/2000/svg">
<path d="M132 36.6527V27H133.404V35.453H138.937V27H140.342V36.6527H132ZM140.554 38.8453V36.2942L140.895 36.6527H138.937V35.453H141.874V38.8453H140.554ZM145.053 31.1645H150.16V32.3366H145.053V31.1645ZM145.181 35.453H150.969V36.6527H143.762V27H150.77V28.1997H145.181V35.453ZM160.318 27H161.736V36.6527H160.318V27ZM154.615 36.6527H153.196V27H154.615V36.6527ZM160.446 32.3504H154.473V31.1507H160.446V32.3504ZM166.862 36.6527V27.8412L167.217 28.1997H163.472V27H171.657V28.1997H167.912L168.252 27.8412V36.6527H166.862ZM173.382 36.6527V27H177.255C178.124 27 178.867 27.1333 179.482 27.3999C180.096 27.6665 180.57 28.0526 180.901 28.5582C181.231 29.0639 181.397 29.666 181.397 30.3647C181.397 31.0634 181.231 31.6654 180.901 32.1711C180.57 32.6675 180.096 33.0536 179.482 33.3294C178.867 33.596 178.124 33.7293 177.255 33.7293H174.162L174.8 33.0812V36.6527H173.382ZM174.8 33.2191L174.162 32.5296H177.212C178.12 32.5296 178.805 32.3411 179.269 31.9643C179.742 31.5874 179.978 31.0541 179.978 30.3647C179.978 29.6752 179.742 29.142 179.269 28.7651C178.805 28.3882 178.12 28.1997 177.212 28.1997H174.162L174.8 27.5102V33.2191ZM187.319 36.6527V27H188.482L192.937 34.2947H192.313L196.71 27H197.874L197.888 36.6527H196.526L196.512 29.0822H196.838L192.923 35.4806H192.27L188.326 29.0822H188.681V36.6527H187.319ZM202.27 31.1645H207.377V32.3366H202.27V31.1645ZM202.397 35.453H208.186V36.6527H200.979V27H207.987V28.1997H202.397V35.453ZM212.442 36.6527V27.8412L212.797 28.1997H209.052V27H217.237V28.1997H213.492L213.833 27.8412V36.6527H212.442ZM217.087 36.6527L221.584 27H222.988L227.499 36.6527H226.01L221.995 27.7722H222.563L218.548 36.6527H217.087ZM219.002 34.2395L219.385 33.1364H224.974L225.386 34.2395H219.002ZM228.745 36.763C228.603 36.763 228.461 36.7538 228.32 36.7354C228.178 36.7171 228.022 36.6895 227.851 36.6527L227.951 35.4254C228.101 35.4622 228.253 35.4806 228.405 35.4806C228.821 35.4806 229.151 35.3197 229.398 34.998C229.643 34.6762 229.823 34.1889 229.937 33.5363C230.059 32.8836 230.14 32.0608 230.178 31.0679L230.334 27H237.328V36.6527H235.938V27.8412L236.278 28.1997H231.242L231.554 27.8274L231.441 31.0266C231.412 31.9826 231.346 32.8192 231.242 33.5363C231.137 34.2533 230.981 34.8508 230.774 35.3289C230.565 35.807 230.296 36.1655 229.965 36.4045C229.643 36.6435 229.236 36.763 228.745 36.763ZM239.828 36.763C239.686 36.763 239.545 36.7538 239.403 36.7354C239.261 36.7171 239.105 36.6895 238.935 36.6527L239.034 35.4254C239.185 35.4622 239.336 35.4806 239.488 35.4806C239.904 35.4806 240.234 35.3197 240.481 34.998C240.726 34.6762 240.906 34.1889 241.02 33.5363C241.142 32.8836 241.223 32.0608 241.261 31.0679L241.417 27H248.411V36.6527H247.021V27.8412L247.361 28.1997H242.325L242.637 27.8274L242.524 31.0266C242.495 31.9826 242.429 32.8192 242.325 33.5363C242.22 34.2533 242.064 34.8508 241.857 35.3289C241.649 35.807 241.379 36.1655 241.048 36.4045C240.726 36.6435 240.319 36.763 239.828 36.763ZM250.128 36.6527L254.625 27H256.029L260.54 36.6527H259.051L255.036 27.7722H255.604L251.589 36.6527H250.128ZM252.043 34.2395L252.426 33.1364H258.015L258.427 34.2395H252.043ZM266.064 36.6527V27H267.469V34.4464L273.342 27H274.647V36.6527H273.257V29.2201L267.369 36.6527H266.064ZM132 53.8897V44.237H133.163L137.618 51.5317H136.994L141.391 44.237H142.555L142.569 53.8897H141.207L141.193 46.3192H141.519L137.604 52.7176H136.951L133.007 46.3192H133.362V53.8897H132ZM146.951 48.4014H152.058V49.5735H146.951V48.4014ZM147.078 52.69H152.866V53.8897H145.66V44.237H152.668V45.4367H147.078V52.69ZM157.123 53.8897V45.0781L157.478 45.4367H153.733V44.237H161.918V45.4367H158.173L158.514 45.0781V53.8897H157.123ZM161.768 53.8897L166.265 44.237H167.669L172.18 53.8897H170.691L166.676 45.0092H167.243L163.229 53.8897H161.768ZM163.683 51.4765L164.066 50.3733H169.655L170.067 51.4765H163.683ZM173.426 54C173.284 54 173.142 53.9908 173.001 53.9724C172.859 53.9541 172.703 53.9265 172.532 53.8897L172.632 52.6624C172.783 52.6992 172.934 52.7176 173.086 52.7176C173.501 52.7176 173.833 52.5567 174.079 52.2349C174.324 51.9132 174.504 51.4259 174.618 50.7732C174.741 50.1206 174.821 49.2978 174.859 48.3049L175.015 44.237H182.009V53.8897H180.619V45.0781L180.959 45.4367H175.923L176.235 45.0644L176.122 48.2635C176.093 49.2196 176.027 50.0562 175.923 50.7732C175.819 51.4903 175.663 52.0878 175.455 52.5659C175.246 53.044 174.977 53.4025 174.646 53.6415C174.324 53.8805 173.918 54 173.426 54ZM184.509 54C184.367 54 184.226 53.9908 184.084 53.9724C183.942 53.9541 183.786 53.9265 183.615 53.8897L183.715 52.6624C183.866 52.6992 184.017 52.7176 184.169 52.7176C184.585 52.7176 184.916 52.5567 185.162 52.2349C185.407 51.9132 185.587 51.4259 185.701 50.7732C185.824 50.1206 185.904 49.2978 185.942 48.3049L186.098 44.237H193.092V53.8897H191.702V45.0781L192.042 45.4367H187.006L187.318 45.0644L187.205 48.2635C187.176 49.2196 187.11 50.0562 187.006 50.7732C186.902 51.4903 186.746 52.0878 186.538 52.5659C186.33 53.044 186.06 53.4025 185.729 53.6415C185.407 53.8805 185.001 54 184.509 54ZM200.654 54C199.897 54 199.193 53.8759 198.541 53.6277C197.897 53.3795 197.339 53.0347 196.867 52.5935C196.393 52.143 196.024 51.619 195.76 51.0215C195.495 50.4239 195.363 49.7712 195.363 49.0633C195.363 48.3555 195.495 47.7027 195.76 47.1052C196.024 46.5077 196.393 45.9883 196.867 45.547C197.339 45.0965 197.897 44.7472 198.541 44.499C199.183 44.2508 199.888 44.1267 200.654 44.1267C201.411 44.1267 202.106 44.2508 202.74 44.499C203.382 44.738 203.94 45.0827 204.414 45.5332C204.896 45.9745 205.265 46.4939 205.52 47.0914C205.784 47.6889 205.917 48.3463 205.917 49.0633C205.917 49.7804 205.784 50.4377 205.52 51.0352C205.265 51.6328 204.896 52.1568 204.414 52.6073C203.94 53.0485 203.382 53.3933 202.74 53.6415C202.106 53.8805 201.411 54 200.654 54ZM200.654 52.7727C201.202 52.7727 201.709 52.6808 202.172 52.4969C202.645 52.3131 203.052 52.0557 203.392 51.7247C203.742 51.3845 204.011 50.9893 204.201 50.5388C204.399 50.0883 204.499 49.5966 204.499 49.0633C204.499 48.5301 204.399 48.0383 204.201 47.5878C204.011 47.1374 203.742 46.7467 203.392 46.4157C203.052 46.0756 202.645 45.8136 202.172 45.6297C201.709 45.4459 201.202 45.3539 200.654 45.3539C200.096 45.3539 199.581 45.4459 199.108 45.6297C198.644 45.8136 198.237 46.0756 197.888 46.4157C197.538 46.7467 197.264 47.1374 197.065 47.5878C196.875 48.0383 196.781 48.5301 196.781 49.0633C196.781 49.5966 196.875 50.0883 197.065 50.5388C197.264 50.9893 197.538 51.3845 197.888 51.7247C198.237 52.0557 198.644 52.3131 199.108 52.4969C199.581 52.6808 200.096 52.7727 200.654 52.7727ZM212.679 54C211.923 54 211.218 53.8759 210.565 53.6277C209.922 53.3795 209.364 53.0347 208.891 52.5935C208.419 52.143 208.05 51.619 207.785 51.0215C207.52 50.4239 207.388 49.7712 207.388 49.0633C207.388 48.3555 207.52 47.7027 207.785 47.1052C208.05 46.5077 208.419 45.9883 208.891 45.547C209.364 45.0965 209.922 44.7472 210.565 44.499C211.208 44.2508 211.913 44.1267 212.679 44.1267C213.435 44.1267 214.13 44.2508 214.764 44.499C215.407 44.738 215.966 45.0827 216.438 45.5332C216.921 45.9745 217.29 46.4939 217.545 47.0914C217.81 47.6889 217.942 48.3463 217.942 49.0633C217.942 49.7804 217.81 50.4377 217.545 51.0352C217.29 51.6328 216.921 52.1568 216.438 52.6073C215.966 53.0485 215.407 53.3933 214.764 53.6415C214.13 53.8805 213.435 54 212.679 54ZM212.679 52.7727C213.228 52.7727 213.733 52.6808 214.197 52.4969C214.67 52.3131 215.077 52.0557 215.417 51.7247C215.767 51.3845 216.037 50.9893 216.226 50.5388C216.424 50.0883 216.524 49.5966 216.524 49.0633C216.524 48.5301 216.424 48.0383 216.226 47.5878C216.037 47.1374 215.767 46.7467 215.417 46.4157C215.077 46.0756 214.67 45.8136 214.197 45.6297C213.733 45.4459 213.228 45.3539 212.679 45.3539C212.121 45.3539 211.605 45.4459 211.133 45.6297C210.669 45.8136 210.263 46.0756 209.913 46.4157C209.562 46.7467 209.288 47.1374 209.09 47.5878C208.901 48.0383 208.806 48.5301 208.806 49.0633C208.806 49.5966 208.901 50.0883 209.09 50.5388C209.288 50.9893 209.562 51.3845 209.913 51.7247C210.263 52.0557 210.669 52.3131 211.133 52.4969C211.605 52.6808 212.121 52.7727 212.679 52.7727ZM220.236 53.8897V44.237H227.726V45.4091H221.64V48.167H224.733C225.915 48.167 226.813 48.406 227.428 48.8841C228.043 49.3621 228.351 50.0562 228.351 50.9663C228.351 51.904 228.015 52.6256 227.343 53.1313C226.681 53.6369 225.731 53.8897 224.492 53.8897H220.236ZM221.64 52.8003H224.435C225.258 52.8003 225.877 52.6486 226.294 52.3453C226.719 52.0419 226.932 51.5914 226.932 50.9939C226.932 49.8355 226.099 49.2564 224.435 49.2564H221.64V52.8003ZM230.612 53.8897V44.237H234.485C235.355 44.237 236.097 44.3703 236.713 44.6369C237.327 44.9034 237.8 45.2896 238.131 45.7952C238.462 46.3008 238.628 46.9029 238.628 47.6016C238.628 48.3003 238.462 48.9024 238.131 49.4081C237.8 49.9045 237.327 50.2906 236.713 50.5664C236.097 50.833 235.355 50.9663 234.485 50.9663H231.393L232.031 50.3182V53.8897H230.612ZM232.031 50.4561L231.393 49.7666H234.443C235.351 49.7666 236.036 49.5781 236.5 49.2012C236.972 48.8243 237.209 48.2911 237.209 47.6016C237.209 46.9122 236.972 46.3789 236.5 46.002C236.036 45.6252 235.351 45.4367 234.443 45.4367H231.393L232.031 44.7472V50.4561ZM238.726 53.8897L243.223 44.237H244.628L249.139 53.8897H247.649L243.635 45.0092H244.202L240.187 53.8897H238.726ZM240.641 51.4765L241.024 50.3733H246.614L247.025 51.4765H240.641ZM250.853 53.8897V44.237H258.343V45.4091H252.257V48.167H255.35C256.532 48.167 257.431 48.406 258.045 48.8841C258.66 49.3621 258.968 50.0562 258.968 50.9663C258.968 51.904 258.632 52.6256 257.96 53.1313C257.298 53.6369 256.347 53.8897 255.109 53.8897H250.853ZM252.257 52.8003H255.052C255.875 52.8003 256.495 52.6486 256.911 52.3453C257.336 52.0419 257.549 51.5914 257.549 50.9939C257.549 49.8355 256.716 49.2564 255.052 49.2564H252.257V52.8003ZM265.698 54C264.942 54 264.237 53.8759 263.584 53.6277C262.942 53.3795 262.383 53.0347 261.91 52.5935C261.438 52.143 261.069 51.619 260.804 51.0215C260.539 50.4239 260.407 49.7712 260.407 49.0633C260.407 48.3555 260.539 47.7027 260.804 47.1052C261.069 46.5077 261.438 45.9883 261.91 45.547C262.383 45.0965 262.942 44.7472 263.584 44.499C264.227 44.2508 264.932 44.1267 265.698 44.1267C266.454 44.1267 267.15 44.2508 267.784 44.499C268.426 44.738 268.985 45.0827 269.458 45.5332C269.94 45.9745 270.309 46.4939 270.564 47.0914C270.829 47.6889 270.961 48.3463 270.961 49.0633C270.961 49.7804 270.829 50.4377 270.564 51.0352C270.309 51.6328 269.94 52.1568 269.458 52.6073C268.985 53.0485 268.426 53.3933 267.784 53.6415C267.15 53.8805 266.454 54 265.698 54ZM265.698 52.7727C266.247 52.7727 266.752 52.6808 267.216 52.4969C267.689 52.3131 268.096 52.0557 268.436 51.7247C268.786 51.3845 269.056 50.9893 269.245 50.5388C269.443 50.0883 269.543 49.5966 269.543 49.0633C269.543 48.5301 269.443 48.0383 269.245 47.5878C269.056 47.1374 268.786 46.7467 268.436 46.4157C268.096 46.0756 267.689 45.8136 267.216 45.6297C266.752 45.4459 266.247 45.3539 265.698 45.3539C265.14 45.3539 264.624 45.4459 264.152 45.6297C263.688 45.8136 263.282 46.0756 262.932 46.4157C262.582 46.7467 262.308 47.1374 262.109 47.5878C261.92 48.0383 261.825 48.5301 261.825 49.0633C261.825 49.5966 261.92 50.0883 262.109 50.5388C262.308 50.9893 262.582 51.3845 262.932 51.7247C263.282 52.0557 263.688 52.3131 264.152 52.4969C264.624 52.6808 265.14 52.7727 265.698 52.7727ZM275.144 53.8897V45.0781L275.499 45.4367H271.754V44.237H279.94V45.4367H276.194L276.535 45.0781V53.8897H275.144ZM288.346 53.8897L284.742 49.1323L285.892 48.4428L289.963 53.8897H288.346ZM281.664 53.8897V44.237H283.054V53.8897H281.664ZM282.629 49.6425V48.429H285.849V49.6425H282.629ZM286.019 49.215L284.714 49.022L288.275 44.237H289.793L286.019 49.215ZM291.417 53.8897V44.237H292.822V51.6833L298.695 44.237H300V53.8897H298.61V46.4571L292.722 53.8897H291.417Z" fill="white"/>
<path d="M0 0.364611H16.9058V4.28451H4.8175V8.66028H10.6223C13.1556 8.66028 15.0857 9.19708 16.4122 10.2707C17.7387 11.3444 18.402 12.8941 18.402 14.9198C18.402 17.0469 17.6639 18.698 16.1877 19.8729C14.7115 21.0479 12.627 21.6353 9.93412 21.6353H0V0.364611ZM9.66481 17.9889C10.9015 17.9889 11.8491 17.7407 12.5074 17.2444C13.1657 16.7481 13.4948 16.0239 13.4948 15.0718C13.4948 13.2081 12.2181 12.2763 9.66481 12.2763H4.8175V17.9889H9.66481ZM30.8793 11.7597H26.9297V4.37563H30.8793C32.3355 4.37563 33.4426 4.69473 34.2006 5.33293C34.9586 5.97104 35.3376 6.88769 35.3376 8.08288C35.3376 9.25777 34.9586 10.1643 34.2006 10.8026C33.4426 11.4406 32.3355 11.7597 30.8793 11.7597ZM31.1486 0.364611H22.0824V21.6353H26.9297V15.7707H31.1486C33.0037 15.7707 34.6145 15.4618 35.981 14.8439C37.3474 14.226 38.3997 13.3347 39.1378 12.1698C39.8759 11.0051 40.2448 9.64268 40.2448 8.08288C40.2448 6.50275 39.8759 5.13532 39.1378 3.98059C38.3997 2.82597 37.3474 1.93465 35.981 1.30664C34.6145 0.678619 33.0037 0.364611 31.1486 0.364611ZM53.7397 17.8066C52.5029 17.8066 51.3857 17.5179 50.3884 16.9405C49.391 16.3632 48.6081 15.5579 48.0395 14.5248C47.471 13.4916 47.1867 12.3167 47.1867 11.0001C47.1867 9.68329 47.471 8.50832 48.0395 7.47518C48.6081 6.44205 49.391 5.6368 50.3884 5.05944C51.3857 4.48207 52.5029 4.1934 53.7397 4.1934C54.9764 4.1934 56.0934 4.48207 57.0908 5.05944C58.0883 5.6368 58.8712 6.44205 59.4397 7.47518C60.0082 8.50832 60.2925 9.68329 60.2925 11.0001C60.2925 12.3167 60.0082 13.4916 59.4397 14.5248C58.8712 15.5579 58.0883 16.3632 57.0908 16.9405C56.0934 17.5179 54.9764 17.8066 53.7397 17.8066ZM53.7397 22C55.9139 22 57.8688 21.5239 59.6043 20.5718C61.3398 19.6197 62.7062 18.308 63.7035 16.6367C64.701 14.9654 65.1996 13.0865 65.1996 11.0001C65.1996 8.9135 64.701 7.03455 63.7035 5.36321C62.7062 3.69197 61.3398 2.38028 59.6043 1.42817C57.8688 0.476057 55.9139 0 53.7397 0C51.5653 0 49.6054 0.476057 47.8599 1.42817C46.1145 2.38028 44.7481 3.69197 43.7607 5.36321C42.7732 7.03455 42.2795 8.9135 42.2795 11.0001C42.2795 13.0865 42.7732 14.9654 43.7607 16.6367C44.7481 18.308 46.1145 19.6197 47.8599 20.5718C49.6054 21.5239 51.5653 22 53.7397 22ZM82.4944 21.6353H88L80.9385 10.6353L87.7906 0.364611H82.674L77.1684 8.96406H73.6974V0.364611H68.8799V21.6353H73.6974V13.0664H77.0487L82.4944 21.6353Z" fill="white"/>
<path d="M0 24H126V54H0V24Z" fill="white"/>
<path d="M27.2312 50C25.1173 50 23.206 49.5504 21.4971 48.6512C19.7882 47.752 18.4447 46.5047 17.4669 44.9094C16.489 43.3142 16 41.511 16 39.5C16 37.4889 16.489 35.6857 17.4669 34.0905C18.4447 32.4951 19.7882 31.2479 21.4971 30.3487C23.206 29.4496 25.1272 29 27.2608 29C29.0587 29 30.6836 29.3094 32.1356 29.9281C33.5876 30.5469 34.8076 31.4365 35.7954 32.5967L32.7135 35.3812C31.3107 33.7955 29.5723 33.0027 27.4979 33.0027C26.2137 33.0027 25.0679 33.2783 24.0603 33.8294C23.0528 34.3804 22.2675 35.1491 21.7045 36.1353C21.1414 37.1215 20.8599 38.2431 20.8599 39.5C20.8599 40.7569 21.1414 41.8784 21.7045 42.8646C22.2675 43.8508 23.0528 44.6194 24.0603 45.1705C25.0679 45.7216 26.2137 45.9972 27.4979 45.9972C29.5723 45.9972 31.3107 45.1947 32.7135 43.5897L35.7954 46.3743C34.8076 47.5539 33.5828 48.4531 32.1209 49.0718C30.6589 49.6906 29.029 50 27.2312 50ZM54.5833 29.3481H36.5955V33.1768H43.2038V49.6518H47.9453V33.1768H54.5833V29.3481ZM62.5251 41.7334L65.8145 33.9599L69.1038 41.7334H62.5251ZM72.4526 49.6518H77.4902L68.2149 29.3481H63.4734L54.2276 49.6518H59.1468L60.9842 45.301H70.6152L72.4526 49.6518ZM82.9724 29.3481L82.6762 37.5857C82.5576 40.4088 82.2711 42.4827 81.8168 43.8073C81.3623 45.1318 80.5622 45.7941 79.4163 45.7941C79.1003 45.7941 78.8138 45.7554 78.557 45.6781L78.2607 49.6518C79.1893 49.8645 79.9795 49.971 80.6314 49.971C82.2119 49.971 83.4416 49.4924 84.3207 48.5352C85.1999 47.578 85.8272 46.2051 86.2025 44.4164C86.5778 42.6277 86.8149 40.2928 86.9137 37.4116L87.0619 33.1768H94.1741V49.6518H98.9156V29.3481H82.9724ZM113.199 46.1711H108.872V39.5H113.199C115.846 39.5 117.17 40.5538 117.17 42.6616C117.17 43.8025 116.819 44.6726 116.118 45.2721C115.417 45.8715 114.444 46.1711 113.199 46.1711ZM114.148 36.0193H108.872V29.3481H104.102V49.6518H113.466C116.173 49.6518 118.271 49.0475 119.763 47.839C121.255 46.6305 122 44.8757 122 42.5745C122 40.4089 121.324 38.7749 119.971 37.6727C118.617 36.5704 116.676 36.0193 114.148 36.0193Z" fill="#003B81"/>
</svg>
