<svg width="375" height="62" viewBox="0 0 375 62" fill="none" xmlns="http://www.w3.org/2000/svg">
<path d="M149.744 41V29.8H151.328V39.608H157.568V29.8H159.152V41H149.744ZM159.392 43.544V40.584L159.776 41H157.568V39.608H160.88V43.544H159.392ZM164.466 34.632H170.226V35.992H164.466V34.632ZM164.61 39.608H171.138V41H163.01V29.8H170.914V31.192H164.61V39.608ZM181.682 29.8H183.282V41H181.682V29.8ZM175.25 41H173.65V29.8H175.25V41ZM181.826 36.008H175.09V34.616H181.826V36.008ZM189.063 41V30.776L189.463 31.192H185.239V29.8H194.471V31.192H190.247L190.631 30.776V41H189.063ZM196.416 41V29.8H200.784C201.765 29.8 202.603 29.9547 203.296 30.264C203.989 30.5733 204.523 31.0213 204.896 31.608C205.269 32.1947 205.456 32.8933 205.456 33.704C205.456 34.5147 205.269 35.2133 204.896 35.8C204.523 36.376 203.989 36.824 203.296 37.144C202.603 37.4533 201.765 37.608 200.784 37.608H197.296L198.016 36.856V41H196.416ZM198.016 37.016L197.296 36.216H200.736C201.76 36.216 202.533 35.9973 203.056 35.56C203.589 35.1227 203.856 34.504 203.856 33.704C203.856 32.904 203.589 32.2853 203.056 31.848C202.533 31.4107 201.76 31.192 200.736 31.192H197.296L198.016 30.392V37.016ZM212.135 41V29.8H213.447L218.471 38.264H217.767L222.727 29.8H224.039L224.055 41H222.519L222.503 32.216H222.871L218.455 39.64H217.719L213.271 32.216H213.671V41H212.135ZM228.997 34.632H234.757V35.992H228.997V34.632ZM229.141 39.608H235.669V41H227.541V29.8H235.445V31.192H229.141V39.608ZM240.47 41V30.776L240.87 31.192H236.646V29.8H245.878V31.192H241.654L242.038 30.776V41H240.47ZM245.708 41L250.78 29.8H252.364L257.452 41H255.772L251.244 30.696H251.884L247.356 41H245.708ZM247.868 38.2L248.3 36.92H254.604L255.068 38.2H247.868ZM258.857 41.128C258.697 41.128 258.537 41.1173 258.377 41.096C258.217 41.0747 258.041 41.0427 257.849 41L257.961 39.576C258.131 39.6187 258.302 39.64 258.473 39.64C258.942 39.64 259.315 39.4533 259.593 39.08C259.87 38.7067 260.073 38.1413 260.201 37.384C260.339 36.6267 260.43 35.672 260.473 34.52L260.649 29.8H268.537V41H266.969V30.776L267.353 31.192H261.673L262.025 30.76L261.897 34.472C261.865 35.5813 261.79 36.552 261.673 37.384C261.555 38.216 261.379 38.9093 261.145 39.464C260.91 40.0187 260.606 40.4347 260.233 40.712C259.87 40.9893 259.411 41.128 258.857 41.128ZM271.357 41.128C271.197 41.128 271.037 41.1173 270.877 41.096C270.717 41.0747 270.541 41.0427 270.349 41L270.461 39.576C270.631 39.6187 270.802 39.64 270.973 39.64C271.442 39.64 271.815 39.4533 272.093 39.08C272.37 38.7067 272.573 38.1413 272.701 37.384C272.839 36.6267 272.93 35.672 272.973 34.52L273.149 29.8H281.037V41H279.469V30.776L279.853 31.192H274.173L274.525 30.76L274.397 34.472C274.365 35.5813 274.29 36.552 274.173 37.384C274.055 38.216 273.879 38.9093 273.645 39.464C273.41 40.0187 273.106 40.4347 272.733 40.712C272.37 40.9893 271.911 41.128 271.357 41.128ZM282.973 41L288.045 29.8H289.629L294.717 41H293.037L288.509 30.696H289.149L284.621 41H282.973ZM285.133 38.2L285.565 36.92H291.869L292.333 38.2H285.133ZM300.947 41V29.8H302.531V38.44L309.155 29.8H310.627V41H309.059V32.376L302.419 41H300.947ZM149.744 61V49.8H151.056L156.08 58.264H155.376L160.336 49.8H161.648L161.664 61H160.128L160.112 52.216H160.48L156.064 59.64H155.328L150.88 52.216H151.28V61H149.744ZM166.606 54.632H172.366V55.992H166.606V54.632ZM166.75 59.608H173.278V61H165.15V49.8H173.054V51.192H166.75V59.608ZM178.079 61V50.776L178.479 51.192H174.255V49.8H183.487V51.192H179.263L179.647 50.776V61H178.079ZM183.317 61L188.389 49.8H189.973L195.061 61H193.381L188.853 50.696H189.493L184.965 61H183.317ZM185.477 58.2L185.909 56.92H192.213L192.677 58.2H185.477ZM196.466 61.128C196.306 61.128 196.146 61.1173 195.986 61.096C195.826 61.0747 195.65 61.0427 195.458 61L195.57 59.576C195.741 59.6187 195.911 59.64 196.082 59.64C196.551 59.64 196.925 59.4533 197.202 59.08C197.479 58.7067 197.682 58.1413 197.81 57.384C197.949 56.6267 198.039 55.672 198.082 54.52L198.258 49.8H206.146V61H204.578V50.776L204.962 51.192H199.282L199.634 50.76L199.506 54.472C199.474 55.5813 199.399 56.552 199.282 57.384C199.165 58.216 198.989 58.9093 198.754 59.464C198.519 60.0187 198.215 60.4347 197.842 60.712C197.479 60.9893 197.021 61.128 196.466 61.128ZM208.966 61.128C208.806 61.128 208.646 61.1173 208.486 61.096C208.326 61.0747 208.15 61.0427 207.958 61L208.07 59.576C208.241 59.6187 208.411 59.64 208.582 59.64C209.051 59.64 209.425 59.4533 209.702 59.08C209.979 58.7067 210.182 58.1413 210.31 57.384C210.449 56.6267 210.539 55.672 210.582 54.52L210.758 49.8H218.646V61H217.078V50.776L217.462 51.192H211.782L212.134 50.76L212.006 54.472C211.974 55.5813 211.899 56.552 211.782 57.384C211.665 58.216 211.489 58.9093 211.254 59.464C211.019 60.0187 210.715 60.4347 210.342 60.712C209.979 60.9893 209.521 61.128 208.966 61.128ZM227.175 61.128C226.321 61.128 225.527 60.984 224.791 60.696C224.065 60.408 223.436 60.008 222.903 59.496C222.369 58.9733 221.953 58.3653 221.655 57.672C221.356 56.9787 221.207 56.2213 221.207 55.4C221.207 54.5787 221.356 53.8213 221.655 53.128C221.953 52.4347 222.369 51.832 222.903 51.32C223.436 50.7973 224.065 50.392 224.791 50.104C225.516 49.816 226.311 49.672 227.175 49.672C228.028 49.672 228.812 49.816 229.527 50.104C230.252 50.3813 230.881 50.7813 231.415 51.304C231.959 51.816 232.375 52.4187 232.663 53.112C232.961 53.8053 233.111 54.568 233.111 55.4C233.111 56.232 232.961 56.9947 232.663 57.688C232.375 58.3813 231.959 58.9893 231.415 59.512C230.881 60.024 230.252 60.424 229.527 60.712C228.812 60.9893 228.028 61.128 227.175 61.128ZM227.175 59.704C227.793 59.704 228.364 59.5973 228.887 59.384C229.42 59.1707 229.879 58.872 230.263 58.488C230.657 58.0933 230.961 57.6347 231.175 57.112C231.399 56.5893 231.511 56.0187 231.511 55.4C231.511 54.7813 231.399 54.2107 231.175 53.688C230.961 53.1653 230.657 52.712 230.263 52.328C229.879 51.9333 229.42 51.6293 228.887 51.416C228.364 51.2027 227.793 51.096 227.175 51.096C226.545 51.096 225.964 51.2027 225.431 51.416C224.908 51.6293 224.449 51.9333 224.055 52.328C223.66 52.712 223.351 53.1653 223.127 53.688C222.913 54.2107 222.807 54.7813 222.807 55.4C222.807 56.0187 222.913 56.5893 223.127 57.112C223.351 57.6347 223.66 58.0933 224.055 58.488C224.449 58.872 224.908 59.1707 225.431 59.384C225.964 59.5973 226.545 59.704 227.175 59.704ZM240.737 61.128C239.884 61.128 239.089 60.984 238.353 60.696C237.628 60.408 236.998 60.008 236.465 59.496C235.932 58.9733 235.516 58.3653 235.217 57.672C234.918 56.9787 234.769 56.2213 234.769 55.4C234.769 54.5787 234.918 53.8213 235.217 53.128C235.516 52.4347 235.932 51.832 236.465 51.32C236.998 50.7973 237.628 50.392 238.353 50.104C239.078 49.816 239.873 49.672 240.737 49.672C241.59 49.672 242.374 49.816 243.089 50.104C243.814 50.3813 244.444 50.7813 244.977 51.304C245.521 51.816 245.937 52.4187 246.225 53.112C246.524 53.8053 246.673 54.568 246.673 55.4C246.673 56.232 246.524 56.9947 246.225 57.688C245.937 58.3813 245.521 58.9893 244.977 59.512C244.444 60.024 243.814 60.424 243.089 60.712C242.374 60.9893 241.59 61.128 240.737 61.128ZM240.737 59.704C241.356 59.704 241.926 59.5973 242.449 59.384C242.982 59.1707 243.441 58.872 243.825 58.488C244.22 58.0933 244.524 57.6347 244.737 57.112C244.961 56.5893 245.073 56.0187 245.073 55.4C245.073 54.7813 244.961 54.2107 244.737 53.688C244.524 53.1653 244.22 52.712 243.825 52.328C243.441 51.9333 242.982 51.6293 242.449 51.416C241.926 51.2027 241.356 51.096 240.737 51.096C240.108 51.096 239.526 51.2027 238.993 51.416C238.47 51.6293 238.012 51.9333 237.617 52.328C237.222 52.712 236.913 53.1653 236.689 53.688C236.476 54.2107 236.369 54.7813 236.369 55.4C236.369 56.0187 236.476 56.5893 236.689 57.112C236.913 57.6347 237.222 58.0933 237.617 58.488C238.012 58.872 238.47 59.1707 238.993 59.384C239.526 59.5973 240.108 59.704 240.737 59.704ZM249.26 61V49.8H257.708V51.16H250.844V54.36H254.332C255.665 54.36 256.678 54.6373 257.372 55.192C258.065 55.7467 258.412 56.552 258.412 57.608C258.412 58.696 258.033 59.5333 257.276 60.12C256.529 60.7067 255.457 61 254.06 61H249.26ZM250.844 59.736H253.996C254.924 59.736 255.622 59.56 256.092 59.208C256.572 58.856 256.812 58.3333 256.812 57.64C256.812 56.296 255.873 55.624 253.996 55.624H250.844V59.736ZM260.963 61V49.8H265.331C266.312 49.8 267.149 49.9547 267.843 50.264C268.536 50.5733 269.069 51.0213 269.443 51.608C269.816 52.1947 270.003 52.8933 270.003 53.704C270.003 54.5147 269.816 55.2133 269.443 55.8C269.069 56.376 268.536 56.824 267.843 57.144C267.149 57.4533 266.312 57.608 265.331 57.608H261.843L262.563 56.856V61H260.963ZM262.563 57.016L261.843 56.216H265.283C266.307 56.216 267.08 55.9973 267.603 55.56C268.136 55.1227 268.403 54.504 268.403 53.704C268.403 52.904 268.136 52.2853 267.603 51.848C267.08 51.4107 266.307 51.192 265.283 51.192H261.843L262.563 50.392V57.016ZM270.114 61L275.186 49.8H276.77L281.858 61H280.178L275.65 50.696H276.29L271.762 61H270.114ZM272.274 58.2L272.706 56.92H279.01L279.474 58.2H272.274ZM283.791 61V49.8H292.239V51.16H285.375V54.36H288.863C290.196 54.36 291.21 54.6373 291.903 55.192C292.596 55.7467 292.943 56.552 292.943 57.608C292.943 58.696 292.564 59.5333 291.807 60.12C291.06 60.7067 289.988 61 288.591 61H283.791ZM285.375 59.736H288.527C289.455 59.736 290.154 59.56 290.623 59.208C291.103 58.856 291.343 58.3333 291.343 57.64C291.343 56.296 290.404 55.624 288.527 55.624H285.375V59.736ZM300.534 61.128C299.681 61.128 298.886 60.984 298.15 60.696C297.425 60.408 296.795 60.008 296.262 59.496C295.729 58.9733 295.313 58.3653 295.014 57.672C294.715 56.9787 294.566 56.2213 294.566 55.4C294.566 54.5787 294.715 53.8213 295.014 53.128C295.313 52.4347 295.729 51.832 296.262 51.32C296.795 50.7973 297.425 50.392 298.15 50.104C298.875 49.816 299.67 49.672 300.534 49.672C301.387 49.672 302.171 49.816 302.886 50.104C303.611 50.3813 304.241 50.7813 304.774 51.304C305.318 51.816 305.734 52.4187 306.022 53.112C306.321 53.8053 306.47 54.568 306.47 55.4C306.47 56.232 306.321 56.9947 306.022 57.688C305.734 58.3813 305.318 58.9893 304.774 59.512C304.241 60.024 303.611 60.424 302.886 60.712C302.171 60.9893 301.387 61.128 300.534 61.128ZM300.534 59.704C301.153 59.704 301.723 59.5973 302.246 59.384C302.779 59.1707 303.238 58.872 303.622 58.488C304.017 58.0933 304.321 57.6347 304.534 57.112C304.758 56.5893 304.87 56.0187 304.87 55.4C304.87 54.7813 304.758 54.2107 304.534 53.688C304.321 53.1653 304.017 52.712 303.622 52.328C303.238 51.9333 302.779 51.6293 302.246 51.416C301.723 51.2027 301.153 51.096 300.534 51.096C299.905 51.096 299.323 51.2027 298.79 51.416C298.267 51.6293 297.809 51.9333 297.414 52.328C297.019 52.712 296.71 53.1653 296.486 53.688C296.273 54.2107 296.166 54.7813 296.166 55.4C296.166 56.0187 296.273 56.5893 296.486 57.112C296.71 57.6347 297.019 58.0933 297.414 58.488C297.809 58.872 298.267 59.1707 298.79 59.384C299.323 59.5973 299.905 59.704 300.534 59.704ZM311.188 61V50.776L311.588 51.192H307.364V49.8H316.596V51.192H312.372L312.756 50.776V61H311.188ZM326.077 61L322.013 55.48L323.309 54.68L327.901 61H326.077ZM318.541 61V49.8H320.109V61H318.541ZM319.629 56.072V54.664H323.261V56.072H319.629ZM323.453 55.576L321.981 55.352L325.997 49.8H327.709L323.453 55.576ZM329.541 61V49.8H331.125V58.44L337.749 49.8H339.221V61H337.653V52.376L331.013 61H329.541Z" fill="#3A3A3A"/>
<path d="M0 0.403154H18.9833V4.73742H5.40951V9.57575H11.9276C14.7723 9.57575 16.9395 10.1693 18.4291 11.3564C19.9186 12.5436 20.6634 14.2571 20.6634 16.497C20.6634 18.8489 19.8346 20.6745 18.177 21.9736C16.5194 23.2728 14.1787 23.9224 11.1549 23.9224H0V0.403154ZM10.8525 19.8905C12.2412 19.8905 13.3052 19.6161 14.0444 19.0673C14.7836 18.5185 15.1531 17.7178 15.1531 16.665C15.1531 14.6043 13.7196 13.574 10.8525 13.574H5.40951V19.8905H10.8525ZM34.674 13.0028H30.239V4.83817H34.674C36.3091 4.83817 37.5523 5.19101 38.4034 5.89667C39.2546 6.60223 39.6802 7.61578 39.6802 8.93731C39.6802 10.2364 39.2546 11.2388 38.4034 11.9445C37.5523 12.65 36.3091 13.0028 34.674 13.0028ZM34.9764 0.403154H24.796V23.9224H30.239V17.4378H34.9764C37.0595 17.4378 38.8682 17.0962 40.4026 16.413C41.9369 15.7298 43.1185 14.7443 43.9473 13.4563C44.7761 12.1684 45.1904 10.662 45.1904 8.93731C45.1904 7.19015 44.7761 5.67817 43.9473 4.40138C43.1185 3.1247 41.9369 2.13916 40.4026 1.44476C38.8682 0.750355 37.0595 0.403154 34.9764 0.403154ZM60.3436 19.6889C58.9548 19.6889 57.7004 19.3697 56.5805 18.7313C55.4605 18.0929 54.5814 17.2025 53.943 16.0602C53.3046 14.9178 52.9854 13.6187 52.9854 12.1629C52.9854 10.7069 53.3046 9.40773 53.943 8.26538C54.5814 7.12303 55.4605 6.23266 56.5805 5.59427C57.7004 4.95587 58.9548 4.63667 60.3436 4.63667C61.7323 4.63667 62.9866 4.95587 64.1067 5.59427C65.2266 6.23266 66.1057 7.12303 66.7441 8.26538C67.3825 9.40773 67.7017 10.7069 67.7017 12.1629C67.7017 13.6187 67.3825 14.9178 66.7441 16.0602C66.1057 17.2025 65.2266 18.0929 64.1067 18.7313C62.9866 19.3697 61.7323 19.6889 60.3436 19.6889ZM60.3436 24.3256C62.785 24.3256 64.9801 23.7992 66.9289 22.7464C68.8777 21.6937 70.412 20.2433 71.5319 18.3954C72.6519 16.5474 73.2118 14.4699 73.2118 12.1629C73.2118 9.85574 72.6519 7.77817 71.5319 5.93015C70.412 4.08224 68.8777 2.6319 66.9289 1.57914C64.9801 0.526381 62.785 0 60.3436 0C57.902 0 55.7013 0.526381 53.7413 1.57914C51.7814 2.6319 50.2471 4.08224 49.1383 5.93015C48.0295 7.77817 47.4751 9.85574 47.4751 12.1629C47.4751 14.4699 48.0295 16.5474 49.1383 18.3954C50.2471 20.2433 51.7814 21.6937 53.7413 22.7464C55.7013 23.7992 57.902 24.3256 60.3436 24.3256ZM92.6319 23.9224H98.8141L90.8848 11.7595L98.579 0.403154H92.8336L86.6514 9.91164H82.7539V0.403154H77.3444V23.9224H82.7539V14.4476H86.517L92.6319 23.9224Z" fill="#003B81"/>
<path d="M0 27H143V61H0V27Z" fill="#003B81"/>
<path d="M30.4663 56.566C28.0696 56.566 25.9025 56.0452 23.965 55.0036C22.0274 53.962 20.5042 52.5172 19.3956 50.6693C18.2868 48.8214 17.7324 46.7327 17.7324 44.4032C17.7324 42.0736 18.2868 39.9849 19.3956 38.137C20.5042 36.289 22.0274 34.8443 23.965 33.8027C25.9025 32.7612 28.0808 32.2404 30.4999 32.2404C32.5383 32.2404 34.3806 32.5988 36.0269 33.3155C37.6732 34.0323 39.0564 35.0627 40.1764 36.4067L36.6821 39.6321C35.0917 37.7953 33.1206 36.877 30.7687 36.877C29.3127 36.877 28.0136 37.1962 26.8712 37.8346C25.7289 38.4729 24.8385 39.3633 24.2001 40.5057C23.5617 41.648 23.2425 42.9472 23.2425 44.4032C23.2425 45.8591 23.5617 47.1583 24.2001 48.3006C24.8385 49.443 25.7289 50.3333 26.8712 50.9717C28.0136 51.6101 29.3127 51.9293 30.7687 51.9293C33.1206 51.9293 35.0917 50.9997 36.6821 49.1406L40.1764 52.3661C39.0564 53.7325 37.6677 54.7741 36.0102 55.4908C34.3526 56.2076 32.5047 56.566 30.4663 56.566ZM61.4781 32.6436H41.0835V37.0786H48.576V56.1627H53.9519V37.0786H61.4781V32.6436ZM70.4825 46.9903L74.212 37.9858L77.9414 46.9903H70.4825ZM81.7382 56.1627H87.4499L76.9335 32.6436H71.5576L61.0748 56.1627H66.6522L68.7354 51.1229H79.655L81.7382 56.1627ZM93.6656 32.6436L93.3297 42.1857C93.1953 45.4559 92.8705 47.8582 92.3554 49.3926C91.8401 50.9269 90.9329 51.694 89.6337 51.694C89.2754 51.694 88.9506 51.6492 88.6594 51.5597L88.3235 56.1627C89.3763 56.4091 90.2722 56.5324 91.0114 56.5324C92.8033 56.5324 94.1976 55.978 95.1943 54.8692C96.1911 53.7605 96.9023 52.1701 97.3279 50.0982C97.7534 48.0262 98.0222 45.3215 98.1342 41.9841L98.3022 37.0786H106.366V56.1627H111.742V32.6436H93.6656ZM127.936 52.1308H123.031V44.4032H127.936C130.938 44.4032 132.439 45.6239 132.439 48.0655C132.439 49.387 132.041 50.395 131.246 51.0894C130.451 51.7837 129.348 52.1308 127.936 52.1308ZM129.012 40.3713H123.031V32.6436H117.622V56.1627H128.239C131.308 56.1627 133.687 55.4627 135.379 54.0628C137.07 52.6629 137.915 50.6302 137.915 47.9646C137.915 45.456 137.148 43.5633 135.614 42.2865C134.079 41.0097 131.879 40.3713 129.012 40.3713Z" fill="white"/>
</svg>
