<svg width="47" height="47" viewBox="0 0 47 47" fill="none" xmlns="http://www.w3.org/2000/svg">
<rect x="0.696594" y="0.966797" width="45.5586" height="45.5586" rx="17.7627" fill="white"/>
<path d="M35.5035 18.6971C35.2045 19.6125 34.8014 20.4092 34.2965 21.1327L34.3175 21.1004C33.8214 21.9054 33.229 22.8355 32.5402 23.8907C31.9497 24.7238 31.637 25.1551 31.6023 25.1845C31.4495 25.3711 31.3432 25.5996 31.3067 25.8509L31.3056 25.8584C31.3355 26.087 31.444 26.2864 31.6023 26.4352L32.0453 26.9161C34.415 29.2874 35.7478 30.9219 36.0438 31.8197C36.0826 31.9189 36.1047 32.0332 36.1047 32.1529C36.1047 32.362 36.0361 32.555 35.9198 32.7135L35.922 32.7103C35.7271 32.9054 35.4547 33.0262 35.1535 33.0262C35.1203 33.0262 35.086 33.0251 35.0539 33.0219H35.0583H32.1449C32.1438 33.0219 32.1416 33.0219 32.1394 33.0219C31.7662 33.0219 31.423 32.8947 31.1539 32.6833L31.1572 32.6855C30.7652 32.3717 30.4164 32.0321 30.1041 31.6634L30.0942 31.6504C29.584 31.0891 29.1315 30.6165 28.7366 30.2326C27.4211 29.015 26.4503 28.4062 25.8243 28.4062C25.8011 28.404 25.7745 28.4029 25.7468 28.4029C25.5641 28.4029 25.3936 28.4579 25.2529 28.5517L25.2562 28.5496C25.1411 28.6897 25.0713 28.8709 25.0713 29.066C25.0713 29.1048 25.0735 29.1415 25.0791 29.1792V29.1749C25.0492 29.5135 25.0315 29.907 25.0315 30.3049C25.0315 30.4332 25.0337 30.5604 25.037 30.6876V30.6693V31.9189C25.0481 31.9696 25.0547 32.0278 25.0547 32.0871C25.0547 32.348 24.9329 32.5809 24.7424 32.7351L24.7413 32.7362C24.3128 32.927 23.8123 33.0391 23.2841 33.0391C23.1711 33.0391 23.0604 33.0337 22.9508 33.024L22.9652 33.0251C21.2222 32.9928 19.6055 32.4957 18.2314 31.658L18.2701 31.6795C16.5969 30.6898 15.2106 29.4013 14.1542 27.8789L14.1243 27.8336C13.121 26.5377 12.1853 25.0735 11.3881 23.5295L11.3106 23.3635C10.8444 22.4988 10.3616 21.4357 9.94522 20.3424L9.87878 20.1429C9.70936 19.6513 9.58645 19.0798 9.53551 18.4879L9.53329 18.461C9.53329 17.9161 9.86254 17.6437 10.521 17.6437H13.4333C13.4599 17.6415 13.4909 17.6405 13.523 17.6405C13.7976 17.6405 14.0512 17.7321 14.2516 17.8863L14.2494 17.8841C14.4709 18.1203 14.6348 18.4103 14.7156 18.7337L14.7189 18.7467C15.2549 20.2206 15.8229 21.4583 16.4762 22.6443L16.4021 22.4966C16.9358 23.5425 17.526 24.4427 18.1992 25.274L18.1738 25.2406C18.7643 25.9465 19.225 26.2994 19.5557 26.2994C19.5657 26.3005 19.5779 26.3005 19.5912 26.3005C19.755 26.3005 19.8979 26.2142 19.9754 26.0848L19.9765 26.0827C20.0584 25.8778 20.1061 25.6395 20.1061 25.3916C20.1061 25.3387 20.1038 25.2859 20.0994 25.2341V25.2406V21.0583C20.0762 20.5656 19.9521 20.1052 19.7451 19.6923L19.7539 19.7127C19.6166 19.4281 19.4516 19.1823 19.2556 18.9634L19.259 18.9677C19.0774 18.7909 18.9533 18.5591 18.9146 18.3003L18.9135 18.2938C18.9135 18.1106 18.9998 17.9456 19.1349 17.8378L19.136 17.8367C19.27 17.717 19.4494 17.6448 19.6454 17.6448H19.6543H24.2453C24.2696 17.6415 24.2973 17.6405 24.3261 17.6405C24.542 17.6405 24.7358 17.7353 24.8642 17.8841L24.8654 17.8852C24.9794 18.0879 25.047 18.3305 25.047 18.5871C25.047 18.6281 25.0447 18.668 25.0414 18.7079V18.7025V24.2799C25.0392 24.3058 25.0381 24.336 25.0381 24.3662C25.0381 24.5646 25.0946 24.7511 25.192 24.9096L25.1898 24.9053C25.2706 25.0217 25.4057 25.0972 25.5585 25.0972C25.7534 25.0843 25.9317 25.0217 26.0812 24.9225L26.0779 24.9247C26.3791 24.7231 26.6382 24.4934 26.863 24.2336L26.8674 24.2282C27.5396 23.4886 28.1597 22.6713 28.7 21.8023L28.7432 21.7268C29.1241 21.1122 29.5361 20.3553 29.9092 19.578L29.9779 19.4195L30.4718 18.4577C30.6434 17.9769 31.104 17.6383 31.6455 17.6383C31.6666 17.6383 31.6876 17.6383 31.7086 17.6394H31.7053H34.6187C35.4056 17.6394 35.7009 17.992 35.5046 18.6971H35.5035Z" fill="#003B81"/>
</svg>
