<svg width="46" height="47" viewBox="0 0 46 47" fill="none" xmlns="http://www.w3.org/2000/svg">
<rect x="0.441376" y="0.966797" width="45.5586" height="45.5586" rx="17.7627" fill="white"/>
<path d="M22.6257 11.2416C15.6071 11.5758 10.0684 17.4209 10.0897 24.4475C10.0961 26.5877 10.6128 28.6077 11.5242 30.3925L10.1249 37.1852C10.0492 37.5526 10.3806 37.8743 10.7456 37.7879L17.4016 36.2109C19.1116 37.0627 21.0323 37.5547 23.0651 37.5858C30.2389 37.6953 36.2205 31.9992 36.4441 24.8281C36.6838 17.1412 30.3395 10.8742 22.6257 11.2416ZM30.5678 31.7044C28.6185 33.6537 26.0268 34.7272 23.2702 34.7272C21.656 34.7272 20.1107 34.365 18.6769 33.6508L17.7499 33.1891L13.6691 34.1559L14.5281 29.9861L14.0714 29.0918C13.3271 27.6341 12.9497 26.0578 12.9497 24.4067C12.9497 21.65 14.0232 19.0584 15.9725 17.1091C17.9043 15.1772 20.5383 14.0862 23.2703 14.0862C26.027 14.0863 28.6186 15.1598 30.5678 17.109C32.5171 19.0583 33.5906 21.6499 33.5907 24.4065C33.5906 27.1387 32.4996 29.7726 30.5678 31.7044Z" fill="#003B81"/>
<path d="M29.6672 27.2652L27.1141 26.5321C26.7785 26.4358 26.417 26.531 26.1724 26.7802L25.5481 27.4163C25.2848 27.6845 24.8854 27.7707 24.537 27.6297C23.3292 27.1409 20.7887 24.8821 20.1399 23.7522C19.9527 23.4263 19.9836 23.0188 20.2135 22.7214L20.7585 22.0162C20.9721 21.74 21.0172 21.3689 20.8759 21.0495L19.8018 18.6201C19.5445 18.0383 18.801 17.8689 18.3152 18.2797C17.6026 18.8824 16.7572 19.7982 16.6544 20.8128C16.4732 22.6015 17.2404 24.8565 20.1413 27.564C23.4928 30.6921 26.1766 31.1053 27.924 30.682C28.9151 30.4419 29.7071 29.4796 30.207 28.6916C30.5478 28.1543 30.2787 27.4408 29.6672 27.2652Z" fill="#003B81"/>
</svg>
