<svg width="20" height="20" viewBox="0 0 20 20" fill="none" xmlns="http://www.w3.org/2000/svg">
<path fill-rule="evenodd" clip-rule="evenodd" d="M10.6182 15.3363L12.6567 13.2978C12.9994 12.9552 13.5384 12.9075 13.9359 13.1847L16.6213 15.0576C17.1297 15.4122 17.1941 16.1402 16.7557 16.5785C16.0485 17.2858 15.0328 17.5929 14.085 17.2732C12.3233 16.6791 9.36123 15.3947 6.88569 12.9191C4.41015 10.4436 3.12572 7.48154 2.53158 5.71985C2.21194 4.77207 2.51906 3.75636 3.22633 3.04909C3.66465 2.61077 4.39262 2.67514 4.74722 3.18358L6.62011 5.86893C6.89733 6.2664 6.84967 6.80544 6.50701 7.14809L4.46851 9.1866" fill="#003B81"/>
<path d="M10.6182 15.3363L12.6567 13.2978C12.9994 12.9552 13.5384 12.9075 13.9359 13.1847L16.6213 15.0576C17.1297 15.4122 17.1941 16.1402 16.7557 16.5785V16.5785C16.0485 17.2858 15.0328 17.5929 14.085 17.2732C12.3233 16.6791 9.36123 15.3947 6.88569 12.9191C4.41015 10.4436 3.12572 7.48154 2.53158 5.71985C2.21194 4.77207 2.51906 3.75636 3.22633 3.04909V3.04909C3.66465 2.61077 4.39262 2.67514 4.74722 3.18358L6.62011 5.86893C6.89733 6.2664 6.84967 6.80544 6.50701 7.14809L4.46851 9.1866" stroke="#003B81" stroke-linecap="round"/>
</svg>
