<svg width="31" height="31" viewBox="0 0 31 31" fill="none" xmlns="http://www.w3.org/2000/svg">
<path d="M20.6667 10.3334L10.3334 14.2084" stroke="#3A3A3A" stroke-linecap="round"/>
<path d="M20.6667 20.6666L10.3334 16.7916" stroke="#3A3A3A" stroke-linecap="round"/>
<path fill-rule="evenodd" clip-rule="evenodd" d="M7.74996 18.0833C9.17669 18.0833 10.3333 16.9267 10.3333 15.5C10.3333 14.0732 9.17669 12.9166 7.74996 12.9166C6.32322 12.9166 5.16663 14.0732 5.16663 15.5C5.16663 16.9267 6.32322 18.0833 7.74996 18.0833Z" stroke="#3A3A3A"/>
<path fill-rule="evenodd" clip-rule="evenodd" d="M23.25 11.625C24.6767 11.625 25.8333 10.4684 25.8333 9.04171C25.8333 7.61497 24.6767 6.45837 23.25 6.45837C21.8232 6.45837 20.6666 7.61497 20.6666 9.04171C20.6666 10.4684 21.8232 11.625 23.25 11.625Z" stroke="#3A3A3A"/>
<path fill-rule="evenodd" clip-rule="evenodd" d="M23.25 24.5417C24.6767 24.5417 25.8333 23.3851 25.8333 21.9583C25.8333 20.5316 24.6767 19.375 23.25 19.375C21.8232 19.375 20.6666 20.5316 20.6666 21.9583C20.6666 23.3851 21.8232 24.5417 23.25 24.5417Z" stroke="#3A3A3A"/>
</svg>
