<svg xmlns="http://www.w3.org/2000/svg" display="none">
    <symbol id="pipe" viewBox="0 0 123 80">
        <path
                d="M95.977 25.8363C97.9146 25.1299 99.9138 24.4061 101.974 23.6649C102.584 23.4459 103.18 23.4495 103.762 23.6758C106.948 24.9203 110.132 26.1823 113.312 27.4616C114.435 27.9141 114.997 28.7968 114.998 30.1095C115.001 33.9286 115 37.6781 114.996 41.358C114.995 42.0093 114.688 42.4742 114.077 42.7527C92.4089 52.632 71.239 62.2901 50.5674 71.727C49.6587 72.1419 48.6958 72.0839 47.6786 71.553C44.2783 69.7805 40.9594 68.0406 37.7217 66.3334C36.772 65.833 36.1616 65.0809 35.8904 64.0771C35.7966 63.7319 35.7526 63.2467 35.7585 62.6216C35.7805 60.4951 35.7841 58.3796 35.7695 56.2749C35.768 56.1792 35.7226 56.1487 35.6332 56.1835C33.0214 57.2018 30.1824 58.31 27.1163 59.5081C26.3747 59.7967 25.6001 59.878 24.7925 59.7518C24.3147 59.6763 23.5628 59.3688 22.5369 58.8293C18.7027 56.8145 14.5916 54.6518 10.2034 52.3412C9.35625 51.8959 8.71942 51.1757 8.29291 50.1807C8.09798 49.7281 8.00052 49.1523 8.00052 48.4531C7.99759 39.1105 8.00711 33.2469 8.0291 30.8623C8.03569 29.8941 8.4644 28.308 9.55264 27.9946C35.1825 20.6551 58.3369 14.0257 79.0157 8.10619C79.7303 7.90385 80.5217 8.00611 81.2054 8.28243C85.5042 10.0085 89.6388 11.6548 93.6092 13.2214C95.0881 13.8045 95.829 14.9141 95.8319 16.5502C95.8407 19.6238 95.8436 22.688 95.8407 25.7428C95.8407 25.8399 95.8861 25.8711 95.977 25.8363ZM93.2795 14.0612C89.287 12.4686 85.0044 10.7889 80.8998 9.17666C80.2931 8.9395 79.7852 8.83724 79.1938 9.00695C56.9203 15.3833 34.6131 21.7691 12.2722 28.1644C12.1315 28.205 12.1278 28.2543 12.2612 28.3123C16.8106 30.3009 21.4178 32.3077 26.083 34.3326C27.1976 34.8178 28.1474 35.4553 28.7476 36.5061C28.7647 36.5361 28.7918 36.5593 28.8243 36.5716C28.8568 36.5839 28.8927 36.5846 28.9256 36.5736L94.0885 14.8466C94.1603 14.822 94.1728 14.7806 94.1259 14.7226C93.8826 14.4093 93.6005 14.1888 93.2795 14.0612ZM29.2686 57.6826L35.7717 55.1435C35.8508 55.1116 35.8904 55.0536 35.8904 54.9695C35.8904 53.4189 35.8919 51.7886 35.8948 50.0784C35.8963 49.1994 36.0758 48.4749 36.4334 47.9049C36.805 47.3109 37.381 47.3392 37.9636 47.1259C56.9115 40.1665 75.8668 33.2113 94.8294 26.2606C94.8983 26.2345 94.9327 26.1852 94.9327 26.1126C94.9357 22.7794 94.9335 19.4962 94.9261 16.263C94.9261 16.0034 94.8902 15.743 94.8184 15.482C94.8134 15.4626 94.8044 15.4444 94.792 15.4286C94.7796 15.4128 94.7641 15.3997 94.7463 15.3901C94.7286 15.3806 94.7091 15.3747 94.6889 15.3729C94.6688 15.3711 94.6485 15.3734 94.6293 15.3797L29.2994 37.1676C29.2334 37.1908 29.2122 37.2343 29.2356 37.2981C29.4687 37.932 29.5866 38.5847 29.5896 39.2563C29.6072 44.4926 29.6079 49.8608 29.5918 55.3611C29.5903 56.1661 29.4423 56.8986 29.1477 57.5586C29.0861 57.6964 29.1264 57.7378 29.2686 57.6826ZM50.2047 52.3738C50.898 52.6755 51.4761 53.1701 51.9393 53.8577C51.9789 53.9157 52.0316 53.9317 52.0976 53.9055L113.222 28.7148C113.483 28.6075 113.482 28.5016 113.22 28.3972C109.847 27.0525 106.544 25.7493 103.311 24.4874C102.974 24.3554 102.641 24.3496 102.311 24.4699C81.3681 32.1329 60.3961 39.8096 39.3948 47.5002C39.2292 47.5611 39.2277 47.6264 39.3904 47.696C42.9798 49.2408 46.5845 50.8 50.2047 52.3738ZM25.5004 35.0353C20.7693 33.0184 16.0601 30.9123 11.307 28.9063C9.38996 28.0969 8.94586 29.9833 8.94367 31.3257C8.93487 37.0943 8.9334 42.802 8.93927 48.4488C8.94073 49.9442 9.6655 51.0706 11.1136 51.8277C15.5677 54.1543 19.7939 56.362 23.7922 58.4507C25.2461 59.2107 26.5586 59.0737 27.7297 58.0395C28.4398 57.4128 28.7146 56.4664 28.7102 55.5286C28.6897 50.3997 28.6926 45.2098 28.719 39.959C28.7234 39.1598 28.6552 38.5078 28.5145 38.0031C28.0836 36.4692 27.0613 35.6989 25.5004 35.0353ZM113.804 29.2479L52.4757 54.4973C52.3863 54.5336 52.3585 54.5974 52.3922 54.6888C52.5593 55.1414 52.6406 55.6505 52.6406 56.1292C52.6391 60.1108 52.6406 64.2577 52.645 68.57C52.645 68.9856 52.5549 69.4186 52.4603 69.8233C52.4582 69.8335 52.459 69.844 52.4625 69.8538C52.4661 69.8636 52.4723 69.8722 52.4805 69.8787C52.4887 69.8852 52.4985 69.8894 52.5089 69.8907C52.5193 69.8921 52.5299 69.8906 52.5395 69.8864L113.87 41.878C113.985 41.8253 114.083 41.7414 114.151 41.6361C114.219 41.5309 114.255 41.4087 114.255 41.2841L114.273 29.5568C114.273 29.5018 114.259 29.4476 114.233 29.399C114.206 29.3505 114.168 29.3091 114.122 29.2786C114.076 29.248 114.022 29.2292 113.967 29.2239C113.912 29.2185 113.856 29.2268 113.804 29.2479ZM48.6987 52.6806C45.5535 51.3128 42.2235 49.8674 38.7089 48.3444C38.2853 48.1601 37.9577 48.0811 37.7261 48.1072C36.9149 48.1986 36.7566 49.2952 36.7566 49.9588C36.7537 54.023 36.7529 58.5007 36.7544 63.3918C36.7544 64.2577 37.2315 65.0214 38.0405 65.4435C41.2899 67.1362 44.5678 68.8565 47.8743 70.6044C48.2832 70.8219 49.1274 71.1374 49.51 71.0678C50.9859 70.8082 51.7209 69.9212 51.7151 68.4069C51.696 64.2497 51.6982 60.221 51.7216 56.3206C51.7246 55.7781 51.6322 55.2683 51.4446 54.7911C50.9522 53.5313 49.8419 53.1788 48.6987 52.6806Z"
                fill="#003B81"/>
        <path
                d="M22.9901 55.2457C19.7119 53.661 16.2941 52.0445 12.7369 50.3962C11.5125 49.8294 11.0033 49.0987 11.0011 47.797C10.9996 42.697 10.9996 37.8945 11.0011 33.3896C11.0011 32.3101 12.0971 31.708 13.1266 32.1419C16.5554 33.5868 20.0978 35.0469 23.7539 36.5223C25.7532 37.3278 26.9909 38.2578 26.9931 40.3504C27.0005 45.146 27.0019 49.7353 26.9975 54.1185C26.9975 54.7759 26.7222 55.3191 26.1717 55.7481C25.3392 56.3979 23.7872 55.6298 22.9901 55.2457ZM24.396 37.5665C20.4905 35.9514 16.5672 34.3674 12.655 32.7606C12.5516 32.7182 12.4386 32.7006 12.3261 32.7094C12.2137 32.7182 12.1053 32.7531 12.0108 32.811C11.9164 32.8689 11.8388 32.9479 11.785 33.0409C11.7313 33.134 11.7031 33.2381 11.703 33.3439L11.7074 48.2164C11.7074 48.4115 11.8055 48.4759 12.0019 48.4094L26.2315 43.5807C26.2512 43.5734 26.2681 43.5609 26.2803 43.5446C26.2925 43.5284 26.2994 43.5092 26.3001 43.4893C26.3193 42.6908 26.3237 41.8251 26.3134 40.8923C26.2934 39.2605 25.968 38.2142 24.396 37.5665ZM12.655 49.6073C16.5672 51.5401 20.5392 53.3337 24.2543 55.1232C24.61 55.2935 24.9414 55.3834 25.2484 55.3931C26.0433 55.4159 26.2957 54.4963 26.2979 53.8797C26.3156 50.5623 26.3185 47.3922 26.3067 44.3696C26.3067 44.2741 26.2588 44.2429 26.1628 44.2761L12.1878 48.999C12.1022 49.0281 12.083 49.0786 12.1303 49.1506C12.2498 49.3402 12.4247 49.4924 12.655 49.6073Z"
                fill="#003B81"/>
        <path
                d="M47.1513 68.4986C44.4802 67.1534 41.7791 65.8316 39.0844 64.463C38.1797 64.0019 37.9958 63.0583 38.0001 62.136C38.02 58.5063 38.0207 54.9071 38.0022 51.3383C37.9979 50.7263 38.2909 50.2354 38.894 50.0399C39.0765 49.9804 39.2519 49.9875 39.4201 50.0611C42.1063 51.2356 44.8858 52.4356 47.7587 53.6611C49.2857 54.3114 49.9957 55.087 49.9957 56.8169C49.9914 60.4097 49.9929 63.9757 50 67.5147C50.0021 68.3924 49.2771 69.1956 48.3532 68.9576C47.9612 68.857 47.5605 68.704 47.1513 68.4986ZM48.0389 54.5069C45.1966 53.2467 42.2966 51.9992 39.3025 50.7178C39.2233 50.6839 39.1349 50.6774 39.0515 50.6993C38.9681 50.7213 38.8946 50.7705 38.8427 50.8389C38.75 50.9579 38.7044 51.1187 38.7058 51.3213C38.713 55.1423 38.7137 58.9547 38.708 62.7587C38.7081 62.7689 38.7108 62.779 38.7158 62.7879C38.7209 62.7968 38.7281 62.8044 38.7368 62.8099C38.7455 62.8154 38.7554 62.8186 38.7657 62.8193C38.776 62.82 38.7863 62.8182 38.7956 62.8139L49.2194 58.1748C49.2878 58.1451 49.3256 58.0933 49.3327 58.0197C49.4632 56.6639 49.5017 55.155 48.0389 54.5069ZM49.2771 58.8527L39.2768 63.3367C38.9361 63.4897 38.9325 63.6498 39.2661 63.817C41.9908 65.1856 44.9271 66.654 48.0752 68.2223C49.1317 68.7472 49.367 67.8292 49.3691 67.0344C49.3734 64.3624 49.3741 61.655 49.3712 58.9122C49.3712 58.9012 49.3683 58.8903 49.363 58.8807C49.3576 58.871 49.3499 58.8629 49.3405 58.8569C49.3312 58.851 49.3205 58.8475 49.3094 58.8468C49.2983 58.8461 49.2872 58.8481 49.2771 58.8527Z"
                fill="#003B81"/>
    </symbol>
    <symbol id="fittings" viewBox="0 0 123 80">
        <path
                d="M105.751 14.0292C106.338 13.7143 107.438 13.4541 107.99 13.9584C108.063 14.0254 108.13 14.02 108.191 13.9425C108.974 12.9429 110.133 12.0165 111.45 12.6623C111.523 12.6988 111.591 12.6904 111.655 12.6372C112.885 11.6125 114.521 11.0945 115.685 12.5755C117.234 14.5472 117.522 17.354 116.796 19.725C116.584 20.421 115.601 20.6698 114.994 20.9071C114.901 20.9451 114.85 21.0136 114.841 21.1125C114.786 21.6853 114.389 22.4954 113.672 22.0732C113.535 21.9933 113.455 21.845 113.33 21.7583C113.3 21.7373 113.265 21.7244 113.228 21.7208C113.191 21.7172 113.154 21.7231 113.12 21.7377L111.666 22.3585C111.583 22.3934 111.538 22.4566 111.532 22.5479C111.461 23.4356 110.708 24.1201 109.93 23.2553C109.875 23.1944 109.81 23.1807 109.736 23.2142L108.081 23.9581C108.007 23.9916 107.968 24.0494 107.965 24.1316C107.954 24.6321 107.717 25.0177 107.253 25.2885C107.197 25.3208 107.132 25.3314 107.07 25.3182C106.797 25.2589 106.557 25.1174 106.352 24.8937C106.291 24.8268 106.219 24.8124 106.135 24.8504L104.341 25.6537C104.254 25.6932 104.201 25.7586 104.181 25.8499C104.063 26.377 103.93 26.8106 103.396 27.0525C103.326 27.0845 103.253 27.0898 103.177 27.0685C102.87 26.9833 102.603 26.8471 102.376 26.66C102.312 26.6068 102.242 26.5969 102.164 26.6303L100.211 27.4952C100.129 27.5317 100.083 27.5941 100.074 27.6823C100.03 28.0703 99.8601 28.405 99.565 28.6864C99.1154 29.1109 98.554 28.8393 98.1775 28.4993C98.1437 28.4681 98.1013 28.4475 98.0555 28.4402C98.0097 28.4329 97.9624 28.4392 97.9197 28.4582L95.8134 29.3687C95.7327 29.4037 95.6917 29.4653 95.6901 29.5536C95.6765 30.1332 95.0261 31.135 94.2867 30.8543C94.0387 30.7615 93.8174 30.633 93.6227 30.4687C93.5588 30.4154 93.488 30.4055 93.4104 30.439L91.0805 31.4773C91.0075 31.5108 90.9611 31.5655 90.9413 31.6416C90.7017 32.5225 90.2704 33.2413 89.2275 32.9537C88.9834 32.8853 88.8442 32.7552 88.6365 32.6343C88.565 32.5932 88.492 32.5886 88.4174 32.6206L85.8913 33.7091C85.8061 33.7456 85.7574 33.8087 85.7452 33.8985C85.6996 34.2438 85.5809 34.5413 85.3892 34.7908C84.8446 35.4936 84.1349 35.5537 83.2601 34.971C83.1917 34.9254 83.1194 34.9193 83.0433 34.9528L80.2935 36.1531C80.2007 36.1942 80.146 36.2642 80.1292 36.363C79.8988 37.73 78.6459 38.3507 77.4205 37.5337C77.3536 37.4896 77.2828 37.4835 77.2083 37.5155L74.1801 38.8322C74.0873 38.8717 74.034 38.9417 74.0203 39.0421C73.783 40.6418 72.2906 41.1598 70.999 40.2812C70.9427 40.2432 70.8834 40.2379 70.821 40.2653L67.5167 41.6983C67.4375 41.7333 67.3911 41.7934 67.3775 41.8786C67.2268 42.7899 66.7948 43.3657 66.0813 43.6061C65.3404 43.8556 64.6413 43.775 63.9841 43.3642C63.9065 43.317 63.8259 43.311 63.7422 43.346L60.107 44.884C60.0721 44.8987 60.0414 44.9219 60.0179 44.9514C59.9944 44.9809 59.9787 45.0158 59.9724 45.0529C59.6438 47.0884 57.857 47.5631 56.1363 46.664C56.074 46.632 56.0101 46.6297 55.9447 46.6571C54.8356 47.1432 53.6901 47.5517 52.6563 48.1861C50.8056 49.3202 49.0393 50.646 47.232 51.7117C46.2371 52.2982 44.7218 52.5561 43.5991 52.2959C41.095 51.7102 39.2869 50.4475 38.1748 48.5078C36.8208 46.1482 36.3416 43.5909 36.7371 40.8358C36.7379 40.8299 36.7371 40.824 36.7349 40.8186C36.7327 40.8131 36.7291 40.8084 36.7245 40.8047C36.72 40.801 36.7145 40.7986 36.7087 40.7976C36.7029 40.7967 36.697 40.7972 36.6915 40.7992L34.4711 41.5546C34.4584 41.5595 34.4472 41.5672 34.4384 41.5772C34.4297 41.5871 34.4236 41.599 34.4209 41.6116C34.1258 42.8606 33.4351 43.6213 32.3488 43.8936C31.4315 44.1233 30.4738 43.9476 29.4758 43.3665C29.3952 43.3193 29.3115 43.3132 29.2248 43.3482C27.9195 43.8708 26.5959 44.2245 25.2747 44.827C24.6266 45.1221 24.0401 45.418 23.5152 45.7147C20.8286 47.2314 18.8432 48.2979 17.5592 48.914C16.5445 49.4008 15.3685 49.5575 14.0313 49.3841C9.43991 48.7885 6.31586 45.0825 6.03746 40.5186C5.87544 37.8509 6.19491 35.2837 7.87218 33.3075C8.9219 32.0676 10.3481 31.3579 12.1509 31.1784C12.4217 31.1525 12.6735 31.0825 12.9063 30.9684C13.7765 30.547 14.5972 30.0906 15.3685 29.5992C16.0988 29.1337 16.8351 28.7747 17.5775 28.5221C19.7865 27.7691 22.4085 27.3834 24.5285 28.0748C24.6228 28.1053 24.7103 28.0916 24.7909 28.0338C26.1738 27.0358 27.384 26.3086 28.4215 25.8522C30.0417 25.1402 32.9513 24.6587 34.7837 25.3958C34.8552 25.4247 34.9229 25.4178 34.9868 25.3752C36.2351 24.5514 37.4537 23.6272 38.8092 23.1686C40.653 22.5448 42.4124 22.4916 44.0874 23.0088C44.1559 23.0301 44.219 23.0179 44.2768 22.9723C45.3661 22.1128 46.2842 21.5217 47.0312 21.1992C48.0277 20.7702 49.266 20.5496 50.7463 20.5374C51.3122 20.5329 51.853 20.704 52.3916 20.8888C52.4753 20.9178 52.5529 20.9048 52.6244 20.8501C52.9362 20.6082 53.2481 20.3686 53.56 20.1312C55.3194 18.7848 57.9003 18.0364 60.0135 18.956C60.0555 18.9742 60.102 18.9799 60.147 18.9722C60.192 18.9645 60.2336 18.9438 60.2668 18.9126C61.0031 18.2067 61.7052 17.6971 62.373 17.3837C63.6989 16.763 65.4492 16.5576 66.9165 17.135C67.0017 17.1684 67.0793 17.1563 67.1493 17.0985C67.5113 16.8048 67.8673 16.5257 68.2172 16.261C69.5514 15.2554 71.0347 14.9138 72.6671 15.2363C72.9136 15.2866 73.1007 15.4235 73.3266 15.517C73.3951 15.5459 73.4582 15.5361 73.516 15.4874C75.2663 13.963 76.9002 13.1187 79.189 13.9744C79.2727 14.0048 79.3465 13.9896 79.4104 13.9288C80.8481 12.5504 82.5892 11.7814 84.5426 12.6121C84.6293 12.6486 84.7046 12.6326 84.7685 12.5641C86.0305 11.2292 87.8059 10.4419 89.5493 11.341C89.6269 11.3805 89.6938 11.3668 89.7501 11.2999C90.8409 9.9832 92.5958 9.27122 94.1544 10.1361C94.2487 10.1878 94.3293 10.1711 94.3963 10.0859C95.3296 8.87415 96.8197 8.34473 98.262 8.89925C98.3335 8.92663 98.4004 8.91903 98.4628 8.87643C99.3284 8.28463 100.208 7.99254 101.103 8.00014C103.871 8.02296 105.325 11.7472 105.587 13.9425C105.599 14.052 105.654 14.0809 105.751 14.0292ZM62.1768 21.2083C61.9836 21.2479 61.8124 21.2022 61.6633 21.0714C60.657 20.1883 59.3722 19.8734 58.0304 20.1175C56.2307 20.4446 54.758 20.8721 53.6125 21.4C53.6014 21.4049 53.5918 21.4127 53.5847 21.4226C53.5776 21.4324 53.5733 21.4439 53.5721 21.456C53.571 21.4681 53.573 21.4802 53.5781 21.4913C53.5832 21.5023 53.5911 21.5117 53.6011 21.5187C54.1396 21.9218 54.6059 22.3721 54.9999 22.8696C55.1277 23.0309 55.0935 23.1419 54.8972 23.2028L54.7923 23.2347C54.6969 23.2639 54.5955 23.2677 54.4978 23.2457C54.4002 23.2237 54.3098 23.1767 54.2354 23.1092C53.0534 22.039 51.513 21.8587 49.9133 22.1713C48.2216 22.4999 46.7224 22.9647 45.4155 23.5656C45.4028 23.5711 45.3919 23.5799 45.3838 23.5911C45.3758 23.6023 45.3709 23.6156 45.3698 23.6296C45.3686 23.6435 45.3712 23.6576 45.3772 23.6705C45.3833 23.6833 45.3926 23.6944 45.4041 23.7025C45.9914 24.1103 46.5025 24.5887 46.9376 25.1379C47.0289 25.252 47.0084 25.341 46.876 25.4049C46.6318 25.519 46.3306 25.5601 46.0933 25.3935C44.7971 24.4853 43.6242 24.054 41.9789 24.3643C40.0392 24.7279 38.1299 25.2581 36.2511 25.9549C36.2393 25.9597 36.2292 25.9676 36.2215 25.9777C36.2139 25.9879 36.2092 25.9998 36.2078 26.0124C36.2064 26.025 36.2084 26.0378 36.2136 26.0493C36.2188 26.0609 36.227 26.0708 36.2374 26.0781C36.8991 26.533 37.4689 27.0358 37.9466 27.5865C37.9628 27.6054 37.9748 27.6275 37.9817 27.6513C37.9887 27.6751 37.9906 27.7001 37.9871 27.7246C37.9836 27.749 37.975 27.7724 37.9617 27.793C37.9484 27.8137 37.9308 27.8312 37.9101 27.8444C37.5997 28.0406 37.2095 28.0612 36.9037 27.8444C34.7404 26.3086 32.2598 26.6258 29.8432 27.3697C28.6033 27.7516 27.3612 28.1494 26.1167 28.5632C26.1012 28.5681 26.0874 28.5773 26.077 28.5898C26.0667 28.6023 26.0601 28.6176 26.0582 28.6337C26.0562 28.6499 26.059 28.6662 26.0662 28.6809C26.0733 28.6955 26.0845 28.7077 26.0985 28.7161C26.7526 29.1345 27.3513 29.6411 27.8944 30.2359C27.9193 30.2631 27.9375 30.2957 27.9477 30.3312C27.9579 30.3666 27.9598 30.4038 27.9531 30.4399C27.9465 30.476 27.9315 30.51 27.9094 30.5392C27.8874 30.5683 27.8588 30.5918 27.8259 30.6079C27.5452 30.7493 27.2166 30.7836 26.9291 30.6193C25.4481 29.7818 24.0036 29.3254 22.2853 29.5239C20.0124 29.7871 17.6711 30.4162 15.2613 31.4111C15.2455 31.4175 15.232 31.4285 15.2226 31.4427C15.2131 31.4569 15.2082 31.4736 15.2085 31.4906C15.2087 31.5077 15.2141 31.5242 15.2239 31.5381C15.2338 31.552 15.2476 31.5627 15.2636 31.5686C16.4654 32.0113 17.509 32.7605 18.3945 33.8163C18.4568 33.8909 18.5337 33.9107 18.6249 33.8757L18.8554 33.7867C18.9022 33.7683 18.9525 33.761 19.0024 33.7653C19.0523 33.7697 19.1004 33.7856 19.1429 33.8118C20.1562 34.4234 21.2196 34.1906 22.2784 33.8871C48.9838 26.2531 75.8885 18.6183 102.993 10.9827C103.225 10.9173 103.426 10.7499 103.595 10.4807C103.638 10.4122 103.638 10.3438 103.597 10.2753C102.582 8.59118 100.485 8.52957 98.8005 9.17309C98.7879 9.17782 98.7766 9.18568 98.7678 9.19593C98.7591 9.20618 98.753 9.21849 98.7503 9.23171C98.7476 9.24493 98.7482 9.25863 98.7522 9.27152C98.7562 9.28441 98.7634 9.29609 98.7731 9.30545C99.1717 9.68882 99.5315 10.1308 99.8525 10.6313C99.8617 10.6455 99.8675 10.6616 99.8695 10.6784C99.8714 10.6952 99.8694 10.7123 99.8637 10.7282C99.8579 10.7441 99.8486 10.7585 99.8363 10.7702C99.8241 10.7819 99.8093 10.7906 99.7932 10.7956L99.727 10.8161C99.622 10.8481 99.533 10.823 99.46 10.7408C98.9169 10.1323 98.3084 9.83335 97.6344 9.844C96.8905 9.85617 95.9716 10.1079 94.8778 10.5993C94.7971 10.6343 94.785 10.6861 94.8412 10.7545L95.7107 11.8225C95.7209 11.8348 95.7282 11.8494 95.7319 11.865C95.7356 11.8806 95.7357 11.8968 95.7322 11.9125C95.7287 11.9281 95.7216 11.9427 95.7115 11.9552C95.7015 11.9677 95.6887 11.9777 95.6742 11.9845L95.6012 12.0187C95.5465 12.0438 95.4853 12.0504 95.4268 12.0376C95.3683 12.0249 95.3158 11.9934 95.2771 11.948C94.7127 11.2953 94.073 10.9736 93.3579 10.9827C92.471 10.9964 91.47 11.2702 90.3548 11.8042C90.2788 11.8407 90.2674 11.8917 90.3206 11.9571L91.1923 13.0411C91.2608 13.1247 91.2441 13.1848 91.1421 13.2213L91.044 13.2556C90.9086 13.3027 90.7915 13.2738 90.6926 13.1689C90.0194 12.4523 89.118 12.094 88.139 12.2857C87.1441 12.4805 86.2229 12.7459 85.3755 13.0821C85.3679 13.0855 85.3611 13.0907 85.3557 13.0971C85.3503 13.1035 85.3464 13.1111 85.3445 13.1193C85.3425 13.1275 85.3424 13.136 85.3442 13.1442C85.346 13.1524 85.3497 13.16 85.355 13.1666L86.35 14.3783C86.3622 14.3929 86.371 14.4101 86.3755 14.4286C86.38 14.4471 86.3801 14.4664 86.3759 14.4849C86.3717 14.5035 86.3633 14.5209 86.3513 14.5356C86.3392 14.5504 86.3239 14.5621 86.3066 14.57L86.2176 14.6111C86.0852 14.6704 85.9673 14.6499 85.8639 14.5495C85.1336 13.8421 84.3616 13.5112 83.5477 13.5568C82.5451 13.6131 81.3919 13.9181 80.0882 14.4719C79.9938 14.5114 79.9801 14.5692 80.0471 14.6453L81.0329 15.7681C81.1059 15.8517 81.0976 15.9263 81.0078 15.9917C80.9576 16.0282 80.9028 16.0533 80.8435 16.067C80.7005 16.1005 80.5773 16.0655 80.4738 15.962C79.7139 15.1998 78.6528 14.8324 77.5917 15.0287C76.3259 15.2615 75.2093 15.5863 74.2417 16.0031C74.232 16.0073 74.2236 16.0139 74.217 16.0222C74.2105 16.0305 74.2062 16.0403 74.2044 16.0507C74.2026 16.0611 74.2034 16.0718 74.2067 16.0818C74.21 16.0918 74.2158 16.1008 74.2234 16.1081C74.6479 16.4914 75.0199 16.9121 75.3393 17.37C75.388 17.44 75.3796 17.5031 75.3142 17.5594C75.229 17.6309 75.1324 17.6636 75.0244 17.6575C74.956 17.6545 74.8966 17.6302 74.8464 17.5845C73.9519 16.7653 72.925 16.3294 71.679 16.5736C70.2946 16.8459 69.0867 17.1966 68.0552 17.6256C67.973 17.6606 67.9624 17.71 68.0233 17.7739L69.1346 18.9537C69.1672 18.9884 69.1891 19.0317 69.1976 19.0786C69.2061 19.1254 69.2009 19.1737 69.1826 19.2176C69.1642 19.2615 69.1336 19.2992 69.0943 19.3261C69.055 19.353 69.0087 19.3679 68.9612 19.369C68.7984 19.3736 68.6531 19.3226 68.5253 19.2161C67.5851 18.4289 66.5126 18.066 65.2575 18.276C63.6875 18.5376 62.3053 18.9347 61.1111 19.4672C61.1011 19.4715 61.0925 19.4783 61.0859 19.4869C61.0793 19.4955 61.0749 19.5056 61.0733 19.5164C61.0718 19.5271 61.0729 19.538 61.0767 19.5482C61.0805 19.5584 61.0869 19.5674 61.0951 19.5744C61.5485 19.9684 61.9714 20.4035 62.3639 20.8797C62.4993 21.0455 62.4628 21.1498 62.2544 21.1924L62.1768 21.2083ZM103.864 10.8047C103.778 11.2314 103.451 11.519 103.027 11.6376C102.394 11.8156 101.785 11.9891 101.199 12.1579C101.102 12.1853 101.077 12.2431 101.126 12.3314C101.593 13.1864 101.999 14.0695 102.344 14.9808C102.361 15.0231 102.392 15.0579 102.432 15.0782C102.472 15.0984 102.518 15.1028 102.561 15.0903C103.091 14.9397 103.612 14.9998 104.124 15.2706C104.208 15.3147 104.283 15.304 104.35 15.2386L105.071 14.5152C105.138 14.4498 105.169 14.37 105.163 14.2756C105.082 13.0327 104.697 11.8666 104.008 10.7773C103.938 10.6663 103.89 10.6754 103.864 10.8047ZM101.767 15.1565C101.514 14.198 101.153 13.3035 100.711 12.4272C100.668 12.3435 100.602 12.3146 100.512 12.3405L97.0251 13.3332C96.946 13.356 96.9277 13.4024 96.9704 13.4724C97.5059 14.3745 97.9539 15.3193 98.3144 16.3066C98.3525 16.407 98.4247 16.4496 98.5312 16.4344C99.0835 16.3507 99.5574 16.4397 99.9529 16.7014C99.9899 16.7255 100.035 16.7344 100.078 16.7264C100.122 16.7183 100.161 16.6939 100.188 16.658C100.618 16.0754 101.121 15.6296 101.696 15.3208C101.763 15.2843 101.787 15.2295 101.767 15.1565ZM87.2445 23.5382C87.0482 23.7041 86.8649 23.698 86.6945 23.52C85.9871 22.7715 84.8826 22.468 83.8763 22.7806C83.1118 23.0179 82.2926 23.1435 81.5897 23.536C81.3022 23.6972 81.0116 23.844 80.718 23.9764C80.6069 24.0281 80.597 24.0935 80.6883 24.1726C81.0915 24.518 81.4452 24.9029 81.7495 25.3273C81.8194 25.4232 81.7997 25.4954 81.6901 25.5441L81.6103 25.5806C81.452 25.6506 81.3105 25.6255 81.1858 25.5053C80.7811 25.1098 80.308 24.8382 79.7664 24.6906C79.3663 24.5826 78.9388 24.5804 78.4839 24.6838C76.9748 25.0291 75.6824 25.4802 74.6068 26.037C74.4988 26.0948 74.4912 26.1633 74.584 26.2424C75.0237 26.6227 75.407 27.0373 75.7341 27.4861C75.7858 27.5561 75.7752 27.6146 75.7022 27.6618C75.4755 27.8139 75.2625 27.8018 75.0632 27.6253C74.5946 27.213 74.0416 26.9445 73.4042 26.8197C72.8322 26.7087 72.1719 26.7612 71.4234 26.9772C70.1729 27.3393 68.9787 27.8162 67.8407 28.408C67.754 28.4521 67.7494 28.5031 67.827 28.5609C68.2697 28.8926 68.7018 29.2911 69.1232 29.7567C69.251 29.8966 69.2259 29.9986 69.0479 30.0625L68.9429 30.099C68.7664 30.1629 68.6044 30.137 68.4568 30.0214C67.4733 29.2524 66.3414 28.9123 65.1023 29.2204C63.3558 29.654 61.8048 30.2161 60.4493 30.9068C60.3885 30.9387 60.3839 30.9768 60.4356 31.0209L61.9075 32.3011C62.0018 32.3817 62.0064 32.4669 61.9212 32.5567C61.6999 32.794 61.3507 32.7758 61.0928 32.6023C60.034 31.8888 58.9592 31.6013 57.8684 31.7397C56.3638 31.9329 54.4918 32.5795 52.2524 33.6794C52.1337 33.7372 52.1307 33.8004 52.2433 33.8688C52.8183 34.2248 53.3607 34.6645 53.8703 35.1878C53.8881 35.2063 53.9015 35.2285 53.9095 35.2528C53.9175 35.2772 53.92 35.303 53.9167 35.3284C53.9134 35.3538 53.9045 35.3781 53.8905 35.3996C53.8766 35.4211 53.858 35.4392 53.8361 35.4525C53.5668 35.6191 53.2724 35.6351 53.0032 35.4708C51.5336 34.5831 49.8449 34.4074 48.1699 34.8683C46.5132 35.3232 44.9721 35.9447 43.5466 36.7327C43.5354 36.7393 43.5264 36.749 43.5205 36.7605C43.5146 36.7721 43.5121 36.785 43.5133 36.798C43.5145 36.8109 43.5193 36.8232 43.5272 36.8334C43.5352 36.8437 43.5458 36.8515 43.558 36.856C44.7112 37.2682 45.6711 37.9171 46.4379 38.8025C46.4942 38.8664 46.5565 38.874 46.625 38.8253C47.0198 38.5424 47.6268 39.1357 48.1562 39.0467C48.643 38.966 49.1101 38.8428 49.5574 38.677C67.3189 32.0775 85.1298 25.5183 102.99 18.9994C107.279 17.4339 111.37 15.9293 115.265 14.4856C115.509 14.3958 115.699 14.2399 115.838 14.0178C115.876 13.9569 115.88 13.8945 115.849 13.8306C115.076 12.215 113.501 12.3268 112.07 12.8129C112.047 12.8208 112.026 12.8341 112.008 12.8517C111.991 12.8692 111.978 12.8905 111.97 12.914C111.962 12.9374 111.96 12.9623 111.964 12.9867C111.967 13.0112 111.976 13.0344 111.99 13.0548L112.755 14.1684C112.825 14.2718 112.81 14.3608 112.709 14.4354L112.643 14.4856C112.633 14.493 112.622 14.4983 112.61 14.5011C112.598 14.504 112.585 14.5044 112.573 14.5022C112.561 14.5001 112.55 14.4955 112.54 14.4887C112.53 14.4819 112.522 14.473 112.515 14.4628C112.114 13.8603 111.618 13.5606 111.03 13.5636C110.446 13.5667 109.664 13.8352 108.684 14.3692C108.586 14.4224 108.574 14.4909 108.647 14.5746C108.909 14.8743 109.123 15.2014 109.289 15.5558C109.297 15.5725 109.299 15.5913 109.296 15.6097C109.293 15.6281 109.284 15.6451 109.27 15.6585L109.225 15.7019C109.143 15.784 109.066 15.7787 108.994 15.6859C108.485 15.0196 107.881 14.7442 107.185 14.8598C106.422 14.9876 105.646 15.2812 104.857 15.7407C104.79 15.7787 104.779 15.8304 104.823 15.8958L105.512 16.909C105.562 16.9836 105.548 17.0444 105.471 17.0916L105.384 17.1441C105.288 17.2019 105.208 17.1852 105.144 17.0939C104.672 16.4093 103.908 16.067 103.072 16.2815C102.199 16.5067 101.417 16.8033 100.727 17.1715C100.712 17.1794 100.699 17.1906 100.689 17.2044C100.679 17.2182 100.673 17.234 100.671 17.2507C100.668 17.2674 100.67 17.2844 100.675 17.3003C100.68 17.3163 100.689 17.3308 100.701 17.3426C101.013 17.6484 101.269 17.9907 101.468 18.3695C101.508 18.4471 101.489 18.5034 101.411 18.5384L101.356 18.5635C101.222 18.6243 101.111 18.5954 101.023 18.4768C100.552 17.8469 99.9986 17.5526 99.3642 17.5936C98.5031 17.6484 97.4914 17.9968 96.3291 18.6388C96.2683 18.6723 96.2591 18.7164 96.3017 18.7712L97.1187 19.8232C97.2115 19.9449 97.1864 20.0339 97.0434 20.0901L96.9589 20.1244C96.9217 20.139 96.8809 20.1416 96.8424 20.1317C96.8038 20.1219 96.7695 20.1002 96.7444 20.0696C96.1557 19.3637 95.4878 19.0556 94.7408 19.1454C93.8524 19.2534 92.8004 19.6201 91.5848 20.2453C91.4996 20.2894 91.4905 20.3457 91.5575 20.4142C91.8906 20.7504 92.1804 21.1269 92.4269 21.5438C92.4786 21.6305 92.4573 21.6929 92.363 21.7309C92.3432 21.74 92.3227 21.7484 92.3014 21.756C92.1721 21.8062 92.0603 21.7803 91.9659 21.6784C91.3528 21.0136 90.6576 20.7185 89.8802 20.793C89.0343 20.8736 87.8873 21.2737 86.4389 21.9933C86.3614 22.0314 86.3484 22.0854 86.4002 22.1554L87.2673 23.3511C87.3175 23.4211 87.3099 23.4835 87.2445 23.5382ZM92.5752 14.7412L94.0357 17.8036C94.0542 17.842 94.0843 17.8735 94.1217 17.8936C94.159 17.9137 94.2016 17.9214 94.2434 17.9154C94.7074 17.8469 95.147 17.9337 95.5624 18.1756C95.6536 18.2288 95.7327 18.2143 95.7997 18.1322C96.3611 17.4415 96.9772 16.9342 97.6481 16.6101C97.7211 16.5751 97.7462 16.5188 97.7234 16.4412C97.4663 15.5148 97.086 14.586 96.5824 13.6549C96.5276 13.5545 96.4447 13.5195 96.3337 13.55L92.6346 14.6088C92.5615 14.6286 92.5418 14.6727 92.5752 14.7412ZM115.496 14.9694C114.948 15.1976 114.393 15.4098 113.837 15.6266C113.812 15.6363 113.79 15.6509 113.771 15.6693C113.753 15.6877 113.738 15.7096 113.728 15.7338C113.717 15.758 113.712 15.784 113.712 15.8102C113.712 15.8365 113.717 15.8625 113.727 15.8867C114.282 17.1875 114.696 18.5247 114.968 19.8985C114.99 20.008 115.053 20.0445 115.158 20.008C115.772 19.7912 116.575 19.6223 116.739 18.8875C117.077 17.3753 116.894 15.8487 116.189 14.3076C116.124 14.1646 116.073 14.1699 116.036 14.3235C115.96 14.6354 115.78 14.8507 115.496 14.9694ZM93.3192 17.9588C93.043 16.8657 92.5912 15.9164 92.0663 14.9283C92.0253 14.8492 91.9621 14.8218 91.8769 14.8461L87.7671 16.0465C87.7548 16.0501 87.7435 16.0564 87.734 16.0649C87.7245 16.0734 87.7171 16.0839 87.7122 16.0955C87.7074 16.1072 87.7053 16.1197 87.7061 16.1322C87.7069 16.1446 87.7106 16.1567 87.7169 16.1674C88.2828 17.1593 88.8092 18.2448 89.296 19.4238C89.3264 19.4984 89.382 19.5333 89.4626 19.5288C89.9053 19.5075 90.3313 19.6163 90.7405 19.8551C90.815 19.8992 90.8797 19.8871 90.9345 19.8186C91.3042 19.3576 91.7339 18.9408 92.2238 18.5681C92.5205 18.3444 92.8696 18.2372 93.2188 18.1368C93.31 18.1109 93.3435 18.0516 93.3192 17.9588ZM111.79 21.3977L114.074 20.4073C114.148 20.3739 114.187 20.3168 114.19 20.2362C114.221 19.2686 114.135 18.4144 113.935 17.6735C113.786 17.1198 113.589 16.5165 113.346 15.8639C113.342 15.8546 113.337 15.846 113.33 15.8388C113.323 15.8315 113.315 15.8257 113.306 15.8217C113.297 15.8176 113.287 15.8155 113.277 15.8153C113.267 15.8151 113.257 15.8169 113.248 15.8205L110.313 16.9547C110.245 16.9806 110.226 17.0277 110.256 17.0962C110.875 18.4669 111.338 19.8756 111.644 21.3224C111.647 21.3377 111.654 21.352 111.663 21.3644C111.673 21.3768 111.685 21.387 111.699 21.3941C111.713 21.4013 111.728 21.4053 111.744 21.406C111.76 21.4066 111.775 21.4038 111.79 21.3977ZM87.1897 16.2518C87.1794 16.2348 87.1637 16.2218 87.1451 16.2147C87.1265 16.2077 87.106 16.2071 87.087 16.213L82.5755 17.5389C82.5657 17.5421 82.5567 17.5474 82.5492 17.5544C82.5417 17.5614 82.5358 17.5699 82.5321 17.5794C82.5284 17.5888 82.5268 17.5989 82.5276 17.6089C82.5285 17.6189 82.5316 17.6285 82.5367 17.637C83.2213 18.7887 83.8101 19.9783 84.303 21.206C84.3166 21.2402 84.3396 21.2699 84.3695 21.2916C84.3994 21.3134 84.4348 21.3265 84.4719 21.3293C84.8263 21.3536 85.1641 21.435 85.4851 21.5734C85.5687 21.61 85.6433 21.5955 85.7087 21.5301C86.5599 20.6835 87.2901 19.9601 88.4905 19.6611C88.5711 19.6414 88.6 19.5912 88.5772 19.5105C88.2379 18.3224 87.7754 17.2361 87.1897 16.2518ZM109.907 17.192C109.881 17.1327 109.838 17.1144 109.777 17.1372L106.653 18.3216C106.636 18.3278 106.621 18.3374 106.608 18.3498C106.595 18.3622 106.585 18.3772 106.579 18.3938C106.572 18.4103 106.569 18.4281 106.569 18.4459C106.57 18.4638 106.574 18.4813 106.582 18.4973C107.244 19.865 107.731 21.289 108.045 22.7692C108.068 22.8787 108.131 22.9115 108.234 22.8673L110.697 21.8267C110.734 21.8111 110.766 21.7849 110.789 21.7513C110.812 21.7178 110.825 21.6782 110.827 21.6373C110.862 20.1221 110.555 18.6403 109.907 17.192ZM83.4792 21.3384C83.2054 20.17 82.733 18.851 82.0324 17.8447C81.9807 17.7701 81.9107 17.745 81.8225 17.7694L77.0166 19.1317C77.0023 19.1359 76.9891 19.1433 76.9781 19.1534C76.9671 19.1634 76.9585 19.1758 76.953 19.1897C76.9475 19.2035 76.9452 19.2185 76.9464 19.2333C76.9475 19.2482 76.952 19.2626 76.9595 19.2755C77.7233 20.5564 78.3706 21.8389 78.9015 23.1229C78.9165 23.1593 78.9392 23.1919 78.968 23.2183C78.9968 23.2448 79.031 23.2644 79.0681 23.2758L79.828 23.5109C79.9132 23.5367 79.9847 23.5169 80.0425 23.4515C80.9485 22.4452 82.0233 21.5871 83.4039 21.4411C83.4159 21.4401 83.4276 21.4365 83.4381 21.4306C83.4486 21.4247 83.4578 21.4166 83.4649 21.4069C83.4721 21.3972 83.477 21.386 83.4795 21.3742C83.482 21.3624 83.4819 21.3502 83.4792 21.3384ZM106.103 18.5019L102.71 19.7479C102.621 19.7798 102.595 19.8384 102.632 19.9236C103.059 20.9003 103.529 21.8929 103.812 22.9175C103.937 23.3755 104.07 23.8501 104.213 24.3415C104.218 24.3573 104.226 24.372 104.236 24.3845C104.247 24.3971 104.26 24.4073 104.275 24.4144C104.289 24.4215 104.305 24.4254 104.322 24.4258C104.338 24.4262 104.354 24.4232 104.369 24.4168L107.052 23.3169C107.136 23.2819 107.181 23.2188 107.187 23.1275C107.289 21.524 106.943 19.9882 106.149 18.5201C106.144 18.5123 106.137 18.5063 106.128 18.503C106.12 18.4997 106.111 18.4993 106.103 18.5019ZM72.9775 25.1973C73.0916 25.4848 73.303 25.6354 73.6119 25.6491C73.694 25.6521 73.764 25.6255 73.8218 25.5692C74.9788 24.4328 76.1928 23.4629 77.8244 23.31C77.8424 23.3083 77.8597 23.3027 77.8753 23.2936C77.8909 23.2845 77.9043 23.2722 77.9147 23.2575C77.9251 23.2428 77.9322 23.226 77.9355 23.2083C77.9388 23.1906 77.9383 23.1724 77.934 23.1549C77.6206 21.8998 77.1064 20.6842 76.3913 19.5082C76.3695 19.4734 76.3371 19.4465 76.2993 19.4317C76.2614 19.4168 76.22 19.4149 76.1814 19.4261L70.983 20.9482C70.878 20.9786 70.8545 21.0402 70.9123 21.133C71.7368 22.4551 72.4252 23.8098 72.9775 25.1973ZM100.211 26.142L103.168 24.9097C103.24 24.8793 103.278 24.826 103.282 24.75C103.384 23.1556 103.012 21.616 102.166 20.1312C102.122 20.0536 102.059 20.0308 101.977 20.0628L98.3989 21.4023C98.3837 21.4079 98.3699 21.4167 98.3583 21.4281C98.3468 21.4394 98.3378 21.4531 98.332 21.4683C98.3262 21.4834 98.3236 21.4995 98.3245 21.5157C98.3254 21.5319 98.3298 21.5477 98.3373 21.562C99.0949 23.0088 99.6791 24.5157 100.09 26.0827C100.093 26.095 100.1 26.1065 100.108 26.1164C100.116 26.1262 100.126 26.1342 100.138 26.1398C100.149 26.1454 100.162 26.1485 100.174 26.1489C100.187 26.1493 100.199 26.1469 100.211 26.142ZM66.7476 27.9402C66.7534 27.9548 66.7625 27.9679 66.7743 27.9782C66.7861 27.9885 66.8002 27.9958 66.8153 27.9994C66.8304 28.003 66.8461 28.0029 66.861 27.9989C66.8758 27.9949 66.8894 27.9873 66.9005 27.9767C67.3037 27.604 67.7197 27.2313 68.1488 26.8585C69.1825 25.964 70.4216 25.5122 71.7931 25.4186C71.9072 25.411 71.9513 25.3517 71.9255 25.2406C71.6166 23.8714 71.0484 22.5532 70.2208 21.2859C70.2062 21.2636 70.1847 21.2466 70.1596 21.2376C70.1345 21.2285 70.1071 21.2279 70.0816 21.2357L64.2945 22.8947C64.2819 22.8982 64.2704 22.9047 64.2608 22.9136C64.2512 22.9225 64.2439 22.9335 64.2394 22.9458C64.235 22.958 64.2335 22.9712 64.2351 22.9841C64.2368 22.9971 64.2415 23.0095 64.2488 23.0202C65.2986 24.607 66.1315 26.247 66.7476 27.9402ZM94.5377 24.9029C95.0352 25.875 95.3228 26.9019 95.6514 27.9379C95.6561 27.9536 95.6641 27.9681 95.6749 27.9805C95.6856 27.9928 95.6989 28.0028 95.7137 28.0097C95.7286 28.0166 95.7448 28.0202 95.7611 28.0205C95.7775 28.0207 95.7938 28.0174 95.8088 28.0109L98.9603 26.6851C99.047 26.6486 99.0934 26.5839 99.0994 26.4911C99.212 24.8283 98.8195 23.2363 97.9219 21.7149C97.8793 21.6434 97.8185 21.6221 97.7394 21.651L93.8212 23.1161C93.733 23.1495 93.7086 23.2096 93.7482 23.2964C94.0114 23.8547 94.2746 24.3902 94.5377 24.9029ZM65.4081 27.5089C65.0977 25.9777 64.477 24.5629 63.5871 23.2804C63.5247 23.1906 63.4418 23.161 63.3383 23.1914L57.0834 24.9964C56.9936 25.0223 56.9754 25.0733 57.0286 25.1493C58.0768 26.6722 58.944 28.3183 59.6301 30.0876C59.6382 30.1093 59.6517 30.1287 59.6692 30.1439C59.6868 30.1591 59.7078 30.1697 59.7305 30.1747C59.7532 30.1797 59.7768 30.1789 59.7991 30.1725C59.8214 30.166 59.8418 30.1541 59.8583 30.1378C61.4739 28.5282 63.282 27.7044 65.2826 27.6664C65.3876 27.6648 65.4294 27.6124 65.4081 27.5089ZM91.0235 30.0602L94.4373 28.6294C94.5347 28.5883 94.5857 28.5153 94.5902 28.4103C94.6526 26.536 94.2076 24.8755 93.2553 23.4287C93.2127 23.3633 93.1549 23.3443 93.0818 23.3717L88.8031 25.0101C88.7923 25.0141 88.7825 25.0205 88.7744 25.0288C88.7663 25.037 88.7602 25.047 88.7565 25.0579C88.7528 25.0689 88.7516 25.0805 88.7529 25.092C88.7543 25.1034 88.7581 25.1145 88.7643 25.1242C89.674 26.6364 90.3617 28.2498 90.8272 29.9643C90.8328 29.9842 90.8425 30.0027 90.8557 30.0186C90.8689 30.0344 90.8853 30.0473 90.9038 30.0564C90.9224 30.0654 90.9426 30.0704 90.9632 30.0711C90.9839 30.0718 91.0044 30.068 91.0235 30.0602ZM52.0356 32.4928C53.6513 30.9319 55.9698 30.1446 58.1605 30.2564C58.2487 30.261 58.2852 30.2199 58.27 30.1332C57.9764 28.3837 57.2781 26.781 56.1751 25.325C56.1432 25.2824 56.1014 25.268 56.0496 25.2817L49.1398 27.2784C49.047 27.3058 49.0279 27.3591 49.0827 27.4382C50.1659 28.993 51.0833 30.6641 51.8348 32.4517C51.843 32.4704 51.8555 32.4868 51.8712 32.4996C51.887 32.5124 51.9056 32.5212 51.9254 32.5253C51.9451 32.5293 51.9655 32.5285 51.9847 32.5228C52.0039 32.5172 52.0214 32.5068 52.0356 32.4928ZM89.7273 30.4595C89.8665 28.659 89.1705 26.9293 88.2349 25.3684C88.1877 25.2908 88.1215 25.268 88.0363 25.2999L83.3537 27.0046C83.3442 27.0081 83.3356 27.0137 83.3285 27.021C83.3214 27.0283 83.316 27.0371 83.3128 27.0467C83.3095 27.0563 83.3084 27.0665 83.3095 27.0766C83.3107 27.0867 83.3141 27.0964 83.3195 27.105C84.3281 28.6781 85.0979 30.3652 85.6288 32.1665C85.6331 32.1811 85.6404 32.1947 85.6503 32.2063C85.6602 32.2179 85.6725 32.2273 85.6863 32.2338C85.7002 32.2403 85.7152 32.2437 85.7305 32.2439C85.7458 32.2441 85.7609 32.241 85.7749 32.2349L89.6018 30.633C89.6794 30.5995 89.7212 30.5417 89.7273 30.4595ZM84.4239 32.7119C84.643 30.868 83.7713 28.9557 82.8653 27.3811C82.8136 27.2914 82.7391 27.2647 82.6417 27.3012L77.6145 29.2044C77.508 29.244 77.4867 29.3109 77.5506 29.4052C78.6322 30.9912 79.4606 32.7073 80.038 34.5603C80.0427 34.5754 80.0506 34.5893 80.0611 34.6012C80.0716 34.6131 80.0844 34.6227 80.0988 34.6293C80.1132 34.636 80.1288 34.6396 80.1447 34.6399C80.1605 34.6402 80.1762 34.6371 80.1908 34.631L84.2847 32.8967C84.3669 32.8617 84.4133 32.8001 84.4239 32.7119ZM43.4507 35.1627C45.2718 33.5699 47.9942 32.9195 50.2762 33.1683C50.3629 33.1774 50.4032 33.1378 50.3971 33.0496C50.2374 31.0764 49.5208 29.2759 48.2475 27.6481C48.1912 27.5751 48.1189 27.5515 48.0307 27.5774L40.3153 29.7384C40.298 29.7434 40.2822 29.7525 40.2691 29.7649C40.2561 29.7773 40.2463 29.7927 40.2404 29.8097C40.2346 29.8267 40.233 29.8449 40.2357 29.8627C40.2384 29.8805 40.2453 29.8973 40.256 29.9118C41.47 31.5747 42.468 33.3105 43.2499 35.1194C43.2582 35.1376 43.2705 35.1536 43.2861 35.1661C43.3016 35.1787 43.3199 35.1874 43.3394 35.1916C43.3589 35.1959 43.3792 35.1954 43.3985 35.1904C43.4179 35.1854 43.4357 35.1759 43.4507 35.1627ZM78.6824 35.092C78.7714 33.0017 78.0024 31.3997 76.9322 29.6106C76.8759 29.5163 76.7968 29.4889 76.6948 29.5285L71.1701 31.6348C71.0697 31.6728 71.0515 31.7352 71.1154 31.8219C72.3203 33.4634 73.2369 35.2525 73.8652 37.1891C73.8702 37.2038 73.8782 37.2172 73.8886 37.2286C73.8991 37.2399 73.9118 37.249 73.926 37.2552C73.9401 37.2615 73.9554 37.2647 73.9709 37.2647C73.9863 37.2647 74.0016 37.2615 74.0158 37.2553L78.5524 35.2814C78.5895 35.2649 78.6213 35.2385 78.6442 35.2051C78.6672 35.1717 78.6804 35.1325 78.6824 35.092ZM41.7027 36.1006C41.6046 33.789 40.774 31.9862 39.3454 30.1674C39.2998 30.1081 39.2405 30.0891 39.1674 30.1104L30.5666 32.6069C30.5507 32.6111 30.5361 32.6193 30.5242 32.6307C30.5123 32.642 30.5034 32.6562 30.4984 32.6719C30.4934 32.6876 30.4925 32.7043 30.4956 32.7204C30.4987 32.7366 30.5059 32.7517 30.5164 32.7643C32.2142 34.8333 33.4784 37.1336 34.3091 39.6651C34.3131 39.6775 34.3196 39.689 34.3283 39.6988C34.3369 39.7087 34.3475 39.7167 34.3594 39.7225C34.3713 39.7282 34.3843 39.7315 34.3976 39.7323C34.4109 39.733 34.4242 39.7311 34.4369 39.7267C35.3558 39.4042 36.3439 39.071 37.4012 38.7272C37.8827 38.5697 38.0493 38.1795 38.3824 37.8532C39.175 37.0743 40.1457 36.643 41.2943 36.5593C41.5788 36.5395 41.7149 36.3866 41.7027 36.1006ZM72.1674 38.0768C72.2602 38.0357 72.3157 37.9658 72.3339 37.8669C72.642 36.1896 71.8456 34.2682 70.9419 32.7894C70.7852 32.5323 70.6042 32.2988 70.3988 32.0889C70.344 32.0326 70.2794 32.0181 70.2048 32.0455L64.1302 34.2705C64.0191 34.3115 64.0001 34.3785 64.0731 34.4713C65.4317 36.2254 66.4677 38.108 67.1812 40.1192C67.2025 40.1816 67.2436 40.1998 67.3044 40.174L72.1674 38.0768ZM15.5169 33.417C13.8921 32.7803 11.9067 32.6206 10.2181 33.3599C8.21448 34.2377 7.08109 35.8519 6.8179 38.2023C6.65512 39.6446 6.95178 41.0396 7.70788 42.3875C8.537 43.8693 9.67419 45.0932 11.1195 46.0592C11.9729 46.6297 12.7807 47.0998 13.8259 47.2573C15.5161 47.5129 17.0428 47.1706 18.4059 46.2304C20.5487 44.7539 20.9685 42.116 20.4346 39.6765C19.8344 36.9427 18.1434 34.4462 15.5169 33.417ZM31.8286 40.4935C32.6501 37.965 30.9888 34.8638 29.38 32.9492C29.3222 32.8807 29.2507 32.8587 29.1655 32.883C26.9428 33.5372 24.746 34.1708 22.5751 34.7839C21.587 35.0646 20.592 35.343 19.5354 35.1148C19.5251 35.1128 19.5143 35.1139 19.5045 35.1179C19.4947 35.1219 19.4863 35.1287 19.4803 35.1374C19.4742 35.1461 19.4709 35.1563 19.4705 35.1669C19.4702 35.1775 19.4729 35.1879 19.4784 35.1969C21.1032 37.698 22.0639 40.3588 21.8562 43.3711C21.8228 43.87 21.6699 44.4588 21.3976 45.1373C21.3367 45.2894 21.3709 45.3161 21.5002 45.2172C23.1342 43.9667 24.695 42.9626 26.6986 42.3236C28.3417 41.8003 30.0098 41.2336 31.703 40.6235C31.7669 40.6007 31.8088 40.5574 31.8286 40.4935ZM65.4149 40.8814C65.7641 38.7249 64.6071 36.4315 63.2607 34.7109C63.2014 34.6348 63.1269 34.6135 63.0371 34.647L56.2322 37.1891C56.2163 37.195 56.2022 37.2046 56.1908 37.2171C56.1795 37.2297 56.1713 37.2448 56.1671 37.2611C56.1628 37.2775 56.1626 37.2946 56.1664 37.3111C56.1702 37.3276 56.1779 37.3429 56.1888 37.3557C57.701 39.1357 58.8679 41.0913 59.6894 43.2227C59.6955 43.2387 59.7048 43.2533 59.7165 43.2657C59.7283 43.2781 59.7423 43.2879 59.7579 43.2948C59.7734 43.3016 59.7901 43.3052 59.807 43.3053C59.8238 43.3055 59.8405 43.3022 59.856 43.2957L65.3328 40.9864C65.3545 40.9773 65.3734 40.9628 65.3878 40.9444C65.4022 40.926 65.4115 40.9043 65.4149 40.8814ZM55.1848 37.5177C53.2291 38.2959 51.2209 39.017 49.1831 39.7176C48.6628 39.8956 48.09 39.9382 47.4648 39.8454C47.3446 39.8286 47.3202 39.8697 47.3917 39.9686C48.9024 42.0931 49.8609 44.2451 49.975 46.9173C49.9963 47.4376 49.9232 47.9708 49.7559 48.5169C49.7118 48.6584 49.7437 48.679 49.8517 48.5786C50.8649 47.627 51.9877 46.6411 53.2861 46.0912C54.6842 45.4994 56.1394 44.884 57.6516 44.2451C57.7322 44.2116 57.7801 44.1523 57.7954 44.0671C58.213 41.7896 56.8232 39.3319 55.381 37.5679C55.3278 37.504 55.2623 37.4873 55.1848 37.5177ZM44.6625 38.8048C43.1183 38.0106 41.5734 37.8912 40.0278 38.4465C39.2595 38.7219 38.6479 39.1767 38.193 39.8111C36.712 41.8741 37.1273 44.7106 38.4714 46.737C39.4801 48.2614 40.7937 49.394 42.4124 50.1349C43.8105 50.7754 45.1759 50.783 46.5086 50.1577C49.53 48.7383 49.2173 44.9776 47.9873 42.4263C47.1689 40.73 46.0606 39.5228 44.6625 38.8048Z"/>
        <path
                d="M106.185 28.2825C106.664 27.372 107.57 26.5299 108.661 26.943C108.694 26.9556 108.729 26.9578 108.763 26.9492C108.797 26.9406 108.828 26.9217 108.85 26.8951C110.032 25.535 111.76 25.6217 112.846 27.0366C114.005 28.5427 114.788 30.4459 114.683 32.3102C114.647 33.004 113.91 33.3303 113.355 33.5676C113.316 33.5843 113.283 33.613 113.262 33.6495C113.24 33.686 113.23 33.7284 113.234 33.7707C113.268 34.145 113.156 34.4766 112.899 34.7657C112.838 34.8326 112.762 34.8577 112.673 34.841C112.455 34.7984 112.26 34.7056 112.089 34.5626C112.009 34.4972 111.927 34.4895 111.84 34.5397L110.724 35.1719C110.685 35.1935 110.653 35.2259 110.632 35.2652C110.611 35.3044 110.602 35.3488 110.605 35.3932C110.631 35.7918 110.507 36.1189 110.233 36.3745C110.169 36.4338 110.093 36.4566 110.005 36.4429C109.774 36.4049 109.565 36.3136 109.378 36.1691C109.312 36.1189 109.244 36.1151 109.172 36.1577L107.849 36.9609C107.815 36.9814 107.787 37.0112 107.77 37.0468C107.752 37.0825 107.746 37.1224 107.75 37.1618C107.795 37.5634 107.668 37.9026 107.369 38.1795C107.298 38.2449 107.214 38.2723 107.118 38.2617C106.872 38.2358 106.641 38.1476 106.427 37.997C106.357 37.9483 106.285 37.9452 106.21 37.9878L104.786 38.8231C104.749 38.8453 104.719 38.8766 104.698 38.9139C104.677 38.9511 104.667 38.993 104.667 39.0353C104.675 39.4613 104.524 39.8089 104.213 40.0781C104.157 40.1268 104.092 40.1497 104.019 40.1466C103.723 40.1329 103.452 40.0409 103.207 39.8705C103.14 39.8248 103.072 39.8233 103.002 39.8659L101.402 40.8289C101.321 40.8791 101.283 40.9514 101.286 41.0457C101.313 42.0087 100.61 42.5267 99.7041 41.9882C99.6266 41.9425 99.549 41.9425 99.4714 41.9882L97.7348 42.9991C97.677 43.0326 97.6443 43.0835 97.6367 43.152C97.5431 44.1424 97.0182 44.9571 95.8841 44.2496C95.8187 44.2101 95.7525 44.2093 95.6856 44.2474L93.7002 45.3975C93.6272 45.4401 93.5914 45.5032 93.593 45.5869C93.6181 46.6754 92.6414 47.3326 91.6487 46.7804C91.5742 46.7393 91.5004 46.74 91.4274 46.7826L89.2846 48.0172C89.21 48.0598 89.172 48.1245 89.1705 48.2112C89.1659 48.469 89.1225 48.7338 88.997 48.962C88.5467 49.7835 87.8872 49.966 87.0185 49.5096C86.9455 49.4716 86.8725 49.4731 86.7995 49.5142L84.3965 50.9222C84.3372 50.9572 84.3052 51.0089 84.3007 51.0774C84.2117 52.4488 83.2989 53.2818 81.9023 52.588C81.8262 52.55 81.7517 52.553 81.6787 52.5972L78.9426 54.2014C78.9245 54.2118 78.9096 54.2268 78.8992 54.2448C78.8887 54.2628 78.8832 54.2833 78.8832 54.3041C78.8817 55.1606 78.5478 55.7494 77.8814 56.0704C77.2714 56.3655 76.6834 56.3526 76.1175 56.0316C76.0815 56.0107 76.0405 56 75.9988 56.0004C75.9571 56.0008 75.9161 56.0123 75.8801 56.0339L72.909 57.7659C72.8796 57.7833 72.8551 57.8079 72.8375 57.8374C72.82 57.8669 72.8101 57.9003 72.8086 57.9348C72.7736 59.0408 72.3027 59.7292 71.396 60C70.8392 60.1658 70.2619 60.1118 69.664 59.8379C69.594 59.806 69.5263 59.8098 69.4609 59.8493L66.1155 61.805C66.0318 61.8522 65.9877 61.9244 65.9831 62.0218C65.9116 63.3971 65.1875 64.1752 63.8107 64.3563C63.3063 64.4225 62.8659 64.2399 62.3913 64.1098C62.3137 64.087 62.2399 64.0969 62.1699 64.1395C60.9445 64.8789 59.6323 65.5749 58.5415 66.515C57.3777 67.5161 56.1477 68.5711 54.8516 69.6802C54.5153 69.9662 54.167 70.2393 53.8064 70.4994C51.3533 72.268 48.1174 71.6244 45.8856 69.7532C43.1016 67.4142 42.0564 62.3162 43.3526 59.0529C43.9459 57.5582 45.1166 56.472 46.682 56.0361C46.9924 55.9494 47.286 55.8034 47.5629 55.598C48.1653 55.1492 48.7168 54.6837 49.2173 54.2014C50.6443 52.8276 52.4212 51.9658 54.5481 51.6159C55.1277 51.5201 55.7096 51.568 56.2869 51.6205C56.3889 51.6311 56.4741 51.5984 56.5425 51.5223C57.3382 50.6461 58.0935 49.9348 58.8085 49.3887C59.4566 48.8935 60.3147 48.5626 61.086 48.2796C62.049 47.9252 63.0257 47.8377 64.016 48.0172C64.0545 48.0243 64.0943 48.0215 64.1317 48.0092C64.1692 47.9968 64.2031 47.9753 64.2306 47.9465C64.5485 47.6102 64.8665 47.2778 65.1844 46.9492C66.5171 45.5679 68.1518 44.8133 70.0884 44.6855C70.2421 44.6764 70.5083 44.7159 70.8871 44.8042C70.9213 44.8124 70.9572 44.8108 70.9907 44.7995C71.0242 44.7882 71.0539 44.7677 71.0765 44.7403C71.3991 44.3432 71.736 43.9591 72.0875 43.5879C73.2536 42.3533 75.3096 41.509 76.9618 41.9517C77.05 41.9745 77.1208 41.9486 77.174 41.8741C77.3627 41.6033 77.5711 41.3416 77.7993 41.0891C79.0422 39.7092 80.5788 39.1418 82.4089 39.3867C82.4956 39.3974 82.5656 39.3692 82.6189 39.3023C82.8121 39.0589 83.0152 38.8132 83.2282 38.5652C84.2414 37.3854 85.7703 36.662 87.2878 37.1024C87.3791 37.1298 87.4521 37.1047 87.5069 37.0271C88.4197 35.7652 89.3371 34.9779 91.0098 34.8706C91.238 34.8547 91.5141 34.9163 91.7194 35.0212C91.8199 35.0715 91.9005 35.0494 91.9613 34.9551C92.2702 34.4682 92.5995 34.0689 92.9494 33.757C93.5838 33.1934 94.9416 32.7164 95.8088 33.1591C95.8365 33.1735 95.8687 33.1768 95.8988 33.1683C95.9289 33.1598 95.9546 33.1402 95.9708 33.1135C96.7809 31.7899 97.8808 31.0049 99.5284 31.3815C99.6015 31.3982 99.657 31.3746 99.695 31.3107C100.428 30.1378 101.45 29.3277 102.901 29.8137C102.982 29.8411 103.042 29.8168 103.082 29.7407C103.675 28.602 104.718 27.8512 106.037 28.3396C106.104 28.3639 106.153 28.3449 106.185 28.2825ZM104.394 30.9091C104.375 30.9419 104.348 30.9699 104.317 30.9911C104.285 31.0123 104.249 31.0262 104.211 31.0319C104.173 31.0376 104.134 31.0348 104.096 31.0238C104.059 31.0129 104.024 30.994 103.994 30.9684C103.481 30.5326 102.78 30.2747 102.121 30.5166C101.404 30.7783 100.796 31.097 100.297 31.4727C100.209 31.5382 100.21 31.6028 100.3 31.6667C100.59 31.8706 100.853 32.1383 101.087 32.47C101.097 32.4847 101.102 32.5027 101.101 32.5209C101.1 32.5391 101.093 32.5566 101.08 32.5704L101.037 32.6183C100.946 32.7187 100.847 32.7263 100.742 32.6411C100.117 32.13 99.5528 31.939 99.0492 32.0684C98.2581 32.2707 97.4503 32.6373 96.6257 33.1683C96.539 33.2246 96.5367 33.2831 96.6189 33.344C96.9034 33.5554 97.1704 33.8118 97.4199 34.113C97.5127 34.2241 97.4929 34.3336 97.3605 34.4416C97.3222 34.4738 97.2737 34.4917 97.2234 34.4921C97.1731 34.4925 97.124 34.4755 97.0844 34.4439C96.4865 33.9601 95.6376 33.6749 94.88 33.9419C93.9596 34.2644 93.1974 34.6554 92.5935 35.1148C92.5174 35.1711 92.5159 35.2297 92.5889 35.2905C92.8703 35.5218 93.1571 35.7971 93.4492 36.1166C93.5481 36.2231 93.5298 36.3311 93.3944 36.4406C93.3572 36.4714 93.3108 36.489 93.2625 36.4906C93.2142 36.4923 93.1667 36.4779 93.1274 36.4498C92.4292 35.9614 91.6031 35.6648 90.7564 35.9843C89.7615 36.3631 88.908 36.7944 88.196 37.2781C88.1276 37.3253 88.1245 37.377 88.1869 37.4333L89.159 38.3005C89.2595 38.3902 89.2519 38.4701 89.1362 38.5401L89.0746 38.5789C88.9392 38.661 88.8046 38.6595 88.6707 38.5743C87.8811 38.0662 87.1692 37.9004 86.5348 38.0768C85.4987 38.3628 84.4232 38.8771 83.308 39.6195C83.2152 39.6818 83.216 39.7412 83.3103 39.7975C83.7043 40.0333 84.0694 40.333 84.4057 40.6966C84.465 40.7605 84.4642 40.8236 84.4034 40.886C84.2208 41.0708 83.9584 41.0229 83.753 40.9065C82.9741 40.4653 82.2796 40.3124 81.6695 40.4478C80.6092 40.6836 79.3685 41.261 77.9476 42.1799C77.8563 42.2392 77.8563 42.2985 77.9476 42.3579C78.3492 42.6195 78.7281 42.9185 79.084 43.2547C79.2179 43.381 79.2027 43.4867 79.0384 43.5719C79.0217 43.581 79.0049 43.5909 78.9882 43.6015C78.8406 43.6883 78.6938 43.6875 78.5478 43.5993C77.6182 43.044 76.7465 42.8956 75.9326 43.1543C74.5543 43.5924 73.2285 44.2192 71.9551 45.0346C71.8608 45.0955 71.8623 45.1533 71.9597 45.2081C72.4275 45.4773 72.8953 45.8037 73.249 46.2167C73.3114 46.2882 73.3114 46.359 73.249 46.4289C73.0893 46.6092 72.8017 46.6549 72.5941 46.5453C71.9384 46.1985 71.2804 46.0121 70.6201 45.9862C70.1181 45.9665 69.5727 46.0737 68.9839 46.308C67.5448 46.8846 66.2737 47.56 65.1707 48.3344C65.1628 48.3399 65.1565 48.3473 65.1523 48.3561C65.1482 48.3648 65.1464 48.3745 65.1471 48.3843C65.1477 48.3941 65.1509 48.4036 65.1562 48.4121C65.1616 48.4205 65.1689 48.4275 65.1776 48.4325C65.7344 48.7353 66.2326 49.0829 66.6723 49.4754C66.7575 49.5499 66.7582 49.6252 66.6746 49.7013C66.4646 49.893 66.2319 49.9333 65.9763 49.8223C64.4793 49.1673 63.2082 49.1354 61.6451 49.7858C60.2485 50.3669 58.8991 51.0659 57.5968 51.8829C57.4979 51.9453 57.5017 52.0008 57.6082 52.0495C58.1878 52.3172 58.7408 52.6831 59.2672 53.1471C59.3433 53.2156 59.3425 53.2818 59.2649 53.3457C59.1067 53.478 58.9394 53.5625 58.7629 53.599C58.6838 53.6157 58.6077 53.6081 58.5347 53.5761C57.3435 53.0543 56.2413 52.8938 55.2281 53.0946C53.4093 53.4575 51.0087 54.7445 49.3451 55.8901C49.3344 55.897 49.326 55.907 49.321 55.9188C49.3161 55.9305 49.3147 55.9435 49.3172 55.956C49.3196 55.9685 49.3258 55.98 49.3348 55.989C49.3439 55.998 49.3554 56.0041 49.3679 56.0065C50.4329 56.2392 51.3723 56.7512 52.1862 57.5423C52.2085 57.5632 52.2348 57.5792 52.2634 57.5894C52.2921 57.5996 52.3225 57.6038 52.3528 57.6016C52.4273 57.597 52.4905 57.5681 52.5422 57.5149C52.5696 57.4866 52.6037 57.4654 52.6414 57.4531C52.6792 57.4408 52.7195 57.4377 52.759 57.4441C52.9164 57.4692 53.0397 57.5582 53.2017 57.581C53.7463 57.6571 54.1213 57.6427 54.3267 57.5377C70.4285 49.3514 85.857 41.5447 100.612 34.1176C104.655 32.082 108.59 30.0792 112.419 28.1091C112.725 27.9524 112.785 27.7295 112.597 27.4405C112.263 26.9232 111.663 26.6676 110.799 26.6737C110.291 26.6768 109.774 26.8327 109.247 27.1415C109.232 27.1511 109.219 27.1643 109.209 27.1802C109.2 27.196 109.195 27.2138 109.194 27.232C109.193 27.2502 109.197 27.2681 109.205 27.2842C109.214 27.3003 109.226 27.314 109.241 27.3241C109.566 27.5492 109.842 27.8429 110.069 28.2049C110.08 28.2218 110.085 28.2416 110.084 28.2616C110.083 28.2815 110.076 28.3008 110.064 28.3168L110.026 28.3692C109.963 28.4529 109.894 28.459 109.818 28.3875C109.359 27.963 108.691 27.6458 108.068 27.8969C107.531 28.1144 107.039 28.3723 106.593 28.6705C106.517 28.7222 106.52 28.7678 106.603 28.8074L107.324 29.1497C107.403 29.1877 107.436 29.2508 107.424 29.3391C107.415 29.403 107.367 29.4509 107.28 29.4829C107.249 29.4946 107.215 29.4974 107.182 29.491C107.149 29.4845 107.118 29.4691 107.093 29.4463C106.609 29.0036 105.939 28.7549 105.293 28.9694C104.636 29.187 104.075 29.5041 103.611 29.921C103.602 29.9288 103.595 29.9385 103.59 29.9493C103.586 29.9602 103.584 29.9719 103.584 29.9837C103.585 29.9955 103.588 30.007 103.593 30.0175C103.598 30.0279 103.606 30.0371 103.615 30.0442C103.863 30.2344 104.097 30.4489 104.316 30.6877C104.346 30.7197 104.367 30.7562 104.378 30.7973C104.396 30.8597 104.401 30.8969 104.394 30.9091ZM112.723 28.2802C112.376 28.707 111.698 28.9489 111.199 29.193C111.107 29.2387 111.091 29.3041 111.148 29.3893C111.819 30.3584 112.413 31.4796 112.931 32.7529C112.979 32.8716 113.056 32.8944 113.161 32.8214C113.697 32.4494 114.259 32.4175 114.252 31.5937C114.24 30.3782 113.819 29.1535 112.99 27.9197C112.914 27.8056 112.863 27.8162 112.837 27.9516L112.812 28.0886C112.798 28.1601 112.769 28.2239 112.723 28.2802ZM110.256 34.2796C110.306 34.3983 110.387 34.4256 110.498 34.3618L112.237 33.3645C112.304 33.325 112.333 33.2664 112.324 33.1888C112.152 31.9291 111.657 30.7303 110.84 29.5924C110.792 29.5239 110.729 29.5087 110.653 29.5467L108.415 30.6832C108.332 30.7243 108.318 30.7828 108.371 30.8589C109.115 31.9117 109.743 33.0519 110.256 34.2796ZM107.353 35.9067C107.36 35.925 107.371 35.9417 107.385 35.9555C107.399 35.9693 107.416 35.9799 107.435 35.9866C107.453 35.9933 107.473 35.9959 107.493 35.9943C107.513 35.9928 107.532 35.987 107.55 35.9774L109.476 34.9186C109.558 34.8729 109.593 34.8029 109.581 34.7086C109.392 33.3196 108.872 32.0874 108.02 31.0118C107.973 30.9525 107.916 30.9395 107.849 30.973L105.471 32.1984C105.401 32.2334 105.389 32.2821 105.437 32.3445C106.191 33.3592 106.83 34.5466 107.353 35.9067ZM104.284 37.7277C104.289 37.74 104.297 37.751 104.306 37.7601C104.316 37.7691 104.328 37.7759 104.34 37.78C104.353 37.7842 104.366 37.7855 104.379 37.7839C104.393 37.7824 104.405 37.778 104.416 37.7711L106.596 36.5045C106.678 36.4574 106.711 36.3874 106.696 36.2946C106.47 34.9102 105.93 33.6726 105.078 32.5818C105.023 32.5118 104.957 32.4966 104.877 32.5362L102.253 33.8666C102.16 33.9122 102.145 33.9776 102.207 34.0628C102.976 35.1049 103.668 36.3265 104.284 37.7277ZM103.41 38.3461C103.491 38.299 103.526 38.229 103.515 38.1362C103.352 36.7198 102.786 35.4107 101.815 34.2089C101.763 34.1465 101.702 34.1336 101.63 34.1701L98.7777 35.6693C98.6849 35.718 98.6696 35.7842 98.732 35.8679C99.5824 37.0013 100.297 38.2548 100.877 39.6286C100.885 39.6462 100.896 39.662 100.91 39.675C100.924 39.688 100.94 39.6978 100.958 39.7038C100.977 39.7099 100.996 39.712 101.015 39.71C101.034 39.7081 101.052 39.7021 101.069 39.6925L103.41 38.3461ZM94.9097 37.86C95.8727 39.1471 96.5961 40.3794 97.178 41.8033C97.213 41.8916 97.2715 41.9121 97.3537 41.8649L100.04 40.3109C100.06 40.2985 100.077 40.2808 100.088 40.2598C100.099 40.2388 100.103 40.2154 100.101 40.1922C99.94 38.6542 99.3413 37.2698 98.3053 36.039C98.2475 35.9706 98.179 35.9569 98.0999 35.9979L94.953 37.6684C94.8648 37.7155 94.8503 37.7794 94.9097 37.86ZM94.2388 38.0015L90.7268 39.8659C90.6583 39.9024 90.6484 39.9511 90.6971 40.012C91.6921 41.2382 92.5098 42.5998 93.1503 44.0967C93.1599 44.1193 93.1743 44.1395 93.1923 44.156C93.2104 44.1726 93.2317 44.1851 93.2549 44.1927C93.278 44.2002 93.3025 44.2027 93.3265 44.1999C93.3506 44.1972 93.3738 44.1892 93.3944 44.1766L96.2218 42.5085C96.2964 42.4644 96.3291 42.3997 96.32 42.3145C96.1709 40.7262 95.5471 39.3015 94.4487 38.0403C94.3894 37.9719 94.3194 37.9589 94.2388 38.0015ZM86.2313 42.5838C87.2277 43.8221 88.0637 45.183 88.7392 46.6663C88.7491 46.6889 88.7638 46.7091 88.7822 46.7256C88.8007 46.7421 88.8224 46.7545 88.8461 46.762C88.8698 46.7696 88.8949 46.772 88.9197 46.7693C88.9445 46.7666 88.9685 46.7587 88.9902 46.7461L92.1188 44.9091C92.1918 44.8665 92.2245 44.8026 92.2169 44.7174C92.0389 42.9679 91.3703 41.4808 90.2111 40.2561C90.1532 40.1938 90.0863 40.1816 90.0102 40.2196L86.108 42.1936C86.0259 42.2346 86.0114 42.2932 86.0647 42.3693C86.1179 42.4408 86.1734 42.5123 86.2313 42.5838ZM84.0497 49.5598L87.5913 47.5129C87.6659 47.4703 87.7024 47.4064 87.7009 47.3212C87.678 45.6371 86.6626 43.9484 85.5832 42.6477C85.5238 42.5762 85.4531 42.5617 85.3709 42.6043L81.0146 44.8703C80.9401 44.9099 80.9309 44.9609 80.9872 45.0232C82.1754 46.3529 83.1369 47.8461 83.8717 49.5028C83.8789 49.5189 83.8894 49.5333 83.9025 49.545C83.9157 49.5568 83.9311 49.5657 83.9479 49.571C83.9647 49.5764 83.9825 49.5782 84 49.5763C84.0175 49.5743 84.0345 49.5687 84.0497 49.5598ZM80.184 45.1761L75.2914 47.684C75.2092 47.7251 75.1993 47.7791 75.2617 47.8461C76.6263 49.3081 77.692 50.8986 78.4588 52.6177C78.4641 52.6295 78.4718 52.64 78.4814 52.6485C78.491 52.6571 78.5023 52.6636 78.5146 52.6674C78.5269 52.6713 78.5399 52.6725 78.5527 52.6711C78.5655 52.6696 78.5778 52.6654 78.5889 52.6588L82.5481 50.322C82.6364 50.2703 82.6797 50.1935 82.6782 50.0915C82.6485 48.3504 81.5258 46.543 80.3574 45.2104C80.3087 45.1541 80.2509 45.1427 80.184 45.1761ZM74.4607 48.2249L68.8949 51.0888C68.8204 51.1268 68.8128 51.1762 68.8721 51.2371C70.3113 52.6976 71.4873 54.371 72.4001 56.2575C72.4068 56.2708 72.4162 56.2827 72.4276 56.2923C72.4391 56.3019 72.4524 56.3091 72.4667 56.3133C72.481 56.3176 72.496 56.3189 72.5109 56.3172C72.5257 56.3154 72.5401 56.3106 72.553 56.3031L76.9778 53.7496C77.0493 53.7085 77.0865 53.6461 77.0896 53.5625C77.1535 51.6022 75.903 49.6192 74.6182 48.2523C74.5985 48.2311 74.5725 48.2171 74.5441 48.2121C74.5156 48.2072 74.4864 48.2116 74.4607 48.2249ZM67.9068 51.552L61.6177 54.7719C61.6088 54.7767 61.6011 54.7834 61.5952 54.7916C61.5893 54.7998 61.5855 54.8092 61.5839 54.819C61.5824 54.8288 61.5832 54.8387 61.5862 54.848C61.5893 54.8573 61.5946 54.8656 61.6017 54.8723C63.2417 56.4454 64.5455 58.2238 65.513 60.2076C65.5229 60.228 65.5368 60.2461 65.554 60.2609C65.5711 60.2756 65.5912 60.2867 65.6128 60.2933C65.6345 60.3 65.6572 60.3021 65.6797 60.2995C65.7022 60.2969 65.7239 60.2897 65.7435 60.2784L70.7205 57.3985C70.7905 57.3589 70.8286 57.2988 70.8346 57.2182C71.0035 55.1553 69.6229 53.1289 68.1944 51.6022C68.1122 51.514 68.0164 51.4972 67.9068 51.552ZM56.1728 66.9304C56.1719 66.9368 56.1731 66.9434 56.1763 66.9491C56.1795 66.9547 56.1844 66.9592 56.1904 66.9618C56.1963 66.9644 56.203 66.965 56.2093 66.9634C56.2156 66.9619 56.2212 66.9583 56.2253 66.9532C57.237 65.6312 58.4016 64.5776 59.719 63.7926C61.0487 63 62.3403 62.2622 63.5939 61.5791C63.6821 61.5319 63.73 61.4582 63.7376 61.3577C63.927 59.0689 62.5693 56.9215 60.8235 55.3013C60.7551 55.239 60.679 55.2275 60.5953 55.2671C58.9812 56.0552 57.3488 56.8835 55.6982 57.7522C54.8767 58.1842 54.0795 58.4292 53.3067 58.487C53.2078 58.4946 53.191 58.5357 53.2564 58.6102C55.2692 60.8671 56.6749 63.9706 56.1728 66.9304ZM55.0136 63.6854C54.4089 60.5225 52.0652 57.4852 48.6628 57.3369C47.5081 57.2867 46.5192 57.527 45.6962 58.058C44.6723 58.7182 44.0037 59.5428 43.6903 60.5317C42.4147 64.5594 45.1189 68.0006 48.7313 69.4474C49.7034 69.8354 50.7166 69.8559 51.7709 69.509C54.4819 68.6145 55.527 66.3804 55.0136 63.6854Z"/>
    </symbol>
    <symbol id="channel" viewBox="0 0 123 80">
        <path d="M28.8313 61.4724C28.8316 61.4579 28.8283 61.4436 28.8217 61.4306C28.8151 61.4177 28.8054 61.4065 28.7934 61.3981C28.7814 61.3897 28.7675 61.3843 28.7529 61.3824C28.7383 61.3805 28.7234 61.3821 28.7094 61.387L23.5617 63.2442C23.4916 63.2701 23.4165 63.2799 23.3419 63.2727C23.2673 63.2655 23.1952 63.2415 23.1307 63.2025L9.21766 54.7228C9.15111 54.6819 9.09613 54.6248 9.05801 54.5569C9.01989 54.489 8.99991 54.4127 9 54.3352V27.79C9.00001 27.6878 9.03373 27.5883 9.09591 27.5072C9.1581 27.426 9.24527 27.3676 9.34391 27.3411C35.481 20.2513 61.5005 13.198 87.4024 6.18118C88.5299 5.87604 89.6509 5.95634 90.7653 6.42208C94.7732 8.09963 98.7478 9.77207 102.689 11.4394C102.849 11.5066 102.928 11.627 102.928 11.8008L102.924 14.3587C102.924 14.3884 102.914 14.4174 102.896 14.4415C102.878 14.4655 102.853 14.4833 102.824 14.4923L93.3403 17.3437C93.2648 17.3656 93.2271 17.4159 93.2271 17.4948V21.7062C93.2272 21.7185 93.2302 21.7307 93.2358 21.7417C93.2415 21.7527 93.2496 21.7622 93.2595 21.7695C93.2695 21.7767 93.281 21.7815 93.2932 21.7834C93.3053 21.7854 93.3177 21.7844 93.3294 21.7806C95.9153 20.9411 98.5047 20.1067 101.098 19.2775C102.028 18.9811 102.996 19.0161 104.001 19.3826C107.594 20.6922 111.173 21.9996 114.737 23.3049C114.912 23.3691 115 23.4962 115 23.686V25.957C115 26.1366 114.916 26.257 114.748 26.3183L106.328 29.3428C106.306 29.3512 106.287 29.3663 106.273 29.3858C106.259 29.4054 106.252 29.4286 106.252 29.4523C106.258 31.2364 106.258 33.1658 106.252 35.2405C106.252 35.7515 106.48 36.1325 106.936 36.3836C109.382 37.7254 111.881 39.1 114.432 40.5074C114.604 40.6022 114.747 40.7418 114.847 40.9117C114.947 41.0817 115 41.2756 115 41.4732V43.6501C115 43.6929 114.987 43.7347 114.963 43.7702C114.939 43.8057 114.905 43.8333 114.865 43.8494L42.0609 73.9599C41.987 73.9906 41.9072 74.0039 41.8276 73.999C41.748 73.9941 41.6707 73.971 41.6017 73.9314L29.0991 66.8467C29.0159 66.7995 28.9468 66.7309 28.8989 66.6481C28.8511 66.5653 28.8262 66.4713 28.827 66.3759L28.8313 61.4724ZM91.9712 7.89815C90.1559 7.13602 89.0806 6.60166 87.4656 7.04185C61.877 13.9959 36.3059 20.9441 10.7522 27.8864C10.61 27.9244 10.6056 27.9755 10.7391 28.0397L23.4376 34.1849C23.5204 34.2243 23.6141 34.2321 23.701 34.2068L100.922 11.8029C101.062 11.7621 101.065 11.7139 100.93 11.6584C97.986 10.4203 94.9996 9.1669 91.9712 7.89815ZM23.8621 35.0981C23.845 35.1029 23.83 35.1133 23.8194 35.1275C23.8088 35.1418 23.8031 35.1591 23.8033 35.177L23.8077 37.367C23.8079 37.3794 23.8109 37.3915 23.8165 37.4026C23.8221 37.4136 23.8302 37.4232 23.8401 37.4306C23.85 37.438 23.8614 37.443 23.8735 37.4453C23.8856 37.4475 23.8981 37.447 23.91 37.4436L102.204 14.063C102.22 14.0578 102.235 14.0473 102.245 14.0331C102.255 14.0189 102.26 14.0017 102.26 13.9842L102.265 12.4446C102.264 12.4322 102.261 12.42 102.256 12.409C102.25 12.398 102.242 12.3884 102.232 12.381C102.222 12.3736 102.211 12.3686 102.199 12.3663C102.187 12.364 102.174 12.3646 102.162 12.368L23.8621 35.0981ZM23.0458 38.2342L13.9736 35.1945C13.9153 35.1746 13.853 35.1691 13.7921 35.1782C13.7312 35.1874 13.6733 35.2111 13.6233 35.2473C13.5733 35.2835 13.5326 35.3311 13.5046 35.3863C13.4765 35.4415 13.462 35.5026 13.4621 35.5646C13.4563 40.7067 13.4578 45.754 13.4665 50.7063C13.4679 50.956 13.5513 51.183 13.7168 51.3874C13.7647 51.4458 13.8234 51.4633 13.8931 51.44L28.6964 46.5935C28.7269 46.5833 28.7534 46.5639 28.7722 46.5379C28.7909 46.512 28.801 46.4808 28.8009 46.4489L28.7987 43.28C28.7988 43.1958 28.8253 43.1138 28.8746 43.0457C28.9239 42.9777 28.9933 42.927 29.0729 42.9011L92.2999 22.1464C92.3207 22.1395 92.3388 22.1261 92.3517 22.108C92.3646 22.0899 92.3716 22.0681 92.3717 22.0456V17.9065C92.3717 17.8072 92.3245 17.7715 92.2302 17.7992L23.8055 38.2452C23.5577 38.3207 23.2922 38.3169 23.0458 38.2342ZM30.4834 43.5012L41.8781 48.7069C41.9419 48.7361 42.0065 48.739 42.0718 48.7156L113.043 23.7341C113.153 23.6962 113.153 23.6575 113.043 23.6181C109.961 22.5143 106.706 21.3492 103.279 20.1228C102.619 19.8863 101.844 19.9257 101.189 20.1403C77.6337 27.8857 54.0673 35.6361 30.4899 43.3917C30.3942 43.4238 30.392 43.4603 30.4834 43.5012ZM114.31 24.3298C114.31 24.318 114.307 24.3064 114.302 24.2959C114.296 24.2854 114.288 24.2764 114.279 24.2695C114.269 24.2627 114.258 24.2582 114.247 24.2565C114.235 24.2548 114.223 24.2559 114.212 24.2597L42.296 49.6048C42.2815 49.6098 42.2688 49.6192 42.2598 49.6318C42.2509 49.6443 42.246 49.6594 42.2459 49.6748L42.2307 51.5451C42.2303 51.5574 42.2329 51.5695 42.2382 51.5806C42.2436 51.5916 42.2516 51.6011 42.2615 51.6082C42.2714 51.6154 42.2829 51.62 42.295 51.6216C42.3071 51.6231 42.3194 51.6217 42.3308 51.6174L114.256 25.8344C114.27 25.829 114.282 25.8194 114.29 25.8069C114.299 25.7943 114.304 25.7795 114.303 25.7643L114.31 24.3298ZM22.8869 34.936L10.0056 28.6595C9.99204 28.6528 9.97703 28.6498 9.96196 28.6508C9.9469 28.6518 9.93227 28.6566 9.91945 28.6649C9.90663 28.6732 9.89603 28.6847 9.88864 28.6983C9.88125 28.7119 9.87731 28.7272 9.87719 28.7427V53.9541C9.87725 54.0029 9.88971 54.0508 9.91336 54.093C9.93702 54.1352 9.97105 54.1704 10.0121 54.195L22.728 61.9367C22.8615 62.017 22.9283 61.9791 22.9283 61.8228V60.2088C22.9284 60.1237 22.909 60.0396 22.8716 59.9629C22.8343 59.8863 22.78 59.819 22.7128 59.7664C19.667 57.3822 16.5827 54.9783 13.4599 52.5547C12.8679 52.097 12.5588 51.3677 12.5544 50.6253C12.5327 46.1329 12.5283 41.3586 12.5414 36.3026C12.5428 35.631 12.6234 35.1485 12.783 34.855C13.0935 34.2783 13.6391 34.1177 14.4198 34.3732C17.1551 35.2711 19.9724 36.2092 22.8717 37.1874C22.908 37.1991 22.9261 37.1859 22.9261 37.148L22.9283 35.0039C22.9283 34.9718 22.9145 34.9492 22.8869 34.936ZM105.253 29.7983L42.2002 52.4277C42.0067 52.4974 41.7959 52.502 41.5995 52.4408L33.337 49.8719C33.2889 49.8569 33.2379 49.8535 33.1882 49.862C33.1385 49.8705 33.0914 49.8906 33.0508 49.9209C33.0101 49.9511 32.9771 49.9906 32.9542 50.0361C32.9313 50.0816 32.9193 50.1319 32.9191 50.1829C32.9234 54.3673 32.922 58.5188 32.9147 62.6375C32.9147 62.8521 32.9517 63.05 33.0257 63.231C33.0408 63.2688 33.0699 63.2991 33.107 63.3155C33.144 63.3319 33.1859 63.333 33.2238 63.3186L105.462 36.2501C105.536 36.2223 105.561 36.1705 105.536 36.0946C105.436 35.7996 105.384 35.5033 105.381 35.2054C105.368 33.3556 105.37 31.5853 105.386 29.8946C105.387 29.7983 105.343 29.7662 105.253 29.7983ZM108.265 38.1138C107.357 37.6393 106.582 37.1596 105.941 36.6749C105.881 36.6311 105.817 36.6216 105.749 36.6464L33.448 63.6515C33.4346 63.6567 33.4229 63.6654 33.4139 63.6767C33.405 63.688 33.3993 63.7015 33.3973 63.7158C33.3953 63.7301 33.3971 63.7446 33.4026 63.758C33.4081 63.7713 33.417 63.783 33.4284 63.7917L41.8911 70.2456C41.9521 70.2924 42.0181 70.3011 42.0892 70.2719C43.076 69.8762 44.0903 69.4696 45.1322 69.0521C54.3843 65.3466 64.6631 61.1994 75.9686 56.6106C78.4253 55.6134 80.9102 54.6082 83.4235 53.595C91.2449 50.4399 99.416 47.1315 107.937 43.6698C109.889 42.877 111.812 42.0828 113.707 41.2871C113.775 41.2593 113.777 41.2265 113.714 41.1885C110.903 39.5665 109.087 38.5415 108.265 38.1138ZM114.169 41.7251C114.168 41.714 114.165 41.7032 114.16 41.6935C114.155 41.6838 114.147 41.6755 114.138 41.6693C114.129 41.6631 114.118 41.6591 114.107 41.6578C114.096 41.6565 114.085 41.6578 114.075 41.6616L42.2002 70.7669C42.1873 70.7721 42.1762 70.7812 42.1684 70.7929C42.1606 70.8047 42.1566 70.8185 42.1567 70.8326L42.1959 72.808C42.1961 72.8193 42.1991 72.8304 42.2045 72.8404C42.21 72.8503 42.2178 72.8588 42.2272 72.865C42.2366 72.8713 42.2474 72.8751 42.2586 72.8762C42.2699 72.8774 42.2812 72.8757 42.2917 72.8715L114.171 43.1858C114.184 43.1805 114.195 43.1715 114.203 43.1597C114.21 43.148 114.214 43.1342 114.214 43.1201L114.169 41.7251ZM29.7107 44.1954L29.6715 65.9466C29.6701 66.0883 29.7303 66.1934 29.8522 66.262L41.31 72.8189C41.3135 72.8207 41.3174 72.8216 41.3214 72.8216C41.3253 72.8215 41.3292 72.8204 41.3327 72.8185C41.3361 72.8165 41.339 72.8137 41.3412 72.8104C41.3433 72.807 41.3445 72.8032 41.3448 72.7992C41.3666 72.1962 41.3601 71.5881 41.3252 70.9749C41.3246 70.9605 41.3209 70.9464 41.3145 70.9335C41.3082 70.9207 41.2992 70.9094 41.2882 70.9005C38.4238 68.7104 35.6478 66.5905 32.9604 64.5406C32.3321 64.0618 32.0187 63.4413 32.0201 62.6791C32.0288 59.032 32.023 55.1083 32.0027 50.9078C31.9962 49.6639 32.4075 48.6324 33.9051 49.0967C36.3037 49.8442 38.7757 50.6165 41.3209 51.4137C41.3571 51.4254 41.3753 51.4122 41.3753 51.3743V49.4734C41.3753 49.4296 41.3557 49.3982 41.3165 49.3792L29.7978 44.1385C29.7884 44.134 29.778 44.132 29.7676 44.1327C29.7572 44.1334 29.7471 44.1368 29.7384 44.1425C29.7297 44.1482 29.7225 44.156 29.7177 44.1653C29.7128 44.1746 29.7104 44.185 29.7107 44.1954ZM14.1804 51.8189C14.1678 51.8232 14.1565 51.8309 14.1478 51.8411C14.1392 51.8513 14.1334 51.8637 14.1312 51.8769C14.129 51.8902 14.1303 51.9038 14.1352 51.9163C14.14 51.9288 14.1481 51.9398 14.1586 51.9481L23.553 59.2693C23.5625 59.2764 23.5737 59.2812 23.5854 59.2831C23.5971 59.285 23.6092 59.284 23.6205 59.2802L28.7682 57.526C28.7828 57.521 28.7954 57.5116 28.8044 57.499C28.8133 57.4865 28.8182 57.4714 28.8183 57.456L28.8096 47.1038C28.8095 47.0919 28.8067 47.0803 28.8012 47.0698C28.7958 47.0593 28.788 47.0503 28.7785 47.0435C28.7689 47.0366 28.7578 47.0322 28.7462 47.0305C28.7346 47.0288 28.7227 47.0299 28.7116 47.0337L14.1804 51.8189ZM28.7747 60.3183C28.7889 60.3129 28.801 60.3033 28.8096 60.2908C28.8182 60.2783 28.8227 60.2634 28.8226 60.2482L28.8161 58.056C28.816 58.0442 28.8132 58.0326 28.8078 58.0221C28.8024 58.0116 28.7945 58.0026 28.785 57.9957C28.7754 57.9889 28.7644 57.9844 28.7527 57.9827C28.7411 57.981 28.7293 57.9821 28.7181 57.9859L23.849 59.7095C23.8345 59.7145 23.8218 59.7239 23.8129 59.7365C23.8039 59.749 23.799 59.7641 23.799 59.7796L23.8098 62.0572C23.8098 62.0693 23.8126 62.0812 23.8182 62.0919C23.8237 62.1026 23.8317 62.1118 23.8416 62.1187C23.8514 62.1256 23.8628 62.13 23.8747 62.1315C23.8866 62.133 23.8987 62.1315 23.91 62.1273L28.7747 60.3183Z" fill="#003B81"/>
    </symbol>
</svg>