<svg width="64" height="64" viewBox="0 0 64 64" fill="none" xmlns="http://www.w3.org/2000/svg">
<rect width="64" height="64" rx="15" fill="#003B81"/>
<path d="M35.8267 31.5444C35.077 31.2607 35.077 30.1772 35.0306 29.4227C34.8431 26.7351 35.7803 22.632 34.6557 20.8875C33.8595 19.8493 30.0165 19.9444 27.6745 20.0862C27.0177 20.1813 26.2215 20.3216 25.6592 20.6053C25.097 20.889 24.5347 21.3598 24.5347 21.7839C24.5347 22.3966 25.9411 22.303 26.4554 23.1043C27.0177 23.9539 27.0177 25.7919 27.0177 27.3009C27.0177 29.0454 26.7358 31.3573 26.0341 31.4508C24.956 31.4976 24.3473 30.4126 23.785 29.6113C22.6604 28.0555 21.5359 26.1209 20.6917 24.2346C20.2704 23.2446 20.035 22.1596 19.4262 21.7356C18.4891 21.0746 16.8022 21.0278 15.1619 21.0746C13.6625 21.1214 11.5063 20.9328 11.085 21.8292C10.7566 22.8191 11.4598 23.7622 11.8347 24.5651C13.7554 28.7617 15.8171 32.4408 18.3481 35.9297C20.6917 39.1832 22.8928 41.7772 27.2036 43.1444C28.4227 43.5217 33.7636 44.6067 34.8416 43.1444C35.2165 42.5785 35.1235 41.3049 35.3109 40.3617C35.4984 39.4186 35.7323 38.4754 36.6229 38.4286C37.3726 38.3819 37.794 39.0413 38.2633 39.5137C38.7791 40.0328 39.2004 40.4568 39.5753 40.9291C40.4659 41.8255 41.403 43.0509 42.5276 43.5232C44.0735 44.1841 46.4636 43.9955 48.7127 43.9004C50.5405 43.8537 51.8524 43.4764 51.9934 42.3914C52.0878 41.5418 51.1492 40.3165 50.5869 39.6087C49.1805 37.8643 48.5252 37.3452 46.9314 35.741C46.2281 35.0333 45.3375 34.2788 45.3375 33.4307C45.291 32.9116 45.7124 32.4408 46.0872 31.9216C47.7276 29.4694 49.3679 27.725 50.8673 25.1777C51.2887 24.4232 52.2738 22.6787 51.8989 21.8292C51.4776 20.886 49.134 21.1682 47.6811 21.1682C45.8068 21.1682 43.3703 21.0263 42.901 21.4036C42.0103 22.0163 41.6355 23.0077 41.2141 23.9509C40.277 26.1209 39.0115 28.3362 37.6995 29.9871C37.2302 30.5529 36.341 31.7315 35.8252 31.5429L35.8267 31.5444Z" fill="white"/>
</svg>
